<?xml version="1.0" encoding="UTF-8" standalone="no"?>
<!-- Created with Inkscape (http://www.inkscape.org/) -->

<svg
   version="1.1"
   id="svg306"
   width="1200"
   height="1200"
   viewBox="0 0 1200 1200"
   sodipodi:docname="purple-calla-lily-1987267087.jpg"
   inkscape:export-filename="calla.svg"
   inkscape:export-xdpi="8"
   inkscape:export-ydpi="8"
   xmlns:inkscape="http://www.inkscape.org/namespaces/inkscape"
   xmlns:sodipodi="http://sodipodi.sourceforge.net/DTD/sodipodi-0.dtd"
   xmlns="http://www.w3.org/2000/svg"
   xmlns:svg="http://www.w3.org/2000/svg">
  <defs
     id="defs310" />
  <sodipodi:namedview
     id="namedview308"
     pagecolor="#ffffff"
     bordercolor="#000000"
     borderopacity="0.25"
     inkscape:showpageshadow="2"
     inkscape:pageopacity="0.0"
     inkscape:pagecheckerboard="0"
     inkscape:deskcolor="#d1d1d1"
     showgrid="false"
     showguides="true" />
  <g
     inkscape:groupmode="layer"
     inkscape:label="Image"
     id="g312">
    <path
       style="fill:#000000;fill-opacity:1;stroke:#000000;stroke-width:20;stroke-dasharray:none;stroke-opacity:1"
       d="m 282.0555,766.5942 c -6.74648,61.90306 -14.08222,143.29723 0.51889,214.82576 15.33154,75.10674 47.65701,126.81164 88.64192,136.09284 53.78511,9.2847 56.08463,-88.6009 47.40104,-136.49412 -29.82626,-138.93024 -82.54084,-265.91411 -140.81238,-392.48527 -22.29154,-48.41926 20.49794,51.44287 -2.44977,2.49872 -10.22342,-31.1131 29.49649,62.37999 6.7003,175.56207 z"
       id="path2172"
       sodipodi:nodetypes="csccscc" />
    <path
       style="fill:#000000;fill-opacity:1;stroke:#000000;stroke-width:20;stroke-dasharray:none;stroke-opacity:1"
       d="M 618.09561,619.99905 C 1007.843,486.7453 688.50421,320.54278 523.33684,324.00614 c -86.90809,4.12583 -370.88851,2.98149 -238.95811,283.72902 -0.19411,0.60847 -103.94102,-208.0862 -119.13564,-255.47497 -22.94597,-71.56357 -11.14923,-153.84089 76.44029,-198.80402 264.67944,-97.145334 545.87983,-38.58456 804.02372,45.56525 19.4041,335.72993 -263.62879,366.19991 -263.62879,366.19991 -95.0529,24.09951 -171.4865,56.10006 -283.20979,108.30637 -28.24883,14.19649 -147.78867,70.39306 -129.6783,124.78353 97.86367,287.47287 51.99691,263.25247 51.99691,263.25247 178.48776,-41.7942 180.44638,-147.58445 197.37068,-199.52929 19.4351,-72.91506 -8.197,-235.07869 80.7456,-272.89871"
       id="path2247"
       sodipodi:nodetypes="cccscccccccc" />
  </g>
</svg>
