<svg xmlns="http://www.w3.org/2000/svg" height="24px" viewBox="0 -960 960 960" width="24px" fill="#5f6368"><path d="M480.07-68q-85.48 0-160.69-32.45-75.21-32.44-130.84-88.06-55.63-55.62-88.09-130.81Q68-394.51 68-480q0-85.99 31.77-160.53 31.77-74.55 88.46-131.24l61.15 61.15q-44.94 44.55-70.16 103.16Q154-548.86 154-480.33 154-343 248.74-248.5 343.49-154 480-154t231.26-94.74Q806-343.49 806-480q0-69-25.22-127.53-25.22-58.54-70.16-103.09l61.15-61.15q56.69 56.69 88.46 131.24Q892-565.99 892-479.83q0 85.12-31.92 160.23-31.92 75.11-87.7 130.84-55.78 55.73-131.18 88.25Q565.8-68 480.07-68ZM437-427v-465h86v465h-86Z"/></svg>