<?xml version="1.0" encoding="UTF-8"?>
<?xml-stylesheet href="../ldoc.css" type="text/css"?>
<svg xmlns="http://www.w3.org/2000/svg" xmlns:xlink="http://www.w3.org/1999/xlink" width="110pt" height="110pt" viewBox="0 0 110 110" version="1.1">
<defs>
<clipPath id="clip1">
  <path d="M 0 0 L 110 0 L 110 21 L 0 21 Z M 0 0 "/>
</clipPath>
<clipPath id="clip2">
  <path d="M 0 26 L 110 26 L 110 48 L 0 48 Z M 0 26 "/>
</clipPath>
<clipPath id="clip3">
  <path d="M 0 53 L 110 53 L 110 74 L 0 74 Z M 0 53 "/>
</clipPath>
<clipPath id="clip4">
  <path d="M 0 79 L 110 79 L 110 100 L 0 100 Z M 0 79 "/>
</clipPath>
</defs>
<g id="surface2">
<g clip-path="url(#clip1)" clip-rule="nonzero">
<rect x="0" y="0" width="110" height="110" style="fill:rgb(38.039216%,50.588235%,100%);fill-opacity:0.490196;stroke:none;"/>
</g>
<path style=" stroke:none;fill-rule:nonzero;fill:rgb(66.666667%,0%,100%);fill-opacity:0.490196;" d="M 1 16.832031 L 2 16.832031 L 2 20 L 1 20 Z M 2 20 L 3 20 Z M 3 20 L 4 20 Z M 4 19.367188 L 5 19.367188 L 5 20 L 4 20 Z M 5 15.566406 L 6 15.566406 L 6 20 L 5 20 Z M 6 9.234375 L 7 9.234375 L 7 20 L 6 20 Z M 7 6.066406 L 8 6.066406 L 8 20 L 7 20 Z M 8 20 L 9 20 Z M 9 20 L 10 20 Z M 10 19.367188 L 11 19.367188 L 11 20 L 10 20 Z M 11 18.101562 L 12 18.101562 L 12 20 L 11 20 Z M 12 20 L 13 20 Z M 13 20 L 14 20 Z M 14 11.132812 L 15 11.132812 L 15 20 L 14 20 Z M 15 9.234375 L 16 9.234375 L 16 20 L 15 20 Z M 16 9.234375 L 17 9.234375 L 17 20 L 16 20 Z M 17 1.632812 L 18 1.632812 L 18 20 L 17 20 Z M 18 7.964844 L 19 7.964844 L 19 20 L 18 20 Z M 19 10.5 L 20 10.5 L 20 20 L 19 20 Z M 20 13.035156 L 21 13.035156 L 21 20 L 20 20 Z M 21 17.464844 L 22 17.464844 L 22 20 L 21 20 Z M 22 16.199219 L 23 16.199219 L 23 20 L 22 20 Z M 23 16.832031 L 24 16.832031 L 24 20 L 23 20 Z M 24 18.101562 L 25 18.101562 L 25 20 L 24 20 Z M 25 16.832031 L 26 16.832031 L 26 20 L 25 20 Z M 26 20 L 27 20 Z M 27 20 L 28 20 Z M 28 19.367188 L 29 19.367188 L 29 20 L 28 20 Z M 29 15.566406 L 30 15.566406 L 30 20 L 29 20 Z M 30 9.234375 L 31 9.234375 L 31 20 L 30 20 Z M 31 6.066406 L 32 6.066406 L 32 20 L 31 20 Z M 32 20 L 33 20 Z M 33 20 L 34 20 Z M 34 19.367188 L 35 19.367188 L 35 20 L 34 20 Z M 35 18.101562 L 36 18.101562 L 36 20 L 35 20 Z M 36 20 L 37 20 Z M 37 20 L 38 20 Z M 38 11.132812 L 39 11.132812 L 39 20 L 38 20 Z M 39 9.234375 L 40 9.234375 L 40 20 L 39 20 Z M 40 9.234375 L 41 9.234375 L 41 20 L 40 20 Z M 41 1.632812 L 42 1.632812 L 42 20 L 41 20 Z M 42 7.964844 L 43 7.964844 L 43 20 L 42 20 Z M 43 10.5 L 44 10.5 L 44 20 L 43 20 Z M 44 13.035156 L 45 13.035156 L 45 20 L 44 20 Z M 45 17.464844 L 46 17.464844 L 46 20 L 45 20 Z M 46 16.199219 L 47 16.199219 L 47 20 L 46 20 Z M 47 16.832031 L 48 16.832031 L 48 20 L 47 20 Z M 48 18.101562 L 49 18.101562 L 49 20 L 48 20 Z M 49 16.832031 L 50 16.832031 L 50 20 L 49 20 Z M 50 20 L 51 20 Z M 51 20 L 52 20 Z M 52 19.367188 L 53 19.367188 L 53 20 L 52 20 Z M 53 15.566406 L 54 15.566406 L 54 20 L 53 20 Z M 54 9.234375 L 55 9.234375 L 55 20 L 54 20 Z M 55 6.066406 L 56 6.066406 L 56 20 L 55 20 Z M 56 20 L 57 20 Z M 57 20 L 58 20 Z M 58 19.367188 L 59 19.367188 L 59 20 L 58 20 Z M 59 18.101562 L 60 18.101562 L 60 20 L 59 20 Z M 60 20 L 61 20 Z M 61 20 L 62 20 Z M 62 11.132812 L 63 11.132812 L 63 20 L 62 20 Z M 63 9.234375 L 64 9.234375 L 64 20 L 63 20 Z M 64 9.234375 L 65 9.234375 L 65 20 L 64 20 Z M 65 1.632812 L 66 1.632812 L 66 20 L 65 20 Z M 66 7.964844 L 67 7.964844 L 67 20 L 66 20 Z M 67 10.5 L 68 10.5 L 68 20 L 67 20 Z M 68 13.035156 L 69 13.035156 L 69 20 L 68 20 Z M 69 17.464844 L 70 17.464844 L 70 20 L 69 20 Z M 70 16.199219 L 71 16.199219 L 71 20 L 70 20 Z M 71 16.832031 L 72 16.832031 L 72 20 L 71 20 Z M 72 18.101562 L 73 18.101562 L 73 20 L 72 20 Z M 73 16.832031 L 74 16.832031 L 74 20 L 73 20 Z M 74 20 L 75 20 Z M 75 20 L 76 20 Z M 76 19.367188 L 77 19.367188 L 77 20 L 76 20 Z M 77 15.566406 L 78 15.566406 L 78 20 L 77 20 Z M 78 9.234375 L 79 9.234375 L 79 20 L 78 20 Z M 79 6.066406 L 80 6.066406 L 80 20 L 79 20 Z M 80 20 L 81 20 Z M 81 20 L 82 20 Z M 82 19.367188 L 83 19.367188 L 83 20 L 82 20 Z M 83 18.101562 L 84 18.101562 L 84 20 L 83 20 Z M 84 20 L 85 20 Z M 85 20 L 86 20 Z M 86 11.132812 L 87 11.132812 L 87 20 L 86 20 Z M 87 9.234375 L 88 9.234375 L 88 20 L 87 20 Z M 88 9.234375 L 89 9.234375 L 89 20 L 88 20 Z M 89 1.632812 L 90 1.632812 L 90 20 L 89 20 Z M 90 7.964844 L 91 7.964844 L 91 20 L 90 20 Z M 91 10.5 L 92 10.5 L 92 20 L 91 20 Z M 92 13.035156 L 93 13.035156 L 93 20 L 92 20 Z M 93 17.464844 L 94 17.464844 L 94 20 L 93 20 Z M 94 16.199219 L 95 16.199219 L 95 20 L 94 20 Z M 95 16.832031 L 96 16.832031 L 96 20 L 95 20 Z M 96 18.101562 L 97 18.101562 L 97 20 L 96 20 Z M 97 16.832031 L 98 16.832031 L 98 20 L 97 20 Z M 98 20 L 99 20 Z M 99 20 L 100 20 Z M 100 19.367188 L 101 19.367188 L 101 20 L 100 20 Z M 101 15.566406 L 102 15.566406 L 102 20 L 101 20 Z M 102 9.234375 L 103 9.234375 L 103 20 L 102 20 Z M 103 6.066406 L 104 6.066406 L 104 20 L 103 20 Z M 104 20 L 105 20 Z M 105 20 L 106 20 Z M 106 19.367188 L 107 19.367188 L 107 20 L 106 20 Z M 107 18.101562 L 108 18.101562 L 108 20 L 107 20 Z M 108 20 L 109 20 Z M 108 20 "/>
<path style="fill:none;stroke-width:1;stroke-linecap:butt;stroke-linejoin:miter;stroke:rgb(38.039216%,50.588235%,100%);stroke-opacity:1;stroke-miterlimit:10;" d="M 0.5 0.5 L 109.5 0.5 L 109.5 20.5 L 0.5 20.5 Z M 0.5 0.5 "/>
<g clip-path="url(#clip2)" clip-rule="nonzero">
<rect x="0" y="0" width="110" height="110" style="fill:rgb(38.039216%,50.588235%,100%);fill-opacity:0.490196;stroke:none;"/>
</g>
<path style=" stroke:none;fill-rule:nonzero;fill:rgb(66.666667%,0%,100%);fill-opacity:0.490196;" d="M 2 43 L 3 43 L 3 46 L 2 46 Z M 3 46 L 4 46 Z M 4 46 L 5 46 Z M 5 45.398438 L 6 45.398438 L 6 46 L 5 46 Z M 6 41.800781 L 7 41.800781 L 7 46 L 6 46 Z M 7 35.800781 L 8 35.800781 L 8 46 L 7 46 Z M 8 32.800781 L 9 32.800781 L 9 46 L 8 46 Z M 9 46 L 10 46 Z M 10 46 L 11 46 Z M 11 45.398438 L 12 45.398438 L 12 46 L 11 46 Z M 12 44.199219 L 13 44.199219 L 13 46 L 12 46 Z M 13 46 L 14 46 Z M 14 46 L 15 46 Z M 15 37.601562 L 16 37.601562 L 16 46 L 15 46 Z M 16 35.800781 L 17 35.800781 L 17 46 L 16 46 Z M 17 35.800781 L 18 35.800781 L 18 46 L 17 46 Z M 18 28.601562 L 19 28.601562 L 19 46 L 18 46 Z M 19 34.601562 L 20 34.601562 L 20 46 L 19 46 Z M 20 37 L 21 37 L 21 46 L 20 46 Z M 21 39.398438 L 22 39.398438 L 22 46 L 21 46 Z M 22 43.601562 L 23 43.601562 L 23 46 L 22 46 Z M 23 42.398438 L 24 42.398438 L 24 46 L 23 46 Z M 24 43 L 25 43 L 25 46 L 24 46 Z M 25 44.199219 L 26 44.199219 L 26 46 L 25 46 Z M 26 43 L 27 43 L 27 46 L 26 46 Z M 27 46 L 28 46 Z M 28 46 L 29 46 Z M 29 45.398438 L 30 45.398438 L 30 46 L 29 46 Z M 30 41.800781 L 31 41.800781 L 31 46 L 30 46 Z M 31 35.800781 L 32 35.800781 L 32 46 L 31 46 Z M 32 32.800781 L 33 32.800781 L 33 46 L 32 46 Z M 33 46 L 34 46 Z M 34 46 L 35 46 Z M 35 45.398438 L 36 45.398438 L 36 46 L 35 46 Z M 36 44.199219 L 37 44.199219 L 37 46 L 36 46 Z M 37 46 L 38 46 Z M 38 46 L 39 46 Z M 39 37.601562 L 40 37.601562 L 40 46 L 39 46 Z M 40 35.800781 L 41 35.800781 L 41 46 L 40 46 Z M 41 35.800781 L 42 35.800781 L 42 46 L 41 46 Z M 42 28.601562 L 43 28.601562 L 43 46 L 42 46 Z M 43 34.601562 L 44 34.601562 L 44 46 L 43 46 Z M 44 37 L 45 37 L 45 46 L 44 46 Z M 45 39.398438 L 46 39.398438 L 46 46 L 45 46 Z M 46 43.601562 L 47 43.601562 L 47 46 L 46 46 Z M 47 42.398438 L 48 42.398438 L 48 46 L 47 46 Z M 48 43 L 49 43 L 49 46 L 48 46 Z M 49 44.199219 L 50 44.199219 L 50 46 L 49 46 Z M 50 43 L 51 43 L 51 46 L 50 46 Z M 51 46 L 52 46 Z M 52 46 L 53 46 Z M 53 45.398438 L 54 45.398438 L 54 46 L 53 46 Z M 54 41.800781 L 55 41.800781 L 55 46 L 54 46 Z M 55 35.800781 L 56 35.800781 L 56 46 L 55 46 Z M 56 32.800781 L 57 32.800781 L 57 46 L 56 46 Z M 57 46 L 58 46 Z M 58 46 L 59 46 Z M 59 45.398438 L 60 45.398438 L 60 46 L 59 46 Z M 60 44.199219 L 61 44.199219 L 61 46 L 60 46 Z M 61 46 L 62 46 Z M 62 46 L 63 46 Z M 63 37.601562 L 64 37.601562 L 64 46 L 63 46 Z M 64 35.800781 L 65 35.800781 L 65 46 L 64 46 Z M 65 35.800781 L 66 35.800781 L 66 46 L 65 46 Z M 66 28.601562 L 67 28.601562 L 67 46 L 66 46 Z M 67 34.601562 L 68 34.601562 L 68 46 L 67 46 Z M 68 37 L 69 37 L 69 46 L 68 46 Z M 69 39.398438 L 70 39.398438 L 70 46 L 69 46 Z M 70 43.601562 L 71 43.601562 L 71 46 L 70 46 Z M 71 42.398438 L 72 42.398438 L 72 46 L 71 46 Z M 72 43 L 73 43 L 73 46 L 72 46 Z M 73 44.199219 L 74 44.199219 L 74 46 L 73 46 Z M 74 43 L 75 43 L 75 46 L 74 46 Z M 75 46 L 76 46 Z M 76 46 L 77 46 Z M 77 45.398438 L 78 45.398438 L 78 46 L 77 46 Z M 78 41.800781 L 79 41.800781 L 79 46 L 78 46 Z M 79 35.800781 L 80 35.800781 L 80 46 L 79 46 Z M 80 32.800781 L 81 32.800781 L 81 46 L 80 46 Z M 81 46 L 82 46 Z M 82 46 L 83 46 Z M 83 45.398438 L 84 45.398438 L 84 46 L 83 46 Z M 84 44.199219 L 85 44.199219 L 85 46 L 84 46 Z M 85 46 L 86 46 Z M 86 46 L 87 46 Z M 87 37.601562 L 88 37.601562 L 88 46 L 87 46 Z M 88 35.800781 L 89 35.800781 L 89 46 L 88 46 Z M 89 35.800781 L 90 35.800781 L 90 46 L 89 46 Z M 90 28.601562 L 91 28.601562 L 91 46 L 90 46 Z M 91 34.601562 L 92 34.601562 L 92 46 L 91 46 Z M 92 37 L 93 37 L 93 46 L 92 46 Z M 93 39.398438 L 94 39.398438 L 94 46 L 93 46 Z M 94 43.601562 L 95 43.601562 L 95 46 L 94 46 Z M 95 42.398438 L 96 42.398438 L 96 46 L 95 46 Z M 96 43 L 97 43 L 97 46 L 96 46 Z M 97 44.199219 L 98 44.199219 L 98 46 L 97 46 Z M 98 43 L 99 43 L 99 46 L 98 46 Z M 99 46 L 100 46 Z M 100 46 L 101 46 Z M 101 45.398438 L 102 45.398438 L 102 46 L 101 46 Z M 102 41.800781 L 103 41.800781 L 103 46 L 102 46 Z M 103 35.800781 L 104 35.800781 L 104 46 L 103 46 Z M 104 32.800781 L 105 32.800781 L 105 46 L 104 46 Z M 105 46 L 106 46 Z M 106 46 L 107 46 Z M 107 45.398438 L 108 45.398438 L 108 46 L 107 46 Z M 107 45.398438 "/>
<path style="fill:none;stroke-width:2;stroke-linecap:butt;stroke-linejoin:miter;stroke:rgb(38.039216%,50.588235%,100%);stroke-opacity:1;stroke-miterlimit:10;" d="M 1 1 L 109 1 L 109 21 L 1 21 Z M 1 1 " transform="matrix(1,0,0,1,0,26)"/>
<g clip-path="url(#clip3)" clip-rule="nonzero">
<rect x="0" y="0" width="110" height="110" style="fill:rgb(38.039216%,50.588235%,100%);fill-opacity:0.490196;stroke:none;"/>
</g>
<path style=" stroke:none;fill-rule:nonzero;fill:rgb(66.666667%,0%,100%);fill-opacity:0.490196;" d="M 4 67.832031 L 5 67.832031 L 5 70 L 4 70 Z M 5 70 L 6 70 Z M 6 70 L 7 70 Z M 7 69.566406 L 8 69.566406 L 8 70 L 7 70 Z M 8 66.964844 L 9 66.964844 L 9 70 L 8 70 Z M 9 62.632812 L 10 62.632812 L 10 70 L 9 70 Z M 10 60.464844 L 11 60.464844 L 11 70 L 10 70 Z M 11 70 L 12 70 Z M 12 70 L 13 70 Z M 13 69.566406 L 14 69.566406 L 14 70 L 13 70 Z M 14 68.699219 L 15 68.699219 L 15 70 L 14 70 Z M 15 70 L 16 70 Z M 16 70 L 17 70 Z M 17 63.933594 L 18 63.933594 L 18 70 L 17 70 Z M 18 62.632812 L 19 62.632812 L 19 70 L 18 70 Z M 19 62.632812 L 20 62.632812 L 20 70 L 19 70 Z M 20 57.433594 L 21 57.433594 L 21 70 L 20 70 Z M 21 61.765625 L 22 61.765625 L 22 70 L 21 70 Z M 22 63.5 L 23 63.5 L 23 70 L 22 70 Z M 23 65.234375 L 24 65.234375 L 24 70 L 23 70 Z M 24 68.265625 L 25 68.265625 L 25 70 L 24 70 Z M 25 67.398438 L 26 67.398438 L 26 70 L 25 70 Z M 26 67.832031 L 27 67.832031 L 27 70 L 26 70 Z M 27 68.699219 L 28 68.699219 L 28 70 L 27 70 Z M 28 67.832031 L 29 67.832031 L 29 70 L 28 70 Z M 29 70 L 30 70 Z M 30 70 L 31 70 Z M 31 69.566406 L 32 69.566406 L 32 70 L 31 70 Z M 32 66.964844 L 33 66.964844 L 33 70 L 32 70 Z M 33 62.632812 L 34 62.632812 L 34 70 L 33 70 Z M 34 60.464844 L 35 60.464844 L 35 70 L 34 70 Z M 35 70 L 36 70 Z M 36 70 L 37 70 Z M 37 69.566406 L 38 69.566406 L 38 70 L 37 70 Z M 38 68.699219 L 39 68.699219 L 39 70 L 38 70 Z M 39 70 L 40 70 Z M 40 70 L 41 70 Z M 41 63.933594 L 42 63.933594 L 42 70 L 41 70 Z M 42 62.632812 L 43 62.632812 L 43 70 L 42 70 Z M 43 62.632812 L 44 62.632812 L 44 70 L 43 70 Z M 44 57.433594 L 45 57.433594 L 45 70 L 44 70 Z M 45 61.765625 L 46 61.765625 L 46 70 L 45 70 Z M 46 63.5 L 47 63.5 L 47 70 L 46 70 Z M 47 65.234375 L 48 65.234375 L 48 70 L 47 70 Z M 48 68.265625 L 49 68.265625 L 49 70 L 48 70 Z M 49 67.398438 L 50 67.398438 L 50 70 L 49 70 Z M 50 67.832031 L 51 67.832031 L 51 70 L 50 70 Z M 51 68.699219 L 52 68.699219 L 52 70 L 51 70 Z M 52 67.832031 L 53 67.832031 L 53 70 L 52 70 Z M 53 70 L 54 70 Z M 54 70 L 55 70 Z M 55 69.566406 L 56 69.566406 L 56 70 L 55 70 Z M 56 66.964844 L 57 66.964844 L 57 70 L 56 70 Z M 57 62.632812 L 58 62.632812 L 58 70 L 57 70 Z M 58 60.464844 L 59 60.464844 L 59 70 L 58 70 Z M 59 70 L 60 70 Z M 60 70 L 61 70 Z M 61 69.566406 L 62 69.566406 L 62 70 L 61 70 Z M 62 68.699219 L 63 68.699219 L 63 70 L 62 70 Z M 63 70 L 64 70 Z M 64 70 L 65 70 Z M 65 63.933594 L 66 63.933594 L 66 70 L 65 70 Z M 66 62.632812 L 67 62.632812 L 67 70 L 66 70 Z M 67 62.632812 L 68 62.632812 L 68 70 L 67 70 Z M 68 57.433594 L 69 57.433594 L 69 70 L 68 70 Z M 69 61.765625 L 70 61.765625 L 70 70 L 69 70 Z M 70 63.5 L 71 63.5 L 71 70 L 70 70 Z M 71 65.234375 L 72 65.234375 L 72 70 L 71 70 Z M 72 68.265625 L 73 68.265625 L 73 70 L 72 70 Z M 73 67.398438 L 74 67.398438 L 74 70 L 73 70 Z M 74 67.832031 L 75 67.832031 L 75 70 L 74 70 Z M 75 68.699219 L 76 68.699219 L 76 70 L 75 70 Z M 76 67.832031 L 77 67.832031 L 77 70 L 76 70 Z M 77 70 L 78 70 Z M 78 70 L 79 70 Z M 79 69.566406 L 80 69.566406 L 80 70 L 79 70 Z M 80 66.964844 L 81 66.964844 L 81 70 L 80 70 Z M 81 62.632812 L 82 62.632812 L 82 70 L 81 70 Z M 82 60.464844 L 83 60.464844 L 83 70 L 82 70 Z M 83 70 L 84 70 Z M 84 70 L 85 70 Z M 85 69.566406 L 86 69.566406 L 86 70 L 85 70 Z M 86 68.699219 L 87 68.699219 L 87 70 L 86 70 Z M 87 70 L 88 70 Z M 88 70 L 89 70 Z M 89 63.933594 L 90 63.933594 L 90 70 L 89 70 Z M 90 62.632812 L 91 62.632812 L 91 70 L 90 70 Z M 91 62.632812 L 92 62.632812 L 92 70 L 91 70 Z M 92 57.433594 L 93 57.433594 L 93 70 L 92 70 Z M 93 61.765625 L 94 61.765625 L 94 70 L 93 70 Z M 94 63.5 L 95 63.5 L 95 70 L 94 70 Z M 95 65.234375 L 96 65.234375 L 96 70 L 95 70 Z M 96 68.265625 L 97 68.265625 L 97 70 L 96 70 Z M 97 67.398438 L 98 67.398438 L 98 70 L 97 70 Z M 98 67.832031 L 99 67.832031 L 99 70 L 98 70 Z M 99 68.699219 L 100 68.699219 L 100 70 L 99 70 Z M 100 67.832031 L 101 67.832031 L 101 70 L 100 70 Z M 101 70 L 102 70 Z M 102 70 L 103 70 Z M 103 69.566406 L 104 69.566406 L 104 70 L 103 70 Z M 104 66.964844 L 105 66.964844 L 105 70 L 104 70 Z M 105 62.632812 L 106 62.632812 L 106 70 L 105 70 Z M 105 62.632812 "/>
<path style="fill:none;stroke-width:4;stroke-linecap:butt;stroke-linejoin:miter;stroke:rgb(38.039216%,50.588235%,100%);stroke-opacity:1;stroke-miterlimit:10;" d="M 2 2 L 108 2 L 108 19 L 2 19 Z M 2 2 " transform="matrix(1,0,0,1,0,53)"/>
<g clip-path="url(#clip4)" clip-rule="nonzero">
<rect x="0" y="0" width="110" height="110" style="fill:rgb(38.039216%,50.588235%,100%);fill-opacity:0.490196;stroke:none;"/>
</g>
<path style=" stroke:none;fill-rule:nonzero;fill:rgb(66.666667%,0%,100%);fill-opacity:0.490196;" d="M 10 89.832031 L 11 89.832031 L 11 90 L 10 90 Z M 11 90 L 12 90 Z M 12 90 L 13 90 Z M 13 89.964844 L 14 89.964844 L 14 90 L 13 90 Z M 14 89.765625 L 15 89.765625 L 15 90 L 14 90 Z M 15 89.433594 L 16 89.433594 L 16 90 L 15 90 Z M 16 89.265625 L 17 89.265625 L 17 90 L 16 90 Z M 17 90 L 18 90 Z M 18 90 L 19 90 Z M 19 89.964844 L 20 89.964844 L 20 90 L 19 90 Z M 20 89.898438 L 21 89.898438 L 21 90 L 20 90 Z M 21 90 L 22 90 Z M 22 90 L 23 90 Z M 23 89.535156 L 24 89.535156 L 24 90 L 23 90 Z M 24 89.433594 L 25 89.433594 L 25 90 L 24 90 Z M 25 89.433594 L 26 89.433594 L 26 90 L 25 90 Z M 26 89.035156 L 27 89.035156 L 27 90 L 26 90 Z M 27 89.367188 L 28 89.367188 L 28 90 L 27 90 Z M 28 89.5 L 29 89.5 L 29 90 L 28 90 Z M 29 89.632812 L 30 89.632812 L 30 90 L 29 90 Z M 30 89.867188 L 31 89.867188 L 31 90 L 30 90 Z M 31 89.800781 L 32 89.800781 L 32 90 L 31 90 Z M 32 89.832031 L 33 89.832031 L 33 90 L 32 90 Z M 33 89.898438 L 34 89.898438 L 34 90 L 33 90 Z M 34 89.832031 L 35 89.832031 L 35 90 L 34 90 Z M 35 90 L 36 90 Z M 36 90 L 37 90 Z M 37 89.964844 L 38 89.964844 L 38 90 L 37 90 Z M 38 89.765625 L 39 89.765625 L 39 90 L 38 90 Z M 39 89.433594 L 40 89.433594 L 40 90 L 39 90 Z M 40 89.265625 L 41 89.265625 L 41 90 L 40 90 Z M 41 90 L 42 90 Z M 42 90 L 43 90 Z M 43 89.964844 L 44 89.964844 L 44 90 L 43 90 Z M 44 89.898438 L 45 89.898438 L 45 90 L 44 90 Z M 45 90 L 46 90 Z M 46 90 L 47 90 Z M 47 89.535156 L 48 89.535156 L 48 90 L 47 90 Z M 48 89.433594 L 49 89.433594 L 49 90 L 48 90 Z M 49 89.433594 L 50 89.433594 L 50 90 L 49 90 Z M 50 89.035156 L 51 89.035156 L 51 90 L 50 90 Z M 51 89.367188 L 52 89.367188 L 52 90 L 51 90 Z M 52 89.5 L 53 89.5 L 53 90 L 52 90 Z M 53 89.632812 L 54 89.632812 L 54 90 L 53 90 Z M 54 89.867188 L 55 89.867188 L 55 90 L 54 90 Z M 55 89.800781 L 56 89.800781 L 56 90 L 55 90 Z M 56 89.832031 L 57 89.832031 L 57 90 L 56 90 Z M 57 89.898438 L 58 89.898438 L 58 90 L 57 90 Z M 58 89.832031 L 59 89.832031 L 59 90 L 58 90 Z M 59 90 L 60 90 Z M 60 90 L 61 90 Z M 61 89.964844 L 62 89.964844 L 62 90 L 61 90 Z M 62 89.765625 L 63 89.765625 L 63 90 L 62 90 Z M 63 89.433594 L 64 89.433594 L 64 90 L 63 90 Z M 64 89.265625 L 65 89.265625 L 65 90 L 64 90 Z M 65 90 L 66 90 Z M 66 90 L 67 90 Z M 67 89.964844 L 68 89.964844 L 68 90 L 67 90 Z M 68 89.898438 L 69 89.898438 L 69 90 L 68 90 Z M 69 90 L 70 90 Z M 70 90 L 71 90 Z M 71 89.535156 L 72 89.535156 L 72 90 L 71 90 Z M 72 89.433594 L 73 89.433594 L 73 90 L 72 90 Z M 73 89.433594 L 74 89.433594 L 74 90 L 73 90 Z M 74 89.035156 L 75 89.035156 L 75 90 L 74 90 Z M 75 89.367188 L 76 89.367188 L 76 90 L 75 90 Z M 76 89.5 L 77 89.5 L 77 90 L 76 90 Z M 77 89.632812 L 78 89.632812 L 78 90 L 77 90 Z M 78 89.867188 L 79 89.867188 L 79 90 L 78 90 Z M 79 89.800781 L 80 89.800781 L 80 90 L 79 90 Z M 80 89.832031 L 81 89.832031 L 81 90 L 80 90 Z M 81 89.898438 L 82 89.898438 L 82 90 L 81 90 Z M 82 89.832031 L 83 89.832031 L 83 90 L 82 90 Z M 83 90 L 84 90 Z M 84 90 L 85 90 Z M 85 89.964844 L 86 89.964844 L 86 90 L 85 90 Z M 86 89.765625 L 87 89.765625 L 87 90 L 86 90 Z M 87 89.433594 L 88 89.433594 L 88 90 L 87 90 Z M 88 89.265625 L 89 89.265625 L 89 90 L 88 90 Z M 89 90 L 90 90 Z M 90 90 L 91 90 Z M 91 89.964844 L 92 89.964844 L 92 90 L 91 90 Z M 92 89.898438 L 93 89.898438 L 93 90 L 92 90 Z M 93 90 L 94 90 Z M 94 90 L 95 90 Z M 95 89.535156 L 96 89.535156 L 96 90 L 95 90 Z M 96 89.433594 L 97 89.433594 L 97 90 L 96 90 Z M 97 89.433594 L 98 89.433594 L 98 90 L 97 90 Z M 98 89.035156 L 99 89.035156 L 99 90 L 98 90 Z M 99 89.367188 L 100 89.367188 L 100 90 L 99 90 Z M 99 89.367188 "/>
<path style="fill:none;stroke-width:10;stroke-linecap:butt;stroke-linejoin:miter;stroke:rgb(38.039216%,50.588235%,100%);stroke-opacity:1;stroke-miterlimit:10;" d="M 5 5 L 105 5 L 105 16 L 5 16 Z M 5 5 " transform="matrix(1,0,0,1,0,79)"/>
</g>
</svg>
