<?xml version="1.0" encoding="UTF-8"?>
<?xml-stylesheet href="../ldoc.css" type="text/css"?>
<svg xmlns="http://www.w3.org/2000/svg" xmlns:xlink="http://www.w3.org/1999/xlink" width="288pt" height="76pt" viewBox="0 0 288 76" version="1.1">
<defs>
<clipPath id="clip1">
  <path d="M 96 0 L 172 0 L 172 76 L 96 76 Z M 96 0 "/>
</clipPath>
<clipPath id="clip2">
  <path d="M 192 0 L 268 0 L 268 76 L 192 76 Z M 192 0 "/>
</clipPath>
</defs>
<g id="surface2">
<path style="fill-rule:nonzero;fill:rgb(38.039216%,50.588235%,100%);fill-opacity:0.5;stroke-width:2;stroke-linecap:butt;stroke-linejoin:miter;stroke:rgb(38.039216%,50.588235%,100%);stroke-opacity:1;stroke-miterlimit:10;" d="M 35 35 L 70 35 C 70 54.328125 54.328125 70 35 70 Z M 35 35 " transform="matrix(1,0,0,1,3,3)"/>
<path style=" stroke:none;fill-rule:nonzero;fill:rgb(38.039216%,50.588235%,100%);fill-opacity:0.5;" d="M 134 38 L 151.5 68.3125 C 143.460938 72.953125 133.90625 74.210938 124.941406 71.808594 C 115.976562 69.40625 108.332031 63.539062 103.6875 55.5 C 99.046875 47.460938 97.789062 37.90625 100.191406 28.941406 C 102.59375 19.976562 108.460938 12.332031 116.5 7.6875 Z M 134 38 "/>
<g clip-path="url(#clip1)" clip-rule="nonzero">
<path style="fill:none;stroke-width:2;stroke-linecap:butt;stroke-linejoin:miter;stroke:rgb(38.039216%,50.588235%,100%);stroke-opacity:1;stroke-miterlimit:10;" d="M 35 35 L 52.5 65.3125 C 44.460938 69.953125 34.90625 71.210938 25.941406 68.808594 C 16.976562 66.40625 9.332031 60.539062 4.6875 52.5 C 0.046875 44.460938 -1.210938 34.90625 1.191406 25.941406 C 3.59375 16.976562 9.460938 9.332031 17.5 4.6875 Z M 35 35 " transform="matrix(1,0,0,1,99,3)"/>
</g>
<path style=" stroke:none;fill-rule:nonzero;fill:rgb(38.039216%,50.588235%,100%);fill-opacity:0.5;" d="M 240 38 C 240 43.523438 235.523438 48 230 48 C 224.476562 48 220 43.523438 220 38 C 220 32.476562 224.476562 28 230 28 C 235.523438 28 240 32.476562 240 38 Z M 240 38 "/>
<g clip-path="url(#clip2)" clip-rule="nonzero">
<path style="fill:none;stroke-width:2;stroke-linecap:butt;stroke-linejoin:miter;stroke:rgb(38.039216%,50.588235%,100%);stroke-opacity:1;stroke-miterlimit:10;" d="M 45 35 C 45 40.523438 40.523438 45 35 45 C 29.476562 45 25 40.523438 25 35 C 25 29.476562 29.476562 25 35 25 C 40.523438 25 45 29.476562 45 35 Z M 45 35 " transform="matrix(1,0,0,1,195,3)"/>
</g>
</g>
</svg>
