<?xml version="1.0" encoding="UTF-8"?>
<?xml-stylesheet href="../ldoc.css" type="text/css"?>
<svg xmlns="http://www.w3.org/2000/svg" xmlns:xlink="http://www.w3.org/1999/xlink" width="130pt" height="40pt" viewBox="0 0 130 40" version="1.1">
<g id="surface2">
<path class="svg_fill" style=" stroke:none;fill-rule:nonzero;fill:currentcolor;fill-opacity:1;" d="M 14.5 0 L 29 15 L 14.5 30 L 0 15 Z M 14.5 0 "/>
<path class="svg_fill" style=" stroke:none;fill-rule:nonzero;fill:currentcolor;fill-opacity:1;" d="M 63 15 C 63 23.007812 56.507812 29.5 48.5 29.5 C 40.492188 29.5 34 23.007812 34 15 C 34 6.992188 40.492188 0.5 48.5 0.5 C 56.507812 0.5 63 6.992188 63 15 Z M 63 15 "/>
<path class="svg_fill" style=" stroke:none;fill-rule:nonzero;fill:currentcolor;fill-opacity:1;" d="M 82 0 L 96 30 L 68 30 Z M 82 0 "/>
<path class="svg_fill" style=" stroke:none;fill-rule:nonzero;fill:currentcolor;fill-opacity:1;" d="M 110.667969 0 L 120.332031 0 L 120.332031 10.167969 L 130 10.167969 L 130 19.832031 L 120.332031 19.832031 L 120.332031 30 L 110.667969 30 L 110.667969 19.832031 L 101 19.832031 L 101 10.167969 L 110.667969 10.167969 Z M 110.667969 0 "/>
</g>
</svg>
