<?xml version="1.0" encoding="UTF-8"?>
<?xml-stylesheet href="../ldoc.css" type="text/css"?>
<svg xmlns="http://www.w3.org/2000/svg" xmlns:xlink="http://www.w3.org/1999/xlink" width="110pt" height="110pt" viewBox="0 0 110 110" version="1.1">
<defs>
<clipPath id="clip1">
  <path d="M 0 0 L 110 0 L 110 33 L 0 33 Z M 0 0 "/>
</clipPath>
<clipPath id="clip2">
  <path d="M 0 33 L 110 33 L 110 67 L 0 67 Z M 0 33 "/>
</clipPath>
<clipPath id="clip3">
  <path d="M 0 67 L 110 67 L 110 100 L 0 100 Z M 0 67 "/>
</clipPath>
</defs>
<g id="surface2">
<g clip-path="url(#clip1)" clip-rule="nonzero">
<rect x="0" y="0" width="110" height="110" style="fill:rgb(0%,0%,0%);fill-opacity:1;stroke:none;"/>
</g>
<path style=" stroke:none;fill-rule:nonzero;fill:rgb(100%,0%,0%);fill-opacity:1;" d="M 2 26 L 3 26 L 3 31 L 2 31 Z M 3 31 L 4 31 Z M 4 31 L 5 31 Z M 5 30 L 6 30 L 6 31 L 5 31 Z M 6 24 L 7 24 L 7 31 L 6 31 Z M 7 14 L 8 14 L 8 31 L 7 31 Z M 8 9 L 9 9 L 9 31 L 8 31 Z M 9 31 L 10 31 Z M 10 31 L 11 31 Z M 11 30 L 12 30 L 12 31 L 11 31 Z M 12 28 L 13 28 L 13 31 L 12 31 Z M 13 31 L 14 31 Z M 14 31 L 15 31 Z M 15 17 L 16 17 L 16 31 L 15 31 Z M 16 14 L 17 14 L 17 31 L 16 31 Z M 17 14 L 18 14 L 18 31 L 17 31 Z M 18 2 L 19 2 L 19 31 L 18 31 Z M 19 12 L 20 12 L 20 31 L 19 31 Z M 20 16 L 21 16 L 21 31 L 20 31 Z M 21 20 L 22 20 L 22 31 L 21 31 Z M 22 27 L 23 27 L 23 31 L 22 31 Z M 23 25 L 24 25 L 24 31 L 23 31 Z M 24 26 L 25 26 L 25 31 L 24 31 Z M 25 28 L 26 28 L 26 31 L 25 31 Z M 26 26 L 27 26 L 27 31 L 26 31 Z M 27 31 L 28 31 Z M 28 31 L 29 31 Z M 29 30 L 30 30 L 30 31 L 29 31 Z M 30 24 L 31 24 L 31 31 L 30 31 Z M 31 14 L 32 14 L 32 31 L 31 31 Z M 32 9 L 33 9 L 33 31 L 32 31 Z M 33 31 L 34 31 Z M 34 31 L 35 31 Z M 35 30 L 36 30 L 36 31 L 35 31 Z M 36 28 L 37 28 L 37 31 L 36 31 Z M 37 31 L 38 31 Z M 38 31 L 39 31 Z M 39 17 L 40 17 L 40 31 L 39 31 Z M 40 14 L 41 14 L 41 31 L 40 31 Z M 41 14 L 42 14 L 42 31 L 41 31 Z M 42 2 L 43 2 L 43 31 L 42 31 Z M 43 12 L 44 12 L 44 31 L 43 31 Z M 44 16 L 45 16 L 45 31 L 44 31 Z M 45 20 L 46 20 L 46 31 L 45 31 Z M 46 27 L 47 27 L 47 31 L 46 31 Z M 47 25 L 48 25 L 48 31 L 47 31 Z M 48 26 L 49 26 L 49 31 L 48 31 Z M 49 28 L 50 28 L 50 31 L 49 31 Z M 50 26 L 51 26 L 51 31 L 50 31 Z M 51 31 L 52 31 Z M 52 31 L 53 31 Z M 53 30 L 54 30 L 54 31 L 53 31 Z M 54 24 L 55 24 L 55 31 L 54 31 Z M 55 14 L 56 14 L 56 31 L 55 31 Z M 56 9 L 57 9 L 57 31 L 56 31 Z M 57 31 L 58 31 Z M 58 31 L 59 31 Z M 59 30 L 60 30 L 60 31 L 59 31 Z M 60 28 L 61 28 L 61 31 L 60 31 Z M 61 31 L 62 31 Z M 62 31 L 63 31 Z M 63 17 L 64 17 L 64 31 L 63 31 Z M 64 14 L 65 14 L 65 31 L 64 31 Z M 65 14 L 66 14 L 66 31 L 65 31 Z M 66 2 L 67 2 L 67 31 L 66 31 Z M 67 12 L 68 12 L 68 31 L 67 31 Z M 68 16 L 69 16 L 69 31 L 68 31 Z M 69 20 L 70 20 L 70 31 L 69 31 Z M 70 27 L 71 27 L 71 31 L 70 31 Z M 71 25 L 72 25 L 72 31 L 71 31 Z M 72 26 L 73 26 L 73 31 L 72 31 Z M 73 28 L 74 28 L 74 31 L 73 31 Z M 74 26 L 75 26 L 75 31 L 74 31 Z M 75 31 L 76 31 Z M 76 31 L 77 31 Z M 77 30 L 78 30 L 78 31 L 77 31 Z M 78 24 L 79 24 L 79 31 L 78 31 Z M 79 14 L 80 14 L 80 31 L 79 31 Z M 80 9 L 81 9 L 81 31 L 80 31 Z M 81 31 L 82 31 Z M 82 31 L 83 31 Z M 83 30 L 84 30 L 84 31 L 83 31 Z M 84 28 L 85 28 L 85 31 L 84 31 Z M 85 31 L 86 31 Z M 86 31 L 87 31 Z M 87 17 L 88 17 L 88 31 L 87 31 Z M 88 14 L 89 14 L 89 31 L 88 31 Z M 89 14 L 90 14 L 90 31 L 89 31 Z M 90 2 L 91 2 L 91 31 L 90 31 Z M 91 12 L 92 12 L 92 31 L 91 31 Z M 92 16 L 93 16 L 93 31 L 92 31 Z M 93 20 L 94 20 L 94 31 L 93 31 Z M 94 27 L 95 27 L 95 31 L 94 31 Z M 95 25 L 96 25 L 96 31 L 95 31 Z M 96 26 L 97 26 L 97 31 L 96 31 Z M 97 28 L 98 28 L 98 31 L 97 31 Z M 98 26 L 99 26 L 99 31 L 98 31 Z M 99 31 L 100 31 Z M 100 31 L 101 31 Z M 101 30 L 102 30 L 102 31 L 101 31 Z M 102 24 L 103 24 L 103 31 L 102 31 Z M 103 14 L 104 14 L 104 31 L 103 31 Z M 104 9 L 105 9 L 105 31 L 104 31 Z M 105 31 L 106 31 Z M 106 31 L 107 31 Z M 107 30 L 108 30 L 108 31 L 107 31 Z M 107 30 "/>
<path style="fill:none;stroke-width:2;stroke-linecap:butt;stroke-linejoin:miter;stroke:rgb(100%,100%,100%);stroke-opacity:1;stroke-miterlimit:10;" d="M 1 1 L 109 1 L 109 32 L 1 32 Z M 1 1 "/>
<g clip-path="url(#clip2)" clip-rule="nonzero">
<rect x="0" y="0" width="110" height="110" style="fill:rgb(0%,0%,0%);fill-opacity:1;stroke:none;"/>
</g>
<path style=" stroke:none;fill-rule:nonzero;fill:rgb(100%,0%,0%);fill-opacity:1;" d="M 2 59.828125 L 2.5 59.828125 L 2.5 65 L 2 65 Z M 2.5 65 L 3 65 Z M 3 65 L 3.5 65 Z M 3.5 63.964844 L 4 63.964844 L 4 65 L 3.5 65 Z M 4 57.757812 L 4.5 57.757812 L 4.5 65 L 4 65 Z M 4.5 47.414062 L 5 47.414062 L 5 65 L 4.5 65 Z M 5 42.242188 L 5.5 42.242188 L 5.5 65 L 5 65 Z M 5.5 65 L 6 65 Z M 6 65 L 6.5 65 Z M 6.5 63.964844 L 7 63.964844 L 7 65 L 6.5 65 Z M 7 61.898438 L 7.5 61.898438 L 7.5 65 L 7 65 Z M 7.5 65 L 8 65 Z M 8 65 L 8.5 65 Z M 8.5 50.515625 L 9 50.515625 L 9 65 L 8.5 65 Z M 9 47.414062 L 9.5 47.414062 L 9.5 65 L 9 65 Z M 9.5 47.414062 L 10 47.414062 L 10 65 L 9.5 65 Z M 10 35 L 10.5 35 L 10.5 65 L 10 65 Z M 10.5 45.34375 L 11 45.34375 L 11 65 L 10.5 65 Z M 11 49.484375 L 11.5 49.484375 L 11.5 65 L 11 65 Z M 11.5 53.621094 L 12 53.621094 L 12 65 L 11.5 65 Z M 12 60.863281 L 12.5 60.863281 L 12.5 65 L 12 65 Z M 12.5 58.792969 L 13 58.792969 L 13 65 L 12.5 65 Z M 13 59.828125 L 13.5 59.828125 L 13.5 65 L 13 65 Z M 13.5 61.898438 L 14 61.898438 L 14 65 L 13.5 65 Z M 14 59.828125 L 14.5 59.828125 L 14.5 65 L 14 65 Z M 14.5 65 L 15 65 Z M 15 65 L 15.5 65 Z M 15.5 63.964844 L 16 63.964844 L 16 65 L 15.5 65 Z M 16 57.757812 L 16.5 57.757812 L 16.5 65 L 16 65 Z M 16.5 47.414062 L 17 47.414062 L 17 65 L 16.5 65 Z M 17 42.242188 L 17.5 42.242188 L 17.5 65 L 17 65 Z M 17.5 65 L 18 65 Z M 18 65 L 18.5 65 Z M 18.5 63.964844 L 19 63.964844 L 19 65 L 18.5 65 Z M 19 61.898438 L 19.5 61.898438 L 19.5 65 L 19 65 Z M 19.5 65 L 20 65 Z M 20 65 L 20.5 65 Z M 20.5 50.515625 L 21 50.515625 L 21 65 L 20.5 65 Z M 21 47.414062 L 21.5 47.414062 L 21.5 65 L 21 65 Z M 21.5 47.414062 L 22 47.414062 L 22 65 L 21.5 65 Z M 22 35 L 22.5 35 L 22.5 65 L 22 65 Z M 22.5 45.34375 L 23 45.34375 L 23 65 L 22.5 65 Z M 23 49.484375 L 23.5 49.484375 L 23.5 65 L 23 65 Z M 23.5 53.621094 L 24 53.621094 L 24 65 L 23.5 65 Z M 24 60.863281 L 24.5 60.863281 L 24.5 65 L 24 65 Z M 24.5 58.792969 L 25 58.792969 L 25 65 L 24.5 65 Z M 25 59.828125 L 25.5 59.828125 L 25.5 65 L 25 65 Z M 25.5 61.898438 L 26 61.898438 L 26 65 L 25.5 65 Z M 26 59.828125 L 26.5 59.828125 L 26.5 65 L 26 65 Z M 26.5 65 L 27 65 Z M 27 65 L 27.5 65 Z M 27.5 63.964844 L 28 63.964844 L 28 65 L 27.5 65 Z M 28 57.757812 L 28.5 57.757812 L 28.5 65 L 28 65 Z M 28.5 47.414062 L 29 47.414062 L 29 65 L 28.5 65 Z M 29 42.242188 L 29.5 42.242188 L 29.5 65 L 29 65 Z M 29.5 65 L 30 65 Z M 30 65 L 30.5 65 Z M 30.5 63.964844 L 31 63.964844 L 31 65 L 30.5 65 Z M 31 61.898438 L 31.5 61.898438 L 31.5 65 L 31 65 Z M 31.5 65 L 32 65 Z M 32 65 L 32.5 65 Z M 32.5 50.515625 L 33 50.515625 L 33 65 L 32.5 65 Z M 33 47.414062 L 33.5 47.414062 L 33.5 65 L 33 65 Z M 33.5 47.414062 L 34 47.414062 L 34 65 L 33.5 65 Z M 34 35 L 34.5 35 L 34.5 65 L 34 65 Z M 34.5 45.34375 L 35 45.34375 L 35 65 L 34.5 65 Z M 35 49.484375 L 35.5 49.484375 L 35.5 65 L 35 65 Z M 35.5 53.621094 L 36 53.621094 L 36 65 L 35.5 65 Z M 36 60.863281 L 36.5 60.863281 L 36.5 65 L 36 65 Z M 36.5 58.792969 L 37 58.792969 L 37 65 L 36.5 65 Z M 37 59.828125 L 37.5 59.828125 L 37.5 65 L 37 65 Z M 37.5 61.898438 L 38 61.898438 L 38 65 L 37.5 65 Z M 38 59.828125 L 38.5 59.828125 L 38.5 65 L 38 65 Z M 38.5 65 L 39 65 Z M 39 65 L 39.5 65 Z M 39.5 63.964844 L 40 63.964844 L 40 65 L 39.5 65 Z M 40 57.757812 L 40.5 57.757812 L 40.5 65 L 40 65 Z M 40.5 47.414062 L 41 47.414062 L 41 65 L 40.5 65 Z M 41 42.242188 L 41.5 42.242188 L 41.5 65 L 41 65 Z M 41.5 65 L 42 65 Z M 42 65 L 42.5 65 Z M 42.5 63.964844 L 43 63.964844 L 43 65 L 42.5 65 Z M 43 61.898438 L 43.5 61.898438 L 43.5 65 L 43 65 Z M 43.5 65 L 44 65 Z M 44 65 L 44.5 65 Z M 44.5 50.515625 L 45 50.515625 L 45 65 L 44.5 65 Z M 45 47.414062 L 45.5 47.414062 L 45.5 65 L 45 65 Z M 45.5 47.414062 L 46 47.414062 L 46 65 L 45.5 65 Z M 46 35 L 46.5 35 L 46.5 65 L 46 65 Z M 46.5 45.34375 L 47 45.34375 L 47 65 L 46.5 65 Z M 47 49.484375 L 47.5 49.484375 L 47.5 65 L 47 65 Z M 47.5 53.621094 L 48 53.621094 L 48 65 L 47.5 65 Z M 48 60.863281 L 48.5 60.863281 L 48.5 65 L 48 65 Z M 48.5 58.792969 L 49 58.792969 L 49 65 L 48.5 65 Z M 49 59.828125 L 49.5 59.828125 L 49.5 65 L 49 65 Z M 49.5 61.898438 L 50 61.898438 L 50 65 L 49.5 65 Z M 50 59.828125 L 50.5 59.828125 L 50.5 65 L 50 65 Z M 50.5 65 L 51 65 Z M 51 65 L 51.5 65 Z M 51.5 63.964844 L 52 63.964844 L 52 65 L 51.5 65 Z M 52 57.757812 L 52.5 57.757812 L 52.5 65 L 52 65 Z M 52.5 47.414062 L 53 47.414062 L 53 65 L 52.5 65 Z M 53 42.242188 L 53.5 42.242188 L 53.5 65 L 53 65 Z M 53.5 65 L 54 65 Z M 54 65 L 54.5 65 Z M 54.5 63.964844 L 55 63.964844 L 55 65 L 54.5 65 Z M 55 61.898438 L 55.5 61.898438 L 55.5 65 L 55 65 Z M 55.5 65 L 56 65 Z M 56 65 L 56.5 65 Z M 56.5 50.515625 L 57 50.515625 L 57 65 L 56.5 65 Z M 57 47.414062 L 57.5 47.414062 L 57.5 65 L 57 65 Z M 57.5 47.414062 L 58 47.414062 L 58 65 L 57.5 65 Z M 58 35 L 58.5 35 L 58.5 65 L 58 65 Z M 58.5 45.34375 L 59 45.34375 L 59 65 L 58.5 65 Z M 59 49.484375 L 59.5 49.484375 L 59.5 65 L 59 65 Z M 59.5 53.621094 L 60 53.621094 L 60 65 L 59.5 65 Z M 60 60.863281 L 60.5 60.863281 L 60.5 65 L 60 65 Z M 60.5 58.792969 L 61 58.792969 L 61 65 L 60.5 65 Z M 61 59.828125 L 61.5 59.828125 L 61.5 65 L 61 65 Z M 61.5 61.898438 L 62 61.898438 L 62 65 L 61.5 65 Z M 62 59.828125 L 62.5 59.828125 L 62.5 65 L 62 65 Z M 62.5 65 L 63 65 Z M 63 65 L 63.5 65 Z M 63.5 63.964844 L 64 63.964844 L 64 65 L 63.5 65 Z M 64 57.757812 L 64.5 57.757812 L 64.5 65 L 64 65 Z M 64.5 47.414062 L 65 47.414062 L 65 65 L 64.5 65 Z M 65 42.242188 L 65.5 42.242188 L 65.5 65 L 65 65 Z M 65.5 65 L 66 65 Z M 66 65 L 66.5 65 Z M 66.5 63.964844 L 67 63.964844 L 67 65 L 66.5 65 Z M 67 61.898438 L 67.5 61.898438 L 67.5 65 L 67 65 Z M 67.5 65 L 68 65 Z M 68 65 L 68.5 65 Z M 68.5 50.515625 L 69 50.515625 L 69 65 L 68.5 65 Z M 69 47.414062 L 69.5 47.414062 L 69.5 65 L 69 65 Z M 69.5 47.414062 L 70 47.414062 L 70 65 L 69.5 65 Z M 70 35 L 70.5 35 L 70.5 65 L 70 65 Z M 70.5 45.34375 L 71 45.34375 L 71 65 L 70.5 65 Z M 71 49.484375 L 71.5 49.484375 L 71.5 65 L 71 65 Z M 71.5 53.621094 L 72 53.621094 L 72 65 L 71.5 65 Z M 72 60.863281 L 72.5 60.863281 L 72.5 65 L 72 65 Z M 72.5 58.792969 L 73 58.792969 L 73 65 L 72.5 65 Z M 73 59.828125 L 73.5 59.828125 L 73.5 65 L 73 65 Z M 73.5 61.898438 L 74 61.898438 L 74 65 L 73.5 65 Z M 74 59.828125 L 74.5 59.828125 L 74.5 65 L 74 65 Z M 74.5 65 L 75 65 Z M 75 65 L 75.5 65 Z M 75.5 63.964844 L 76 63.964844 L 76 65 L 75.5 65 Z M 76 57.757812 L 76.5 57.757812 L 76.5 65 L 76 65 Z M 76.5 47.414062 L 77 47.414062 L 77 65 L 76.5 65 Z M 77 42.242188 L 77.5 42.242188 L 77.5 65 L 77 65 Z M 77.5 65 L 78 65 Z M 78 65 L 78.5 65 Z M 78.5 63.964844 L 79 63.964844 L 79 65 L 78.5 65 Z M 79 61.898438 L 79.5 61.898438 L 79.5 65 L 79 65 Z M 79.5 65 L 80 65 Z M 80 65 L 80.5 65 Z M 80.5 50.515625 L 81 50.515625 L 81 65 L 80.5 65 Z M 81 47.414062 L 81.5 47.414062 L 81.5 65 L 81 65 Z M 81.5 47.414062 L 82 47.414062 L 82 65 L 81.5 65 Z M 82 35 L 82.5 35 L 82.5 65 L 82 65 Z M 82.5 45.34375 L 83 45.34375 L 83 65 L 82.5 65 Z M 83 49.484375 L 83.5 49.484375 L 83.5 65 L 83 65 Z M 83.5 53.621094 L 84 53.621094 L 84 65 L 83.5 65 Z M 84 60.863281 L 84.5 60.863281 L 84.5 65 L 84 65 Z M 84.5 58.792969 L 85 58.792969 L 85 65 L 84.5 65 Z M 85 59.828125 L 85.5 59.828125 L 85.5 65 L 85 65 Z M 85.5 61.898438 L 86 61.898438 L 86 65 L 85.5 65 Z M 86 59.828125 L 86.5 59.828125 L 86.5 65 L 86 65 Z M 86.5 65 L 87 65 Z M 87 65 L 87.5 65 Z M 87.5 63.964844 L 88 63.964844 L 88 65 L 87.5 65 Z M 88 57.757812 L 88.5 57.757812 L 88.5 65 L 88 65 Z M 88.5 47.414062 L 89 47.414062 L 89 65 L 88.5 65 Z M 89 42.242188 L 89.5 42.242188 L 89.5 65 L 89 65 Z M 89.5 65 L 90 65 Z M 90 65 L 90.5 65 Z M 90.5 63.964844 L 91 63.964844 L 91 65 L 90.5 65 Z M 91 61.898438 L 91.5 61.898438 L 91.5 65 L 91 65 Z M 91.5 65 L 92 65 Z M 92 65 L 92.5 65 Z M 92.5 50.515625 L 93 50.515625 L 93 65 L 92.5 65 Z M 93 47.414062 L 93.5 47.414062 L 93.5 65 L 93 65 Z M 93.5 47.414062 L 94 47.414062 L 94 65 L 93.5 65 Z M 94 35 L 94.5 35 L 94.5 65 L 94 65 Z M 94.5 45.34375 L 95 45.34375 L 95 65 L 94.5 65 Z M 95 49.484375 L 95.5 49.484375 L 95.5 65 L 95 65 Z M 95.5 53.621094 L 96 53.621094 L 96 65 L 95.5 65 Z M 96 60.863281 L 96.5 60.863281 L 96.5 65 L 96 65 Z M 96.5 58.792969 L 97 58.792969 L 97 65 L 96.5 65 Z M 97 59.828125 L 97.5 59.828125 L 97.5 65 L 97 65 Z M 97.5 61.898438 L 98 61.898438 L 98 65 L 97.5 65 Z M 98 59.828125 L 98.5 59.828125 L 98.5 65 L 98 65 Z M 98.5 65 L 99 65 Z M 99 65 L 99.5 65 Z M 99.5 63.964844 L 100 63.964844 L 100 65 L 99.5 65 Z M 100 57.757812 L 100.5 57.757812 L 100.5 65 L 100 65 Z M 100.5 47.414062 L 101 47.414062 L 101 65 L 100.5 65 Z M 101 42.242188 L 101.5 42.242188 L 101.5 65 L 101 65 Z M 101.5 65 L 102 65 Z M 102 65 L 102.5 65 Z M 102.5 63.964844 L 103 63.964844 L 103 65 L 102.5 65 Z M 103 61.898438 L 103.5 61.898438 L 103.5 65 L 103 65 Z M 103.5 65 L 104 65 Z M 104 65 L 104.5 65 Z M 104.5 50.515625 L 105 50.515625 L 105 65 L 104.5 65 Z M 105 47.414062 L 105.5 47.414062 L 105.5 65 L 105 65 Z M 105.5 47.414062 L 106 47.414062 L 106 65 L 105.5 65 Z M 106 35 L 106.5 35 L 106.5 65 L 106 65 Z M 106.5 45.34375 L 107 45.34375 L 107 65 L 106.5 65 Z M 107 49.484375 L 107.5 49.484375 L 107.5 65 L 107 65 Z M 107.5 53.621094 L 108 53.621094 L 108 65 L 107.5 65 Z M 107.5 53.621094 "/>
<path style="fill:none;stroke-width:2;stroke-linecap:butt;stroke-linejoin:miter;stroke:rgb(100%,100%,100%);stroke-opacity:1;stroke-miterlimit:10;" d="M 1 1 L 109 1 L 109 33 L 1 33 Z M 1 1 " transform="matrix(1,0,0,1,0,33)"/>
<g clip-path="url(#clip3)" clip-rule="nonzero">
<rect x="0" y="0" width="110" height="110" style="fill:rgb(0%,0%,0%);fill-opacity:1;stroke:none;"/>
</g>
<path style=" stroke:none;fill-rule:nonzero;fill:rgb(100%,0%,0%);fill-opacity:1;" d="M 2 93 L 2.332031 93 L 2.332031 98 L 2 98 Z M 2.332031 98 L 2.664062 98 Z M 2.667969 98 L 3 98 Z M 3 97 L 3.332031 97 L 3.332031 98 L 3 98 Z M 3.332031 91 L 3.664062 91 L 3.664062 98 L 3.332031 98 Z M 3.667969 81 L 4 81 L 4 98 L 3.667969 98 Z M 4 76 L 4.332031 76 L 4.332031 98 L 4 98 Z M 4.332031 98 L 4.664062 98 Z M 4.667969 98 L 5 98 Z M 5 97 L 5.332031 97 L 5.332031 98 L 5 98 Z M 5.332031 95 L 5.664062 95 L 5.664062 98 L 5.332031 98 Z M 5.667969 98 L 6 98 Z M 6 98 L 6.332031 98 Z M 6.332031 84 L 6.664062 84 L 6.664062 98 L 6.332031 98 Z M 6.667969 81 L 7 81 L 7 98 L 6.667969 98 Z M 7 81 L 7.332031 81 L 7.332031 98 L 7 98 Z M 7.332031 69 L 7.664062 69 L 7.664062 98 L 7.332031 98 Z M 7.667969 79 L 8 79 L 8 98 L 7.667969 98 Z M 8 83 L 8.332031 83 L 8.332031 98 L 8 98 Z M 8.332031 87 L 8.664062 87 L 8.664062 98 L 8.332031 98 Z M 8.667969 94 L 9 94 L 9 98 L 8.667969 98 Z M 9 92 L 9.332031 92 L 9.332031 98 L 9 98 Z M 9.332031 93 L 9.664062 93 L 9.664062 98 L 9.332031 98 Z M 9.667969 95 L 10 95 L 10 98 L 9.667969 98 Z M 10 93 L 10.332031 93 L 10.332031 98 L 10 98 Z M 10.332031 98 L 10.664062 98 Z M 10.667969 98 L 11 98 Z M 11 97 L 11.332031 97 L 11.332031 98 L 11 98 Z M 11.332031 91 L 11.664062 91 L 11.664062 98 L 11.332031 98 Z M 11.667969 81 L 12 81 L 12 98 L 11.667969 98 Z M 12 76 L 12.332031 76 L 12.332031 98 L 12 98 Z M 12.332031 98 L 12.664062 98 Z M 12.667969 98 L 13 98 Z M 13 97 L 13.332031 97 L 13.332031 98 L 13 98 Z M 13.332031 95 L 13.664062 95 L 13.664062 98 L 13.332031 98 Z M 13.667969 98 L 14 98 Z M 14 98 L 14.332031 98 Z M 14.332031 84 L 14.664062 84 L 14.664062 98 L 14.332031 98 Z M 14.667969 81 L 15 81 L 15 98 L 14.667969 98 Z M 15 81 L 15.332031 81 L 15.332031 98 L 15 98 Z M 15.332031 69 L 15.664062 69 L 15.664062 98 L 15.332031 98 Z M 15.667969 79 L 16 79 L 16 98 L 15.667969 98 Z M 16 83 L 16.332031 83 L 16.332031 98 L 16 98 Z M 16.332031 87 L 16.664062 87 L 16.664062 98 L 16.332031 98 Z M 16.667969 94 L 17 94 L 17 98 L 16.667969 98 Z M 17 92 L 17.332031 92 L 17.332031 98 L 17 98 Z M 17.332031 93 L 17.664062 93 L 17.664062 98 L 17.332031 98 Z M 17.667969 95 L 18 95 L 18 98 L 17.667969 98 Z M 18 93 L 18.332031 93 L 18.332031 98 L 18 98 Z M 18.332031 98 L 18.664062 98 Z M 18.667969 98 L 19 98 Z M 19 97 L 19.332031 97 L 19.332031 98 L 19 98 Z M 19.332031 91 L 19.664062 91 L 19.664062 98 L 19.332031 98 Z M 19.667969 81 L 20 81 L 20 98 L 19.667969 98 Z M 20 76 L 20.332031 76 L 20.332031 98 L 20 98 Z M 20.332031 98 L 20.664062 98 Z M 20.667969 98 L 21 98 Z M 21 97 L 21.332031 97 L 21.332031 98 L 21 98 Z M 21.332031 95 L 21.664062 95 L 21.664062 98 L 21.332031 98 Z M 21.667969 98 L 22 98 Z M 22 98 L 22.332031 98 Z M 22.332031 84 L 22.664062 84 L 22.664062 98 L 22.332031 98 Z M 22.667969 81 L 23 81 L 23 98 L 22.667969 98 Z M 23 81 L 23.332031 81 L 23.332031 98 L 23 98 Z M 23.332031 69 L 23.664062 69 L 23.664062 98 L 23.332031 98 Z M 23.667969 79 L 24 79 L 24 98 L 23.667969 98 Z M 24 83 L 24.332031 83 L 24.332031 98 L 24 98 Z M 24.332031 87 L 24.664062 87 L 24.664062 98 L 24.332031 98 Z M 24.667969 94 L 25 94 L 25 98 L 24.667969 98 Z M 25 92 L 25.332031 92 L 25.332031 98 L 25 98 Z M 25.332031 93 L 25.664062 93 L 25.664062 98 L 25.332031 98 Z M 25.667969 95 L 26 95 L 26 98 L 25.667969 98 Z M 26 93 L 26.332031 93 L 26.332031 98 L 26 98 Z M 26.332031 98 L 26.664062 98 Z M 26.667969 98 L 27 98 Z M 27 97 L 27.332031 97 L 27.332031 98 L 27 98 Z M 27.332031 91 L 27.664062 91 L 27.664062 98 L 27.332031 98 Z M 27.667969 81 L 28 81 L 28 98 L 27.667969 98 Z M 28 76 L 28.332031 76 L 28.332031 98 L 28 98 Z M 28.332031 98 L 28.664062 98 Z M 28.667969 98 L 29 98 Z M 29 97 L 29.332031 97 L 29.332031 98 L 29 98 Z M 29.332031 95 L 29.664062 95 L 29.664062 98 L 29.332031 98 Z M 29.667969 98 L 30 98 Z M 30 98 L 30.332031 98 Z M 30.332031 84 L 30.664062 84 L 30.664062 98 L 30.332031 98 Z M 30.667969 81 L 31 81 L 31 98 L 30.667969 98 Z M 31 81 L 31.332031 81 L 31.332031 98 L 31 98 Z M 31.332031 69 L 31.664062 69 L 31.664062 98 L 31.332031 98 Z M 31.667969 79 L 32 79 L 32 98 L 31.667969 98 Z M 32 83 L 32.332031 83 L 32.332031 98 L 32 98 Z M 32.332031 87 L 32.664062 87 L 32.664062 98 L 32.332031 98 Z M 32.667969 94 L 33 94 L 33 98 L 32.667969 98 Z M 33 92 L 33.332031 92 L 33.332031 98 L 33 98 Z M 33.332031 93 L 33.664062 93 L 33.664062 98 L 33.332031 98 Z M 33.667969 95 L 34 95 L 34 98 L 33.667969 98 Z M 34 93 L 34.332031 93 L 34.332031 98 L 34 98 Z M 34.332031 98 L 34.664062 98 Z M 34.667969 98 L 35 98 Z M 35 97 L 35.332031 97 L 35.332031 98 L 35 98 Z M 35.332031 91 L 35.664062 91 L 35.664062 98 L 35.332031 98 Z M 35.667969 81 L 36 81 L 36 98 L 35.667969 98 Z M 36 76 L 36.332031 76 L 36.332031 98 L 36 98 Z M 36.332031 98 L 36.664062 98 Z M 36.667969 98 L 37 98 Z M 37 97 L 37.332031 97 L 37.332031 98 L 37 98 Z M 37.332031 95 L 37.664062 95 L 37.664062 98 L 37.332031 98 Z M 37.667969 98 L 38 98 Z M 38 98 L 38.332031 98 Z M 38.332031 84 L 38.664062 84 L 38.664062 98 L 38.332031 98 Z M 38.667969 81 L 39 81 L 39 98 L 38.667969 98 Z M 39 81 L 39.332031 81 L 39.332031 98 L 39 98 Z M 39.332031 69 L 39.664062 69 L 39.664062 98 L 39.332031 98 Z M 39.667969 79 L 40 79 L 40 98 L 39.667969 98 Z M 40 83 L 40.332031 83 L 40.332031 98 L 40 98 Z M 40.332031 87 L 40.664062 87 L 40.664062 98 L 40.332031 98 Z M 40.667969 94 L 41 94 L 41 98 L 40.667969 98 Z M 41 92 L 41.332031 92 L 41.332031 98 L 41 98 Z M 41.332031 93 L 41.664062 93 L 41.664062 98 L 41.332031 98 Z M 41.667969 95 L 42 95 L 42 98 L 41.667969 98 Z M 42 93 L 42.332031 93 L 42.332031 98 L 42 98 Z M 42.332031 98 L 42.664062 98 Z M 42.667969 98 L 43 98 Z M 43 97 L 43.332031 97 L 43.332031 98 L 43 98 Z M 43.332031 91 L 43.664062 91 L 43.664062 98 L 43.332031 98 Z M 43.667969 81 L 44 81 L 44 98 L 43.667969 98 Z M 44 76 L 44.332031 76 L 44.332031 98 L 44 98 Z M 44.332031 98 L 44.664062 98 Z M 44.664062 98 L 44.996094 98 Z M 45 97 L 45.332031 97 L 45.332031 98 L 45 98 Z M 45.332031 95 L 45.664062 95 L 45.664062 98 L 45.332031 98 Z M 45.664062 98 L 45.996094 98 Z M 46 98 L 46.332031 98 Z M 46.332031 84 L 46.664062 84 L 46.664062 98 L 46.332031 98 Z M 46.664062 81 L 46.996094 81 L 46.996094 98 L 46.664062 98 Z M 47 81 L 47.332031 81 L 47.332031 98 L 47 98 Z M 47.332031 69 L 47.664062 69 L 47.664062 98 L 47.332031 98 Z M 47.664062 79 L 47.996094 79 L 47.996094 98 L 47.664062 98 Z M 48 83 L 48.332031 83 L 48.332031 98 L 48 98 Z M 48.332031 87 L 48.664062 87 L 48.664062 98 L 48.332031 98 Z M 48.664062 94 L 48.996094 94 L 48.996094 98 L 48.664062 98 Z M 49 92 L 49.332031 92 L 49.332031 98 L 49 98 Z M 49.332031 93 L 49.664062 93 L 49.664062 98 L 49.332031 98 Z M 49.664062 95 L 49.996094 95 L 49.996094 98 L 49.664062 98 Z M 50 93 L 50.332031 93 L 50.332031 98 L 50 98 Z M 50.332031 98 L 50.664062 98 Z M 50.664062 98 L 50.996094 98 Z M 51 97 L 51.332031 97 L 51.332031 98 L 51 98 Z M 51.332031 91 L 51.664062 91 L 51.664062 98 L 51.332031 98 Z M 51.664062 81 L 51.996094 81 L 51.996094 98 L 51.664062 98 Z M 52 76 L 52.332031 76 L 52.332031 98 L 52 98 Z M 52.332031 98 L 52.664062 98 Z M 52.664062 98 L 52.996094 98 Z M 53 97 L 53.332031 97 L 53.332031 98 L 53 98 Z M 53.332031 95 L 53.664062 95 L 53.664062 98 L 53.332031 98 Z M 53.664062 98 L 53.996094 98 Z M 54 98 L 54.332031 98 Z M 54.332031 84 L 54.664062 84 L 54.664062 98 L 54.332031 98 Z M 54.664062 81 L 54.996094 81 L 54.996094 98 L 54.664062 98 Z M 55 81 L 55.332031 81 L 55.332031 98 L 55 98 Z M 55.332031 69 L 55.664062 69 L 55.664062 98 L 55.332031 98 Z M 55.664062 79 L 55.996094 79 L 55.996094 98 L 55.664062 98 Z M 56 83 L 56.332031 83 L 56.332031 98 L 56 98 Z M 56.332031 87 L 56.664062 87 L 56.664062 98 L 56.332031 98 Z M 56.664062 94 L 56.996094 94 L 56.996094 98 L 56.664062 98 Z M 57 92 L 57.332031 92 L 57.332031 98 L 57 98 Z M 57.332031 93 L 57.664062 93 L 57.664062 98 L 57.332031 98 Z M 57.664062 95 L 57.996094 95 L 57.996094 98 L 57.664062 98 Z M 58 93 L 58.332031 93 L 58.332031 98 L 58 98 Z M 58.332031 98 L 58.664062 98 Z M 58.664062 98 L 58.996094 98 Z M 59 97 L 59.332031 97 L 59.332031 98 L 59 98 Z M 59.332031 91 L 59.664062 91 L 59.664062 98 L 59.332031 98 Z M 59.664062 81 L 59.996094 81 L 59.996094 98 L 59.664062 98 Z M 60 76 L 60.332031 76 L 60.332031 98 L 60 98 Z M 60.332031 98 L 60.664062 98 Z M 60.664062 98 L 60.996094 98 Z M 61 97 L 61.332031 97 L 61.332031 98 L 61 98 Z M 61.332031 95 L 61.664062 95 L 61.664062 98 L 61.332031 98 Z M 61.664062 98 L 61.996094 98 Z M 62 98 L 62.332031 98 Z M 62.332031 84 L 62.664062 84 L 62.664062 98 L 62.332031 98 Z M 62.664062 81 L 62.996094 81 L 62.996094 98 L 62.664062 98 Z M 63 81 L 63.332031 81 L 63.332031 98 L 63 98 Z M 63.332031 69 L 63.664062 69 L 63.664062 98 L 63.332031 98 Z M 63.664062 79 L 63.996094 79 L 63.996094 98 L 63.664062 98 Z M 64 83 L 64.332031 83 L 64.332031 98 L 64 98 Z M 64.332031 87 L 64.664062 87 L 64.664062 98 L 64.332031 98 Z M 64.664062 94 L 64.996094 94 L 64.996094 98 L 64.664062 98 Z M 65 92 L 65.332031 92 L 65.332031 98 L 65 98 Z M 65.332031 93 L 65.664062 93 L 65.664062 98 L 65.332031 98 Z M 65.664062 95 L 65.996094 95 L 65.996094 98 L 65.664062 98 Z M 66 93 L 66.332031 93 L 66.332031 98 L 66 98 Z M 66.332031 98 L 66.664062 98 Z M 66.664062 98 L 66.996094 98 Z M 67 97 L 67.332031 97 L 67.332031 98 L 67 98 Z M 67.332031 91 L 67.664062 91 L 67.664062 98 L 67.332031 98 Z M 67.664062 81 L 67.996094 81 L 67.996094 98 L 67.664062 98 Z M 68 76 L 68.332031 76 L 68.332031 98 L 68 98 Z M 68.332031 98 L 68.664062 98 Z M 68.664062 98 L 68.996094 98 Z M 69 97 L 69.332031 97 L 69.332031 98 L 69 98 Z M 69.332031 95 L 69.664062 95 L 69.664062 98 L 69.332031 98 Z M 69.664062 98 L 69.996094 98 Z M 70 98 L 70.332031 98 Z M 70.332031 84 L 70.664062 84 L 70.664062 98 L 70.332031 98 Z M 70.664062 81 L 70.996094 81 L 70.996094 98 L 70.664062 98 Z M 71 81 L 71.332031 81 L 71.332031 98 L 71 98 Z M 71.332031 69 L 71.664062 69 L 71.664062 98 L 71.332031 98 Z M 71.664062 79 L 71.996094 79 L 71.996094 98 L 71.664062 98 Z M 72 83 L 72.332031 83 L 72.332031 98 L 72 98 Z M 72.332031 87 L 72.664062 87 L 72.664062 98 L 72.332031 98 Z M 72.664062 94 L 72.996094 94 L 72.996094 98 L 72.664062 98 Z M 73 92 L 73.332031 92 L 73.332031 98 L 73 98 Z M 73.332031 93 L 73.664062 93 L 73.664062 98 L 73.332031 98 Z M 73.664062 95 L 73.996094 95 L 73.996094 98 L 73.664062 98 Z M 74 93 L 74.332031 93 L 74.332031 98 L 74 98 Z M 74.332031 98 L 74.664062 98 Z M 74.664062 98 L 74.996094 98 Z M 75 97 L 75.332031 97 L 75.332031 98 L 75 98 Z M 75.332031 91 L 75.664062 91 L 75.664062 98 L 75.332031 98 Z M 75.664062 81 L 75.996094 81 L 75.996094 98 L 75.664062 98 Z M 76 76 L 76.332031 76 L 76.332031 98 L 76 98 Z M 76.332031 98 L 76.664062 98 Z M 76.664062 98 L 76.996094 98 Z M 77 97 L 77.332031 97 L 77.332031 98 L 77 98 Z M 77.332031 95 L 77.664062 95 L 77.664062 98 L 77.332031 98 Z M 77.664062 98 L 77.996094 98 Z M 78 98 L 78.332031 98 Z M 78.332031 84 L 78.664062 84 L 78.664062 98 L 78.332031 98 Z M 78.664062 81 L 78.996094 81 L 78.996094 98 L 78.664062 98 Z M 79 81 L 79.332031 81 L 79.332031 98 L 79 98 Z M 79.332031 69 L 79.664062 69 L 79.664062 98 L 79.332031 98 Z M 79.664062 79 L 79.996094 79 L 79.996094 98 L 79.664062 98 Z M 80 83 L 80.332031 83 L 80.332031 98 L 80 98 Z M 80.332031 87 L 80.664062 87 L 80.664062 98 L 80.332031 98 Z M 80.664062 94 L 80.996094 94 L 80.996094 98 L 80.664062 98 Z M 81 92 L 81.332031 92 L 81.332031 98 L 81 98 Z M 81.332031 93 L 81.664062 93 L 81.664062 98 L 81.332031 98 Z M 81.664062 95 L 81.996094 95 L 81.996094 98 L 81.664062 98 Z M 82 93 L 82.332031 93 L 82.332031 98 L 82 98 Z M 82.332031 98 L 82.664062 98 Z M 82.664062 98 L 82.996094 98 Z M 83 97 L 83.332031 97 L 83.332031 98 L 83 98 Z M 83.332031 91 L 83.664062 91 L 83.664062 98 L 83.332031 98 Z M 83.664062 81 L 83.996094 81 L 83.996094 98 L 83.664062 98 Z M 84 76 L 84.332031 76 L 84.332031 98 L 84 98 Z M 84.332031 98 L 84.664062 98 Z M 84.664062 98 L 84.996094 98 Z M 85 97 L 85.332031 97 L 85.332031 98 L 85 98 Z M 85.332031 95 L 85.664062 95 L 85.664062 98 L 85.332031 98 Z M 85.664062 98 L 85.996094 98 Z M 86 98 L 86.332031 98 Z M 86.332031 84 L 86.664062 84 L 86.664062 98 L 86.332031 98 Z M 86.664062 81 L 86.996094 81 L 86.996094 98 L 86.664062 98 Z M 87 81 L 87.332031 81 L 87.332031 98 L 87 98 Z M 87.332031 69 L 87.664062 69 L 87.664062 98 L 87.332031 98 Z M 87.664062 79 L 87.996094 79 L 87.996094 98 L 87.664062 98 Z M 88 83 L 88.332031 83 L 88.332031 98 L 88 98 Z M 88.332031 87 L 88.664062 87 L 88.664062 98 L 88.332031 98 Z M 88.664062 94 L 88.996094 94 L 88.996094 98 L 88.664062 98 Z M 89 92 L 89.332031 92 L 89.332031 98 L 89 98 Z M 89.332031 93 L 89.664062 93 L 89.664062 98 L 89.332031 98 Z M 89.664062 95 L 89.996094 95 L 89.996094 98 L 89.664062 98 Z M 90 93 L 90.332031 93 L 90.332031 98 L 90 98 Z M 90.332031 98 L 90.664062 98 Z M 90.664062 98 L 90.996094 98 Z M 91 97 L 91.332031 97 L 91.332031 98 L 91 98 Z M 91.332031 91 L 91.664062 91 L 91.664062 98 L 91.332031 98 Z M 91.664062 81 L 91.996094 81 L 91.996094 98 L 91.664062 98 Z M 92 76 L 92.332031 76 L 92.332031 98 L 92 98 Z M 92.332031 98 L 92.664062 98 Z M 92.664062 98 L 92.996094 98 Z M 93 97 L 93.332031 97 L 93.332031 98 L 93 98 Z M 93.332031 95 L 93.664062 95 L 93.664062 98 L 93.332031 98 Z M 93.664062 98 L 93.996094 98 Z M 94 98 L 94.332031 98 Z M 94.332031 84 L 94.664062 84 L 94.664062 98 L 94.332031 98 Z M 94.664062 81 L 94.996094 81 L 94.996094 98 L 94.664062 98 Z M 95 81 L 95.332031 81 L 95.332031 98 L 95 98 Z M 95.332031 69 L 95.664062 69 L 95.664062 98 L 95.332031 98 Z M 95.664062 79 L 95.996094 79 L 95.996094 98 L 95.664062 98 Z M 96 83 L 96.332031 83 L 96.332031 98 L 96 98 Z M 96.332031 87 L 96.664062 87 L 96.664062 98 L 96.332031 98 Z M 96.664062 94 L 96.996094 94 L 96.996094 98 L 96.664062 98 Z M 97 92 L 97.332031 92 L 97.332031 98 L 97 98 Z M 97.332031 93 L 97.664062 93 L 97.664062 98 L 97.332031 98 Z M 97.664062 95 L 97.996094 95 L 97.996094 98 L 97.664062 98 Z M 98 93 L 98.332031 93 L 98.332031 98 L 98 98 Z M 98.332031 98 L 98.664062 98 Z M 98.664062 98 L 98.996094 98 Z M 99 97 L 99.332031 97 L 99.332031 98 L 99 98 Z M 99.332031 91 L 99.664062 91 L 99.664062 98 L 99.332031 98 Z M 99.664062 81 L 99.996094 81 L 99.996094 98 L 99.664062 98 Z M 100 76 L 100.332031 76 L 100.332031 98 L 100 98 Z M 100.332031 98 L 100.664062 98 Z M 100.664062 98 L 100.996094 98 Z M 101 97 L 101.332031 97 L 101.332031 98 L 101 98 Z M 101.332031 95 L 101.664062 95 L 101.664062 98 L 101.332031 98 Z M 101.664062 98 L 101.996094 98 Z M 102 98 L 102.332031 98 Z M 102.332031 84 L 102.664062 84 L 102.664062 98 L 102.332031 98 Z M 102.664062 81 L 102.996094 81 L 102.996094 98 L 102.664062 98 Z M 103 81 L 103.332031 81 L 103.332031 98 L 103 98 Z M 103.332031 69 L 103.664062 69 L 103.664062 98 L 103.332031 98 Z M 103.664062 79 L 103.996094 79 L 103.996094 98 L 103.664062 98 Z M 104 83 L 104.332031 83 L 104.332031 98 L 104 98 Z M 104.332031 87 L 104.664062 87 L 104.664062 98 L 104.332031 98 Z M 104.664062 94 L 104.996094 94 L 104.996094 98 L 104.664062 98 Z M 105 92 L 105.332031 92 L 105.332031 98 L 105 98 Z M 105.332031 93 L 105.664062 93 L 105.664062 98 L 105.332031 98 Z M 105.664062 95 L 105.996094 95 L 105.996094 98 L 105.664062 98 Z M 106 93 L 106.332031 93 L 106.332031 98 L 106 98 Z M 106.332031 98 L 106.664062 98 Z M 106.664062 98 L 106.996094 98 Z M 107 97 L 107.332031 97 L 107.332031 98 L 107 98 Z M 107.332031 91 L 107.664062 91 L 107.664062 98 L 107.332031 98 Z M 107.664062 81 L 107.996094 81 L 107.996094 98 L 107.664062 98 Z M 108 76 L 108.332031 76 L 108.332031 98 L 108 98 Z M 108 76 "/>
<path style="fill:none;stroke-width:2;stroke-linecap:butt;stroke-linejoin:miter;stroke:rgb(100%,100%,100%);stroke-opacity:1;stroke-miterlimit:10;" d="M 1 1 L 109 1 L 109 32 L 1 32 Z M 1 1 " transform="matrix(1,0,0,1,0,67)"/>
</g>
</svg>
