<?xml version="1.0" encoding="UTF-8"?>
<?xml-stylesheet href="../ldoc.css" type="text/css"?>
<svg xmlns="http://www.w3.org/2000/svg" xmlns:xlink="http://www.w3.org/1999/xlink" width="288pt" height="76pt" viewBox="0 0 288 76" version="1.1">
<defs>
<clipPath id="clip1">
  <path d="M 96 0 L 172 0 L 172 76 L 96 76 Z M 96 0 "/>
</clipPath>
<clipPath id="clip2">
  <path d="M 192 0 L 268 0 L 268 76 L 192 76 Z M 192 0 "/>
</clipPath>
</defs>
<g id="surface2">
<path style="fill-rule:nonzero;fill:rgb(38.039216%,50.588235%,100%);fill-opacity:0.5;stroke-width:2;stroke-linecap:butt;stroke-linejoin:miter;stroke:rgb(38.039216%,50.588235%,100%);stroke-opacity:1;stroke-miterlimit:10;" d="M 35 0 L 47.375 22.625 L 70 35 L 47.375 47.375 L 35 70 L 22.625 47.375 L 0 35 L 22.625 22.625 Z M 35 0 " transform="matrix(1,0,0,1,3,3)"/>
<path style=" stroke:none;fill-rule:nonzero;fill:rgb(38.039216%,50.588235%,100%);fill-opacity:0.5;" d="M 134 3 L 139.984375 21.554688 L 156.496094 11.1875 L 149.15625 29.25 L 168.46875 31.921875 L 151.234375 41.039062 L 164.3125 55.5 L 145.25 51.40625 L 145.972656 70.890625 L 134 55.5 L 122.027344 70.890625 L 122.75 51.40625 L 103.6875 55.5 L 116.765625 41.039062 L 99.53125 31.921875 L 118.84375 29.25 L 111.503906 11.1875 L 128.015625 21.554688 Z M 134 3 "/>
<g clip-path="url(#clip1)" clip-rule="nonzero">
<path style="fill:none;stroke-width:2;stroke-linecap:butt;stroke-linejoin:miter;stroke:rgb(38.039216%,50.588235%,100%);stroke-opacity:1;stroke-miterlimit:10;" d="M 35 0 L 40.984375 18.554688 L 57.496094 8.1875 L 50.15625 26.25 L 69.46875 28.921875 L 52.234375 38.039062 L 65.3125 52.5 L 46.25 48.40625 L 46.972656 67.890625 L 35 52.5 L 23.027344 67.890625 L 23.75 48.40625 L 4.6875 52.5 L 17.765625 38.039062 L 0.53125 28.921875 L 19.84375 26.25 L 12.503906 8.1875 L 29.015625 18.554688 Z M 35 0 " transform="matrix(1,0,0,1,99,3)"/>
</g>
<path style=" stroke:none;fill-rule:nonzero;fill:rgb(38.039216%,50.588235%,100%);fill-opacity:0.5;" d="M 230 64.25 L 224.855469 48.617188 L 213.355469 46.113281 L 221.679688 33.945312 L 219.714844 16.761719 L 230 24.875 L 240.285156 16.761719 L 238.320312 33.945312 L 246.644531 46.113281 L 235.144531 48.617188 Z M 230 64.25 "/>
<g clip-path="url(#clip2)" clip-rule="nonzero">
<path style="fill:none;stroke-width:2;stroke-linecap:butt;stroke-linejoin:miter;stroke:rgb(38.039216%,50.588235%,100%);stroke-opacity:1;stroke-miterlimit:10;" d="M 35 61.25 L 29.855469 45.617188 L 18.355469 43.113281 L 26.679688 30.945312 L 24.714844 13.761719 L 35 21.875 L 45.285156 13.761719 L 43.320312 30.945312 L 51.644531 43.113281 L 40.144531 45.617188 Z M 35 61.25 " transform="matrix(1,0,0,1,195,3)"/>
</g>
</g>
</svg>
