<?xml version="1.0" encoding="UTF-8"?>
<?xml-stylesheet href="../ldoc.css" type="text/css"?>
<svg xmlns="http://www.w3.org/2000/svg" xmlns:xlink="http://www.w3.org/1999/xlink" width="110pt" height="30pt" viewBox="0 0 110 30" version="1.1">
<defs>
<clipPath id="clip1">
  <path d="M 0 0 L 110 0 L 110 20 L 0 20 Z M 0 0 "/>
</clipPath>
</defs>
<g id="surface2">
<g clip-path="url(#clip1)" clip-rule="nonzero">
<rect x="0" y="0" width="110" height="30" style="fill:rgb(38.039216%,50.588235%,100%);fill-opacity:0.490196;stroke:none;"/>
</g>
<path style=" stroke:none;fill-rule:nonzero;fill:rgb(66.666667%,0%,100%);fill-opacity:0.490196;" d="M 0 16.550781 L 1 16.550781 L 1 20 L 0 20 Z M 1 20 L 2 20 Z M 2 20 L 3 20 Z M 3 19.308594 L 4 19.308594 L 4 20 L 3 20 Z M 4 15.171875 L 5 15.171875 L 5 20 L 4 20 Z M 5 8.277344 L 6 8.277344 L 6 20 L 5 20 Z M 6 4.828125 L 7 4.828125 L 7 20 L 6 20 Z M 7 20 L 8 20 Z M 8 20 L 9 20 Z M 9 19.308594 L 10 19.308594 L 10 20 L 9 20 Z M 10 17.929688 L 11 17.929688 L 11 20 L 10 20 Z M 11 20 L 12 20 Z M 12 20 L 13 20 Z M 13 10.34375 L 14 10.34375 L 14 20 L 13 20 Z M 14 8.277344 L 15 8.277344 L 15 20 L 14 20 Z M 15 8.277344 L 16 8.277344 L 16 20 L 15 20 Z M 16 0 L 17 0 L 17 20 L 16 20 Z M 17 6.898438 L 18 6.898438 L 18 20 L 17 20 Z M 18 9.65625 L 19 9.65625 L 19 20 L 18 20 Z M 19 12.414062 L 20 12.414062 L 20 20 L 19 20 Z M 20 17.242188 L 21 17.242188 L 21 20 L 20 20 Z M 21 15.863281 L 22 15.863281 L 22 20 L 21 20 Z M 22 16.550781 L 23 16.550781 L 23 20 L 22 20 Z M 23 17.929688 L 24 17.929688 L 24 20 L 23 20 Z M 24 16.550781 L 25 16.550781 L 25 20 L 24 20 Z M 25 20 L 26 20 Z M 26 20 L 27 20 Z M 27 19.308594 L 28 19.308594 L 28 20 L 27 20 Z M 28 15.171875 L 29 15.171875 L 29 20 L 28 20 Z M 29 8.277344 L 30 8.277344 L 30 20 L 29 20 Z M 30 4.828125 L 31 4.828125 L 31 20 L 30 20 Z M 31 20 L 32 20 Z M 32 20 L 33 20 Z M 33 19.308594 L 34 19.308594 L 34 20 L 33 20 Z M 34 17.929688 L 35 17.929688 L 35 20 L 34 20 Z M 35 20 L 36 20 Z M 36 20 L 37 20 Z M 37 10.34375 L 38 10.34375 L 38 20 L 37 20 Z M 38 8.277344 L 39 8.277344 L 39 20 L 38 20 Z M 39 8.277344 L 40 8.277344 L 40 20 L 39 20 Z M 40 0 L 41 0 L 41 20 L 40 20 Z M 41 6.898438 L 42 6.898438 L 42 20 L 41 20 Z M 42 9.65625 L 43 9.65625 L 43 20 L 42 20 Z M 43 12.414062 L 44 12.414062 L 44 20 L 43 20 Z M 44 17.242188 L 45 17.242188 L 45 20 L 44 20 Z M 45 15.863281 L 46 15.863281 L 46 20 L 45 20 Z M 46 16.550781 L 47 16.550781 L 47 20 L 46 20 Z M 47 17.929688 L 48 17.929688 L 48 20 L 47 20 Z M 48 16.550781 L 49 16.550781 L 49 20 L 48 20 Z M 49 20 L 50 20 Z M 50 20 L 51 20 Z M 51 19.308594 L 52 19.308594 L 52 20 L 51 20 Z M 52 15.171875 L 53 15.171875 L 53 20 L 52 20 Z M 53 8.277344 L 54 8.277344 L 54 20 L 53 20 Z M 54 4.828125 L 55 4.828125 L 55 20 L 54 20 Z M 55 20 L 56 20 Z M 56 20 L 57 20 Z M 57 19.308594 L 58 19.308594 L 58 20 L 57 20 Z M 58 17.929688 L 59 17.929688 L 59 20 L 58 20 Z M 59 20 L 60 20 Z M 60 20 L 61 20 Z M 61 10.34375 L 62 10.34375 L 62 20 L 61 20 Z M 62 8.277344 L 63 8.277344 L 63 20 L 62 20 Z M 63 8.277344 L 64 8.277344 L 64 20 L 63 20 Z M 64 0 L 65 0 L 65 20 L 64 20 Z M 65 6.898438 L 66 6.898438 L 66 20 L 65 20 Z M 66 9.65625 L 67 9.65625 L 67 20 L 66 20 Z M 67 12.414062 L 68 12.414062 L 68 20 L 67 20 Z M 68 17.242188 L 69 17.242188 L 69 20 L 68 20 Z M 69 15.863281 L 70 15.863281 L 70 20 L 69 20 Z M 70 16.550781 L 71 16.550781 L 71 20 L 70 20 Z M 71 17.929688 L 72 17.929688 L 72 20 L 71 20 Z M 72 16.550781 L 73 16.550781 L 73 20 L 72 20 Z M 73 20 L 74 20 Z M 74 20 L 75 20 Z M 75 19.308594 L 76 19.308594 L 76 20 L 75 20 Z M 76 15.171875 L 77 15.171875 L 77 20 L 76 20 Z M 77 8.277344 L 78 8.277344 L 78 20 L 77 20 Z M 78 4.828125 L 79 4.828125 L 79 20 L 78 20 Z M 79 20 L 80 20 Z M 80 20 L 81 20 Z M 81 19.308594 L 82 19.308594 L 82 20 L 81 20 Z M 82 17.929688 L 83 17.929688 L 83 20 L 82 20 Z M 83 20 L 84 20 Z M 84 20 L 85 20 Z M 85 10.34375 L 86 10.34375 L 86 20 L 85 20 Z M 86 8.277344 L 87 8.277344 L 87 20 L 86 20 Z M 87 8.277344 L 88 8.277344 L 88 20 L 87 20 Z M 88 0 L 89 0 L 89 20 L 88 20 Z M 89 6.898438 L 90 6.898438 L 90 20 L 89 20 Z M 90 9.65625 L 91 9.65625 L 91 20 L 90 20 Z M 91 12.414062 L 92 12.414062 L 92 20 L 91 20 Z M 92 17.242188 L 93 17.242188 L 93 20 L 92 20 Z M 93 15.863281 L 94 15.863281 L 94 20 L 93 20 Z M 94 16.550781 L 95 16.550781 L 95 20 L 94 20 Z M 95 17.929688 L 96 17.929688 L 96 20 L 95 20 Z M 96 16.550781 L 97 16.550781 L 97 20 L 96 20 Z M 97 20 L 98 20 Z M 98 20 L 99 20 Z M 99 19.308594 L 100 19.308594 L 100 20 L 99 20 Z M 100 15.171875 L 101 15.171875 L 101 20 L 100 20 Z M 101 8.277344 L 102 8.277344 L 102 20 L 101 20 Z M 102 4.828125 L 103 4.828125 L 103 20 L 102 20 Z M 103 20 L 104 20 Z M 104 20 L 105 20 Z M 105 19.308594 L 106 19.308594 L 106 20 L 105 20 Z M 106 17.929688 L 107 17.929688 L 107 20 L 106 20 Z M 107 20 L 108 20 Z M 108 20 L 109 20 Z M 109 10.34375 L 110 10.34375 L 110 20 L 109 20 Z M 109 10.34375 "/>
</g>
</svg>
