<?xml version="1.0" encoding="UTF-8"?>
<?xml-stylesheet href="../ldoc.css" type="text/css"?>
<svg xmlns="http://www.w3.org/2000/svg" xmlns:xlink="http://www.w3.org/1999/xlink" width="54pt" height="30pt" viewBox="0 0 54 30" version="1.1">
<defs>
<clipPath id="clip1">
  <path d="M 0 0 L 20 0 L 20 20 L 0 20 Z M 0 0 "/>
</clipPath>
<clipPath id="clip2">
  <path d="M 24 0 L 44 0 L 44 20 L 24 20 Z M 24 0 "/>
</clipPath>
</defs>
<g id="surface2">
<g clip-path="url(#clip1)" clip-rule="nonzero">
<path style="fill:none;stroke-width:1;stroke-linecap:butt;stroke-linejoin:miter;stroke:rgb(38.039216%,50.588235%,100%);stroke-opacity:0.490196;stroke-miterlimit:10;" d="M 19 9.5 C 19 14.746094 14.746094 19 9.5 19 C 4.253906 19 0 14.746094 0 9.5 C 0 4.253906 4.253906 0 9.5 0 C 14.746094 0 19 4.253906 19 9.5 Z M 19 9.5 " transform="matrix(1,0,0,1,0.5,0.5)"/>
</g>
<path style=" stroke:none;fill-rule:nonzero;fill:rgb(38.039216%,50.588235%,100%);fill-opacity:0.490196;" d="M 17.5 10 C 17.5 14.140625 14.140625 17.5 10 17.5 C 5.859375 17.5 2.5 14.140625 2.5 10 C 2.5 5.859375 5.859375 2.5 10 2.5 C 14.140625 2.5 17.5 5.859375 17.5 10 Z M 17.5 10 "/>
<g clip-path="url(#clip2)" clip-rule="nonzero">
<path style="fill:none;stroke-width:1;stroke-linecap:butt;stroke-linejoin:miter;stroke:rgb(38.039216%,50.588235%,100%);stroke-opacity:0.490196;stroke-miterlimit:10;" d="M 19 9.5 C 19 14.746094 14.746094 19 9.5 19 C 4.253906 19 0 14.746094 0 9.5 C 0 4.253906 4.253906 0 9.5 0 C 14.746094 0 19 4.253906 19 9.5 Z M 19 9.5 " transform="matrix(1,0,0,1,24.5,0.5)"/>
</g>
</g>
</svg>
