<?xml version="1.0" encoding="UTF-8"?>
<?xml-stylesheet href="../ldoc.css" type="text/css"?>
<svg xmlns="http://www.w3.org/2000/svg" xmlns:xlink="http://www.w3.org/1999/xlink" width="110pt" height="110pt" viewBox="0 0 110 110" version="1.1">
<defs>
<clipPath id="clip1">
  <path d="M 0 0 L 110 0 L 110 25 L 0 25 Z M 0 0 "/>
</clipPath>
<clipPath id="clip2">
  <path d="M 7 7 L 39 7 L 39 18 L 7 18 Z M 7 7 "/>
</clipPath>
<clipPath id="clip3">
  <path d="M 5 11.5 C 5 7.910156 7.910156 5 11.5 5 L 96.5 5 C 100.089844 5 103 7.910156 103 11.5 C 103 15.089844 100.089844 18 96.5 18 L 11.5 18 C 7.910156 18 5 15.089844 5 11.5 Z M 5 11.5 "/>
</clipPath>
<clipPath id="clip4">
  <path d="M 0 25 L 110 25 L 110 50 L 0 50 Z M 0 25 "/>
</clipPath>
<clipPath id="clip5">
  <path d="M 7 32 L 39 32 L 39 43 L 7 43 Z M 7 32 "/>
</clipPath>
<clipPath id="clip6">
  <path d="M 7.296875 30 L 100.703125 30 L 103 32.296875 L 103 40.703125 L 100.703125 43 L 7.296875 43 L 5 40.703125 L 5 32.296875 Z M 7.296875 30 "/>
</clipPath>
<clipPath id="clip7">
  <path d="M 0 50 L 110 50 L 110 75 L 0 75 Z M 0 50 "/>
</clipPath>
<clipPath id="clip8">
  <path d="M 7 57 L 39 57 L 39 68 L 7 68 Z M 7 57 "/>
</clipPath>
<clipPath id="clip9">
  <path d="M 11.5 55 L 96.5 55 L 103 61.5 L 96.5 68 L 11.5 68 L 5 61.5 Z M 11.5 55 "/>
</clipPath>
<clipPath id="clip10">
  <path d="M 0 75 L 110 75 L 110 100 L 0 100 Z M 0 75 "/>
</clipPath>
<clipPath id="clip11">
  <path d="M 7 82 L 39 82 L 39 93 L 7 93 Z M 7 82 "/>
</clipPath>
<clipPath id="clip12">
  <path d="M 5 80 L 96.5 80 L 103 86.5 L 96.5 93 L 5 93 L 11.5 86.5 Z M 5 80 "/>
</clipPath>
</defs>
<g id="surface2">
<path style=" stroke:none;fill-rule:nonzero;fill:rgb(38.039216%,50.588235%,100%);fill-opacity:0.490196;" d="M 6 12.5 C 6 8.910156 8.910156 6 12.5 6 L 97.5 6 C 101.089844 6 104 8.910156 104 12.5 C 104 16.089844 101.089844 19 97.5 19 L 12.5 19 C 8.910156 19 6 16.089844 6 12.5 Z M 6 12.5 "/>
<g clip-path="url(#clip1)" clip-rule="nonzero">
<path style="fill:none;stroke-width:2;stroke-linecap:butt;stroke-linejoin:miter;stroke:rgb(38.039216%,50.588235%,100%);stroke-opacity:1;stroke-miterlimit:10;" d="M 0 6.5 C 0 2.910156 2.910156 0 6.5 0 L 91.5 0 C 95.089844 0 98 2.910156 98 6.5 C 98 10.089844 95.089844 13 91.5 13 L 6.5 13 C 2.910156 13 0 10.089844 0 6.5 Z M 0 6.5 " transform="matrix(1,0,0,1,6,6)"/>
</g>
<g clip-path="url(#clip2)" clip-rule="nonzero">
<g clip-path="url(#clip3)" clip-rule="nonzero">
<path style=" stroke:none;fill-rule:nonzero;fill:rgb(66.666667%,0%,100%);fill-opacity:0.490196;" d="M 7 7 L 38.679688 7 L 38.679688 18 L 7 18 Z M 7 7 "/>
</g>
</g>
<path style=" stroke:none;fill-rule:nonzero;fill:rgb(38.039216%,50.588235%,100%);fill-opacity:0.490196;" d="M 8.296875 31 L 101.703125 31 L 104 33.296875 L 104 41.703125 L 101.703125 44 L 8.296875 44 L 6 41.703125 L 6 33.296875 Z M 8.296875 31 "/>
<g clip-path="url(#clip4)" clip-rule="nonzero">
<path style="fill:none;stroke-width:2;stroke-linecap:butt;stroke-linejoin:miter;stroke:rgb(38.039216%,50.588235%,100%);stroke-opacity:1;stroke-miterlimit:10;" d="M 2.296875 0 L 95.703125 0 L 98 2.296875 L 98 10.703125 L 95.703125 13 L 2.296875 13 L 0 10.703125 L 0 2.296875 Z M 2.296875 0 " transform="matrix(1,0,0,1,6,31)"/>
</g>
<g clip-path="url(#clip5)" clip-rule="nonzero">
<g clip-path="url(#clip6)" clip-rule="nonzero">
<path style=" stroke:none;fill-rule:nonzero;fill:rgb(66.666667%,0%,100%);fill-opacity:0.490196;" d="M 7 32 L 38.679688 32 L 38.679688 43 L 7 43 Z M 7 32 "/>
</g>
</g>
<path style=" stroke:none;fill-rule:nonzero;fill:rgb(38.039216%,50.588235%,100%);fill-opacity:0.490196;" d="M 12.5 56 L 97.5 56 L 104 62.5 L 97.5 69 L 12.5 69 L 6 62.5 Z M 12.5 56 "/>
<g clip-path="url(#clip7)" clip-rule="nonzero">
<path style="fill:none;stroke-width:2;stroke-linecap:butt;stroke-linejoin:miter;stroke:rgb(38.039216%,50.588235%,100%);stroke-opacity:1;stroke-miterlimit:10;" d="M 6.5 0 L 91.5 0 L 98 6.5 L 91.5 13 L 6.5 13 L 0 6.5 Z M 6.5 0 " transform="matrix(1,0,0,1,6,56)"/>
</g>
<g clip-path="url(#clip8)" clip-rule="nonzero">
<g clip-path="url(#clip9)" clip-rule="nonzero">
<path style=" stroke:none;fill-rule:nonzero;fill:rgb(66.666667%,0%,100%);fill-opacity:0.490196;" d="M 7 57 L 38.679688 57 L 38.679688 68 L 7 68 Z M 7 57 "/>
</g>
</g>
<path style=" stroke:none;fill-rule:nonzero;fill:rgb(38.039216%,50.588235%,100%);fill-opacity:0.490196;" d="M 6 81 L 97.5 81 L 104 87.5 L 97.5 94 L 6 94 L 12.5 87.5 Z M 6 81 "/>
<g clip-path="url(#clip10)" clip-rule="nonzero">
<path style="fill:none;stroke-width:2;stroke-linecap:butt;stroke-linejoin:miter;stroke:rgb(38.039216%,50.588235%,100%);stroke-opacity:1;stroke-miterlimit:10;" d="M 0 0 L 91.5 0 L 98 6.5 L 91.5 13 L 0 13 L 6.5 6.5 Z M 0 0 " transform="matrix(1,0,0,1,6,81)"/>
</g>
<g clip-path="url(#clip11)" clip-rule="nonzero">
<g clip-path="url(#clip12)" clip-rule="nonzero">
<path style=" stroke:none;fill-rule:nonzero;fill:rgb(66.666667%,0%,100%);fill-opacity:0.490196;" d="M 7 82 L 38.679688 82 L 38.679688 93 L 7 93 Z M 7 82 "/>
</g>
</g>
</g>
</svg>
