<?xml version="1.0" encoding="UTF-8"?>
<?xml-stylesheet href="../ldoc.css" type="text/css"?>
<svg xmlns="http://www.w3.org/2000/svg" xmlns:xlink="http://www.w3.org/1999/xlink" width="288pt" height="76pt" viewBox="0 0 288 76" version="1.1">
<g id="surface2">
<path style="fill-rule:nonzero;fill:rgb(38.039216%,50.588235%,100%);fill-opacity:0.5;stroke-width:2;stroke-linecap:butt;stroke-linejoin:miter;stroke:rgb(38.039216%,50.588235%,100%);stroke-opacity:1;stroke-miterlimit:10;" d="M 23.332031 0 L 46.667969 0 L 46.667969 23.332031 L 70 23.332031 L 70 46.667969 L 46.667969 46.667969 L 46.667969 70 L 23.332031 70 L 23.332031 46.667969 L 0 46.667969 L 0 23.332031 L 23.332031 23.332031 Z M 23.332031 0 " transform="matrix(1,0,0,1,3,3)"/>
<path style="fill-rule:nonzero;fill:rgb(38.039216%,50.588235%,100%);fill-opacity:0.5;stroke-width:2;stroke-linecap:butt;stroke-linejoin:miter;stroke:rgb(38.039216%,50.588235%,100%);stroke-opacity:1;stroke-miterlimit:10;" d="M 6.667969 0 L 13.332031 0 L 13.332031 31.667969 L 20 31.667969 L 20 38.332031 L 13.332031 38.332031 L 13.332031 70 L 6.667969 70 L 6.667969 38.332031 L 0 38.332031 L 0 31.667969 L 6.667969 31.667969 Z M 6.667969 0 " transform="matrix(1,0,0,1,99,3)"/>
<path style="fill-rule:nonzero;fill:rgb(38.039216%,50.588235%,100%);fill-opacity:0.5;stroke-width:2;stroke-linecap:butt;stroke-linejoin:miter;stroke:rgb(38.039216%,50.588235%,100%);stroke-opacity:1;stroke-miterlimit:10;" d="M 11.667969 0 L 23.332031 0 L 23.332031 23.332031 L 35 23.332031 L 35 46.667969 L 23.332031 46.667969 L 23.332031 70 L 11.667969 70 L 11.667969 46.667969 L 0 46.667969 L 0 23.332031 L 11.667969 23.332031 Z M 11.667969 0 " transform="matrix(1,0,0,1,195,3)"/>
</g>
</svg>
