<?xml version="1.0" encoding="UTF-8"?>
<?xml-stylesheet href="../ldoc.css" type="text/css"?>
<svg xmlns="http://www.w3.org/2000/svg" xmlns:xlink="http://www.w3.org/1999/xlink" width="288pt" height="76pt" viewBox="0 0 288 76" version="1.1">
<defs>
<clipPath id="clip1">
  <path d="M 96 0 L 172 0 L 172 76 L 96 76 Z M 96 0 "/>
</clipPath>
<clipPath id="clip2">
  <path d="M 192 0 L 268 0 L 268 76 L 192 76 Z M 192 0 "/>
</clipPath>
</defs>
<g id="surface2">
<path style="fill-rule:nonzero;fill:rgb(38.039216%,50.588235%,100%);fill-opacity:0.5;stroke-width:2;stroke-linecap:butt;stroke-linejoin:miter;stroke:rgb(38.039216%,50.588235%,100%);stroke-opacity:1;stroke-miterlimit:10;" d="M 70 35 L 70 30.816406 L 69.992188 29.085938 L 69.984375 27.753906 L 69.972656 26.636719 L 69.957031 25.648438 L 69.9375 24.757812 L 69.914062 23.941406 L 69.886719 23.179688 L 69.855469 22.46875 L 69.820312 21.792969 L 69.785156 21.152344 L 69.742188 20.542969 L 69.699219 19.960938 L 69.648438 19.398438 L 69.597656 18.859375 L 69.542969 18.339844 L 69.484375 17.835938 L 69.417969 17.347656 L 69.351562 16.878906 L 69.285156 16.417969 L 69.210938 15.972656 L 69.132812 15.539062 L 69.050781 15.117188 L 68.964844 14.707031 L 68.878906 14.304688 L 68.785156 13.914062 L 68.691406 13.53125 L 68.589844 13.160156 L 68.488281 12.792969 L 68.378906 12.4375 L 68.269531 12.089844 L 68.15625 11.746094 L 68.035156 11.414062 L 67.914062 11.085938 L 67.789062 10.765625 L 67.65625 10.453125 L 67.523438 10.144531 L 67.386719 9.84375 L 67.246094 9.550781 L 67.097656 9.261719 L 66.949219 8.976562 L 66.796875 8.699219 L 66.640625 8.429688 L 66.476562 8.160156 L 66.3125 7.902344 L 66.144531 7.644531 L 65.96875 7.394531 L 65.792969 7.148438 L 65.609375 6.90625 L 65.421875 6.671875 L 65.234375 6.441406 L 65.039062 6.214844 L 64.839844 5.992188 L 64.636719 5.777344 L 64.425781 5.5625 L 64.214844 5.355469 L 63.996094 5.152344 L 63.773438 4.953125 L 63.546875 4.757812 L 63.316406 4.570312 L 63.082031 4.382812 L 62.839844 4.199219 L 62.59375 4.023438 L 62.34375 3.847656 L 62.085938 3.679688 L 61.828125 3.515625 L 61.289062 3.195312 L 61.011719 3.042969 L 60.726562 2.894531 L 60.4375 2.75 L 60.144531 2.605469 L 59.839844 2.46875 L 59.535156 2.335938 L 59.21875 2.207031 L 58.898438 2.082031 L 58.574219 1.957031 L 58.238281 1.839844 L 57.894531 1.726562 L 57.546875 1.617188 L 57.191406 1.507812 L 56.824219 1.40625 L 56.453125 1.304688 L 56.070312 1.210938 L 55.675781 1.117188 L 55.273438 1.03125 L 54.863281 0.945312 L 54.441406 0.863281 L 54.007812 0.789062 L 53.5625 0.714844 L 53.101562 0.644531 L 52.628906 0.578125 L 52.140625 0.515625 L 51.636719 0.457031 L 51.117188 0.398438 L 50.574219 0.347656 L 50.015625 0.300781 L 49.429688 0.253906 L 48.816406 0.214844 L 48.175781 0.175781 L 47.5 0.144531 L 46.785156 0.113281 L 46.023438 0.0859375 L 45.203125 0.0625 L 44.308594 0.0429688 L 43.316406 0.0273438 L 42.191406 0.015625 L 40.851562 0.0078125 L 39.089844 0 L 0 0 L 0 70 L 70 70 Z M 70 35 " transform="matrix(1,0,0,1,3,3)"/>
<path style=" stroke:none;fill-rule:nonzero;fill:rgb(38.039216%,50.588235%,100%);fill-opacity:0.5;" d="M 169 38 L 169 3 L 129.816406 3 L 128.085938 3.007812 L 126.753906 3.015625 L 125.636719 3.027344 L 124.648438 3.042969 L 123.757812 3.0625 L 122.941406 3.085938 L 122.179688 3.113281 L 121.46875 3.144531 L 120.792969 3.179688 L 120.152344 3.214844 L 119.542969 3.257812 L 118.960938 3.300781 L 118.398438 3.351562 L 117.859375 3.402344 L 117.339844 3.457031 L 116.835938 3.515625 L 116.347656 3.582031 L 115.878906 3.648438 L 115.417969 3.714844 L 114.972656 3.789062 L 114.539062 3.867188 L 114.117188 3.949219 L 113.707031 4.035156 L 113.304688 4.121094 L 112.914062 4.214844 L 112.53125 4.308594 L 112.160156 4.410156 L 111.792969 4.511719 L 111.4375 4.621094 L 111.089844 4.730469 L 110.746094 4.84375 L 110.414062 4.964844 L 110.085938 5.085938 L 109.765625 5.210938 L 109.453125 5.34375 L 109.144531 5.476562 L 108.84375 5.613281 L 108.550781 5.753906 L 108.261719 5.902344 L 107.976562 6.050781 L 107.699219 6.203125 L 107.429688 6.359375 L 107.160156 6.523438 L 106.902344 6.6875 L 106.644531 6.855469 L 106.394531 7.03125 L 106.148438 7.207031 L 105.90625 7.390625 L 105.671875 7.578125 L 105.441406 7.765625 L 105.214844 7.960938 L 104.992188 8.160156 L 104.777344 8.363281 L 104.5625 8.574219 L 104.355469 8.785156 L 104.152344 9.003906 L 103.953125 9.226562 L 103.757812 9.453125 L 103.570312 9.683594 L 103.382812 9.917969 L 103.199219 10.160156 L 103.023438 10.40625 L 102.847656 10.65625 L 102.679688 10.914062 L 102.515625 11.171875 L 102.195312 11.710938 L 102.042969 11.988281 L 101.894531 12.273438 L 101.75 12.5625 L 101.605469 12.855469 L 101.46875 13.160156 L 101.335938 13.464844 L 101.207031 13.78125 L 101.082031 14.101562 L 100.957031 14.425781 L 100.839844 14.761719 L 100.726562 15.105469 L 100.617188 15.453125 L 100.507812 15.808594 L 100.40625 16.175781 L 100.304688 16.546875 L 100.210938 16.929688 L 100.117188 17.324219 L 100.03125 17.726562 L 99.945312 18.136719 L 99.863281 18.558594 L 99.789062 18.992188 L 99.714844 19.4375 L 99.644531 19.898438 L 99.578125 20.371094 L 99.515625 20.859375 L 99.457031 21.363281 L 99.398438 21.882812 L 99.347656 22.425781 L 99.300781 22.984375 L 99.253906 23.570312 L 99.214844 24.183594 L 99.175781 24.824219 L 99.144531 25.5 L 99.113281 26.214844 L 99.085938 26.976562 L 99.0625 27.796875 L 99.042969 28.691406 L 99.027344 29.683594 L 99.015625 30.808594 L 99.007812 32.148438 L 99 33.910156 L 99 73 L 138.183594 73 L 139.914062 72.992188 L 141.246094 72.984375 L 142.363281 72.972656 L 143.351562 72.957031 L 144.242188 72.9375 L 145.058594 72.914062 L 145.820312 72.886719 L 146.53125 72.855469 L 147.207031 72.820312 L 147.847656 72.785156 L 148.457031 72.742188 L 149.039062 72.699219 L 149.601562 72.648438 L 150.140625 72.597656 L 150.660156 72.542969 L 151.164062 72.484375 L 151.652344 72.417969 L 152.121094 72.351562 L 152.582031 72.285156 L 153.027344 72.210938 L 153.460938 72.132812 L 153.882812 72.050781 L 154.292969 71.964844 L 154.695312 71.878906 L 155.085938 71.785156 L 155.46875 71.691406 L 155.839844 71.589844 L 156.207031 71.488281 L 156.5625 71.378906 L 156.910156 71.269531 L 157.253906 71.15625 L 157.585938 71.035156 L 157.914062 70.914062 L 158.234375 70.789062 L 158.546875 70.65625 L 158.855469 70.523438 L 159.15625 70.386719 L 159.449219 70.246094 L 159.738281 70.097656 L 160.023438 69.949219 L 160.300781 69.796875 L 160.570312 69.640625 L 160.839844 69.476562 L 161.097656 69.3125 L 161.355469 69.144531 L 161.605469 68.96875 L 161.851562 68.792969 L 162.09375 68.609375 L 162.328125 68.421875 L 162.558594 68.234375 L 162.785156 68.039062 L 163.007812 67.839844 L 163.222656 67.636719 L 163.4375 67.425781 L 163.644531 67.214844 L 163.847656 66.996094 L 164.046875 66.773438 L 164.242188 66.546875 L 164.429688 66.316406 L 164.617188 66.082031 L 164.800781 65.839844 L 164.976562 65.59375 L 165.152344 65.34375 L 165.320312 65.085938 L 165.484375 64.828125 L 165.804688 64.289062 L 165.957031 64.011719 L 166.105469 63.726562 L 166.25 63.4375 L 166.394531 63.144531 L 166.53125 62.839844 L 166.664062 62.535156 L 166.792969 62.21875 L 166.917969 61.898438 L 167.042969 61.574219 L 167.160156 61.238281 L 167.273438 60.894531 L 167.382812 60.546875 L 167.492188 60.191406 L 167.59375 59.824219 L 167.695312 59.453125 L 167.789062 59.070312 L 167.882812 58.675781 L 167.96875 58.273438 L 168.054688 57.863281 L 168.136719 57.441406 L 168.210938 57.007812 L 168.285156 56.5625 L 168.355469 56.101562 L 168.421875 55.628906 L 168.484375 55.140625 L 168.542969 54.636719 L 168.601562 54.117188 L 168.652344 53.574219 L 168.699219 53.015625 L 168.746094 52.429688 L 168.785156 51.816406 L 168.824219 51.175781 L 168.855469 50.5 L 168.886719 49.785156 L 168.914062 49.023438 L 168.9375 48.203125 L 168.957031 47.308594 L 168.972656 46.316406 L 168.984375 45.191406 L 168.992188 43.851562 L 169 42.089844 Z M 169 38 "/>
<g clip-path="url(#clip1)" clip-rule="nonzero">
<path style="fill:none;stroke-width:2;stroke-linecap:butt;stroke-linejoin:miter;stroke:rgb(38.039216%,50.588235%,100%);stroke-opacity:1;stroke-miterlimit:10;" d="M 70 35 L 70 0 L 30.816406 0 L 29.085938 0.0078125 L 27.753906 0.015625 L 26.636719 0.0273438 L 25.648438 0.0429688 L 24.757812 0.0625 L 23.941406 0.0859375 L 23.179688 0.113281 L 22.46875 0.144531 L 21.792969 0.179688 L 21.152344 0.214844 L 20.542969 0.257812 L 19.960938 0.300781 L 19.398438 0.351562 L 18.859375 0.402344 L 18.339844 0.457031 L 17.835938 0.515625 L 17.347656 0.582031 L 16.878906 0.648438 L 16.417969 0.714844 L 15.972656 0.789062 L 15.539062 0.867188 L 15.117188 0.949219 L 14.707031 1.035156 L 14.304688 1.121094 L 13.914062 1.214844 L 13.53125 1.308594 L 13.160156 1.410156 L 12.792969 1.511719 L 12.4375 1.621094 L 12.089844 1.730469 L 11.746094 1.84375 L 11.414062 1.964844 L 11.085938 2.085938 L 10.765625 2.210938 L 10.453125 2.34375 L 10.144531 2.476562 L 9.84375 2.613281 L 9.550781 2.753906 L 9.261719 2.902344 L 8.976562 3.050781 L 8.699219 3.203125 L 8.429688 3.359375 L 8.160156 3.523438 L 7.902344 3.6875 L 7.644531 3.855469 L 7.394531 4.03125 L 7.148438 4.207031 L 6.90625 4.390625 L 6.671875 4.578125 L 6.441406 4.765625 L 6.214844 4.960938 L 5.992188 5.160156 L 5.777344 5.363281 L 5.5625 5.574219 L 5.355469 5.785156 L 5.152344 6.003906 L 4.953125 6.226562 L 4.757812 6.453125 L 4.570312 6.683594 L 4.382812 6.917969 L 4.199219 7.160156 L 4.023438 7.40625 L 3.847656 7.65625 L 3.679688 7.914062 L 3.515625 8.171875 L 3.195312 8.710938 L 3.042969 8.988281 L 2.894531 9.273438 L 2.75 9.5625 L 2.605469 9.855469 L 2.46875 10.160156 L 2.335938 10.464844 L 2.207031 10.78125 L 2.082031 11.101562 L 1.957031 11.425781 L 1.839844 11.761719 L 1.726562 12.105469 L 1.617188 12.453125 L 1.507812 12.808594 L 1.40625 13.175781 L 1.304688 13.546875 L 1.210938 13.929688 L 1.117188 14.324219 L 1.03125 14.726562 L 0.945312 15.136719 L 0.863281 15.558594 L 0.789062 15.992188 L 0.714844 16.4375 L 0.644531 16.898438 L 0.578125 17.371094 L 0.515625 17.859375 L 0.457031 18.363281 L 0.398438 18.882812 L 0.347656 19.425781 L 0.300781 19.984375 L 0.253906 20.570312 L 0.214844 21.183594 L 0.175781 21.824219 L 0.144531 22.5 L 0.113281 23.214844 L 0.0859375 23.976562 L 0.0625 24.796875 L 0.0429688 25.691406 L 0.0273438 26.683594 L 0.015625 27.808594 L 0.0078125 29.148438 L 0 30.910156 L 0 70 L 39.183594 70 L 40.914062 69.992188 L 42.246094 69.984375 L 43.363281 69.972656 L 44.351562 69.957031 L 45.242188 69.9375 L 46.058594 69.914062 L 46.820312 69.886719 L 47.53125 69.855469 L 48.207031 69.820312 L 48.847656 69.785156 L 49.457031 69.742188 L 50.039062 69.699219 L 50.601562 69.648438 L 51.140625 69.597656 L 51.660156 69.542969 L 52.164062 69.484375 L 52.652344 69.417969 L 53.121094 69.351562 L 53.582031 69.285156 L 54.027344 69.210938 L 54.460938 69.132812 L 54.882812 69.050781 L 55.292969 68.964844 L 55.695312 68.878906 L 56.085938 68.785156 L 56.46875 68.691406 L 56.839844 68.589844 L 57.207031 68.488281 L 57.5625 68.378906 L 57.910156 68.269531 L 58.253906 68.15625 L 58.585938 68.035156 L 58.914062 67.914062 L 59.234375 67.789062 L 59.546875 67.65625 L 59.855469 67.523438 L 60.15625 67.386719 L 60.449219 67.246094 L 60.738281 67.097656 L 61.023438 66.949219 L 61.300781 66.796875 L 61.570312 66.640625 L 61.839844 66.476562 L 62.097656 66.3125 L 62.355469 66.144531 L 62.605469 65.96875 L 62.851562 65.792969 L 63.09375 65.609375 L 63.328125 65.421875 L 63.558594 65.234375 L 63.785156 65.039062 L 64.007812 64.839844 L 64.222656 64.636719 L 64.4375 64.425781 L 64.644531 64.214844 L 64.847656 63.996094 L 65.046875 63.773438 L 65.242188 63.546875 L 65.429688 63.316406 L 65.617188 63.082031 L 65.800781 62.839844 L 65.976562 62.59375 L 66.152344 62.34375 L 66.320312 62.085938 L 66.484375 61.828125 L 66.804688 61.289062 L 66.957031 61.011719 L 67.105469 60.726562 L 67.25 60.4375 L 67.394531 60.144531 L 67.53125 59.839844 L 67.664062 59.535156 L 67.792969 59.21875 L 67.917969 58.898438 L 68.042969 58.574219 L 68.160156 58.238281 L 68.273438 57.894531 L 68.382812 57.546875 L 68.492188 57.191406 L 68.59375 56.824219 L 68.695312 56.453125 L 68.789062 56.070312 L 68.882812 55.675781 L 68.96875 55.273438 L 69.054688 54.863281 L 69.136719 54.441406 L 69.210938 54.007812 L 69.285156 53.5625 L 69.355469 53.101562 L 69.421875 52.628906 L 69.484375 52.140625 L 69.542969 51.636719 L 69.601562 51.117188 L 69.652344 50.574219 L 69.699219 50.015625 L 69.746094 49.429688 L 69.785156 48.816406 L 69.824219 48.175781 L 69.855469 47.5 L 69.886719 46.785156 L 69.914062 46.023438 L 69.9375 45.203125 L 69.957031 44.308594 L 69.972656 43.316406 L 69.984375 42.191406 L 69.992188 40.851562 L 70 39.089844 Z M 70 35 " transform="matrix(1,0,0,1,99,3)"/>
</g>
<path style=" stroke:none;fill-rule:nonzero;fill:rgb(38.039216%,50.588235%,100%);fill-opacity:0.5;" d="M 265 38 L 265 3 L 225.816406 3 L 224.085938 3.007812 L 222.753906 3.015625 L 221.636719 3.027344 L 220.648438 3.042969 L 219.757812 3.0625 L 218.941406 3.085938 L 218.179688 3.113281 L 217.46875 3.144531 L 216.792969 3.179688 L 216.152344 3.214844 L 215.542969 3.257812 L 214.960938 3.300781 L 214.398438 3.351562 L 213.859375 3.402344 L 213.339844 3.457031 L 212.835938 3.515625 L 212.347656 3.582031 L 211.878906 3.648438 L 211.417969 3.714844 L 210.972656 3.789062 L 210.539062 3.867188 L 210.117188 3.949219 L 209.707031 4.035156 L 209.304688 4.121094 L 208.914062 4.214844 L 208.53125 4.308594 L 208.160156 4.410156 L 207.792969 4.511719 L 207.4375 4.621094 L 207.089844 4.730469 L 206.746094 4.84375 L 206.414062 4.964844 L 206.085938 5.085938 L 205.765625 5.210938 L 205.453125 5.34375 L 205.144531 5.476562 L 204.84375 5.613281 L 204.550781 5.753906 L 204.261719 5.902344 L 203.976562 6.050781 L 203.699219 6.203125 L 203.429688 6.359375 L 203.160156 6.523438 L 202.902344 6.6875 L 202.644531 6.855469 L 202.394531 7.03125 L 202.148438 7.207031 L 201.90625 7.390625 L 201.671875 7.578125 L 201.441406 7.765625 L 201.214844 7.960938 L 200.992188 8.160156 L 200.777344 8.363281 L 200.5625 8.574219 L 200.355469 8.785156 L 200.152344 9.003906 L 199.953125 9.226562 L 199.757812 9.453125 L 199.570312 9.683594 L 199.382812 9.917969 L 199.199219 10.160156 L 199.023438 10.40625 L 198.847656 10.65625 L 198.679688 10.914062 L 198.515625 11.171875 L 198.195312 11.710938 L 198.042969 11.988281 L 197.894531 12.273438 L 197.75 12.5625 L 197.605469 12.855469 L 197.46875 13.160156 L 197.335938 13.464844 L 197.207031 13.78125 L 197.082031 14.101562 L 196.957031 14.425781 L 196.839844 14.761719 L 196.726562 15.105469 L 196.617188 15.453125 L 196.507812 15.808594 L 196.40625 16.175781 L 196.304688 16.546875 L 196.210938 16.929688 L 196.117188 17.324219 L 196.03125 17.726562 L 195.945312 18.136719 L 195.863281 18.558594 L 195.789062 18.992188 L 195.714844 19.4375 L 195.644531 19.898438 L 195.578125 20.371094 L 195.515625 20.859375 L 195.457031 21.363281 L 195.398438 21.882812 L 195.347656 22.425781 L 195.300781 22.984375 L 195.253906 23.570312 L 195.214844 24.183594 L 195.175781 24.824219 L 195.144531 25.5 L 195.113281 26.214844 L 195.085938 26.976562 L 195.0625 27.796875 L 195.042969 28.691406 L 195.027344 29.683594 L 195.015625 30.808594 L 195.007812 32.148438 L 195 33.910156 L 195 42.273438 L 195.007812 43.980469 L 195.015625 45.296875 L 195.027344 46.410156 L 195.046875 47.390625 L 195.066406 48.277344 L 195.089844 49.09375 L 195.117188 49.851562 L 195.144531 50.5625 L 195.179688 51.234375 L 195.21875 51.875 L 195.257812 52.480469 L 195.304688 53.066406 L 195.351562 53.625 L 195.40625 54.164062 L 195.460938 54.683594 L 195.519531 55.183594 L 195.582031 55.671875 L 195.648438 56.144531 L 195.71875 56.601562 L 195.792969 57.046875 L 195.871094 57.480469 L 195.953125 57.902344 L 196.039062 58.3125 L 196.125 58.710938 L 196.21875 59.101562 L 196.316406 59.484375 L 196.414062 59.859375 L 196.519531 60.222656 L 196.625 60.578125 L 196.734375 60.925781 L 196.851562 61.269531 L 196.96875 61.601562 L 197.089844 61.929688 L 197.21875 62.25 L 197.347656 62.5625 L 197.480469 62.867188 L 197.621094 63.167969 L 197.761719 63.464844 L 197.90625 63.753906 L 198.054688 64.035156 L 198.210938 64.3125 L 198.367188 64.582031 L 198.527344 64.851562 L 198.863281 65.367188 L 199.039062 65.617188 L 199.214844 65.863281 L 199.398438 66.101562 L 199.585938 66.339844 L 199.777344 66.570312 L 199.972656 66.796875 L 200.171875 67.015625 L 200.375 67.234375 L 200.582031 67.445312 L 200.796875 67.652344 L 201.011719 67.855469 L 201.234375 68.054688 L 201.460938 68.25 L 201.691406 68.441406 L 201.929688 68.625 L 202.171875 68.808594 L 202.417969 68.984375 L 202.667969 69.15625 L 202.921875 69.328125 L 203.183594 69.492188 L 203.453125 69.652344 L 203.722656 69.808594 L 204.003906 69.964844 L 204.285156 70.113281 L 204.574219 70.257812 L 204.871094 70.398438 L 205.171875 70.535156 L 205.480469 70.667969 L 205.792969 70.800781 L 206.113281 70.925781 L 206.441406 71.046875 L 206.777344 71.164062 L 207.117188 71.277344 L 207.46875 71.390625 L 207.824219 71.496094 L 208.191406 71.597656 L 208.566406 71.699219 L 208.949219 71.792969 L 209.339844 71.886719 L 209.742188 71.972656 L 210.15625 72.058594 L 210.578125 72.140625 L 211.011719 72.214844 L 211.457031 72.289062 L 211.917969 72.359375 L 212.390625 72.425781 L 212.878906 72.488281 L 213.386719 72.546875 L 213.90625 72.601562 L 214.449219 72.652344 L 215.011719 72.703125 L 215.597656 72.746094 L 216.210938 72.789062 L 216.851562 72.824219 L 217.527344 72.859375 L 218.246094 72.886719 L 219.011719 72.914062 L 219.835938 72.9375 L 220.734375 72.957031 L 221.730469 72.972656 L 222.863281 72.984375 L 224.214844 72.992188 L 226.007812 73 L 231.246094 73 L 234.363281 72.996094 L 236.046875 72.992188 L 237.351562 72.984375 L 238.457031 72.96875 L 239.433594 72.953125 L 240.316406 72.933594 L 241.128906 72.910156 L 241.882812 72.882812 L 242.59375 72.851562 L 243.265625 72.816406 L 243.902344 72.78125 L 244.507812 72.738281 L 245.089844 72.695312 L 245.648438 72.644531 L 246.1875 72.59375 L 246.707031 72.535156 L 247.207031 72.476562 L 247.691406 72.414062 L 248.164062 72.347656 L 248.621094 72.277344 L 249.066406 72.203125 L 249.496094 72.125 L 249.917969 72.042969 L 250.328125 71.957031 L 250.730469 71.871094 L 251.121094 71.777344 L 251.5 71.679688 L 251.875 71.582031 L 252.238281 71.476562 L 252.59375 71.371094 L 252.941406 71.257812 L 253.28125 71.144531 L 253.617188 71.023438 L 253.941406 70.902344 L 254.261719 70.777344 L 254.574219 70.644531 L 254.882812 70.511719 L 255.183594 70.375 L 255.476562 70.230469 L 255.765625 70.085938 L 256.046875 69.9375 L 256.324219 69.78125 L 256.59375 69.625 L 256.863281 69.464844 L 257.378906 69.128906 L 257.628906 68.953125 L 257.871094 68.777344 L 258.113281 68.59375 L 258.347656 68.40625 L 258.578125 68.214844 L 258.804688 68.019531 L 259.027344 67.820312 L 259.242188 67.617188 L 259.453125 67.40625 L 259.660156 67.195312 L 259.863281 66.976562 L 260.0625 66.753906 L 260.257812 66.527344 L 260.449219 66.296875 L 260.816406 65.820312 L 260.992188 65.574219 L 261.335938 65.066406 L 261.5 64.804688 L 261.660156 64.535156 L 261.816406 64.261719 L 261.96875 63.984375 L 262.117188 63.703125 L 262.265625 63.410156 L 262.40625 63.117188 L 262.542969 62.816406 L 262.675781 62.507812 L 262.804688 62.191406 L 262.929688 61.871094 L 263.050781 61.542969 L 263.167969 61.207031 L 263.285156 60.867188 L 263.394531 60.515625 L 263.5 60.15625 L 263.605469 59.792969 L 263.703125 59.417969 L 263.796875 59.035156 L 263.890625 58.640625 L 263.976562 58.238281 L 264.0625 57.828125 L 264.140625 57.402344 L 264.21875 56.96875 L 264.292969 56.519531 L 264.363281 56.0625 L 264.429688 55.585938 L 264.492188 55.097656 L 264.550781 54.59375 L 264.605469 54.070312 L 264.65625 53.527344 L 264.703125 52.964844 L 264.75 52.375 L 264.789062 51.761719 L 264.824219 51.117188 L 264.859375 50.441406 L 264.890625 49.722656 L 264.914062 48.953125 L 264.9375 48.128906 L 264.957031 47.226562 L 264.972656 46.222656 L 264.984375 45.082031 L 264.992188 43.714844 L 265 41.894531 Z M 265 38 "/>
<g clip-path="url(#clip2)" clip-rule="nonzero">
<path style="fill:none;stroke-width:2;stroke-linecap:butt;stroke-linejoin:miter;stroke:rgb(38.039216%,50.588235%,100%);stroke-opacity:1;stroke-miterlimit:10;" d="M 70 35 L 70 0 L 30.816406 0 L 29.085938 0.0078125 L 27.753906 0.015625 L 26.636719 0.0273438 L 25.648438 0.0429688 L 24.757812 0.0625 L 23.941406 0.0859375 L 23.179688 0.113281 L 22.46875 0.144531 L 21.792969 0.179688 L 21.152344 0.214844 L 20.542969 0.257812 L 19.960938 0.300781 L 19.398438 0.351562 L 18.859375 0.402344 L 18.339844 0.457031 L 17.835938 0.515625 L 17.347656 0.582031 L 16.878906 0.648438 L 16.417969 0.714844 L 15.972656 0.789062 L 15.539062 0.867188 L 15.117188 0.949219 L 14.707031 1.035156 L 14.304688 1.121094 L 13.914062 1.214844 L 13.53125 1.308594 L 13.160156 1.410156 L 12.792969 1.511719 L 12.4375 1.621094 L 12.089844 1.730469 L 11.746094 1.84375 L 11.414062 1.964844 L 11.085938 2.085938 L 10.765625 2.210938 L 10.453125 2.34375 L 10.144531 2.476562 L 9.84375 2.613281 L 9.550781 2.753906 L 9.261719 2.902344 L 8.976562 3.050781 L 8.699219 3.203125 L 8.429688 3.359375 L 8.160156 3.523438 L 7.902344 3.6875 L 7.644531 3.855469 L 7.394531 4.03125 L 7.148438 4.207031 L 6.90625 4.390625 L 6.671875 4.578125 L 6.441406 4.765625 L 6.214844 4.960938 L 5.992188 5.160156 L 5.777344 5.363281 L 5.5625 5.574219 L 5.355469 5.785156 L 5.152344 6.003906 L 4.953125 6.226562 L 4.757812 6.453125 L 4.570312 6.683594 L 4.382812 6.917969 L 4.199219 7.160156 L 4.023438 7.40625 L 3.847656 7.65625 L 3.679688 7.914062 L 3.515625 8.171875 L 3.195312 8.710938 L 3.042969 8.988281 L 2.894531 9.273438 L 2.75 9.5625 L 2.605469 9.855469 L 2.46875 10.160156 L 2.335938 10.464844 L 2.207031 10.78125 L 2.082031 11.101562 L 1.957031 11.425781 L 1.839844 11.761719 L 1.726562 12.105469 L 1.617188 12.453125 L 1.507812 12.808594 L 1.40625 13.175781 L 1.304688 13.546875 L 1.210938 13.929688 L 1.117188 14.324219 L 1.03125 14.726562 L 0.945312 15.136719 L 0.863281 15.558594 L 0.789062 15.992188 L 0.714844 16.4375 L 0.644531 16.898438 L 0.578125 17.371094 L 0.515625 17.859375 L 0.457031 18.363281 L 0.398438 18.882812 L 0.347656 19.425781 L 0.300781 19.984375 L 0.253906 20.570312 L 0.214844 21.183594 L 0.175781 21.824219 L 0.144531 22.5 L 0.113281 23.214844 L 0.0859375 23.976562 L 0.0625 24.796875 L 0.0429688 25.691406 L 0.0273438 26.683594 L 0.015625 27.808594 L 0.0078125 29.148438 L 0 30.910156 L 0 39.273438 L 0.0078125 40.980469 L 0.015625 42.296875 L 0.0273438 43.410156 L 0.046875 44.390625 L 0.0664062 45.277344 L 0.0898438 46.09375 L 0.117188 46.851562 L 0.144531 47.5625 L 0.179688 48.234375 L 0.21875 48.875 L 0.257812 49.480469 L 0.304688 50.066406 L 0.351562 50.625 L 0.40625 51.164062 L 0.460938 51.683594 L 0.519531 52.183594 L 0.582031 52.671875 L 0.648438 53.144531 L 0.71875 53.601562 L 0.792969 54.046875 L 0.871094 54.480469 L 0.953125 54.902344 L 1.039062 55.3125 L 1.125 55.710938 L 1.21875 56.101562 L 1.316406 56.484375 L 1.414062 56.859375 L 1.519531 57.222656 L 1.625 57.578125 L 1.734375 57.925781 L 1.851562 58.269531 L 1.96875 58.601562 L 2.089844 58.929688 L 2.21875 59.25 L 2.347656 59.5625 L 2.480469 59.867188 L 2.621094 60.167969 L 2.761719 60.464844 L 2.90625 60.753906 L 3.054688 61.035156 L 3.210938 61.3125 L 3.367188 61.582031 L 3.527344 61.851562 L 3.863281 62.367188 L 4.039062 62.617188 L 4.214844 62.863281 L 4.398438 63.101562 L 4.585938 63.339844 L 4.777344 63.570312 L 4.972656 63.796875 L 5.171875 64.015625 L 5.375 64.234375 L 5.582031 64.445312 L 5.796875 64.652344 L 6.011719 64.855469 L 6.234375 65.054688 L 6.460938 65.25 L 6.691406 65.441406 L 6.929688 65.625 L 7.171875 65.808594 L 7.417969 65.984375 L 7.667969 66.15625 L 7.921875 66.328125 L 8.183594 66.492188 L 8.453125 66.652344 L 8.722656 66.808594 L 9.003906 66.964844 L 9.285156 67.113281 L 9.574219 67.257812 L 9.871094 67.398438 L 10.171875 67.535156 L 10.480469 67.667969 L 10.792969 67.800781 L 11.113281 67.925781 L 11.441406 68.046875 L 11.777344 68.164062 L 12.117188 68.277344 L 12.46875 68.390625 L 12.824219 68.496094 L 13.191406 68.597656 L 13.566406 68.699219 L 13.949219 68.792969 L 14.339844 68.886719 L 14.742188 68.972656 L 15.15625 69.058594 L 15.578125 69.140625 L 16.011719 69.214844 L 16.457031 69.289062 L 16.917969 69.359375 L 17.390625 69.425781 L 17.878906 69.488281 L 18.386719 69.546875 L 18.90625 69.601562 L 19.449219 69.652344 L 20.011719 69.703125 L 20.597656 69.746094 L 21.210938 69.789062 L 21.851562 69.824219 L 22.527344 69.859375 L 23.246094 69.886719 L 24.011719 69.914062 L 24.835938 69.9375 L 25.734375 69.957031 L 26.730469 69.972656 L 27.863281 69.984375 L 29.214844 69.992188 L 31.007812 70 L 36.246094 70 L 39.363281 69.996094 L 41.046875 69.992188 L 42.351562 69.984375 L 43.457031 69.96875 L 44.433594 69.953125 L 45.316406 69.933594 L 46.128906 69.910156 L 46.882812 69.882812 L 47.59375 69.851562 L 48.265625 69.816406 L 48.902344 69.78125 L 49.507812 69.738281 L 50.089844 69.695312 L 50.648438 69.644531 L 51.1875 69.59375 L 51.707031 69.535156 L 52.207031 69.476562 L 52.691406 69.414062 L 53.164062 69.347656 L 53.621094 69.277344 L 54.066406 69.203125 L 54.496094 69.125 L 54.917969 69.042969 L 55.328125 68.957031 L 55.730469 68.871094 L 56.121094 68.777344 L 56.5 68.679688 L 56.875 68.582031 L 57.238281 68.476562 L 57.59375 68.371094 L 57.941406 68.257812 L 58.28125 68.144531 L 58.617188 68.023438 L 58.941406 67.902344 L 59.261719 67.777344 L 59.574219 67.644531 L 59.882812 67.511719 L 60.183594 67.375 L 60.476562 67.230469 L 60.765625 67.085938 L 61.046875 66.9375 L 61.324219 66.78125 L 61.59375 66.625 L 61.863281 66.464844 L 62.378906 66.128906 L 62.628906 65.953125 L 62.871094 65.777344 L 63.113281 65.59375 L 63.347656 65.40625 L 63.578125 65.214844 L 63.804688 65.019531 L 64.027344 64.820312 L 64.242188 64.617188 L 64.453125 64.40625 L 64.660156 64.195312 L 64.863281 63.976562 L 65.0625 63.753906 L 65.257812 63.527344 L 65.449219 63.296875 L 65.816406 62.820312 L 65.992188 62.574219 L 66.335938 62.066406 L 66.5 61.804688 L 66.660156 61.535156 L 66.816406 61.261719 L 66.96875 60.984375 L 67.117188 60.703125 L 67.265625 60.410156 L 67.40625 60.117188 L 67.542969 59.816406 L 67.675781 59.507812 L 67.804688 59.191406 L 67.929688 58.871094 L 68.050781 58.542969 L 68.167969 58.207031 L 68.285156 57.867188 L 68.394531 57.515625 L 68.5 57.15625 L 68.605469 56.792969 L 68.703125 56.417969 L 68.796875 56.035156 L 68.890625 55.640625 L 68.976562 55.238281 L 69.0625 54.828125 L 69.140625 54.402344 L 69.21875 53.96875 L 69.292969 53.519531 L 69.363281 53.0625 L 69.429688 52.585938 L 69.492188 52.097656 L 69.550781 51.59375 L 69.605469 51.070312 L 69.65625 50.527344 L 69.703125 49.964844 L 69.75 49.375 L 69.789062 48.761719 L 69.824219 48.117188 L 69.859375 47.441406 L 69.890625 46.722656 L 69.914062 45.953125 L 69.9375 45.128906 L 69.957031 44.226562 L 69.972656 43.222656 L 69.984375 42.082031 L 69.992188 40.714844 L 70 38.894531 Z M 70 35 " transform="matrix(1,0,0,1,195,3)"/>
</g>
</g>
</svg>
