<?xml version="1.0" encoding="UTF-8"?>
<?xml-stylesheet href="../ldoc.css" type="text/css"?>
<svg xmlns="http://www.w3.org/2000/svg" xmlns:xlink="http://www.w3.org/1999/xlink" width="288pt" height="76pt" viewBox="0 0 288 76" version="1.1">
<defs>
<clipPath id="clip1">
  <path d="M 96 0 L 172 0 L 172 76 L 96 76 Z M 96 0 "/>
</clipPath>
<clipPath id="clip2">
  <path d="M 192 0 L 268 0 L 268 76 L 192 76 Z M 192 0 "/>
</clipPath>
</defs>
<g id="surface2">
<path style="fill-rule:nonzero;fill:rgb(38.039216%,50.588235%,100%);fill-opacity:0.5;stroke-width:2;stroke-linecap:butt;stroke-linejoin:miter;stroke:rgb(38.039216%,50.588235%,100%);stroke-opacity:1;stroke-miterlimit:10;" d="M 7.070312 0 L 62.929688 0 L 70 7.070312 L 70 62.929688 L 62.929688 70 L 7.070312 70 L 0 62.929688 L 0 7.070312 Z M 7.070312 0 " transform="matrix(1,0,0,1,3,3)"/>
<path style=" stroke:none;fill-rule:nonzero;fill:rgb(38.039216%,50.588235%,100%);fill-opacity:0.5;" d="M 118.800781 3 L 149.199219 3 L 169 22.800781 L 169 53.199219 L 149.199219 73 L 118.800781 73 L 99 53.199219 L 99 22.800781 Z M 118.800781 3 "/>
<g clip-path="url(#clip1)" clip-rule="nonzero">
<path style="fill:none;stroke-width:2;stroke-linecap:butt;stroke-linejoin:miter;stroke:rgb(38.039216%,50.588235%,100%);stroke-opacity:1;stroke-miterlimit:10;" d="M 19.800781 0 L 50.199219 0 L 70 19.800781 L 70 50.199219 L 50.199219 70 L 19.800781 70 L 0 50.199219 L 0 19.800781 Z M 19.800781 0 " transform="matrix(1,0,0,1,99,3)"/>
</g>
<path style=" stroke:none;fill-rule:nonzero;fill:rgb(38.039216%,50.588235%,100%);fill-opacity:0.5;" d="M 198.535156 28 L 261.464844 28 L 265 31.535156 L 265 44.464844 L 261.464844 48 L 198.535156 48 L 195 44.464844 L 195 31.535156 Z M 198.535156 28 "/>
<g clip-path="url(#clip2)" clip-rule="nonzero">
<path style="fill:none;stroke-width:2;stroke-linecap:butt;stroke-linejoin:miter;stroke:rgb(38.039216%,50.588235%,100%);stroke-opacity:1;stroke-miterlimit:10;" d="M 3.535156 25 L 66.464844 25 L 70 28.535156 L 70 41.464844 L 66.464844 45 L 3.535156 45 L 0 41.464844 L 0 28.535156 Z M 3.535156 25 " transform="matrix(1,0,0,1,195,3)"/>
</g>
</g>
</svg>
