<?xml version="1.0" encoding="UTF-8"?>
<?xml-stylesheet href="../ldoc.css" type="text/css"?>
<svg xmlns="http://www.w3.org/2000/svg" xmlns:xlink="http://www.w3.org/1999/xlink" width="410pt" height="40pt" viewBox="0 0 410 40" version="1.1">
<defs>
<clipPath id="clip1">
  <path d="M 0 12 L 99 12 L 99 17 L 0 17 Z M 0 12 "/>
</clipPath>
<clipPath id="clip2">
  <path d="M 0 0 L 16 0 L 16 30 L 0 30 Z M 0 0 "/>
</clipPath>
<clipPath id="clip3">
  <path d="M 104 9 L 203 9 L 203 20 L 104 20 Z M 104 9 "/>
</clipPath>
<clipPath id="clip4">
  <path d="M 104 0 L 120 0 L 120 30 L 104 30 Z M 104 0 "/>
</clipPath>
<clipPath id="clip5">
  <path d="M 208 6 L 306 6 L 306 24 L 208 24 Z M 208 6 "/>
</clipPath>
<clipPath id="clip6">
  <path d="M 208 0 L 224 0 L 224 30 L 208 30 Z M 208 0 "/>
</clipPath>
<clipPath id="clip7">
  <path d="M 311 0 L 410 0 L 410 30 L 311 30 Z M 311 0 "/>
</clipPath>
<clipPath id="clip8">
  <path d="M 311 0 L 327 0 L 327 30 L 311 30 Z M 311 0 "/>
</clipPath>
</defs>
<g id="surface2">
<g clip-path="url(#clip1)" clip-rule="nonzero">
<path style="fill:none;stroke-width:1;stroke-linecap:butt;stroke-linejoin:miter;stroke:rgb(38.039216%,50.588235%,100%);stroke-opacity:1;stroke-miterlimit:10;" d="M 0 0 L 99 0 L 99 3 L 0 3 Z M 0 0 " transform="matrix(1,0,0,1,0,13)"/>
</g>
<path style=" stroke:none;fill-rule:nonzero;fill:rgb(38.039216%,50.588235%,100%);fill-opacity:0.490196;" d="M 0 0 L 15 0 L 15 30 L 0 30 Z M 0 0 "/>
<g clip-path="url(#clip2)" clip-rule="nonzero">
<path style="fill:none;stroke-width:1;stroke-linecap:butt;stroke-linejoin:miter;stroke:rgb(38.039216%,50.588235%,100%);stroke-opacity:1;stroke-miterlimit:10;" d="M 0 0 L 15 0 L 15 30 L 0 30 Z M 0 0 "/>
</g>
<g clip-path="url(#clip3)" clip-rule="nonzero">
<path style="fill:none;stroke-width:1;stroke-linecap:butt;stroke-linejoin:miter;stroke:rgb(38.039216%,50.588235%,100%);stroke-opacity:1;stroke-miterlimit:10;" d="M 0 0 L 99 0 L 99 9 L 0 9 Z M 0 0 " transform="matrix(1,0,0,1,104,10)"/>
</g>
<path style=" stroke:none;fill-rule:nonzero;fill:rgb(38.039216%,50.588235%,100%);fill-opacity:0.490196;" d="M 104 0 L 119 0 L 119 30 L 104 30 Z M 104 0 "/>
<g clip-path="url(#clip4)" clip-rule="nonzero">
<path style="fill:none;stroke-width:1;stroke-linecap:butt;stroke-linejoin:miter;stroke:rgb(38.039216%,50.588235%,100%);stroke-opacity:1;stroke-miterlimit:10;" d="M 0 0 L 15 0 L 15 30 L 0 30 Z M 0 0 " transform="matrix(1,0,0,1,104,0)"/>
</g>
<g clip-path="url(#clip5)" clip-rule="nonzero">
<path style="fill:none;stroke-width:1;stroke-linecap:butt;stroke-linejoin:miter;stroke:rgb(38.039216%,50.588235%,100%);stroke-opacity:1;stroke-miterlimit:10;" d="M 0 0 L 98 0 L 98 16 L 0 16 Z M 0 0 " transform="matrix(1,0,0,1,208,7)"/>
</g>
<path style=" stroke:none;fill-rule:nonzero;fill:rgb(38.039216%,50.588235%,100%);fill-opacity:0.490196;" d="M 208 0 L 223 0 L 223 30 L 208 30 Z M 208 0 "/>
<g clip-path="url(#clip6)" clip-rule="nonzero">
<path style="fill:none;stroke-width:1;stroke-linecap:butt;stroke-linejoin:miter;stroke:rgb(38.039216%,50.588235%,100%);stroke-opacity:1;stroke-miterlimit:10;" d="M 0 0 L 15 0 L 15 30 L 0 30 Z M 0 0 " transform="matrix(1,0,0,1,208,0)"/>
</g>
<g clip-path="url(#clip7)" clip-rule="nonzero">
<path style="fill:none;stroke-width:1;stroke-linecap:butt;stroke-linejoin:miter;stroke:rgb(38.039216%,50.588235%,100%);stroke-opacity:1;stroke-miterlimit:10;" d="M 0 0 L 99 0 L 99 30 L 0 30 Z M 0 0 " transform="matrix(1,0,0,1,311,0)"/>
</g>
<path style=" stroke:none;fill-rule:nonzero;fill:rgb(38.039216%,50.588235%,100%);fill-opacity:0.490196;" d="M 311 0 L 326 0 L 326 30 L 311 30 Z M 311 0 "/>
<g clip-path="url(#clip8)" clip-rule="nonzero">
<path style="fill:none;stroke-width:1;stroke-linecap:butt;stroke-linejoin:miter;stroke:rgb(38.039216%,50.588235%,100%);stroke-opacity:1;stroke-miterlimit:10;" d="M 0 0 L 15 0 L 15 30 L 0 30 Z M 0 0 " transform="matrix(1,0,0,1,311,0)"/>
</g>
</g>
</svg>
