<?xml version="1.0" encoding="UTF-8"?>
<?xml-stylesheet href="../ldoc.css" type="text/css"?>
<svg xmlns="http://www.w3.org/2000/svg" xmlns:xlink="http://www.w3.org/1999/xlink" width="288pt" height="76pt" viewBox="0 0 288 76" version="1.1">
<defs>
<clipPath id="clip1">
  <path d="M 96 0 L 148 0 L 148 76 L 96 76 Z M 96 0 "/>
</clipPath>
<clipPath id="clip2">
  <path d="M 192 0 L 268 0 L 268 76 L 192 76 Z M 192 0 "/>
</clipPath>
</defs>
<g id="surface2">
<path style="fill-rule:nonzero;fill:rgb(38.039216%,50.588235%,100%);fill-opacity:0.5;stroke-width:2;stroke-linecap:butt;stroke-linejoin:miter;stroke:rgb(38.039216%,50.588235%,100%);stroke-opacity:1;stroke-miterlimit:10;" d="M 0 10 C 0 4.476562 4.476562 0 10 0 L 60 0 C 65.523438 0 70 4.476562 70 10 L 70 60 C 70 65.523438 65.523438 70 60 70 L 10 70 C 4.476562 70 0 65.523438 0 60 Z M 0 10 " transform="matrix(1,0,0,1,3,3)"/>
<path style=" stroke:none;fill-rule:nonzero;fill:rgb(38.039216%,50.588235%,100%);fill-opacity:0.5;" d="M 99 8 C 99 5.238281 101.238281 3 104 3 L 114 3 C 116.761719 3 119 5.238281 119 8 L 119 68 C 119 70.761719 116.761719 73 114 73 L 104 73 C 101.238281 73 99 70.761719 99 68 Z M 99 8 "/>
<g clip-path="url(#clip1)" clip-rule="nonzero">
<path style="fill:none;stroke-width:2;stroke-linecap:butt;stroke-linejoin:miter;stroke:rgb(38.039216%,50.588235%,100%);stroke-opacity:1;stroke-miterlimit:10;" d="M 0 5 C 0 2.238281 2.238281 0 5 0 L 15 0 C 17.761719 0 20 2.238281 20 5 L 20 65 C 20 67.761719 17.761719 70 15 70 L 5 70 C 2.238281 70 0 67.761719 0 65 Z M 0 5 " transform="matrix(1,0,0,1,99,3)"/>
</g>
<path style=" stroke:none;fill-rule:nonzero;fill:rgb(38.039216%,50.588235%,100%);fill-opacity:0.5;" d="M 195 33 C 195 30.238281 197.238281 28 200 28 L 260 28 C 262.761719 28 265 30.238281 265 33 L 265 43 C 265 45.761719 262.761719 48 260 48 L 200 48 C 197.238281 48 195 45.761719 195 43 Z M 195 33 "/>
<g clip-path="url(#clip2)" clip-rule="nonzero">
<path style="fill:none;stroke-width:2;stroke-linecap:butt;stroke-linejoin:miter;stroke:rgb(38.039216%,50.588235%,100%);stroke-opacity:1;stroke-miterlimit:10;" d="M 0 30 C 0 27.238281 2.238281 25 5 25 L 65 25 C 67.761719 25 70 27.238281 70 30 L 70 40 C 70 42.761719 67.761719 45 65 45 L 5 45 C 2.238281 45 0 42.761719 0 40 Z M 0 30 " transform="matrix(1,0,0,1,195,3)"/>
</g>
</g>
</svg>
