<?xml version="1.0" encoding="UTF-8"?>
<?xml-stylesheet href="../ldoc.css" type="text/css"?>
<svg xmlns="http://www.w3.org/2000/svg" xmlns:xlink="http://www.w3.org/1999/xlink" width="410pt" height="40pt" viewBox="0 0 410 40" version="1.1">
<defs>
<clipPath id="clip1">
  <path d="M 0 0 L 99 0 L 99 30 L 0 30 Z M 0 0 "/>
</clipPath>
<clipPath id="clip2">
  <path d="M 0 0 L 16 0 L 16 30 L 0 30 Z M 0 0 "/>
</clipPath>
<clipPath id="clip3">
  <path d="M 104 0 L 203 0 L 203 30 L 104 30 Z M 104 0 "/>
</clipPath>
<clipPath id="clip4">
  <path d="M 208 0 L 306 0 L 306 30 L 208 30 Z M 208 0 "/>
</clipPath>
<clipPath id="clip5">
  <path d="M 311 0 L 410 0 L 410 30 L 311 30 Z M 311 0 "/>
</clipPath>
</defs>
<g id="surface2">
<g clip-path="url(#clip1)" clip-rule="nonzero">
<path style="fill:none;stroke-width:2;stroke-linecap:butt;stroke-linejoin:miter;stroke:rgb(38.039216%,50.588235%,100%);stroke-opacity:1;stroke-miterlimit:10;" d="M 0 0 L 99 0 L 99 30 L 0 30 Z M 0 0 "/>
</g>
<path style=" stroke:none;fill-rule:nonzero;fill:rgb(38.039216%,50.588235%,100%);fill-opacity:0.490196;" d="M 0 0 L 15 0 L 15 30 L 0 30 Z M 0 0 "/>
<g clip-path="url(#clip2)" clip-rule="nonzero">
<path style="fill:none;stroke-width:2;stroke-linecap:butt;stroke-linejoin:miter;stroke:rgb(38.039216%,50.588235%,100%);stroke-opacity:1;stroke-miterlimit:10;" d="M 0 0 L 15 0 L 15 30 L 0 30 Z M 0 0 "/>
</g>
<g clip-path="url(#clip3)" clip-rule="nonzero">
<path style="fill:none;stroke-width:2;stroke-linecap:butt;stroke-linejoin:miter;stroke:rgb(38.039216%,50.588235%,100%);stroke-opacity:1;stroke-miterlimit:10;" d="M 0 0 L 99 0 L 99 30 L 0 30 Z M 0 0 " transform="matrix(1,0,0,1,104,0)"/>
</g>
<path style="fill-rule:nonzero;fill:rgb(38.039216%,50.588235%,100%);fill-opacity:0.490196;stroke-width:2;stroke-linecap:butt;stroke-linejoin:miter;stroke:rgb(38.039216%,50.588235%,100%);stroke-opacity:1;stroke-miterlimit:10;" d="M 0 0 L 9 0 L 9 24 L 0 24 Z M 0 0 " transform="matrix(1,0,0,1,107,3)"/>
<g clip-path="url(#clip4)" clip-rule="nonzero">
<path style="fill:none;stroke-width:2;stroke-linecap:butt;stroke-linejoin:miter;stroke:rgb(38.039216%,50.588235%,100%);stroke-opacity:1;stroke-miterlimit:10;" d="M 0 0 L 98 0 L 98 30 L 0 30 Z M 0 0 " transform="matrix(1,0,0,1,208,0)"/>
</g>
<path style="fill-rule:nonzero;fill:rgb(38.039216%,50.588235%,100%);fill-opacity:0.490196;stroke-width:2;stroke-linecap:butt;stroke-linejoin:miter;stroke:rgb(38.039216%,50.588235%,100%);stroke-opacity:1;stroke-miterlimit:10;" d="M 0 0 L 3 0 L 3 18 L 0 18 Z M 0 0 " transform="matrix(1,0,0,1,214,6)"/>
<g clip-path="url(#clip5)" clip-rule="nonzero">
<path style="fill:none;stroke-width:2;stroke-linecap:butt;stroke-linejoin:miter;stroke:rgb(38.039216%,50.588235%,100%);stroke-opacity:1;stroke-miterlimit:10;" d="M 0 0 L 99 0 L 99 30 L 0 30 Z M 0 0 " transform="matrix(1,0,0,1,311,0)"/>
</g>
<path style="fill-rule:nonzero;fill:rgb(38.039216%,50.588235%,100%);fill-opacity:0.490196;stroke-width:2;stroke-linecap:butt;stroke-linejoin:miter;stroke:rgb(38.039216%,50.588235%,100%);stroke-opacity:1;stroke-miterlimit:10;" d="M 0 0 L -9 0 L -9 6 L 0 6 Z M 0 0 " transform="matrix(1,0,0,1,323,12)"/>
</g>
</svg>
