<?xml version="1.0" encoding="UTF-8"?>
<?xml-stylesheet href="../ldoc.css" type="text/css"?>
<svg xmlns="http://www.w3.org/2000/svg" xmlns:xlink="http://www.w3.org/1999/xlink" width="288pt" height="76pt" viewBox="0 0 288 76" version="1.1">
<defs>
<clipPath id="clip1">
  <path d="M 96 0 L 148 0 L 148 76 L 96 76 Z M 96 0 "/>
</clipPath>
<clipPath id="clip2">
  <path d="M 192 0 L 268 0 L 268 76 L 192 76 Z M 192 0 "/>
</clipPath>
</defs>
<g id="surface2">
<path style="fill-rule:nonzero;fill:rgb(38.039216%,50.588235%,100%);fill-opacity:0.5;stroke-width:2;stroke-linecap:butt;stroke-linejoin:miter;stroke:rgb(38.039216%,50.588235%,100%);stroke-opacity:1;stroke-miterlimit:10;" d="M 35 0 L 70 70 L 0 70 Z M 35 0 " transform="matrix(1,0,0,1,3,3)"/>
<path style=" stroke:none;fill-rule:nonzero;fill:rgb(38.039216%,50.588235%,100%);fill-opacity:0.5;" d="M 109 3 L 119 73 L 99 73 Z M 109 3 "/>
<g clip-path="url(#clip1)" clip-rule="nonzero">
<path style="fill:none;stroke-width:2;stroke-linecap:butt;stroke-linejoin:miter;stroke:rgb(38.039216%,50.588235%,100%);stroke-opacity:1;stroke-miterlimit:10;" d="M 10 0 L 20 70 L 0 70 Z M 10 0 " transform="matrix(1,0,0,1,99,3)"/>
</g>
<path style=" stroke:none;fill-rule:nonzero;fill:rgb(38.039216%,50.588235%,100%);fill-opacity:0.5;" d="M 265 38 L 195 73 L 195 3 Z M 265 38 "/>
<g clip-path="url(#clip2)" clip-rule="nonzero">
<path style="fill:none;stroke-width:2;stroke-linecap:butt;stroke-linejoin:miter;stroke:rgb(38.039216%,50.588235%,100%);stroke-opacity:1;stroke-miterlimit:10;" d="M 70 35 L 0 70 L 0 0 Z M 70 35 " transform="matrix(1,0,0,1,195,3)"/>
</g>
</g>
</svg>
