<?xml version="1.0" encoding="UTF-8"?>
<?xml-stylesheet href="../ldoc.css" type="text/css"?>
<svg xmlns="http://www.w3.org/2000/svg" xmlns:xlink="http://www.w3.org/1999/xlink" width="110pt" height="110pt" viewBox="0 0 110 110" version="1.1">
<defs>
<clipPath id="clip1">
  <path d="M 0 0 L 110 0 L 110 100 L 0 100 Z M 0 0 "/>
</clipPath>
</defs>
<g id="surface2">
<g clip-path="url(#clip1)" clip-rule="nonzero">
<rect x="0" y="0" width="110" height="110" style="fill:rgb(38.039216%,50.588235%,100%);fill-opacity:0.490196;stroke:none;"/>
</g>
<path style=" stroke:none;fill-rule:nonzero;fill:rgb(100%,0%,0%);fill-opacity:1;" d="M 2 98 L 7 98 Z M 8 75.773438 C 8 74.390625 9.121094 73.273438 10.5 73.273438 C 11.878906 73.273438 13 74.390625 13 75.773438 L 13 95.5 C 13 96.878906 11.878906 98 10.5 98 C 9.121094 98 8 96.878906 8 95.5 Z M 14 98 L 19 98 Z M 20 98 L 25 98 Z M 26 75.773438 C 26 74.390625 27.121094 73.273438 28.5 73.273438 C 29.878906 73.273438 31 74.390625 31 75.773438 L 31 95.5 C 31 96.878906 29.878906 98 28.5 98 C 27.121094 98 26 96.878906 26 95.5 Z M 32 72.863281 C 32 71.484375 33.121094 70.363281 34.5 70.363281 C 35.878906 70.363281 37 71.484375 37 72.863281 L 37 95.5 C 37 96.878906 35.878906 98 34.5 98 C 33.121094 98 32 96.878906 32 95.5 Z M 38 94.683594 C 38 93.300781 39.121094 92.183594 40.5 92.183594 C 41.878906 92.183594 43 93.300781 43 94.683594 L 43 95.5 C 43 96.878906 41.878906 98 40.5 98 C 39.121094 98 38 96.878906 38 95.5 Z M 44 95.816406 C 44 94.613281 44.976562 93.636719 46.183594 93.636719 L 46.816406 93.636719 C 48.023438 93.636719 49 94.613281 49 95.816406 C 49 97.023438 48.023438 98 46.816406 98 L 46.183594 98 C 44.976562 98 44 97.023438 44 95.816406 Z M 50 98 L 55 98 Z M 56 75.773438 C 56 74.390625 57.121094 73.273438 58.5 73.273438 C 59.878906 73.273438 61 74.390625 61 75.773438 L 61 95.5 C 61 96.878906 59.878906 98 58.5 98 C 57.121094 98 56 96.878906 56 95.5 Z M 62 98 L 67 98 Z M 68 98 L 73 98 Z M 74 75.773438 C 74 74.390625 75.121094 73.273438 76.5 73.273438 C 77.878906 73.273438 79 74.390625 79 75.773438 L 79 95.5 C 79 96.878906 77.878906 98 76.5 98 C 75.121094 98 74 96.878906 74 95.5 Z M 80 72.863281 C 80 71.484375 81.121094 70.363281 82.5 70.363281 C 83.878906 70.363281 85 71.484375 85 72.863281 L 85 95.5 C 85 96.878906 83.878906 98 82.5 98 C 81.121094 98 80 96.878906 80 95.5 Z M 86 94.683594 C 86 93.300781 87.121094 92.183594 88.5 92.183594 C 89.878906 92.183594 91 93.300781 91 94.683594 L 91 95.5 C 91 96.878906 89.878906 98 88.5 98 C 87.121094 98 86 96.878906 86 95.5 Z M 92 95.816406 C 92 94.613281 92.976562 93.636719 94.183594 93.636719 L 94.816406 93.636719 C 96.023438 93.636719 97 94.613281 97 95.816406 C 97 97.023438 96.023438 98 94.816406 98 L 94.183594 98 C 92.976562 98 92 97.023438 92 95.816406 Z M 98 98 L 103 98 Z M 104 75.773438 C 104 74.390625 105.121094 73.273438 106.5 73.273438 C 107.878906 73.273438 109 74.390625 109 75.773438 L 109 95.5 C 109 96.878906 107.878906 98 106.5 98 C 105.121094 98 104 96.878906 104 95.5 Z M 104 75.773438 "/>
<path style=" stroke:none;fill-rule:nonzero;fill:rgb(0%,100%,0%);fill-opacity:1;" d="M 2 98 L 7 98 Z M 8 65.589844 C 8 64.210938 9.121094 63.089844 10.5 63.089844 C 11.878906 63.089844 13 64.210938 13 65.589844 L 13 70.773438 C 13 72.152344 11.878906 73.273438 10.5 73.273438 C 9.121094 73.273438 8 72.152344 8 70.773438 Z M 14 98 L 19 98 Z M 20 95.816406 C 20 94.613281 20.976562 93.636719 22.183594 93.636719 L 22.816406 93.636719 C 24.023438 93.636719 25 94.613281 25 95.816406 C 25 97.023438 24.023438 98 22.816406 98 L 22.183594 98 C 20.976562 98 20 97.023438 20 95.816406 Z M 26 55.410156 C 26 54.027344 27.121094 52.910156 28.5 52.910156 C 29.878906 52.910156 31 54.027344 31 55.410156 L 31 70.773438 C 31 72.152344 29.878906 73.273438 28.5 73.273438 C 27.121094 73.273438 26 72.152344 26 70.773438 Z M 32 30.683594 C 32 29.300781 33.121094 28.183594 34.5 28.183594 C 35.878906 28.183594 37 29.300781 37 30.683594 L 37 67.863281 C 37 69.246094 35.878906 70.363281 34.5 70.363281 C 33.121094 70.363281 32 69.246094 32 67.863281 Z M 38 78.683594 C 38 77.300781 39.121094 76.183594 40.5 76.183594 C 41.878906 76.183594 43 77.300781 43 78.683594 L 43 89.683594 C 43 91.0625 41.878906 92.183594 40.5 92.183594 C 39.121094 92.183594 38 91.0625 38 89.683594 Z M 44 88.863281 C 44 87.484375 45.121094 86.363281 46.5 86.363281 C 47.878906 86.363281 49 87.484375 49 88.863281 L 49 91.136719 C 49 92.515625 47.878906 93.636719 46.5 93.636719 C 45.121094 93.636719 44 92.515625 44 91.136719 Z M 50 98 L 55 98 Z M 56 65.589844 C 56 64.210938 57.121094 63.089844 58.5 63.089844 C 59.878906 63.089844 61 64.210938 61 65.589844 L 61 70.773438 C 61 72.152344 59.878906 73.273438 58.5 73.273438 C 57.121094 73.273438 56 72.152344 56 70.773438 Z M 62 98 L 67 98 Z M 68 95.816406 C 68 94.613281 68.976562 93.636719 70.183594 93.636719 L 70.816406 93.636719 C 72.023438 93.636719 73 94.613281 73 95.816406 C 73 97.023438 72.023438 98 70.816406 98 L 70.183594 98 C 68.976562 98 68 97.023438 68 95.816406 Z M 74 55.410156 C 74 54.027344 75.121094 52.910156 76.5 52.910156 C 77.878906 52.910156 79 54.027344 79 55.410156 L 79 70.773438 C 79 72.152344 77.878906 73.273438 76.5 73.273438 C 75.121094 73.273438 74 72.152344 74 70.773438 Z M 80 30.683594 C 80 29.300781 81.121094 28.183594 82.5 28.183594 C 83.878906 28.183594 85 29.300781 85 30.683594 L 85 67.863281 C 85 69.246094 83.878906 70.363281 82.5 70.363281 C 81.121094 70.363281 80 69.246094 80 67.863281 Z M 86 78.683594 C 86 77.300781 87.121094 76.183594 88.5 76.183594 C 89.878906 76.183594 91 77.300781 91 78.683594 L 91 89.683594 C 91 91.0625 89.878906 92.183594 88.5 92.183594 C 87.121094 92.183594 86 91.0625 86 89.683594 Z M 92 88.863281 C 92 87.484375 93.121094 86.363281 94.5 86.363281 C 95.878906 86.363281 97 87.484375 97 88.863281 L 97 91.136719 C 97 92.515625 95.878906 93.636719 94.5 93.636719 C 93.121094 93.636719 92 92.515625 92 91.136719 Z M 98 98 L 103 98 Z M 104 65.589844 C 104 64.210938 105.121094 63.089844 106.5 63.089844 C 107.878906 63.089844 109 64.210938 109 65.589844 L 109 70.773438 C 109 72.152344 107.878906 73.273438 106.5 73.273438 C 105.121094 73.273438 104 72.152344 104 70.773438 Z M 104 65.589844 "/>
<path style=" stroke:none;fill-rule:nonzero;fill:rgb(0%,0%,100%);fill-opacity:1;" d="M 2 93.226562 C 2 91.847656 3.121094 90.726562 4.5 90.726562 C 5.878906 90.726562 7 91.847656 7 93.226562 L 7 95.5 C 7 96.878906 5.878906 98 4.5 98 C 3.121094 98 2 96.878906 2 95.5 Z M 8 62.363281 C 8 61.960938 8.324219 61.636719 8.726562 61.636719 L 12.273438 61.636719 C 12.675781 61.636719 13 61.960938 13 62.363281 C 13 62.765625 12.675781 63.089844 12.273438 63.089844 L 8.726562 63.089844 C 8.324219 63.089844 8 62.765625 8 62.363281 Z M 14 68.5 C 14 67.121094 15.121094 66 16.5 66 C 17.878906 66 19 67.121094 19 68.5 L 19 95.5 C 19 96.878906 17.878906 98 16.5 98 C 15.121094 98 14 96.878906 14 95.5 Z M 20 92.910156 C 20 92.507812 20.324219 92.183594 20.726562 92.183594 L 24.273438 92.183594 C 24.675781 92.183594 25 92.507812 25 92.910156 C 25 93.3125 24.675781 93.636719 24.273438 93.636719 L 20.726562 93.636719 C 20.324219 93.636719 20 93.3125 20 92.910156 Z M 26 52.910156 L 31 52.910156 Z M 32 5.953125 C 32 4.574219 33.121094 3.453125 34.5 3.453125 C 35.878906 3.453125 37 4.574219 37 5.953125 L 37 25.683594 C 37 27.0625 35.878906 28.183594 34.5 28.183594 C 33.121094 28.183594 32 27.0625 32 25.683594 Z M 38 56.863281 C 38 55.484375 39.121094 54.363281 40.5 54.363281 C 41.878906 54.363281 43 55.484375 43 56.863281 L 43 73.683594 C 43 75.0625 41.878906 76.183594 40.5 76.183594 C 39.121094 76.183594 38 75.0625 38 73.683594 Z M 44 80.136719 C 44 78.753906 45.121094 77.636719 46.5 77.636719 C 47.878906 77.636719 49 78.753906 49 80.136719 L 49 83.863281 C 49 85.246094 47.878906 86.363281 46.5 86.363281 C 45.121094 86.363281 44 85.246094 44 83.863281 Z M 50 93.226562 C 50 91.847656 51.121094 90.726562 52.5 90.726562 C 53.878906 90.726562 55 91.847656 55 93.226562 L 55 95.5 C 55 96.878906 53.878906 98 52.5 98 C 51.121094 98 50 96.878906 50 95.5 Z M 56 62.363281 C 56 61.960938 56.324219 61.636719 56.726562 61.636719 L 60.273438 61.636719 C 60.675781 61.636719 61 61.960938 61 62.363281 C 61 62.765625 60.675781 63.089844 60.273438 63.089844 L 56.726562 63.089844 C 56.324219 63.089844 56 62.765625 56 62.363281 Z M 62 68.5 C 62 67.121094 63.121094 66 64.5 66 C 65.878906 66 67 67.121094 67 68.5 L 67 95.5 C 67 96.878906 65.878906 98 64.5 98 C 63.121094 98 62 96.878906 62 95.5 Z M 68 92.910156 C 68 92.507812 68.324219 92.183594 68.726562 92.183594 L 72.273438 92.183594 C 72.675781 92.183594 73 92.507812 73 92.910156 C 73 93.3125 72.675781 93.636719 72.273438 93.636719 L 68.726562 93.636719 C 68.324219 93.636719 68 93.3125 68 92.910156 Z M 74 52.910156 L 79 52.910156 Z M 80 5.953125 C 80 4.574219 81.121094 3.453125 82.5 3.453125 C 83.878906 3.453125 85 4.574219 85 5.953125 L 85 25.683594 C 85 27.0625 83.878906 28.183594 82.5 28.183594 C 81.121094 28.183594 80 27.0625 80 25.683594 Z M 86 56.863281 C 86 55.484375 87.121094 54.363281 88.5 54.363281 C 89.878906 54.363281 91 55.484375 91 56.863281 L 91 73.683594 C 91 75.0625 89.878906 76.183594 88.5 76.183594 C 87.121094 76.183594 86 75.0625 86 73.683594 Z M 92 80.136719 C 92 78.753906 93.121094 77.636719 94.5 77.636719 C 95.878906 77.636719 97 78.753906 97 80.136719 L 97 83.863281 C 97 85.246094 95.878906 86.363281 94.5 86.363281 C 93.121094 86.363281 92 85.246094 92 83.863281 Z M 98 93.226562 C 98 91.847656 99.121094 90.726562 100.5 90.726562 C 101.878906 90.726562 103 91.847656 103 93.226562 L 103 95.5 C 103 96.878906 101.878906 98 100.5 98 C 99.121094 98 98 96.878906 98 95.5 Z M 104 62.363281 C 104 61.960938 104.324219 61.636719 104.726562 61.636719 L 108.273438 61.636719 C 108.675781 61.636719 109 61.960938 109 62.363281 C 109 62.765625 108.675781 63.089844 108.273438 63.089844 L 104.726562 63.089844 C 104.324219 63.089844 104 62.765625 104 62.363281 Z M 104 62.363281 "/>
<path style="fill:none;stroke-width:2;stroke-linecap:butt;stroke-linejoin:miter;stroke:rgb(100%,100%,100%);stroke-opacity:1;stroke-miterlimit:10;" d="M 1 1 L 109 1 L 109 99 L 1 99 Z M 1 1 "/>
</g>
</svg>
