<?xml version="1.0" encoding="UTF-8"?>
<?xml-stylesheet href="../ldoc.css" type="text/css"?>
<svg xmlns="http://www.w3.org/2000/svg" xmlns:xlink="http://www.w3.org/1999/xlink" width="210pt" height="210pt" viewBox="0 0 210 210" version="1.1">
<defs>
<clipPath id="clip1">
  <path d="M 0 0 L 210 0 L 210 46 L 0 46 Z M 0 0 "/>
</clipPath>
<clipPath id="clip2">
  <path d="M 0 51 L 210 51 L 210 98 L 0 98 Z M 0 51 "/>
</clipPath>
<clipPath id="clip3">
  <path d="M 0 103 L 210 103 L 210 149 L 0 149 Z M 0 103 "/>
</clipPath>
<clipPath id="clip4">
  <path d="M 0 154 L 210 154 L 210 200 L 0 200 Z M 0 154 "/>
</clipPath>
<clipPath id="clip5">
  <path d="M 0 154 L 209 154 L 209 200 L 0 200 Z M 0 154 "/>
</clipPath>
</defs>
<g id="surface2">
<g clip-path="url(#clip1)" clip-rule="nonzero">
<rect x="0" y="0" width="210" height="210" style="fill:rgb(38.039216%,50.588235%,100%);fill-opacity:0.490196;stroke:none;"/>
</g>
<path style=" stroke:none;fill-rule:nonzero;fill:rgb(66.666667%,0%,100%);fill-opacity:0.490196;" d="M 5 42.035156 L 4.988281 40.628906 L 4.960938 40.054688 L 4.910156 39.625 L 4.839844 39.277344 L 4.746094 38.988281 L 4.632812 38.75 L 4.492188 38.550781 L 4.324219 38.386719 L 4.125 38.257812 L 3.878906 38.164062 L 3.570312 38.101562 L 3.101562 38.074219 L 1.847656 38.074219 L 1.402344 38.105469 L 1.097656 38.171875 L 0.855469 38.269531 L 0.660156 38.398438 L 0.496094 38.566406 L 0.359375 38.769531 L 0.246094 39.011719 L 0.152344 39.304688 L 0.0859375 39.65625 L 0.0351562 40.09375 L 0.0078125 40.6875 L 0 42.441406 L 0.0117188 43.5 L 0.0429688 44.054688 L 0.09375 44.476562 L 0.167969 44.816406 L 0.261719 45.101562 L 0.378906 45.339844 L 0.519531 45.535156 L 0.691406 45.695312 L 0.894531 45.820312 L 1.140625 45.910156 L 1.460938 45.96875 L 1.957031 45.996094 L 3.203125 45.992188 L 3.628906 45.957031 L 3.925781 45.890625 L 4.160156 45.789062 L 4.355469 45.65625 L 4.519531 45.488281 L 4.652344 45.28125 L 4.765625 45.035156 L 4.851562 44.738281 L 4.917969 44.378906 L 4.964844 43.933594 L 4.992188 43.316406 L 5 41.457031 L 4.988281 40.515625 Z M 11 46 L 6.003906 46 Z M 17 46 L 12.003906 46 Z M 23 45.207031 L 22.976562 44.851562 L 22.898438 44.710938 L 22.769531 44.609375 L 22.585938 44.535156 L 22.335938 44.480469 L 22.003906 44.441406 L 21.53125 44.417969 L 20.074219 44.414062 L 19.308594 44.425781 L 18.886719 44.449219 L 18.582031 44.492188 L 18.351562 44.554688 L 18.1875 44.636719 L 18.074219 44.746094 L 18.011719 44.910156 L 18.003906 45.398438 L 18.042969 45.609375 L 18.132812 45.734375 L 18.277344 45.828125 L 18.480469 45.898438 L 18.75 45.949219 L 19.113281 45.980469 L 19.664062 45.996094 L 21.238281 46 L 21.832031 45.984375 L 22.210938 45.953125 L 22.492188 45.902344 L 22.703125 45.835938 L 22.851562 45.746094 L 22.949219 45.625 L 22.996094 45.433594 Z M 29 40.449219 L 28.996094 38.785156 L 28.980469 38.097656 L 28.953125 37.578125 L 28.917969 37.152344 L 28.871094 36.785156 L 28.816406 36.464844 L 28.746094 36.1875 L 28.667969 35.9375 L 28.574219 35.722656 L 28.46875 35.535156 L 28.351562 35.371094 L 28.214844 35.234375 L 28.058594 35.121094 L 27.878906 35.03125 L 27.667969 34.964844 L 27.398438 34.921875 L 27 34.898438 L 25.9375 34.898438 L 25.566406 34.925781 L 25.304688 34.96875 L 25.097656 35.039062 L 24.921875 35.132812 L 24.769531 35.25 L 24.632812 35.390625 L 24.515625 35.554688 L 24.414062 35.746094 L 24.324219 35.964844 L 24.246094 36.21875 L 24.175781 36.5 L 24.121094 36.824219 L 24.078125 37.199219 L 24.042969 37.636719 L 24.019531 38.167969 L 24.003906 38.882812 L 24 41.019531 L 24.007812 42.207031 L 24.023438 42.867188 L 24.050781 43.371094 L 24.085938 43.789062 L 24.132812 44.152344 L 24.191406 44.464844 L 24.261719 44.742188 L 24.34375 44.984375 L 24.4375 45.199219 L 24.542969 45.382812 L 24.664062 45.542969 L 24.800781 45.675781 L 24.960938 45.789062 L 25.140625 45.875 L 25.359375 45.9375 L 25.636719 45.980469 L 26.074219 46 L 27.117188 45.996094 L 27.46875 45.96875 L 27.722656 45.917969 L 27.925781 45.847656 L 28.097656 45.75 L 28.25 45.632812 L 28.378906 45.488281 L 28.496094 45.320312 L 28.597656 45.125 L 28.6875 44.902344 L 28.765625 44.648438 L 28.828125 44.359375 L 28.882812 44.03125 L 28.929688 43.648438 L 28.960938 43.203125 L 28.984375 42.65625 L 28.996094 41.90625 L 29 39.640625 L 28.992188 38.597656 Z M 35 32.515625 L 35 29.921875 L 34.996094 28.847656 L 34.992188 28.023438 L 34.984375 27.332031 L 34.976562 26.726562 L 34.96875 26.183594 L 34.957031 25.6875 L 34.945312 25.226562 L 34.929688 24.800781 L 34.914062 24.402344 L 34.894531 24.023438 L 34.875 23.671875 L 34.851562 23.335938 L 34.828125 23.019531 L 34.804688 22.71875 L 34.777344 22.433594 L 34.746094 22.164062 L 34.714844 21.910156 L 34.683594 21.667969 L 34.648438 21.4375 L 34.609375 21.21875 L 34.570312 21.011719 L 34.527344 20.816406 L 34.484375 20.632812 L 34.4375 20.457031 L 34.386719 20.296875 L 34.335938 20.144531 L 34.28125 20.003906 L 34.222656 19.871094 L 34.164062 19.75 L 34.097656 19.636719 L 34.03125 19.535156 L 33.957031 19.441406 L 33.878906 19.359375 L 33.796875 19.285156 L 33.707031 19.222656 L 33.609375 19.167969 L 33.503906 19.121094 L 33.382812 19.085938 L 33.238281 19.058594 L 33.0625 19.042969 L 32.789062 19.035156 L 32.113281 19.035156 L 31.882812 19.046875 L 31.71875 19.066406 L 31.582031 19.097656 L 31.464844 19.132812 L 31.359375 19.183594 L 31.265625 19.238281 L 31.179688 19.304688 L 31.097656 19.382812 L 31.019531 19.46875 L 30.949219 19.5625 L 30.882812 19.667969 L 30.820312 19.78125 L 30.757812 19.90625 L 30.703125 20.042969 L 30.648438 20.1875 L 30.597656 20.339844 L 30.550781 20.507812 L 30.503906 20.683594 L 30.460938 20.871094 L 30.417969 21.070312 L 30.378906 21.277344 L 30.34375 21.5 L 30.308594 21.734375 L 30.273438 21.980469 L 30.246094 22.242188 L 30.214844 22.515625 L 30.1875 22.804688 L 30.164062 23.109375 L 30.140625 23.429688 L 30.117188 23.769531 L 30.097656 24.128906 L 30.082031 24.511719 L 30.066406 24.917969 L 30.050781 25.355469 L 30.039062 25.824219 L 30.027344 26.332031 L 30.019531 26.894531 L 30.011719 27.519531 L 30.007812 28.242188 L 30.003906 29.117188 L 30 30.324219 L 30 35.460938 L 30.003906 36.441406 L 30.007812 37.21875 L 30.015625 37.878906 L 30.023438 38.46875 L 30.035156 38.996094 L 30.046875 39.484375 L 30.058594 39.933594 L 30.074219 40.351562 L 30.089844 40.742188 L 30.109375 41.113281 L 30.132812 41.460938 L 30.152344 41.789062 L 30.175781 42.101562 L 30.203125 42.398438 L 30.230469 42.675781 L 30.261719 42.945312 L 30.292969 43.195312 L 30.328125 43.433594 L 30.363281 43.664062 L 30.402344 43.878906 L 30.441406 44.082031 L 30.484375 44.273438 L 30.53125 44.453125 L 30.578125 44.625 L 30.625 44.78125 L 30.679688 44.933594 L 30.734375 45.070312 L 30.792969 45.199219 L 30.855469 45.320312 L 30.921875 45.425781 L 30.988281 45.527344 L 31.0625 45.617188 L 31.140625 45.695312 L 31.226562 45.765625 L 31.320312 45.828125 L 31.417969 45.878906 L 31.53125 45.921875 L 31.65625 45.957031 L 31.808594 45.980469 L 32 45.996094 L 32.371094 46 L 32.964844 45.996094 L 33.167969 45.984375 L 33.324219 45.960938 L 33.453125 45.929688 L 33.566406 45.886719 L 33.667969 45.835938 L 33.761719 45.777344 L 33.847656 45.707031 L 33.925781 45.628906 L 34 45.539062 L 34.070312 45.441406 L 34.136719 45.335938 L 34.199219 45.21875 L 34.257812 45.089844 L 34.3125 44.953125 L 34.367188 44.804688 L 34.414062 44.648438 L 34.464844 44.476562 L 34.507812 44.300781 L 34.550781 44.109375 L 34.59375 43.90625 L 34.628906 43.695312 L 34.667969 43.46875 L 34.703125 43.230469 L 34.734375 42.980469 L 34.765625 42.714844 L 34.792969 42.4375 L 34.820312 42.144531 L 34.84375 41.835938 L 34.867188 41.507812 L 34.886719 41.164062 L 34.90625 40.796875 L 34.921875 40.410156 L 34.9375 39.996094 L 34.953125 39.550781 L 34.964844 39.070312 L 34.976562 38.546875 L 34.984375 37.96875 L 34.988281 37.320312 L 34.996094 36.5625 L 35 35.621094 L 35 30.554688 L 34.996094 29.265625 Z M 41 28.550781 L 41 25.597656 L 40.996094 24.375 L 40.996094 23.4375 L 40.992188 22.652344 L 40.988281 21.957031 L 40.980469 21.335938 L 40.976562 20.761719 L 40.96875 20.234375 L 40.957031 19.738281 L 40.949219 19.273438 L 40.9375 18.835938 L 40.925781 18.421875 L 40.914062 18.023438 L 40.898438 17.648438 L 40.882812 17.289062 L 40.867188 16.945312 L 40.851562 16.613281 L 40.832031 16.296875 L 40.8125 15.996094 L 40.792969 15.703125 L 40.769531 15.421875 L 40.746094 15.15625 L 40.722656 14.898438 L 40.699219 14.648438 L 40.671875 14.414062 L 40.644531 14.183594 L 40.613281 13.964844 L 40.585938 13.757812 L 40.550781 13.554688 L 40.519531 13.363281 L 40.484375 13.179688 L 40.449219 13.007812 L 40.414062 12.839844 L 40.375 12.679688 L 40.332031 12.53125 L 40.292969 12.386719 L 40.246094 12.253906 L 40.203125 12.125 L 40.152344 12.007812 L 40.105469 11.894531 L 40.050781 11.792969 L 39.996094 11.695312 L 39.941406 11.605469 L 39.878906 11.523438 L 39.816406 11.449219 L 39.75 11.382812 L 39.679688 11.324219 L 39.601562 11.269531 L 39.519531 11.226562 L 39.425781 11.1875 L 39.324219 11.15625 L 39.210938 11.132812 L 39.070312 11.117188 L 38.882812 11.105469 L 38.316406 11.105469 L 38.039062 11.109375 L 37.875 11.121094 L 37.746094 11.140625 L 37.636719 11.167969 L 37.539062 11.199219 L 37.449219 11.242188 L 37.371094 11.289062 L 37.292969 11.34375 L 37.226562 11.40625 L 37.160156 11.476562 L 37.097656 11.554688 L 37.039062 11.636719 L 36.980469 11.730469 L 36.929688 11.828125 L 36.875 11.9375 L 36.828125 12.050781 L 36.78125 12.171875 L 36.734375 12.300781 L 36.691406 12.441406 L 36.652344 12.585938 L 36.613281 12.738281 L 36.574219 12.898438 L 36.535156 13.070312 L 36.5 13.246094 L 36.46875 13.433594 L 36.4375 13.628906 L 36.40625 13.832031 L 36.375 14.046875 L 36.347656 14.265625 L 36.320312 14.5 L 36.292969 14.738281 L 36.269531 14.992188 L 36.246094 15.253906 L 36.222656 15.527344 L 36.199219 15.808594 L 36.179688 16.105469 L 36.160156 16.414062 L 36.144531 16.734375 L 36.125 17.070312 L 36.109375 17.417969 L 36.097656 17.785156 L 36.082031 18.167969 L 36.070312 18.570312 L 36.058594 18.996094 L 36.046875 19.445312 L 36.039062 19.917969 L 36.03125 20.425781 L 36.023438 20.96875 L 36.015625 21.558594 L 36.011719 22.203125 L 36.007812 22.929688 L 36.003906 23.761719 L 36 24.78125 L 36 32.007812 L 36.003906 33.097656 L 36.003906 33.96875 L 36.011719 34.71875 L 36.015625 35.382812 L 36.019531 35.984375 L 36.027344 36.539062 L 36.035156 37.054688 L 36.046875 37.539062 L 36.054688 37.992188 L 36.066406 38.421875 L 36.078125 38.832031 L 36.09375 39.21875 L 36.105469 39.589844 L 36.121094 39.945312 L 36.140625 40.285156 L 36.15625 40.609375 L 36.175781 40.917969 L 36.195312 41.21875 L 36.214844 41.503906 L 36.238281 41.78125 L 36.261719 42.042969 L 36.285156 42.296875 L 36.3125 42.542969 L 36.339844 42.777344 L 36.367188 43 L 36.398438 43.214844 L 36.425781 43.421875 L 36.460938 43.621094 L 36.492188 43.808594 L 36.527344 43.988281 L 36.5625 44.160156 L 36.601562 44.324219 L 36.640625 44.480469 L 36.683594 44.625 L 36.726562 44.765625 L 36.769531 44.898438 L 36.816406 45.023438 L 36.863281 45.136719 L 36.914062 45.246094 L 36.96875 45.347656 L 37.023438 45.441406 L 37.082031 45.527344 L 37.140625 45.609375 L 37.207031 45.679688 L 37.277344 45.742188 L 37.347656 45.800781 L 37.429688 45.851562 L 37.515625 45.894531 L 37.609375 45.929688 L 37.714844 45.957031 L 37.839844 45.980469 L 37.992188 45.992188 L 38.21875 46 L 38.816406 46 L 39.027344 45.992188 L 39.175781 45.976562 L 39.296875 45.953125 L 39.402344 45.925781 L 39.496094 45.890625 L 39.582031 45.847656 L 39.660156 45.796875 L 39.730469 45.738281 L 39.800781 45.671875 L 39.863281 45.597656 L 39.925781 45.519531 L 39.984375 45.433594 L 40.039062 45.335938 L 40.089844 45.234375 L 40.140625 45.125 L 40.191406 45.007812 L 40.234375 44.882812 L 40.28125 44.75 L 40.324219 44.609375 L 40.363281 44.460938 L 40.402344 44.304688 L 40.441406 44.140625 L 40.476562 43.96875 L 40.511719 43.789062 L 40.542969 43.597656 L 40.574219 43.398438 L 40.605469 43.191406 L 40.636719 42.976562 L 40.664062 42.75 L 40.691406 42.515625 L 40.714844 42.273438 L 40.742188 42.015625 L 40.765625 41.75 L 40.785156 41.472656 L 40.808594 41.1875 L 40.828125 40.886719 L 40.84375 40.574219 L 40.863281 40.246094 L 40.878906 39.90625 L 40.894531 39.550781 L 40.910156 39.179688 L 40.921875 38.789062 L 40.933594 38.378906 L 40.945312 37.945312 L 40.957031 37.488281 L 40.964844 37 L 40.972656 36.480469 L 40.980469 35.921875 L 40.984375 35.3125 L 40.992188 34.640625 L 40.996094 33.882812 L 40.996094 32.992188 L 41 31.867188 Z M 47 46 L 42.003906 46 Z M 53 46 L 48.003906 46 Z M 59 45.207031 L 58.976562 44.851562 L 58.898438 44.710938 L 58.769531 44.609375 L 58.585938 44.535156 L 58.335938 44.480469 L 58.003906 44.441406 L 57.53125 44.417969 L 56.074219 44.414062 L 55.308594 44.425781 L 54.886719 44.449219 L 54.582031 44.492188 L 54.351562 44.554688 L 54.1875 44.636719 L 54.074219 44.746094 L 54.011719 44.910156 L 54.003906 45.398438 L 54.042969 45.609375 L 54.132812 45.734375 L 54.277344 45.828125 L 54.480469 45.898438 L 54.75 45.949219 L 55.113281 45.980469 L 55.664062 45.996094 L 57.238281 46 L 57.832031 45.984375 L 58.210938 45.953125 L 58.492188 45.902344 L 58.703125 45.835938 L 58.851562 45.746094 L 58.949219 45.625 L 58.996094 45.433594 Z M 65 43.621094 L 64.976562 42.558594 L 64.898438 42.136719 L 64.769531 41.832031 L 64.585938 41.605469 L 64.335938 41.4375 L 64.003906 41.324219 L 63.53125 41.257812 L 62.074219 41.242188 L 61.308594 41.273438 L 60.886719 41.351562 L 60.582031 41.480469 L 60.351562 41.664062 L 60.1875 41.914062 L 60.074219 42.242188 L 60.011719 42.726562 L 60.003906 44.195312 L 60.042969 44.824219 L 60.132812 45.203125 L 60.277344 45.480469 L 60.480469 45.691406 L 60.75 45.84375 L 61.113281 45.941406 L 61.664062 45.992188 L 63.238281 45.996094 L 63.832031 45.949219 L 64.210938 45.855469 L 64.492188 45.710938 L 64.703125 45.511719 L 64.851562 45.242188 L 64.949219 44.878906 L 64.996094 44.304688 Z M 71 46 L 66.003906 46 Z M 77 46 L 72.003906 46 Z M 83 34.898438 L 83 32.539062 L 82.996094 31.566406 L 82.988281 30.820312 L 82.980469 30.195312 L 82.96875 29.648438 L 82.953125 29.160156 L 82.9375 28.714844 L 82.917969 28.304688 L 82.898438 27.925781 L 82.871094 27.570312 L 82.84375 27.242188 L 82.816406 26.933594 L 82.78125 26.644531 L 82.746094 26.371094 L 82.707031 26.117188 L 82.667969 25.878906 L 82.621094 25.652344 L 82.574219 25.445312 L 82.523438 25.25 L 82.46875 25.066406 L 82.414062 24.898438 L 82.351562 24.742188 L 82.285156 24.597656 L 82.214844 24.46875 L 82.140625 24.347656 L 82.058594 24.242188 L 81.972656 24.144531 L 81.878906 24.0625 L 81.777344 23.988281 L 81.667969 23.925781 L 81.542969 23.878906 L 81.398438 23.839844 L 81.226562 23.8125 L 81 23.796875 L 80.316406 23.792969 L 79.9375 23.800781 L 79.730469 23.816406 L 79.566406 23.847656 L 79.425781 23.890625 L 79.304688 23.941406 L 79.195312 24.003906 L 79.097656 24.078125 L 79.003906 24.167969 L 78.921875 24.265625 L 78.839844 24.375 L 78.769531 24.496094 L 78.699219 24.632812 L 78.632812 24.777344 L 78.574219 24.9375 L 78.515625 25.109375 L 78.464844 25.292969 L 78.414062 25.492188 L 78.367188 25.707031 L 78.324219 25.933594 L 78.28125 26.175781 L 78.246094 26.433594 L 78.210938 26.710938 L 78.175781 27.003906 L 78.148438 27.316406 L 78.121094 27.652344 L 78.097656 28.011719 L 78.078125 28.398438 L 78.058594 28.816406 L 78.042969 29.269531 L 78.027344 29.773438 L 78.019531 30.335938 L 78.007812 30.984375 L 78.003906 31.769531 L 78 32.835938 L 78 37.515625 L 78.007812 38.417969 L 78.011719 39.125 L 78.023438 39.730469 L 78.035156 40.261719 L 78.050781 40.742188 L 78.066406 41.179688 L 78.085938 41.582031 L 78.109375 41.953125 L 78.132812 42.300781 L 78.160156 42.625 L 78.191406 42.929688 L 78.226562 43.214844 L 78.261719 43.484375 L 78.300781 43.734375 L 78.34375 43.96875 L 78.386719 44.191406 L 78.4375 44.394531 L 78.488281 44.589844 L 78.542969 44.765625 L 78.601562 44.933594 L 78.664062 45.085938 L 78.730469 45.226562 L 78.800781 45.355469 L 78.878906 45.472656 L 78.960938 45.578125 L 79.046875 45.667969 L 79.140625 45.75 L 79.246094 45.820312 L 79.359375 45.878906 L 79.488281 45.925781 L 79.636719 45.960938 L 79.820312 45.984375 L 80.074219 45.996094 L 80.816406 46 L 81.117188 45.988281 L 81.3125 45.96875 L 81.46875 45.9375 L 81.601562 45.894531 L 81.722656 45.839844 L 81.828125 45.773438 L 81.925781 45.695312 L 82.015625 45.605469 L 82.097656 45.503906 L 82.175781 45.390625 L 82.25 45.265625 L 82.316406 45.128906 L 82.378906 44.980469 L 82.441406 44.816406 L 82.496094 44.640625 L 82.546875 44.453125 L 82.597656 44.253906 L 82.644531 44.035156 L 82.6875 43.804688 L 82.726562 43.558594 L 82.765625 43.296875 L 82.796875 43.015625 L 82.828125 42.71875 L 82.859375 42.398438 L 82.882812 42.058594 L 82.90625 41.695312 L 82.929688 41.300781 L 82.945312 40.875 L 82.960938 40.410156 L 82.972656 39.894531 L 82.984375 39.3125 L 82.992188 38.640625 L 82.996094 37.808594 L 83 36.613281 Z M 89 32.515625 L 89 29.921875 L 88.996094 28.847656 L 88.992188 28.023438 L 88.984375 27.332031 L 88.976562 26.726562 L 88.96875 26.183594 L 88.957031 25.6875 L 88.945312 25.226562 L 88.929688 24.800781 L 88.914062 24.402344 L 88.894531 24.023438 L 88.875 23.671875 L 88.851562 23.335938 L 88.828125 23.019531 L 88.804688 22.71875 L 88.777344 22.433594 L 88.746094 22.164062 L 88.714844 21.910156 L 88.683594 21.667969 L 88.648438 21.4375 L 88.609375 21.21875 L 88.570312 21.011719 L 88.527344 20.816406 L 88.484375 20.632812 L 88.4375 20.457031 L 88.386719 20.296875 L 88.335938 20.144531 L 88.28125 20.003906 L 88.222656 19.871094 L 88.164062 19.75 L 88.097656 19.636719 L 88.03125 19.535156 L 87.957031 19.441406 L 87.878906 19.359375 L 87.796875 19.285156 L 87.707031 19.222656 L 87.609375 19.167969 L 87.503906 19.121094 L 87.382812 19.085938 L 87.238281 19.058594 L 87.0625 19.042969 L 86.789062 19.035156 L 86.113281 19.035156 L 85.882812 19.046875 L 85.71875 19.066406 L 85.582031 19.097656 L 85.464844 19.132812 L 85.359375 19.183594 L 85.265625 19.238281 L 85.179688 19.304688 L 85.097656 19.382812 L 85.019531 19.46875 L 84.949219 19.5625 L 84.882812 19.667969 L 84.820312 19.78125 L 84.757812 19.90625 L 84.703125 20.042969 L 84.648438 20.1875 L 84.597656 20.339844 L 84.550781 20.507812 L 84.503906 20.683594 L 84.460938 20.871094 L 84.417969 21.070312 L 84.378906 21.277344 L 84.34375 21.5 L 84.308594 21.734375 L 84.273438 21.980469 L 84.246094 22.242188 L 84.214844 22.515625 L 84.1875 22.804688 L 84.164062 23.109375 L 84.140625 23.429688 L 84.117188 23.769531 L 84.097656 24.128906 L 84.082031 24.511719 L 84.066406 24.917969 L 84.050781 25.355469 L 84.039062 25.824219 L 84.027344 26.332031 L 84.019531 26.894531 L 84.011719 27.519531 L 84.007812 28.242188 L 84.003906 29.117188 L 84 30.324219 L 84 35.460938 L 84.003906 36.441406 L 84.007812 37.21875 L 84.015625 37.878906 L 84.023438 38.46875 L 84.035156 38.996094 L 84.046875 39.484375 L 84.058594 39.933594 L 84.074219 40.351562 L 84.089844 40.742188 L 84.109375 41.113281 L 84.132812 41.460938 L 84.152344 41.789062 L 84.175781 42.101562 L 84.203125 42.398438 L 84.230469 42.675781 L 84.261719 42.945312 L 84.292969 43.195312 L 84.328125 43.433594 L 84.363281 43.664062 L 84.402344 43.878906 L 84.441406 44.082031 L 84.484375 44.273438 L 84.53125 44.453125 L 84.578125 44.625 L 84.625 44.78125 L 84.679688 44.933594 L 84.734375 45.070312 L 84.792969 45.199219 L 84.855469 45.320312 L 84.921875 45.425781 L 84.988281 45.527344 L 85.0625 45.617188 L 85.140625 45.695312 L 85.226562 45.765625 L 85.320312 45.828125 L 85.417969 45.878906 L 85.53125 45.921875 L 85.65625 45.957031 L 85.808594 45.980469 L 86 45.996094 L 86.371094 46 L 86.964844 45.996094 L 87.167969 45.984375 L 87.324219 45.960938 L 87.453125 45.929688 L 87.566406 45.886719 L 87.667969 45.835938 L 87.761719 45.777344 L 87.847656 45.707031 L 87.925781 45.628906 L 88 45.539062 L 88.070312 45.441406 L 88.136719 45.335938 L 88.199219 45.21875 L 88.257812 45.089844 L 88.3125 44.953125 L 88.367188 44.804688 L 88.414062 44.648438 L 88.464844 44.476562 L 88.507812 44.300781 L 88.550781 44.109375 L 88.59375 43.90625 L 88.628906 43.695312 L 88.667969 43.46875 L 88.703125 43.230469 L 88.734375 42.980469 L 88.765625 42.714844 L 88.792969 42.4375 L 88.820312 42.144531 L 88.84375 41.835938 L 88.867188 41.507812 L 88.886719 41.164062 L 88.90625 40.796875 L 88.921875 40.410156 L 88.9375 39.996094 L 88.953125 39.550781 L 88.964844 39.070312 L 88.976562 38.546875 L 88.984375 37.96875 L 88.988281 37.320312 L 88.996094 36.5625 L 89 35.621094 L 89 30.554688 L 88.996094 29.265625 Z M 95 32.515625 L 95 29.921875 L 94.996094 28.847656 L 94.992188 28.023438 L 94.984375 27.332031 L 94.976562 26.726562 L 94.96875 26.183594 L 94.957031 25.6875 L 94.945312 25.226562 L 94.929688 24.800781 L 94.914062 24.402344 L 94.894531 24.023438 L 94.875 23.671875 L 94.851562 23.335938 L 94.828125 23.019531 L 94.804688 22.71875 L 94.777344 22.433594 L 94.746094 22.164062 L 94.714844 21.910156 L 94.683594 21.667969 L 94.648438 21.4375 L 94.609375 21.21875 L 94.570312 21.011719 L 94.527344 20.816406 L 94.484375 20.632812 L 94.4375 20.457031 L 94.386719 20.296875 L 94.335938 20.144531 L 94.28125 20.003906 L 94.222656 19.871094 L 94.164062 19.75 L 94.097656 19.636719 L 94.03125 19.535156 L 93.957031 19.441406 L 93.878906 19.359375 L 93.796875 19.285156 L 93.707031 19.222656 L 93.609375 19.167969 L 93.503906 19.121094 L 93.382812 19.085938 L 93.238281 19.058594 L 93.0625 19.042969 L 92.789062 19.035156 L 92.113281 19.035156 L 91.882812 19.046875 L 91.71875 19.066406 L 91.582031 19.097656 L 91.464844 19.132812 L 91.359375 19.183594 L 91.265625 19.238281 L 91.179688 19.304688 L 91.097656 19.382812 L 91.019531 19.46875 L 90.949219 19.5625 L 90.882812 19.667969 L 90.820312 19.78125 L 90.757812 19.90625 L 90.703125 20.042969 L 90.648438 20.1875 L 90.597656 20.339844 L 90.550781 20.507812 L 90.503906 20.683594 L 90.460938 20.871094 L 90.417969 21.070312 L 90.378906 21.277344 L 90.34375 21.5 L 90.308594 21.734375 L 90.273438 21.980469 L 90.246094 22.242188 L 90.214844 22.515625 L 90.1875 22.804688 L 90.164062 23.109375 L 90.140625 23.429688 L 90.117188 23.769531 L 90.097656 24.128906 L 90.082031 24.511719 L 90.066406 24.917969 L 90.050781 25.355469 L 90.039062 25.824219 L 90.027344 26.332031 L 90.019531 26.894531 L 90.011719 27.519531 L 90.007812 28.242188 L 90.003906 29.117188 L 90 30.324219 L 90 35.460938 L 90.003906 36.441406 L 90.007812 37.21875 L 90.015625 37.878906 L 90.023438 38.46875 L 90.035156 38.996094 L 90.046875 39.484375 L 90.058594 39.933594 L 90.074219 40.351562 L 90.089844 40.742188 L 90.109375 41.113281 L 90.132812 41.460938 L 90.152344 41.789062 L 90.175781 42.101562 L 90.203125 42.398438 L 90.230469 42.675781 L 90.261719 42.945312 L 90.292969 43.195312 L 90.328125 43.433594 L 90.363281 43.664062 L 90.402344 43.878906 L 90.441406 44.082031 L 90.484375 44.273438 L 90.53125 44.453125 L 90.578125 44.625 L 90.625 44.78125 L 90.679688 44.933594 L 90.734375 45.070312 L 90.792969 45.199219 L 90.855469 45.320312 L 90.921875 45.425781 L 90.988281 45.527344 L 91.0625 45.617188 L 91.140625 45.695312 L 91.226562 45.765625 L 91.320312 45.828125 L 91.417969 45.878906 L 91.53125 45.921875 L 91.65625 45.957031 L 91.808594 45.980469 L 92 45.996094 L 92.371094 46 L 92.964844 45.996094 L 93.167969 45.984375 L 93.324219 45.960938 L 93.453125 45.929688 L 93.566406 45.886719 L 93.667969 45.835938 L 93.761719 45.777344 L 93.847656 45.707031 L 93.925781 45.628906 L 94 45.539062 L 94.070312 45.441406 L 94.136719 45.335938 L 94.199219 45.21875 L 94.257812 45.089844 L 94.3125 44.953125 L 94.367188 44.804688 L 94.414062 44.648438 L 94.464844 44.476562 L 94.507812 44.300781 L 94.550781 44.109375 L 94.59375 43.90625 L 94.628906 43.695312 L 94.667969 43.46875 L 94.703125 43.230469 L 94.734375 42.980469 L 94.765625 42.714844 L 94.792969 42.4375 L 94.820312 42.144531 L 94.84375 41.835938 L 94.867188 41.507812 L 94.886719 41.164062 L 94.90625 40.796875 L 94.921875 40.410156 L 94.9375 39.996094 L 94.953125 39.550781 L 94.964844 39.070312 L 94.976562 38.546875 L 94.984375 37.96875 L 94.988281 37.320312 L 94.996094 36.5625 L 95 35.621094 L 95 30.554688 L 94.996094 29.265625 Z M 101 23 L 101 18.203125 L 100.996094 17.128906 L 100.996094 16.222656 L 100.992188 15.425781 L 100.988281 14.707031 L 100.984375 14.046875 L 100.980469 13.433594 L 100.976562 12.859375 L 100.96875 12.320312 L 100.964844 11.804688 L 100.957031 11.320312 L 100.949219 10.855469 L 100.941406 10.410156 L 100.933594 9.980469 L 100.925781 9.570312 L 100.914062 9.175781 L 100.902344 8.796875 L 100.890625 8.429688 L 100.882812 8.074219 L 100.867188 7.730469 L 100.855469 7.398438 L 100.84375 7.074219 L 100.828125 6.761719 L 100.8125 6.460938 L 100.796875 6.167969 L 100.78125 5.882812 L 100.765625 5.609375 L 100.746094 5.339844 L 100.730469 5.082031 L 100.710938 4.832031 L 100.691406 4.585938 L 100.671875 4.351562 L 100.648438 4.121094 L 100.628906 3.902344 L 100.605469 3.6875 L 100.582031 3.480469 L 100.558594 3.277344 L 100.535156 3.082031 L 100.507812 2.894531 L 100.480469 2.714844 L 100.453125 2.539062 L 100.425781 2.371094 L 100.398438 2.207031 L 100.367188 2.050781 L 100.335938 1.902344 L 100.304688 1.757812 L 100.273438 1.621094 L 100.238281 1.488281 L 100.207031 1.359375 L 100.167969 1.238281 L 100.132812 1.125 L 100.09375 1.015625 L 100.054688 0.910156 L 100.011719 0.8125 L 99.972656 0.722656 L 99.925781 0.636719 L 99.878906 0.554688 L 99.832031 0.480469 L 99.78125 0.410156 L 99.730469 0.34375 L 99.675781 0.285156 L 99.617188 0.234375 L 99.554688 0.183594 L 99.492188 0.144531 L 99.421875 0.105469 L 99.34375 0.0742188 L 99.261719 0.0507812 L 99.164062 0.0273438 L 99.054688 0.015625 L 98.914062 0.00390625 L 98.6875 0 L 98.183594 0 L 98.011719 0.0078125 L 97.890625 0.0195312 L 97.789062 0.0390625 L 97.699219 0.0625 L 97.617188 0.0898438 L 97.542969 0.125 L 97.476562 0.164062 L 97.414062 0.207031 L 97.355469 0.257812 L 97.296875 0.3125 L 97.242188 0.375 L 97.191406 0.441406 L 97.144531 0.515625 L 97.097656 0.59375 L 97.050781 0.675781 L 97.007812 0.765625 L 96.964844 0.859375 L 96.925781 0.960938 L 96.886719 1.066406 L 96.847656 1.179688 L 96.8125 1.296875 L 96.777344 1.421875 L 96.742188 1.550781 L 96.710938 1.6875 L 96.679688 1.828125 L 96.648438 1.972656 L 96.617188 2.128906 L 96.589844 2.285156 L 96.558594 2.453125 L 96.53125 2.625 L 96.503906 2.800781 L 96.480469 2.984375 L 96.453125 3.175781 L 96.429688 3.375 L 96.40625 3.578125 L 96.382812 3.789062 L 96.363281 4.007812 L 96.339844 4.234375 L 96.320312 4.464844 L 96.300781 4.703125 L 96.28125 4.953125 L 96.261719 5.207031 L 96.246094 5.46875 L 96.226562 5.742188 L 96.210938 6.019531 L 96.195312 6.308594 L 96.179688 6.605469 L 96.164062 6.914062 L 96.152344 7.230469 L 96.136719 7.558594 L 96.125 7.894531 L 96.113281 8.246094 L 96.101562 8.605469 L 96.089844 8.980469 L 96.082031 9.367188 L 96.070312 9.769531 L 96.0625 10.1875 L 96.054688 10.625 L 96.046875 11.078125 L 96.039062 11.554688 L 96.03125 12.050781 L 96.027344 12.578125 L 96.019531 13.132812 L 96.015625 13.726562 L 96.011719 14.359375 L 96.007812 15.046875 L 96.007812 15.800781 L 96.003906 16.648438 L 96 17.625 L 96 28.347656 L 96.003906 29.328125 L 96.007812 30.175781 L 96.007812 30.933594 L 96.011719 31.621094 L 96.015625 32.257812 L 96.019531 32.851562 L 96.027344 33.40625 L 96.03125 33.933594 L 96.039062 34.433594 L 96.046875 34.910156 L 96.054688 35.363281 L 96.0625 35.800781 L 96.070312 36.21875 L 96.082031 36.621094 L 96.089844 37.011719 L 96.101562 37.382812 L 96.113281 37.746094 L 96.125 38.097656 L 96.136719 38.433594 L 96.152344 38.761719 L 96.164062 39.078125 L 96.179688 39.386719 L 96.195312 39.683594 L 96.210938 39.972656 L 96.226562 40.25 L 96.242188 40.523438 L 96.261719 40.785156 L 96.28125 41.042969 L 96.300781 41.289062 L 96.320312 41.527344 L 96.339844 41.761719 L 96.359375 41.984375 L 96.382812 42.203125 L 96.40625 42.414062 L 96.429688 42.621094 L 96.453125 42.816406 L 96.480469 43.007812 L 96.503906 43.191406 L 96.53125 43.371094 L 96.558594 43.542969 L 96.585938 43.710938 L 96.648438 44.023438 L 96.675781 44.167969 L 96.710938 44.3125 L 96.742188 44.445312 L 96.777344 44.574219 L 96.8125 44.699219 L 96.847656 44.816406 L 96.886719 44.929688 L 96.925781 45.035156 L 96.964844 45.136719 L 97.007812 45.230469 L 97.050781 45.320312 L 97.09375 45.40625 L 97.140625 45.484375 L 97.191406 45.554688 L 97.242188 45.621094 L 97.296875 45.683594 L 97.351562 45.738281 L 97.410156 45.789062 L 97.476562 45.835938 L 97.542969 45.875 L 97.617188 45.910156 L 97.695312 45.9375 L 97.785156 45.960938 L 97.886719 45.980469 L 98.007812 45.992188 L 98.175781 46 L 98.675781 46 L 98.910156 45.996094 L 99.050781 45.988281 L 99.164062 45.972656 L 99.257812 45.953125 L 99.34375 45.925781 L 99.417969 45.894531 L 99.488281 45.859375 L 99.554688 45.816406 L 99.617188 45.769531 L 99.675781 45.714844 L 99.730469 45.65625 L 99.78125 45.59375 L 99.832031 45.523438 L 99.878906 45.449219 L 99.925781 45.367188 L 99.96875 45.28125 L 100.011719 45.1875 L 100.054688 45.089844 L 100.09375 44.988281 L 100.132812 44.878906 L 100.203125 44.644531 L 100.238281 44.515625 L 100.273438 44.382812 L 100.304688 44.246094 L 100.335938 44.101562 L 100.367188 43.953125 L 100.398438 43.796875 L 100.425781 43.632812 L 100.453125 43.464844 L 100.480469 43.289062 L 100.507812 43.109375 L 100.53125 42.921875 L 100.558594 42.726562 L 100.582031 42.527344 L 100.605469 42.320312 L 100.628906 42.105469 L 100.648438 41.882812 L 100.667969 41.65625 L 100.691406 41.417969 L 100.710938 41.175781 L 100.726562 40.925781 L 100.746094 40.667969 L 100.765625 40.398438 L 100.78125 40.125 L 100.796875 39.839844 L 100.8125 39.546875 L 100.828125 39.246094 L 100.839844 38.933594 L 100.855469 38.613281 L 100.867188 38.28125 L 100.878906 37.9375 L 100.890625 37.582031 L 100.902344 37.214844 L 100.914062 36.832031 L 100.921875 36.4375 L 100.933594 36.027344 L 100.941406 35.601562 L 100.949219 35.15625 L 100.957031 34.695312 L 100.964844 34.207031 L 100.96875 33.695312 L 100.976562 33.15625 L 100.980469 32.582031 L 100.984375 31.972656 L 100.988281 31.3125 L 100.992188 30.59375 L 100.996094 29.800781 L 100.996094 28.898438 L 101 27.828125 L 101 18.238281 Z M 107 30.929688 L 107 28.1875 L 106.996094 27.050781 L 106.992188 26.179688 L 106.988281 25.449219 L 106.984375 24.808594 L 106.976562 24.230469 L 106.964844 23.703125 L 106.957031 23.210938 L 106.945312 22.757812 L 106.929688 22.332031 L 106.917969 21.929688 L 106.898438 21.546875 L 106.882812 21.1875 L 106.863281 20.84375 L 106.84375 20.519531 L 106.820312 20.207031 L 106.796875 19.914062 L 106.773438 19.628906 L 106.746094 19.359375 L 106.71875 19.105469 L 106.6875 18.859375 L 106.65625 18.625 L 106.625 18.402344 L 106.589844 18.191406 L 106.554688 17.988281 L 106.515625 17.796875 L 106.476562 17.617188 L 106.433594 17.445312 L 106.390625 17.28125 L 106.34375 17.128906 L 106.296875 16.984375 L 106.246094 16.847656 L 106.191406 16.722656 L 106.136719 16.605469 L 106.078125 16.5 L 106.015625 16.398438 L 105.949219 16.308594 L 105.878906 16.226562 L 105.808594 16.152344 L 105.726562 16.085938 L 105.640625 16.027344 L 105.550781 15.980469 L 105.445312 15.941406 L 105.332031 15.910156 L 105.195312 15.886719 L 105.027344 15.871094 L 104.765625 15.863281 L 104.128906 15.863281 L 103.914062 15.875 L 103.757812 15.890625 L 103.628906 15.917969 L 103.519531 15.953125 L 103.417969 15.996094 L 103.328125 16.046875 L 103.246094 16.105469 L 103.167969 16.175781 L 103.097656 16.25 L 103.027344 16.335938 L 102.964844 16.429688 L 102.902344 16.53125 L 102.84375 16.644531 L 102.789062 16.761719 L 102.738281 16.890625 L 102.6875 17.03125 L 102.640625 17.175781 L 102.59375 17.332031 L 102.550781 17.496094 L 102.511719 17.671875 L 102.472656 17.859375 L 102.433594 18.050781 L 102.398438 18.257812 L 102.363281 18.472656 L 102.332031 18.699219 L 102.300781 18.9375 L 102.273438 19.183594 L 102.246094 19.445312 L 102.21875 19.71875 L 102.195312 20.003906 L 102.171875 20.304688 L 102.148438 20.621094 L 102.128906 20.953125 L 102.113281 21.300781 L 102.09375 21.667969 L 102.078125 22.054688 L 102.066406 22.464844 L 102.050781 22.898438 L 102.039062 23.363281 L 102.03125 23.863281 L 102.023438 24.40625 L 102.015625 25.003906 L 102.007812 25.671875 L 102.003906 26.441406 L 102 27.371094 L 102 34.082031 L 102.003906 35.109375 L 102.007812 35.925781 L 102.011719 36.625 L 102.019531 37.246094 L 102.027344 37.804688 L 102.035156 38.320312 L 102.046875 38.796875 L 102.058594 39.242188 L 102.074219 39.664062 L 102.089844 40.058594 L 102.105469 40.429688 L 102.125 40.785156 L 102.140625 41.121094 L 102.164062 41.445312 L 102.1875 41.75 L 102.210938 42.039062 L 102.234375 42.320312 L 102.261719 42.585938 L 102.289062 42.835938 L 102.320312 43.078125 L 102.351562 43.308594 L 102.386719 43.527344 L 102.421875 43.738281 L 102.457031 43.933594 L 102.496094 44.125 L 102.535156 44.300781 L 102.578125 44.472656 L 102.625 44.628906 L 102.671875 44.78125 L 102.71875 44.921875 L 102.769531 45.054688 L 102.824219 45.175781 L 102.882812 45.289062 L 102.941406 45.394531 L 103.003906 45.492188 L 103.070312 45.582031 L 103.140625 45.660156 L 103.21875 45.730469 L 103.296875 45.796875 L 103.386719 45.847656 L 103.480469 45.894531 L 103.589844 45.933594 L 103.710938 45.960938 L 103.851562 45.984375 L 104.039062 45.996094 L 104.433594 46 L 104.949219 45.996094 L 105.140625 45.984375 L 105.285156 45.964844 L 105.40625 45.933594 L 105.515625 45.898438 L 105.609375 45.851562 L 105.699219 45.796875 L 105.777344 45.734375 L 105.855469 45.664062 L 105.925781 45.585938 L 105.992188 45.496094 L 106.054688 45.402344 L 106.117188 45.296875 L 106.171875 45.183594 L 106.226562 45.058594 L 106.277344 44.925781 L 106.328125 44.785156 L 106.375 44.636719 L 106.417969 44.476562 L 106.460938 44.308594 L 106.5 44.132812 L 106.539062 43.945312 L 106.578125 43.746094 L 106.613281 43.539062 L 106.644531 43.320312 L 106.679688 43.089844 L 106.707031 42.847656 L 106.738281 42.59375 L 106.765625 42.332031 L 106.789062 42.054688 L 106.8125 41.761719 L 106.835938 41.457031 L 106.855469 41.136719 L 106.875 40.800781 L 106.894531 40.445312 L 106.910156 40.074219 L 106.925781 39.679688 L 106.9375 39.261719 L 106.953125 38.816406 L 106.960938 38.34375 L 106.972656 37.828125 L 106.980469 37.269531 L 106.988281 36.652344 L 106.992188 35.957031 L 106.996094 35.148438 L 107 34.132812 L 107 27.417969 Z M 113 34.101562 L 113 31.664062 L 112.996094 30.65625 L 112.988281 29.882812 L 112.980469 29.238281 L 112.972656 28.671875 L 112.960938 28.160156 L 112.945312 27.695312 L 112.929688 27.269531 L 112.910156 26.875 L 112.890625 26.503906 L 112.863281 26.160156 L 112.839844 25.832031 L 112.8125 25.527344 L 112.78125 25.242188 L 112.746094 24.96875 L 112.710938 24.714844 L 112.671875 24.472656 L 112.632812 24.246094 L 112.589844 24.035156 L 112.542969 23.835938 L 112.492188 23.648438 L 112.441406 23.472656 L 112.382812 23.3125 L 112.324219 23.160156 L 112.261719 23.019531 L 112.195312 22.894531 L 112.125 22.777344 L 112.050781 22.671875 L 111.96875 22.578125 L 111.878906 22.492188 L 111.785156 22.421875 L 111.683594 22.359375 L 111.570312 22.308594 L 111.441406 22.265625 L 111.289062 22.238281 L 111.101562 22.21875 L 110.8125 22.207031 L 110.09375 22.207031 L 109.847656 22.222656 L 109.671875 22.242188 L 109.527344 22.277344 L 109.402344 22.320312 L 109.289062 22.375 L 109.1875 22.4375 L 109.097656 22.515625 L 109.011719 22.601562 L 108.929688 22.695312 L 108.855469 22.804688 L 108.789062 22.925781 L 108.722656 23.054688 L 108.660156 23.195312 L 108.601562 23.351562 L 108.546875 23.515625 L 108.496094 23.695312 L 108.445312 23.882812 L 108.402344 24.085938 L 108.359375 24.304688 L 108.316406 24.53125 L 108.28125 24.777344 L 108.246094 25.035156 L 108.210938 25.3125 L 108.183594 25.601562 L 108.152344 25.914062 L 108.128906 26.242188 L 108.105469 26.59375 L 108.085938 26.972656 L 108.066406 27.375 L 108.050781 27.808594 L 108.035156 28.285156 L 108.023438 28.804688 L 108.015625 29.390625 L 108.007812 30.066406 L 108.003906 30.878906 L 108 31.992188 L 108 36.832031 L 108.003906 37.761719 L 108.011719 38.496094 L 108.019531 39.117188 L 108.03125 39.671875 L 108.042969 40.167969 L 108.058594 40.621094 L 108.074219 41.039062 L 108.09375 41.429688 L 108.117188 41.792969 L 108.140625 42.132812 L 108.167969 42.453125 L 108.195312 42.753906 L 108.226562 43.035156 L 108.261719 43.304688 L 108.296875 43.554688 L 108.335938 43.792969 L 108.378906 44.015625 L 108.421875 44.222656 L 108.46875 44.421875 L 108.519531 44.605469 L 108.574219 44.777344 L 108.628906 44.933594 L 108.691406 45.082031 L 108.753906 45.21875 L 108.820312 45.34375 L 108.894531 45.457031 L 108.972656 45.558594 L 109.054688 45.652344 L 109.140625 45.734375 L 109.238281 45.800781 L 109.34375 45.863281 L 109.460938 45.910156 L 109.59375 45.949219 L 109.753906 45.976562 L 109.957031 45.992188 L 110.320312 46 L 110.980469 45.996094 L 111.203125 45.980469 L 111.367188 45.957031 L 111.507812 45.921875 L 111.628906 45.875 L 111.734375 45.816406 L 111.835938 45.75 L 111.925781 45.671875 L 112.007812 45.582031 L 112.085938 45.484375 L 112.160156 45.371094 L 112.230469 45.25 L 112.292969 45.117188 L 112.355469 44.972656 L 112.414062 44.816406 L 112.464844 44.648438 L 112.519531 44.464844 L 112.566406 44.273438 L 112.609375 44.066406 L 112.652344 43.847656 L 112.691406 43.613281 L 112.730469 43.367188 L 112.765625 43.101562 L 112.796875 42.824219 L 112.824219 42.527344 L 112.851562 42.210938 L 112.878906 41.878906 L 112.898438 41.519531 L 112.917969 41.136719 L 112.9375 40.726562 L 112.953125 40.28125 L 112.964844 39.796875 L 112.976562 39.257812 L 112.988281 38.65625 L 112.992188 37.953125 L 112.996094 37.085938 L 113 35.820312 L 113 32.371094 L 112.996094 31.113281 Z M 119 37.277344 L 118.996094 35.1875 L 118.992188 34.324219 L 118.980469 33.667969 L 118.96875 33.117188 L 118.949219 32.636719 L 118.925781 32.210938 L 118.898438 31.824219 L 118.867188 31.472656 L 118.832031 31.148438 L 118.792969 30.851562 L 118.746094 30.578125 L 118.699219 30.324219 L 118.644531 30.09375 L 118.585938 29.878906 L 118.519531 29.683594 L 118.449219 29.503906 L 118.375 29.339844 L 118.292969 29.195312 L 118.203125 29.0625 L 118.105469 28.949219 L 117.996094 28.847656 L 117.878906 28.761719 L 117.75 28.691406 L 117.601562 28.636719 L 117.425781 28.59375 L 117.210938 28.566406 L 116.882812 28.554688 L 116.039062 28.554688 L 115.746094 28.570312 L 115.539062 28.601562 L 115.371094 28.644531 L 115.226562 28.703125 L 115.097656 28.777344 L 114.980469 28.863281 L 114.875 28.96875 L 114.78125 29.085938 L 114.691406 29.21875 L 114.613281 29.371094 L 114.535156 29.535156 L 114.46875 29.71875 L 114.40625 29.917969 L 114.347656 30.132812 L 114.292969 30.371094 L 114.246094 30.625 L 114.199219 30.90625 L 114.160156 31.207031 L 114.125 31.535156 L 114.097656 31.894531 L 114.070312 32.285156 L 114.046875 32.722656 L 114.03125 33.210938 L 114.015625 33.777344 L 114.007812 34.464844 L 114 35.390625 L 114 38.171875 L 114.003906 39.546875 L 114.011719 40.359375 L 114.019531 40.992188 L 114.035156 41.527344 L 114.054688 41.996094 L 114.078125 42.414062 L 114.105469 42.796875 L 114.140625 43.140625 L 114.175781 43.460938 L 114.214844 43.753906 L 114.261719 44.023438 L 114.3125 44.269531 L 114.367188 44.5 L 114.425781 44.710938 L 114.492188 44.902344 L 114.5625 45.078125 L 114.640625 45.238281 L 114.726562 45.382812 L 114.816406 45.511719 L 114.914062 45.625 L 115.023438 45.722656 L 115.140625 45.804688 L 115.277344 45.871094 L 115.429688 45.925781 L 115.609375 45.964844 L 115.839844 45.988281 L 116.21875 46 L 117.027344 45.996094 L 117.296875 45.976562 L 117.496094 45.945312 L 117.660156 45.898438 L 117.800781 45.835938 L 117.925781 45.761719 L 118.039062 45.667969 L 118.140625 45.5625 L 118.234375 45.441406 L 118.324219 45.304688 L 118.402344 45.152344 L 118.476562 44.984375 L 118.542969 44.800781 L 118.605469 44.597656 L 118.664062 44.375 L 118.714844 44.136719 L 118.765625 43.875 L 118.808594 43.59375 L 118.84375 43.285156 L 118.878906 42.953125 L 118.910156 42.589844 L 118.933594 42.1875 L 118.957031 41.742188 L 118.972656 41.242188 L 118.984375 40.65625 L 118.996094 39.941406 L 119 38.933594 L 119 36.007812 L 118.996094 34.832031 Z M 125 42.828125 L 124.984375 41.570312 L 124.9375 41.0625 L 124.859375 40.6875 L 124.746094 40.390625 L 124.597656 40.15625 L 124.414062 39.972656 L 124.179688 39.832031 L 123.878906 39.730469 L 123.472656 39.671875 L 122.316406 39.65625 L 121.492188 39.675781 L 121.097656 39.738281 L 120.804688 39.839844 L 120.574219 39.980469 L 120.390625 40.171875 L 120.246094 40.410156 L 120.136719 40.710938 L 120.058594 41.089844 L 120.011719 41.613281 L 120 43.152344 L 120.019531 44.125 L 120.066406 44.621094 L 120.148438 44.992188 L 120.261719 45.28125 L 120.410156 45.511719 L 120.601562 45.695312 L 120.839844 45.832031 L 121.140625 45.929688 L 121.558594 45.984375 L 122.816406 46 L 123.539062 45.976562 L 123.925781 45.914062 L 124.214844 45.808594 L 124.441406 45.660156 L 124.621094 45.46875 L 124.765625 45.226562 L 124.871094 44.921875 L 124.945312 44.535156 L 124.988281 43.996094 Z M 131 41.242188 L 130.992188 39.699219 L 130.972656 39.066406 L 130.9375 38.589844 L 130.890625 38.203125 L 130.824219 37.871094 L 130.746094 37.585938 L 130.652344 37.34375 L 130.542969 37.132812 L 130.414062 36.957031 L 130.261719 36.808594 L 130.085938 36.6875 L 129.878906 36.597656 L 129.628906 36.53125 L 129.289062 36.496094 L 128.316406 36.484375 L 127.671875 36.496094 L 127.34375 36.539062 L 127.097656 36.605469 L 126.894531 36.699219 L 126.722656 36.820312 L 126.574219 36.972656 L 126.445312 37.152344 L 126.335938 37.367188 L 126.246094 37.613281 L 126.167969 37.902344 L 126.105469 38.238281 L 126.058594 38.636719 L 126.023438 39.121094 L 126.003906 39.78125 L 126 41.730469 L 126.007812 42.859375 L 126.03125 43.46875 L 126.066406 43.933594 L 126.117188 44.316406 L 126.183594 44.640625 L 126.261719 44.921875 L 126.359375 45.160156 L 126.46875 45.367188 L 126.601562 45.542969 L 126.753906 45.6875 L 126.933594 45.804688 L 127.140625 45.894531 L 127.402344 45.953125 L 127.753906 45.992188 L 128.816406 46 L 129.367188 45.984375 L 129.683594 45.9375 L 129.925781 45.867188 L 130.125 45.773438 L 130.292969 45.648438 L 130.441406 45.492188 L 130.566406 45.308594 L 130.671875 45.09375 L 130.765625 44.839844 L 130.839844 44.550781 L 130.898438 44.207031 L 130.945312 43.804688 L 130.976562 43.304688 L 130.996094 42.617188 Z M 137 42.035156 L 136.988281 40.628906 L 136.960938 40.054688 L 136.910156 39.625 L 136.839844 39.277344 L 136.746094 38.988281 L 136.632812 38.75 L 136.492188 38.550781 L 136.324219 38.386719 L 136.125 38.257812 L 135.878906 38.164062 L 135.570312 38.101562 L 135.101562 38.074219 L 133.847656 38.074219 L 133.402344 38.105469 L 133.097656 38.171875 L 132.855469 38.269531 L 132.660156 38.398438 L 132.496094 38.566406 L 132.359375 38.769531 L 132.246094 39.011719 L 132.152344 39.304688 L 132.085938 39.65625 L 132.035156 40.09375 L 132.007812 40.6875 L 132 42.441406 L 132.011719 43.5 L 132.042969 44.054688 L 132.09375 44.476562 L 132.167969 44.816406 L 132.261719 45.101562 L 132.378906 45.339844 L 132.519531 45.535156 L 132.691406 45.695312 L 132.894531 45.820312 L 133.140625 45.910156 L 133.460938 45.96875 L 133.957031 45.996094 L 135.203125 45.992188 L 135.628906 45.957031 L 135.925781 45.890625 L 136.160156 45.789062 L 136.355469 45.65625 L 136.519531 45.488281 L 136.652344 45.28125 L 136.765625 45.035156 L 136.851562 44.738281 L 136.917969 44.378906 L 136.964844 43.933594 L 136.992188 43.316406 L 137 41.457031 L 136.988281 40.515625 Z M 143 43.621094 L 142.976562 42.558594 L 142.898438 42.136719 L 142.769531 41.832031 L 142.585938 41.605469 L 142.335938 41.4375 L 142.003906 41.324219 L 141.53125 41.257812 L 140.074219 41.242188 L 139.308594 41.273438 L 138.886719 41.351562 L 138.582031 41.480469 L 138.351562 41.664062 L 138.1875 41.914062 L 138.074219 42.242188 L 138.011719 42.726562 L 138.003906 44.195312 L 138.042969 44.824219 L 138.132812 45.203125 L 138.277344 45.480469 L 138.480469 45.691406 L 138.75 45.84375 L 139.113281 45.941406 L 139.664062 45.992188 L 141.238281 45.996094 L 141.832031 45.949219 L 142.210938 45.855469 L 142.492188 45.710938 L 142.703125 45.511719 L 142.851562 45.242188 L 142.949219 44.878906 L 142.996094 44.304688 Z M 149 42.035156 L 148.988281 40.628906 L 148.960938 40.054688 L 148.910156 39.625 L 148.839844 39.277344 L 148.746094 38.988281 L 148.632812 38.75 L 148.492188 38.550781 L 148.324219 38.386719 L 148.125 38.257812 L 147.878906 38.164062 L 147.570312 38.101562 L 147.101562 38.074219 L 145.847656 38.074219 L 145.402344 38.105469 L 145.097656 38.171875 L 144.855469 38.269531 L 144.660156 38.398438 L 144.496094 38.566406 L 144.359375 38.769531 L 144.246094 39.011719 L 144.152344 39.304688 L 144.085938 39.65625 L 144.035156 40.09375 L 144.007812 40.6875 L 144 42.441406 L 144.011719 43.5 L 144.042969 44.054688 L 144.09375 44.476562 L 144.167969 44.816406 L 144.261719 45.101562 L 144.378906 45.339844 L 144.519531 45.535156 L 144.691406 45.695312 L 144.894531 45.820312 L 145.140625 45.910156 L 145.460938 45.96875 L 145.957031 45.996094 L 147.203125 45.992188 L 147.628906 45.957031 L 147.925781 45.890625 L 148.160156 45.789062 L 148.355469 45.65625 L 148.519531 45.488281 L 148.652344 45.28125 L 148.765625 45.035156 L 148.851562 44.738281 L 148.917969 44.378906 L 148.964844 43.933594 L 148.992188 43.316406 L 149 41.457031 L 148.988281 40.515625 Z M 155 46 L 150.003906 46 Z M 161 46 L 156.003906 46 Z M 167 45.207031 L 166.976562 44.851562 L 166.898438 44.710938 L 166.769531 44.609375 L 166.585938 44.535156 L 166.335938 44.480469 L 166.003906 44.441406 L 165.53125 44.417969 L 164.074219 44.414062 L 163.308594 44.425781 L 162.886719 44.449219 L 162.582031 44.492188 L 162.351562 44.554688 L 162.1875 44.636719 L 162.074219 44.746094 L 162.011719 44.910156 L 162.003906 45.398438 L 162.042969 45.609375 L 162.132812 45.734375 L 162.277344 45.828125 L 162.480469 45.898438 L 162.75 45.949219 L 163.113281 45.980469 L 163.664062 45.996094 L 165.238281 46 L 165.832031 45.984375 L 166.210938 45.953125 L 166.492188 45.902344 L 166.703125 45.835938 L 166.851562 45.746094 L 166.949219 45.625 L 166.996094 45.433594 Z M 173 40.449219 L 172.996094 38.785156 L 172.980469 38.097656 L 172.953125 37.578125 L 172.917969 37.152344 L 172.871094 36.785156 L 172.816406 36.464844 L 172.746094 36.1875 L 172.667969 35.9375 L 172.574219 35.722656 L 172.46875 35.535156 L 172.351562 35.371094 L 172.214844 35.234375 L 172.058594 35.121094 L 171.878906 35.03125 L 171.667969 34.964844 L 171.398438 34.921875 L 171 34.898438 L 169.9375 34.898438 L 169.566406 34.925781 L 169.304688 34.96875 L 169.097656 35.039062 L 168.921875 35.132812 L 168.769531 35.25 L 168.632812 35.390625 L 168.515625 35.554688 L 168.414062 35.746094 L 168.324219 35.964844 L 168.246094 36.21875 L 168.175781 36.5 L 168.121094 36.824219 L 168.078125 37.199219 L 168.042969 37.636719 L 168.019531 38.167969 L 168.003906 38.882812 L 168 41.019531 L 168.007812 42.207031 L 168.023438 42.867188 L 168.050781 43.371094 L 168.085938 43.789062 L 168.132812 44.152344 L 168.191406 44.464844 L 168.261719 44.742188 L 168.34375 44.984375 L 168.4375 45.199219 L 168.542969 45.382812 L 168.664062 45.542969 L 168.800781 45.675781 L 168.960938 45.789062 L 169.140625 45.875 L 169.359375 45.9375 L 169.636719 45.980469 L 170.074219 46 L 171.117188 45.996094 L 171.46875 45.96875 L 171.722656 45.917969 L 171.925781 45.847656 L 172.097656 45.75 L 172.25 45.632812 L 172.378906 45.488281 L 172.496094 45.320312 L 172.597656 45.125 L 172.6875 44.902344 L 172.765625 44.648438 L 172.828125 44.359375 L 172.882812 44.03125 L 172.929688 43.648438 L 172.960938 43.203125 L 172.984375 42.65625 L 172.996094 41.90625 L 173 39.640625 L 172.992188 38.597656 Z M 179 32.515625 L 179 29.921875 L 178.996094 28.847656 L 178.992188 28.023438 L 178.984375 27.332031 L 178.976562 26.726562 L 178.96875 26.183594 L 178.957031 25.6875 L 178.945312 25.226562 L 178.929688 24.800781 L 178.914062 24.402344 L 178.894531 24.023438 L 178.875 23.671875 L 178.851562 23.335938 L 178.828125 23.019531 L 178.804688 22.71875 L 178.777344 22.433594 L 178.746094 22.164062 L 178.714844 21.910156 L 178.683594 21.667969 L 178.648438 21.4375 L 178.609375 21.21875 L 178.570312 21.011719 L 178.527344 20.816406 L 178.484375 20.632812 L 178.4375 20.457031 L 178.386719 20.296875 L 178.335938 20.144531 L 178.28125 20.003906 L 178.222656 19.871094 L 178.164062 19.75 L 178.097656 19.636719 L 178.03125 19.535156 L 177.957031 19.441406 L 177.878906 19.359375 L 177.796875 19.285156 L 177.707031 19.222656 L 177.609375 19.167969 L 177.503906 19.121094 L 177.382812 19.085938 L 177.238281 19.058594 L 177.0625 19.042969 L 176.789062 19.035156 L 176.113281 19.035156 L 175.882812 19.046875 L 175.71875 19.066406 L 175.582031 19.097656 L 175.464844 19.132812 L 175.359375 19.183594 L 175.265625 19.238281 L 175.179688 19.304688 L 175.097656 19.382812 L 175.019531 19.46875 L 174.949219 19.5625 L 174.882812 19.667969 L 174.820312 19.78125 L 174.757812 19.90625 L 174.703125 20.042969 L 174.648438 20.1875 L 174.597656 20.339844 L 174.550781 20.507812 L 174.503906 20.683594 L 174.460938 20.871094 L 174.417969 21.070312 L 174.378906 21.277344 L 174.34375 21.5 L 174.308594 21.734375 L 174.273438 21.980469 L 174.246094 22.242188 L 174.214844 22.515625 L 174.1875 22.804688 L 174.164062 23.109375 L 174.140625 23.429688 L 174.117188 23.769531 L 174.097656 24.128906 L 174.082031 24.511719 L 174.066406 24.917969 L 174.050781 25.355469 L 174.039062 25.824219 L 174.027344 26.332031 L 174.019531 26.894531 L 174.011719 27.519531 L 174.007812 28.242188 L 174.003906 29.117188 L 174 30.324219 L 174 35.460938 L 174.003906 36.441406 L 174.007812 37.21875 L 174.015625 37.878906 L 174.023438 38.46875 L 174.035156 38.996094 L 174.046875 39.484375 L 174.058594 39.933594 L 174.074219 40.351562 L 174.089844 40.742188 L 174.109375 41.113281 L 174.132812 41.460938 L 174.152344 41.789062 L 174.175781 42.101562 L 174.203125 42.398438 L 174.230469 42.675781 L 174.261719 42.945312 L 174.292969 43.195312 L 174.328125 43.433594 L 174.363281 43.664062 L 174.402344 43.878906 L 174.441406 44.082031 L 174.484375 44.273438 L 174.53125 44.453125 L 174.578125 44.625 L 174.625 44.78125 L 174.679688 44.933594 L 174.734375 45.070312 L 174.792969 45.199219 L 174.855469 45.320312 L 174.921875 45.425781 L 174.988281 45.527344 L 175.0625 45.617188 L 175.140625 45.695312 L 175.226562 45.765625 L 175.320312 45.828125 L 175.417969 45.878906 L 175.53125 45.921875 L 175.65625 45.957031 L 175.808594 45.980469 L 176 45.996094 L 176.371094 46 L 176.964844 45.996094 L 177.167969 45.984375 L 177.324219 45.960938 L 177.453125 45.929688 L 177.566406 45.886719 L 177.667969 45.835938 L 177.761719 45.777344 L 177.847656 45.707031 L 177.925781 45.628906 L 178 45.539062 L 178.070312 45.441406 L 178.136719 45.335938 L 178.199219 45.21875 L 178.257812 45.089844 L 178.3125 44.953125 L 178.367188 44.804688 L 178.414062 44.648438 L 178.464844 44.476562 L 178.507812 44.300781 L 178.550781 44.109375 L 178.59375 43.90625 L 178.628906 43.695312 L 178.667969 43.46875 L 178.703125 43.230469 L 178.734375 42.980469 L 178.765625 42.714844 L 178.792969 42.4375 L 178.820312 42.144531 L 178.84375 41.835938 L 178.867188 41.507812 L 178.886719 41.164062 L 178.90625 40.796875 L 178.921875 40.410156 L 178.9375 39.996094 L 178.953125 39.550781 L 178.964844 39.070312 L 178.976562 38.546875 L 178.984375 37.96875 L 178.988281 37.320312 L 178.996094 36.5625 L 179 35.621094 L 179 30.554688 L 178.996094 29.265625 Z M 185 28.550781 L 185 25.597656 L 184.996094 24.375 L 184.996094 23.4375 L 184.992188 22.652344 L 184.988281 21.957031 L 184.980469 21.335938 L 184.976562 20.761719 L 184.96875 20.234375 L 184.957031 19.738281 L 184.949219 19.273438 L 184.9375 18.835938 L 184.925781 18.421875 L 184.914062 18.023438 L 184.898438 17.648438 L 184.882812 17.289062 L 184.867188 16.945312 L 184.851562 16.613281 L 184.832031 16.296875 L 184.8125 15.996094 L 184.792969 15.703125 L 184.769531 15.421875 L 184.746094 15.15625 L 184.722656 14.898438 L 184.699219 14.648438 L 184.671875 14.414062 L 184.644531 14.183594 L 184.613281 13.964844 L 184.585938 13.757812 L 184.550781 13.554688 L 184.519531 13.363281 L 184.484375 13.179688 L 184.449219 13.007812 L 184.414062 12.839844 L 184.375 12.679688 L 184.332031 12.53125 L 184.292969 12.386719 L 184.246094 12.253906 L 184.203125 12.125 L 184.152344 12.007812 L 184.105469 11.894531 L 184.050781 11.792969 L 183.996094 11.695312 L 183.941406 11.605469 L 183.878906 11.523438 L 183.816406 11.449219 L 183.75 11.382812 L 183.679688 11.324219 L 183.601562 11.269531 L 183.519531 11.226562 L 183.425781 11.1875 L 183.324219 11.15625 L 183.210938 11.132812 L 183.070312 11.117188 L 182.882812 11.105469 L 182.316406 11.105469 L 182.039062 11.109375 L 181.875 11.121094 L 181.746094 11.140625 L 181.636719 11.167969 L 181.539062 11.199219 L 181.449219 11.242188 L 181.371094 11.289062 L 181.292969 11.34375 L 181.226562 11.40625 L 181.160156 11.476562 L 181.097656 11.554688 L 181.039062 11.636719 L 180.980469 11.730469 L 180.929688 11.828125 L 180.875 11.9375 L 180.828125 12.050781 L 180.78125 12.171875 L 180.734375 12.300781 L 180.691406 12.441406 L 180.652344 12.585938 L 180.613281 12.738281 L 180.574219 12.898438 L 180.535156 13.070312 L 180.5 13.246094 L 180.46875 13.433594 L 180.4375 13.628906 L 180.40625 13.832031 L 180.375 14.046875 L 180.347656 14.265625 L 180.320312 14.5 L 180.292969 14.738281 L 180.269531 14.992188 L 180.246094 15.253906 L 180.222656 15.527344 L 180.199219 15.808594 L 180.179688 16.105469 L 180.160156 16.414062 L 180.144531 16.734375 L 180.125 17.070312 L 180.109375 17.417969 L 180.097656 17.785156 L 180.082031 18.167969 L 180.070312 18.570312 L 180.058594 18.996094 L 180.046875 19.445312 L 180.039062 19.917969 L 180.03125 20.425781 L 180.023438 20.96875 L 180.015625 21.558594 L 180.011719 22.203125 L 180.007812 22.929688 L 180.003906 23.761719 L 180 24.78125 L 180 32.007812 L 180.003906 33.097656 L 180.003906 33.96875 L 180.011719 34.71875 L 180.015625 35.382812 L 180.019531 35.984375 L 180.027344 36.539062 L 180.035156 37.054688 L 180.046875 37.539062 L 180.054688 37.992188 L 180.066406 38.421875 L 180.078125 38.832031 L 180.09375 39.21875 L 180.105469 39.589844 L 180.121094 39.945312 L 180.140625 40.285156 L 180.15625 40.609375 L 180.175781 40.917969 L 180.195312 41.21875 L 180.214844 41.503906 L 180.238281 41.78125 L 180.261719 42.042969 L 180.285156 42.296875 L 180.3125 42.542969 L 180.339844 42.777344 L 180.367188 43 L 180.398438 43.214844 L 180.425781 43.421875 L 180.460938 43.621094 L 180.492188 43.808594 L 180.527344 43.988281 L 180.5625 44.160156 L 180.601562 44.324219 L 180.640625 44.480469 L 180.683594 44.625 L 180.726562 44.765625 L 180.769531 44.898438 L 180.816406 45.023438 L 180.863281 45.136719 L 180.914062 45.246094 L 180.96875 45.347656 L 181.023438 45.441406 L 181.082031 45.527344 L 181.140625 45.609375 L 181.207031 45.679688 L 181.277344 45.742188 L 181.347656 45.800781 L 181.429688 45.851562 L 181.515625 45.894531 L 181.609375 45.929688 L 181.714844 45.957031 L 181.839844 45.980469 L 181.992188 45.992188 L 182.21875 46 L 182.816406 46 L 183.027344 45.992188 L 183.175781 45.976562 L 183.296875 45.953125 L 183.402344 45.925781 L 183.496094 45.890625 L 183.582031 45.847656 L 183.660156 45.796875 L 183.730469 45.738281 L 183.800781 45.671875 L 183.863281 45.597656 L 183.925781 45.519531 L 183.984375 45.433594 L 184.039062 45.335938 L 184.089844 45.234375 L 184.140625 45.125 L 184.191406 45.007812 L 184.234375 44.882812 L 184.28125 44.75 L 184.324219 44.609375 L 184.363281 44.460938 L 184.402344 44.304688 L 184.441406 44.140625 L 184.476562 43.96875 L 184.511719 43.789062 L 184.542969 43.597656 L 184.574219 43.398438 L 184.605469 43.191406 L 184.636719 42.976562 L 184.664062 42.75 L 184.691406 42.515625 L 184.714844 42.273438 L 184.742188 42.015625 L 184.765625 41.75 L 184.785156 41.472656 L 184.808594 41.1875 L 184.828125 40.886719 L 184.84375 40.574219 L 184.863281 40.246094 L 184.878906 39.90625 L 184.894531 39.550781 L 184.910156 39.179688 L 184.921875 38.789062 L 184.933594 38.378906 L 184.945312 37.945312 L 184.957031 37.488281 L 184.964844 37 L 184.972656 36.480469 L 184.980469 35.921875 L 184.984375 35.3125 L 184.992188 34.640625 L 184.996094 33.882812 L 184.996094 32.992188 L 185 31.867188 Z M 191 46 L 186.003906 46 Z M 197 46 L 192.003906 46 Z M 203 45.207031 L 202.976562 44.851562 L 202.898438 44.710938 L 202.769531 44.609375 L 202.585938 44.535156 L 202.335938 44.480469 L 202.003906 44.441406 L 201.53125 44.417969 L 200.074219 44.414062 L 199.308594 44.425781 L 198.886719 44.449219 L 198.582031 44.492188 L 198.351562 44.554688 L 198.1875 44.636719 L 198.074219 44.746094 L 198.011719 44.910156 L 198.003906 45.398438 L 198.042969 45.609375 L 198.132812 45.734375 L 198.277344 45.828125 L 198.480469 45.898438 L 198.75 45.949219 L 199.113281 45.980469 L 199.664062 45.996094 L 201.238281 46 L 201.832031 45.984375 L 202.210938 45.953125 L 202.492188 45.902344 L 202.703125 45.835938 L 202.851562 45.746094 L 202.949219 45.625 L 202.996094 45.433594 Z M 209 43.621094 L 208.976562 42.558594 L 208.898438 42.136719 L 208.769531 41.832031 L 208.585938 41.605469 L 208.335938 41.4375 L 208.003906 41.324219 L 207.53125 41.257812 L 206.074219 41.242188 L 205.308594 41.273438 L 204.886719 41.351562 L 204.582031 41.480469 L 204.351562 41.664062 L 204.1875 41.914062 L 204.074219 42.242188 L 204.011719 42.726562 L 204.003906 44.195312 L 204.042969 44.824219 L 204.132812 45.203125 L 204.277344 45.480469 L 204.480469 45.691406 L 204.75 45.84375 L 205.113281 45.941406 L 205.664062 45.992188 L 207.238281 45.996094 L 207.832031 45.949219 L 208.210938 45.855469 L 208.492188 45.710938 L 208.703125 45.511719 L 208.851562 45.242188 L 208.949219 44.878906 L 208.996094 44.304688 Z M 209 43.621094 "/>
<g clip-path="url(#clip2)" clip-rule="nonzero">
<rect x="0" y="0" width="210" height="210" style="fill:rgb(38.039216%,50.588235%,100%);fill-opacity:0.490196;stroke:none;"/>
</g>
<path style=" stroke:none;fill-rule:nonzero;fill:rgb(66.666667%,0%,100%);fill-opacity:0.490196;" d="M 0.882812 89.898438 L 4.117188 89.898438 L 5 90.78125 L 5 97.117188 L 4.117188 98 L 0.882812 98 L 0 97.117188 L 0 90.78125 Z M 6 98 L 11 98 Z M 12 98 L 17 98 Z M 18.285156 96.378906 L 22.714844 96.378906 L 23 96.664062 L 23 97.714844 L 22.714844 98 L 18.285156 98 L 18 97.714844 L 18 96.664062 Z M 24.882812 86.65625 L 28.117188 86.65625 L 29 87.539062 L 29 97.117188 L 28.117188 98 L 24.882812 98 L 24 97.117188 L 24 87.539062 Z M 30.882812 70.449219 L 34.117188 70.449219 L 35 71.332031 L 35 97.117188 L 34.117188 98 L 30.882812 98 L 30 97.117188 L 30 71.332031 Z M 36.882812 62.34375 L 40.117188 62.34375 L 41 63.230469 L 41 97.117188 L 40.117188 98 L 36.882812 98 L 36 97.117188 L 36 63.230469 Z M 42 98 L 47 98 Z M 48 98 L 53 98 Z M 54.285156 96.378906 L 58.714844 96.378906 L 59 96.664062 L 59 97.714844 L 58.714844 98 L 54.285156 98 L 54 97.714844 L 54 96.664062 Z M 60.859375 93.136719 L 64.140625 93.136719 L 65 93.996094 L 65 97.140625 L 64.140625 98 L 60.859375 98 L 60 97.140625 L 60 93.996094 Z M 66 98 L 71 98 Z M 72 98 L 77 98 Z M 78.882812 75.308594 L 82.117188 75.308594 L 83 76.195312 L 83 97.117188 L 82.117188 98 L 78.882812 98 L 78 97.117188 L 78 76.195312 Z M 84.882812 70.449219 L 88.117188 70.449219 L 89 71.332031 L 89 97.117188 L 88.117188 98 L 84.882812 98 L 84 97.117188 L 84 71.332031 Z M 90.882812 70.449219 L 94.117188 70.449219 L 95 71.332031 L 95 97.117188 L 94.117188 98 L 90.882812 98 L 90 97.117188 L 90 71.332031 Z M 96.882812 51 L 100.117188 51 L 101 51.882812 L 101 97.117188 L 100.117188 98 L 96.882812 98 L 96 97.117188 L 96 51.882812 Z M 102.882812 67.207031 L 106.117188 67.207031 L 107 68.089844 L 107 97.117188 L 106.117188 98 L 102.882812 98 L 102 97.117188 L 102 68.089844 Z M 108.882812 73.691406 L 112.117188 73.691406 L 113 74.574219 L 113 97.117188 L 112.117188 98 L 108.882812 98 L 108 97.117188 L 108 74.574219 Z M 114.882812 80.171875 L 118.117188 80.171875 L 119 81.054688 L 119 97.117188 L 118.117188 98 L 114.882812 98 L 114 97.117188 L 114 81.054688 Z M 120.882812 91.515625 L 124.117188 91.515625 L 125 92.402344 L 125 97.117188 L 124.117188 98 L 120.882812 98 L 120 97.117188 L 120 92.402344 Z M 126.882812 88.277344 L 130.117188 88.277344 L 131 89.160156 L 131 97.117188 L 130.117188 98 L 126.882812 98 L 126 97.117188 L 126 89.160156 Z M 132.882812 89.898438 L 136.117188 89.898438 L 137 90.78125 L 137 97.117188 L 136.117188 98 L 132.882812 98 L 132 97.117188 L 132 90.78125 Z M 138.859375 93.136719 L 142.140625 93.136719 L 143 93.996094 L 143 97.140625 L 142.140625 98 L 138.859375 98 L 138 97.140625 L 138 93.996094 Z M 144.882812 89.898438 L 148.117188 89.898438 L 149 90.78125 L 149 97.117188 L 148.117188 98 L 144.882812 98 L 144 97.117188 L 144 90.78125 Z M 150 98 L 155 98 Z M 156 98 L 161 98 Z M 162.285156 96.378906 L 166.714844 96.378906 L 167 96.664062 L 167 97.714844 L 166.714844 98 L 162.285156 98 L 162 97.714844 L 162 96.664062 Z M 168.882812 86.65625 L 172.117188 86.65625 L 173 87.539062 L 173 97.117188 L 172.117188 98 L 168.882812 98 L 168 97.117188 L 168 87.539062 Z M 174.882812 70.449219 L 178.117188 70.449219 L 179 71.332031 L 179 97.117188 L 178.117188 98 L 174.882812 98 L 174 97.117188 L 174 71.332031 Z M 180.882812 62.34375 L 184.117188 62.34375 L 185 63.230469 L 185 97.117188 L 184.117188 98 L 180.882812 98 L 180 97.117188 L 180 63.230469 Z M 186 98 L 191 98 Z M 192 98 L 197 98 Z M 198.285156 96.378906 L 202.714844 96.378906 L 203 96.664062 L 203 97.714844 L 202.714844 98 L 198.285156 98 L 198 97.714844 L 198 96.664062 Z M 204.859375 93.136719 L 208.140625 93.136719 L 209 93.996094 L 209 97.140625 L 208.140625 98 L 204.859375 98 L 204 97.140625 L 204 93.996094 Z M 204.859375 93.136719 "/>
<g clip-path="url(#clip3)" clip-rule="nonzero">
<rect x="0" y="0" width="210" height="210" style="fill:rgb(38.039216%,50.588235%,100%);fill-opacity:0.490196;stroke:none;"/>
</g>
<path style=" stroke:none;fill-rule:nonzero;fill:rgb(66.666667%,0%,100%);fill-opacity:0.490196;" d="M 0 143.570312 C 0 142.1875 1.121094 141.070312 2.5 141.070312 C 3.878906 141.070312 5 142.1875 5 143.570312 L 5 146.5 C 5 147.878906 3.878906 149 2.5 149 C 1.121094 149 0 147.878906 0 146.5 Z M 6 149 L 11 149 Z M 12 149 L 17 149 Z M 18 148.207031 C 18 147.769531 18.355469 147.414062 18.792969 147.414062 L 22.207031 147.414062 C 22.644531 147.414062 23 147.769531 23 148.207031 C 23 148.644531 22.644531 149 22.207031 149 L 18.792969 149 C 18.355469 149 18 148.644531 18 148.207031 Z M 24 140.398438 C 24 139.015625 25.121094 137.898438 26.5 137.898438 C 27.878906 137.898438 29 139.015625 29 140.398438 L 29 146.5 C 29 147.878906 27.878906 149 26.5 149 C 25.121094 149 24 147.878906 24 146.5 Z M 30 124.535156 C 30 123.152344 31.121094 122.035156 32.5 122.035156 C 33.878906 122.035156 35 123.152344 35 124.535156 L 35 146.5 C 35 147.878906 33.878906 149 32.5 149 C 31.121094 149 30 147.878906 30 146.5 Z M 36 116.601562 C 36 115.222656 37.121094 114.101562 38.5 114.101562 C 39.878906 114.101562 41 115.222656 41 116.601562 L 41 146.5 C 41 147.878906 39.878906 149 38.5 149 C 37.121094 149 36 147.878906 36 146.5 Z M 42 149 L 47 149 Z M 48 149 L 53 149 Z M 54 148.207031 C 54 147.769531 54.355469 147.414062 54.792969 147.414062 L 58.207031 147.414062 C 58.644531 147.414062 59 147.769531 59 148.207031 C 59 148.644531 58.644531 149 58.207031 149 L 54.792969 149 C 54.355469 149 54 148.644531 54 148.207031 Z M 60 146.621094 C 60 145.304688 61.066406 144.242188 62.378906 144.242188 L 62.621094 144.242188 C 63.933594 144.242188 65 145.304688 65 146.621094 C 65 147.933594 63.933594 149 62.621094 149 L 62.378906 149 C 61.066406 149 60 147.933594 60 146.621094 Z M 66 149 L 71 149 Z M 72 149 L 77 149 Z M 78 129.292969 C 78 127.914062 79.121094 126.792969 80.5 126.792969 C 81.878906 126.792969 83 127.914062 83 129.292969 L 83 146.5 C 83 147.878906 81.878906 149 80.5 149 C 79.121094 149 78 147.878906 78 146.5 Z M 84 124.535156 C 84 123.152344 85.121094 122.035156 86.5 122.035156 C 87.878906 122.035156 89 123.152344 89 124.535156 L 89 146.5 C 89 147.878906 87.878906 149 86.5 149 C 85.121094 149 84 147.878906 84 146.5 Z M 90 124.535156 C 90 123.152344 91.121094 122.035156 92.5 122.035156 C 93.878906 122.035156 95 123.152344 95 124.535156 L 95 146.5 C 95 147.878906 93.878906 149 92.5 149 C 91.121094 149 90 147.878906 90 146.5 Z M 96 105.5 C 96 104.121094 97.121094 103 98.5 103 C 99.878906 103 101 104.121094 101 105.5 L 101 146.5 C 101 147.878906 99.878906 149 98.5 149 C 97.121094 149 96 147.878906 96 146.5 Z M 102 121.363281 C 102 119.980469 103.121094 118.863281 104.5 118.863281 C 105.878906 118.863281 107 119.980469 107 121.363281 L 107 146.5 C 107 147.878906 105.878906 149 104.5 149 C 103.121094 149 102 147.878906 102 146.5 Z M 108 127.707031 C 108 126.328125 109.121094 125.207031 110.5 125.207031 C 111.878906 125.207031 113 126.328125 113 127.707031 L 113 146.5 C 113 147.878906 111.878906 149 110.5 149 C 109.121094 149 108 147.878906 108 146.5 Z M 114 134.050781 C 114 132.671875 115.121094 131.550781 116.5 131.550781 C 117.878906 131.550781 119 132.671875 119 134.050781 L 119 146.5 C 119 147.878906 117.878906 149 116.5 149 C 115.121094 149 114 147.878906 114 146.5 Z M 120 145.15625 C 120 143.773438 121.121094 142.65625 122.5 142.65625 C 123.878906 142.65625 125 143.773438 125 145.15625 L 125 146.5 C 125 147.878906 123.878906 149 122.5 149 C 121.121094 149 120 147.878906 120 146.5 Z M 126 141.984375 C 126 140.601562 127.121094 139.484375 128.5 139.484375 C 129.878906 139.484375 131 140.601562 131 141.984375 L 131 146.5 C 131 147.878906 129.878906 149 128.5 149 C 127.121094 149 126 147.878906 126 146.5 Z M 132 143.570312 C 132 142.1875 133.121094 141.070312 134.5 141.070312 C 135.878906 141.070312 137 142.1875 137 143.570312 L 137 146.5 C 137 147.878906 135.878906 149 134.5 149 C 133.121094 149 132 147.878906 132 146.5 Z M 138 146.621094 C 138 145.304688 139.066406 144.242188 140.378906 144.242188 L 140.621094 144.242188 C 141.933594 144.242188 143 145.304688 143 146.621094 C 143 147.933594 141.933594 149 140.621094 149 L 140.378906 149 C 139.066406 149 138 147.933594 138 146.621094 Z M 144 143.570312 C 144 142.1875 145.121094 141.070312 146.5 141.070312 C 147.878906 141.070312 149 142.1875 149 143.570312 L 149 146.5 C 149 147.878906 147.878906 149 146.5 149 C 145.121094 149 144 147.878906 144 146.5 Z M 150 149 L 155 149 Z M 156 149 L 161 149 Z M 162 148.207031 C 162 147.769531 162.355469 147.414062 162.792969 147.414062 L 166.207031 147.414062 C 166.644531 147.414062 167 147.769531 167 148.207031 C 167 148.644531 166.644531 149 166.207031 149 L 162.792969 149 C 162.355469 149 162 148.644531 162 148.207031 Z M 168 140.398438 C 168 139.015625 169.121094 137.898438 170.5 137.898438 C 171.878906 137.898438 173 139.015625 173 140.398438 L 173 146.5 C 173 147.878906 171.878906 149 170.5 149 C 169.121094 149 168 147.878906 168 146.5 Z M 174 124.535156 C 174 123.152344 175.121094 122.035156 176.5 122.035156 C 177.878906 122.035156 179 123.152344 179 124.535156 L 179 146.5 C 179 147.878906 177.878906 149 176.5 149 C 175.121094 149 174 147.878906 174 146.5 Z M 180 116.601562 C 180 115.222656 181.121094 114.101562 182.5 114.101562 C 183.878906 114.101562 185 115.222656 185 116.601562 L 185 146.5 C 185 147.878906 183.878906 149 182.5 149 C 181.121094 149 180 147.878906 180 146.5 Z M 186 149 L 191 149 Z M 192 149 L 197 149 Z M 198 148.207031 C 198 147.769531 198.355469 147.414062 198.792969 147.414062 L 202.207031 147.414062 C 202.644531 147.414062 203 147.769531 203 148.207031 C 203 148.644531 202.644531 149 202.207031 149 L 198.792969 149 C 198.355469 149 198 148.644531 198 148.207031 Z M 204 146.621094 C 204 145.304688 205.066406 144.242188 206.378906 144.242188 L 206.621094 144.242188 C 207.933594 144.242188 209 145.304688 209 146.621094 C 209 147.933594 207.933594 149 206.621094 149 L 206.378906 149 C 205.066406 149 204 147.933594 204 146.621094 Z M 204 146.621094 "/>
<g clip-path="url(#clip4)" clip-rule="nonzero">
<rect x="0" y="0" width="210" height="210" style="fill:rgb(38.039216%,50.588235%,100%);fill-opacity:0.490196;stroke:none;"/>
</g>
<g clip-path="url(#clip5)" clip-rule="nonzero">
<path style=" stroke:none;fill-rule:nonzero;fill:rgb(66.666667%,0%,100%);fill-opacity:0.490196;" d="M 2.5 192.070312 L 5 196.035156 L 3.75 196.035156 L 3.75 200 L 1.25 200 L 1.25 196.035156 L 0 196.035156 Z M 8.5 200 L 11 200 L 6 200 Z M 14.5 200 L 17 200 L 12 200 Z M 20.5 198.414062 L 23 199.207031 L 21.75 199.207031 L 21.75 200 L 19.25 200 L 19.25 199.207031 L 18 199.207031 Z M 26.5 188.898438 L 29 194.449219 L 27.75 194.449219 L 27.75 200 L 25.25 200 L 25.25 194.449219 L 24 194.449219 Z M 32.5 173.035156 L 35 186.519531 L 33.75 186.519531 L 33.75 200.003906 L 31.25 200.003906 L 31.25 186.519531 L 30 186.519531 Z M 38.5 165.101562 L 41 182.550781 L 39.75 182.550781 L 39.75 200 L 37.25 200 L 37.25 182.550781 L 36 182.550781 Z M 44.5 200 L 47 200 L 42 200 Z M 50.5 200 L 53 200 L 48 200 Z M 56.5 198.414062 L 59 199.207031 L 57.75 199.207031 L 57.75 200 L 55.25 200 L 55.25 199.207031 L 54 199.207031 Z M 62.5 195.242188 L 65 197.621094 L 63.75 197.621094 L 63.75 200 L 61.25 200 L 61.25 197.621094 L 60 197.621094 Z M 68.5 200 L 71 200 L 66 200 Z M 74.5 200 L 77 200 L 72 200 Z M 80.5 177.792969 L 83 188.894531 L 81.75 188.894531 L 81.75 199.996094 L 79.25 199.996094 L 79.25 188.894531 L 78 188.894531 Z M 86.5 173.035156 L 89 186.519531 L 87.75 186.519531 L 87.75 200.003906 L 85.25 200.003906 L 85.25 186.519531 L 84 186.519531 Z M 92.5 173.035156 L 95 186.519531 L 93.75 186.519531 L 93.75 200.003906 L 91.25 200.003906 L 91.25 186.519531 L 90 186.519531 Z M 98.5 154 L 101 177 L 99.75 177 L 99.75 200 L 97.25 200 L 97.25 177 L 96 177 Z M 104.5 169.863281 L 107 184.933594 L 105.75 184.933594 L 105.75 200.003906 L 103.25 200.003906 L 103.25 184.933594 L 102 184.933594 Z M 110.5 176.207031 L 113 188.105469 L 111.75 188.105469 L 111.75 200.003906 L 109.25 200.003906 L 109.25 188.105469 L 108 188.105469 Z M 116.5 182.550781 L 119 191.273438 L 117.75 191.273438 L 117.75 199.996094 L 115.25 199.996094 L 115.25 191.273438 L 114 191.273438 Z M 122.5 193.65625 L 125 196.828125 L 123.75 196.828125 L 123.75 200 L 121.25 200 L 121.25 196.828125 L 120 196.828125 Z M 128.5 190.484375 L 131 195.242188 L 129.75 195.242188 L 129.75 200 L 127.25 200 L 127.25 195.242188 L 126 195.242188 Z M 134.5 192.070312 L 137 196.035156 L 135.75 196.035156 L 135.75 200 L 133.25 200 L 133.25 196.035156 L 132 196.035156 Z M 140.5 195.242188 L 143 197.621094 L 141.75 197.621094 L 141.75 200 L 139.25 200 L 139.25 197.621094 L 138 197.621094 Z M 146.5 192.070312 L 149 196.035156 L 147.75 196.035156 L 147.75 200 L 145.25 200 L 145.25 196.035156 L 144 196.035156 Z M 152.5 200 L 155 200 L 150 200 Z M 158.5 200 L 161 200 L 156 200 Z M 164.5 198.414062 L 167 199.207031 L 165.75 199.207031 L 165.75 200 L 163.25 200 L 163.25 199.207031 L 162 199.207031 Z M 170.5 188.898438 L 173 194.449219 L 171.75 194.449219 L 171.75 200 L 169.25 200 L 169.25 194.449219 L 168 194.449219 Z M 176.5 173.035156 L 179 186.519531 L 177.75 186.519531 L 177.75 200.003906 L 175.25 200.003906 L 175.25 186.519531 L 174 186.519531 Z M 182.5 165.101562 L 185 182.550781 L 183.75 182.550781 L 183.75 200 L 181.25 200 L 181.25 182.550781 L 180 182.550781 Z M 188.5 200 L 191 200 L 186 200 Z M 194.5 200 L 197 200 L 192 200 Z M 200.5 198.414062 L 203 199.207031 L 201.75 199.207031 L 201.75 200 L 199.25 200 L 199.25 199.207031 L 198 199.207031 Z M 206.5 195.242188 L 209 197.621094 L 207.75 197.621094 L 207.75 200 L 205.25 200 L 205.25 197.621094 L 204 197.621094 Z M 206.5 195.242188 "/>
</g>
</g>
</svg>
