<?xml version="1.0" encoding="UTF-8"?>
<?xml-stylesheet href="../ldoc.css" type="text/css"?>
<svg xmlns="http://www.w3.org/2000/svg" xmlns:xlink="http://www.w3.org/1999/xlink" width="110pt" height="30pt" viewBox="0 0 110 30" version="1.1">
<defs>
<clipPath id="clip1">
  <path d="M 0 0 L 110 0 L 110 20 L 0 20 Z M 0 0 "/>
</clipPath>
<clipPath id="clip2">
  <path d="M 2 2 L 37 2 L 37 18 L 2 18 Z M 2 2 "/>
</clipPath>
<clipPath id="clip3">
  <path d="M 0 9 C 0 4.03125 4.03125 0 9 0 L 99 0 C 103.96875 0 108 4.03125 108 9 C 108 13.96875 103.96875 18 99 18 L 9 18 C 4.03125 18 0 13.96875 0 9 Z M 0 9 "/>
</clipPath>
</defs>
<g id="surface2">
<path style=" stroke:none;fill-rule:nonzero;fill:rgb(38.039216%,50.588235%,100%);fill-opacity:0.490196;" d="M 1 10 C 1 5.03125 5.03125 1 10 1 L 100 1 C 104.96875 1 109 5.03125 109 10 C 109 14.96875 104.96875 19 100 19 L 10 19 C 5.03125 19 1 14.96875 1 10 Z M 1 10 "/>
<g clip-path="url(#clip1)" clip-rule="nonzero">
<path style="fill:none;stroke-width:2;stroke-linecap:butt;stroke-linejoin:miter;stroke:rgb(38.039216%,50.588235%,100%);stroke-opacity:1;stroke-miterlimit:10;" d="M 0 9 C 0 4.03125 4.03125 0 9 0 L 99 0 C 103.96875 0 108 4.03125 108 9 C 108 13.96875 103.96875 18 99 18 L 9 18 C 4.03125 18 0 13.96875 0 9 Z M 0 9 " transform="matrix(1,0,0,1,1,1)"/>
</g>
<g clip-path="url(#clip2)" clip-rule="nonzero">
<g clip-path="url(#clip3)" clip-rule="nonzero">
<path style=" stroke:none;fill-rule:nonzero;fill:rgb(66.666667%,0%,100%);fill-opacity:0.490196;" d="M 2 2 L 36.980469 2 L 36.980469 18 L 2 18 Z M 2 2 "/>
</g>
</g>
</g>
</svg>
