<?xml version="1.0" encoding="UTF-8"?>
<?xml-stylesheet href="../ldoc.css" type="text/css"?>
<svg xmlns="http://www.w3.org/2000/svg" xmlns:xlink="http://www.w3.org/1999/xlink" width="288pt" height="76pt" viewBox="0 0 288 76" version="1.1">
<defs>
<clipPath id="clip1">
  <path d="M 96 0 L 148 0 L 148 76 L 96 76 Z M 96 0 "/>
</clipPath>
<clipPath id="clip2">
  <path d="M 192 0 L 259 0 L 259 76 L 192 76 Z M 192 0 "/>
</clipPath>
</defs>
<g id="surface2">
<path style="fill-rule:nonzero;fill:rgb(38.039216%,50.588235%,100%);fill-opacity:0.5;stroke-width:2;stroke-linecap:butt;stroke-linejoin:miter;stroke:rgb(38.039216%,50.588235%,100%);stroke-opacity:1;stroke-miterlimit:10;" d="M 70 35 C 70 54.328125 54.328125 70 35 70 C 15.671875 70 0 54.328125 0 35 C 0 15.671875 15.671875 0 35 0 C 54.328125 0 70 15.671875 70 35 Z M 70 35 " transform="matrix(1,0,0,1,3,3)"/>
<path style=" stroke:none;fill-rule:nonzero;fill:rgb(38.039216%,50.588235%,100%);fill-opacity:0.5;" d="M 119 38 C 119 43.523438 114.523438 48 109 48 C 103.476562 48 99 43.523438 99 38 C 99 32.476562 103.476562 28 109 28 C 114.523438 28 119 32.476562 119 38 Z M 119 38 "/>
<g clip-path="url(#clip1)" clip-rule="nonzero">
<path style="fill:none;stroke-width:2;stroke-linecap:butt;stroke-linejoin:miter;stroke:rgb(38.039216%,50.588235%,100%);stroke-opacity:1;stroke-miterlimit:10;" d="M 20 35 C 20 40.523438 15.523438 45 10 45 C 4.476562 45 0 40.523438 0 35 C 0 29.476562 4.476562 25 10 25 C 15.523438 25 20 29.476562 20 35 Z M 20 35 " transform="matrix(1,0,0,1,99,3)"/>
</g>
<path style=" stroke:none;fill-rule:nonzero;fill:rgb(38.039216%,50.588235%,100%);fill-opacity:0.5;" d="M 230 38 C 230 57.328125 222.164062 73 212.5 73 C 202.835938 73 195 57.328125 195 38 C 195 18.671875 202.835938 3 212.5 3 C 222.164062 3 230 18.671875 230 38 Z M 230 38 "/>
<g clip-path="url(#clip2)" clip-rule="nonzero">
<path style="fill:none;stroke-width:2;stroke-linecap:butt;stroke-linejoin:miter;stroke:rgb(38.039216%,50.588235%,100%);stroke-opacity:1;stroke-miterlimit:10;" d="M 35 35 C 35 54.328125 27.164062 70 17.5 70 C 7.835938 70 0 54.328125 0 35 C 0 15.671875 7.835938 0 17.5 0 C 27.164062 0 35 15.671875 35 35 Z M 35 35 " transform="matrix(1,0,0,1,195,3)"/>
</g>
</g>
</svg>
