<?xml version="1.0" encoding="UTF-8"?>
<?xml-stylesheet href="../ldoc.css" type="text/css"?>
<svg xmlns="http://www.w3.org/2000/svg" xmlns:xlink="http://www.w3.org/1999/xlink" width="110pt" height="110pt" viewBox="0 0 110 110" version="1.1">
<defs>
<clipPath id="clip1">
  <path d="M 0 0 L 110 0 L 110 100 L 0 100 Z M 0 0 "/>
</clipPath>
</defs>
<g id="surface2">
<g clip-path="url(#clip1)" clip-rule="nonzero">
<rect x="0" y="0" width="110" height="110" style="fill:rgb(38.039216%,50.588235%,100%);fill-opacity:0.490196;stroke:none;"/>
</g>
<path style=" stroke:none;fill-rule:nonzero;fill:rgb(100%,0%,0%);fill-opacity:1;" d="M 2 98 L 3 98 Z M 3 41.722656 L 4 41.722656 L 4 98 L 3 98 Z M 4 98 L 5 98 Z M 5 98 L 6 98 Z M 6 41.722656 L 7 41.722656 L 7 98 L 6 98 Z M 7 35.101562 L 8 35.101562 L 8 98 L 7 98 Z M 8 84.757812 L 9 84.757812 L 9 98 L 8 98 Z M 9 88.070312 L 10 88.070312 L 10 98 L 9 98 Z M 10 98 L 11 98 Z M 11 41.722656 L 12 41.722656 L 12 98 L 11 98 Z M 12 98 L 13 98 Z M 13 98 L 14 98 Z M 14 41.722656 L 15 41.722656 L 15 98 L 14 98 Z M 15 35.101562 L 16 35.101562 L 16 98 L 15 98 Z M 16 84.757812 L 17 84.757812 L 17 98 L 16 98 Z M 17 88.070312 L 18 88.070312 L 18 98 L 17 98 Z M 18 98 L 19 98 Z M 19 41.722656 L 20 41.722656 L 20 98 L 19 98 Z M 20 98 L 21 98 Z M 21 98 L 22 98 Z M 22 41.722656 L 23 41.722656 L 23 98 L 22 98 Z M 23 35.101562 L 24 35.101562 L 24 98 L 23 98 Z M 24 84.757812 L 25 84.757812 L 25 98 L 24 98 Z M 25 88.070312 L 26 88.070312 L 26 98 L 25 98 Z M 26 98 L 27 98 Z M 27 41.722656 L 28 41.722656 L 28 98 L 27 98 Z M 28 98 L 29 98 Z M 29 98 L 30 98 Z M 30 41.722656 L 31 41.722656 L 31 98 L 30 98 Z M 31 35.101562 L 32 35.101562 L 32 98 L 31 98 Z M 32 84.757812 L 33 84.757812 L 33 98 L 32 98 Z M 33 88.070312 L 34 88.070312 L 34 98 L 33 98 Z M 34 98 L 35 98 Z M 35 41.722656 L 36 41.722656 L 36 98 L 35 98 Z M 36 98 L 37 98 Z M 37 98 L 38 98 Z M 38 41.722656 L 39 41.722656 L 39 98 L 38 98 Z M 39 35.101562 L 40 35.101562 L 40 98 L 39 98 Z M 40 84.757812 L 41 84.757812 L 41 98 L 40 98 Z M 41 88.070312 L 42 88.070312 L 42 98 L 41 98 Z M 42 98 L 43 98 Z M 43 41.722656 L 44 41.722656 L 44 98 L 43 98 Z M 44 98 L 45 98 Z M 45 98 L 46 98 Z M 46 41.722656 L 47 41.722656 L 47 98 L 46 98 Z M 47 35.101562 L 48 35.101562 L 48 98 L 47 98 Z M 48 84.757812 L 49 84.757812 L 49 98 L 48 98 Z M 49 88.070312 L 50 88.070312 L 50 98 L 49 98 Z M 50 98 L 51 98 Z M 51 41.722656 L 52 41.722656 L 52 98 L 51 98 Z M 52 98 L 53 98 Z M 53 98 L 54 98 Z M 54 41.722656 L 55 41.722656 L 55 98 L 54 98 Z M 55 35.101562 L 56 35.101562 L 56 98 L 55 98 Z M 56 84.757812 L 57 84.757812 L 57 98 L 56 98 Z M 57 88.070312 L 58 88.070312 L 58 98 L 57 98 Z M 58 98 L 59 98 Z M 59 41.722656 L 60 41.722656 L 60 98 L 59 98 Z M 60 98 L 61 98 Z M 61 98 L 62 98 Z M 62 41.722656 L 63 41.722656 L 63 98 L 62 98 Z M 63 35.101562 L 64 35.101562 L 64 98 L 63 98 Z M 64 84.757812 L 65 84.757812 L 65 98 L 64 98 Z M 65 88.070312 L 66 88.070312 L 66 98 L 65 98 Z M 66 98 L 67 98 Z M 67 41.722656 L 68 41.722656 L 68 98 L 67 98 Z M 68 98 L 69 98 Z M 69 98 L 70 98 Z M 70 41.722656 L 71 41.722656 L 71 98 L 70 98 Z M 71 35.101562 L 72 35.101562 L 72 98 L 71 98 Z M 72 84.757812 L 73 84.757812 L 73 98 L 72 98 Z M 73 88.070312 L 74 88.070312 L 74 98 L 73 98 Z M 74 98 L 75 98 Z M 75 41.722656 L 76 41.722656 L 76 98 L 75 98 Z M 76 98 L 77 98 Z M 77 98 L 78 98 Z M 78 41.722656 L 79 41.722656 L 79 98 L 78 98 Z M 79 35.101562 L 80 35.101562 L 80 98 L 79 98 Z M 80 84.757812 L 81 84.757812 L 81 98 L 80 98 Z M 81 88.070312 L 82 88.070312 L 82 98 L 81 98 Z M 82 98 L 83 98 Z M 83 41.722656 L 84 41.722656 L 84 98 L 83 98 Z M 84 98 L 85 98 Z M 85 98 L 86 98 Z M 86 41.722656 L 87 41.722656 L 87 98 L 86 98 Z M 87 35.101562 L 88 35.101562 L 88 98 L 87 98 Z M 88 84.757812 L 89 84.757812 L 89 98 L 88 98 Z M 89 88.070312 L 90 88.070312 L 90 98 L 89 98 Z M 90 98 L 91 98 Z M 91 41.722656 L 92 41.722656 L 92 98 L 91 98 Z M 92 98 L 93 98 Z M 93 98 L 94 98 Z M 94 41.722656 L 95 41.722656 L 95 98 L 94 98 Z M 95 35.101562 L 96 35.101562 L 96 98 L 95 98 Z M 96 84.757812 L 97 84.757812 L 97 98 L 96 98 Z M 97 88.070312 L 98 88.070312 L 98 98 L 97 98 Z M 98 98 L 99 98 Z M 99 41.722656 L 100 41.722656 L 100 98 L 99 98 Z M 100 98 L 101 98 Z M 101 98 L 102 98 Z M 102 41.722656 L 103 41.722656 L 103 98 L 102 98 Z M 103 35.101562 L 104 35.101562 L 104 98 L 103 98 Z M 104 84.757812 L 105 84.757812 L 105 98 L 104 98 Z M 105 88.070312 L 106 88.070312 L 106 98 L 105 98 Z M 106 98 L 107 98 Z M 107 41.722656 L 108 41.722656 L 108 98 L 107 98 Z M 107 41.722656 "/>
<path style=" stroke:none;fill-rule:nonzero;fill:rgb(0%,100%,0%);fill-opacity:1;" d="M 2 98 L 3 98 Z M 3 18.550781 L 4 18.550781 L 4 41.722656 L 3 41.722656 Z M 4 98 L 5 98 Z M 5 88.070312 L 6 88.070312 L 6 98 L 5 98 Z M 6 2 L 7 2 L 7 41.722656 L 6 41.722656 Z M 7 2 L 8 2 L 8 35.101562 L 7 35.101562 Z M 8 48.34375 L 9 48.34375 L 9 84.757812 L 8 84.757812 Z M 9 71.515625 L 10 71.515625 L 10 88.066406 L 9 88.066406 Z M 10 98 L 11 98 Z M 11 18.550781 L 12 18.550781 L 12 41.722656 L 11 41.722656 Z M 12 98 L 13 98 Z M 13 88.070312 L 14 88.070312 L 14 98 L 13 98 Z M 14 2 L 15 2 L 15 41.722656 L 14 41.722656 Z M 15 2 L 16 2 L 16 35.101562 L 15 35.101562 Z M 16 48.34375 L 17 48.34375 L 17 84.757812 L 16 84.757812 Z M 17 71.515625 L 18 71.515625 L 18 88.066406 L 17 88.066406 Z M 18 98 L 19 98 Z M 19 18.550781 L 20 18.550781 L 20 41.722656 L 19 41.722656 Z M 20 98 L 21 98 Z M 21 88.070312 L 22 88.070312 L 22 98 L 21 98 Z M 22 2 L 23 2 L 23 41.722656 L 22 41.722656 Z M 23 2 L 24 2 L 24 35.101562 L 23 35.101562 Z M 24 48.34375 L 25 48.34375 L 25 84.757812 L 24 84.757812 Z M 25 71.515625 L 26 71.515625 L 26 88.066406 L 25 88.066406 Z M 26 98 L 27 98 Z M 27 18.550781 L 28 18.550781 L 28 41.722656 L 27 41.722656 Z M 28 98 L 29 98 Z M 29 88.070312 L 30 88.070312 L 30 98 L 29 98 Z M 30 2 L 31 2 L 31 41.722656 L 30 41.722656 Z M 31 2 L 32 2 L 32 35.101562 L 31 35.101562 Z M 32 48.34375 L 33 48.34375 L 33 84.757812 L 32 84.757812 Z M 33 71.515625 L 34 71.515625 L 34 88.066406 L 33 88.066406 Z M 34 98 L 35 98 Z M 35 18.550781 L 36 18.550781 L 36 41.722656 L 35 41.722656 Z M 36 98 L 37 98 Z M 37 88.070312 L 38 88.070312 L 38 98 L 37 98 Z M 38 2 L 39 2 L 39 41.722656 L 38 41.722656 Z M 39 2 L 40 2 L 40 35.101562 L 39 35.101562 Z M 40 48.34375 L 41 48.34375 L 41 84.757812 L 40 84.757812 Z M 41 71.515625 L 42 71.515625 L 42 88.066406 L 41 88.066406 Z M 42 98 L 43 98 Z M 43 18.550781 L 44 18.550781 L 44 41.722656 L 43 41.722656 Z M 44 98 L 45 98 Z M 45 88.070312 L 46 88.070312 L 46 98 L 45 98 Z M 46 2 L 47 2 L 47 41.722656 L 46 41.722656 Z M 47 2 L 48 2 L 48 35.101562 L 47 35.101562 Z M 48 48.34375 L 49 48.34375 L 49 84.757812 L 48 84.757812 Z M 49 71.515625 L 50 71.515625 L 50 88.066406 L 49 88.066406 Z M 50 98 L 51 98 Z M 51 18.550781 L 52 18.550781 L 52 41.722656 L 51 41.722656 Z M 52 98 L 53 98 Z M 53 88.070312 L 54 88.070312 L 54 98 L 53 98 Z M 54 2 L 55 2 L 55 41.722656 L 54 41.722656 Z M 55 2 L 56 2 L 56 35.101562 L 55 35.101562 Z M 56 48.34375 L 57 48.34375 L 57 84.757812 L 56 84.757812 Z M 57 71.515625 L 58 71.515625 L 58 88.066406 L 57 88.066406 Z M 58 98 L 59 98 Z M 59 18.550781 L 60 18.550781 L 60 41.722656 L 59 41.722656 Z M 60 98 L 61 98 Z M 61 88.070312 L 62 88.070312 L 62 98 L 61 98 Z M 62 2 L 63 2 L 63 41.722656 L 62 41.722656 Z M 63 2 L 64 2 L 64 35.101562 L 63 35.101562 Z M 64 48.34375 L 65 48.34375 L 65 84.757812 L 64 84.757812 Z M 65 71.515625 L 66 71.515625 L 66 88.066406 L 65 88.066406 Z M 66 98 L 67 98 Z M 67 18.550781 L 68 18.550781 L 68 41.722656 L 67 41.722656 Z M 68 98 L 69 98 Z M 69 88.070312 L 70 88.070312 L 70 98 L 69 98 Z M 70 2 L 71 2 L 71 41.722656 L 70 41.722656 Z M 71 2 L 72 2 L 72 35.101562 L 71 35.101562 Z M 72 48.34375 L 73 48.34375 L 73 84.757812 L 72 84.757812 Z M 73 71.515625 L 74 71.515625 L 74 88.066406 L 73 88.066406 Z M 74 98 L 75 98 Z M 75 18.550781 L 76 18.550781 L 76 41.722656 L 75 41.722656 Z M 76 98 L 77 98 Z M 77 88.070312 L 78 88.070312 L 78 98 L 77 98 Z M 78 2 L 79 2 L 79 41.722656 L 78 41.722656 Z M 79 2 L 80 2 L 80 35.101562 L 79 35.101562 Z M 80 48.34375 L 81 48.34375 L 81 84.757812 L 80 84.757812 Z M 81 71.515625 L 82 71.515625 L 82 88.066406 L 81 88.066406 Z M 82 98 L 83 98 Z M 83 18.550781 L 84 18.550781 L 84 41.722656 L 83 41.722656 Z M 84 98 L 85 98 Z M 85 88.070312 L 86 88.070312 L 86 98 L 85 98 Z M 86 2 L 87 2 L 87 41.722656 L 86 41.722656 Z M 87 2 L 88 2 L 88 35.101562 L 87 35.101562 Z M 88 48.34375 L 89 48.34375 L 89 84.757812 L 88 84.757812 Z M 89 71.515625 L 90 71.515625 L 90 88.066406 L 89 88.066406 Z M 90 98 L 91 98 Z M 91 18.550781 L 92 18.550781 L 92 41.722656 L 91 41.722656 Z M 92 98 L 93 98 Z M 93 88.070312 L 94 88.070312 L 94 98 L 93 98 Z M 94 2 L 95 2 L 95 41.722656 L 94 41.722656 Z M 95 2 L 96 2 L 96 35.101562 L 95 35.101562 Z M 96 48.34375 L 97 48.34375 L 97 84.757812 L 96 84.757812 Z M 97 71.515625 L 98 71.515625 L 98 88.066406 L 97 88.066406 Z M 98 98 L 99 98 Z M 99 18.550781 L 100 18.550781 L 100 41.722656 L 99 41.722656 Z M 100 98 L 101 98 Z M 101 88.070312 L 102 88.070312 L 102 98 L 101 98 Z M 102 2 L 103 2 L 103 41.722656 L 102 41.722656 Z M 103 2 L 104 2 L 104 35.101562 L 103 35.101562 Z M 104 48.34375 L 105 48.34375 L 105 84.757812 L 104 84.757812 Z M 105 71.515625 L 106 71.515625 L 106 88.066406 L 105 88.066406 Z M 106 98 L 107 98 Z M 107 18.550781 L 108 18.550781 L 108 41.722656 L 107 41.722656 Z M 107 18.550781 "/>
<path style=" stroke:none;fill-rule:nonzero;fill:rgb(0%,0%,100%);fill-opacity:1;" d="M 2 81.449219 L 3 81.449219 L 3 98 L 2 98 Z M 3 15.242188 L 4 15.242188 L 4 18.550781 L 3 18.550781 Z M 4 25.171875 L 5 25.171875 L 5 98 L 4 98 Z M 5 84.757812 L 6 84.757812 L 6 88.066406 L 5 88.066406 Z M 6 2 L 7 2 Z M 7 2 L 8 2 Z M 8 2 L 9 2 L 9 48.34375 L 8 48.34375 Z M 9 51.65625 L 10 51.65625 L 10 71.519531 L 9 71.519531 Z M 10 81.449219 L 11 81.449219 L 11 98 L 10 98 Z M 11 15.242188 L 12 15.242188 L 12 18.550781 L 11 18.550781 Z M 12 25.171875 L 13 25.171875 L 13 98 L 12 98 Z M 13 84.757812 L 14 84.757812 L 14 88.066406 L 13 88.066406 Z M 14 2 L 15 2 Z M 15 2 L 16 2 Z M 16 2 L 17 2 L 17 48.34375 L 16 48.34375 Z M 17 51.65625 L 18 51.65625 L 18 71.519531 L 17 71.519531 Z M 18 81.449219 L 19 81.449219 L 19 98 L 18 98 Z M 19 15.242188 L 20 15.242188 L 20 18.550781 L 19 18.550781 Z M 20 25.171875 L 21 25.171875 L 21 98 L 20 98 Z M 21 84.757812 L 22 84.757812 L 22 88.066406 L 21 88.066406 Z M 22 2 L 23 2 Z M 23 2 L 24 2 Z M 24 2 L 25 2 L 25 48.34375 L 24 48.34375 Z M 25 51.65625 L 26 51.65625 L 26 71.519531 L 25 71.519531 Z M 26 81.449219 L 27 81.449219 L 27 98 L 26 98 Z M 27 15.242188 L 28 15.242188 L 28 18.550781 L 27 18.550781 Z M 28 25.171875 L 29 25.171875 L 29 98 L 28 98 Z M 29 84.757812 L 30 84.757812 L 30 88.066406 L 29 88.066406 Z M 30 2 L 31 2 Z M 31 2 L 32 2 Z M 32 2 L 33 2 L 33 48.34375 L 32 48.34375 Z M 33 51.65625 L 34 51.65625 L 34 71.519531 L 33 71.519531 Z M 34 81.449219 L 35 81.449219 L 35 98 L 34 98 Z M 35 15.242188 L 36 15.242188 L 36 18.550781 L 35 18.550781 Z M 36 25.171875 L 37 25.171875 L 37 98 L 36 98 Z M 37 84.757812 L 38 84.757812 L 38 88.066406 L 37 88.066406 Z M 38 2 L 39 2 Z M 39 2 L 40 2 Z M 40 2 L 41 2 L 41 48.34375 L 40 48.34375 Z M 41 51.65625 L 42 51.65625 L 42 71.519531 L 41 71.519531 Z M 42 81.449219 L 43 81.449219 L 43 98 L 42 98 Z M 43 15.242188 L 44 15.242188 L 44 18.550781 L 43 18.550781 Z M 44 25.171875 L 45 25.171875 L 45 98 L 44 98 Z M 45 84.757812 L 46 84.757812 L 46 88.066406 L 45 88.066406 Z M 46 2 L 47 2 Z M 47 2 L 48 2 Z M 48 2 L 49 2 L 49 48.34375 L 48 48.34375 Z M 49 51.65625 L 50 51.65625 L 50 71.519531 L 49 71.519531 Z M 50 81.449219 L 51 81.449219 L 51 98 L 50 98 Z M 51 15.242188 L 52 15.242188 L 52 18.550781 L 51 18.550781 Z M 52 25.171875 L 53 25.171875 L 53 98 L 52 98 Z M 53 84.757812 L 54 84.757812 L 54 88.066406 L 53 88.066406 Z M 54 2 L 55 2 Z M 55 2 L 56 2 Z M 56 2 L 57 2 L 57 48.34375 L 56 48.34375 Z M 57 51.65625 L 58 51.65625 L 58 71.519531 L 57 71.519531 Z M 58 81.449219 L 59 81.449219 L 59 98 L 58 98 Z M 59 15.242188 L 60 15.242188 L 60 18.550781 L 59 18.550781 Z M 60 25.171875 L 61 25.171875 L 61 98 L 60 98 Z M 61 84.757812 L 62 84.757812 L 62 88.066406 L 61 88.066406 Z M 62 2 L 63 2 Z M 63 2 L 64 2 Z M 64 2 L 65 2 L 65 48.34375 L 64 48.34375 Z M 65 51.65625 L 66 51.65625 L 66 71.519531 L 65 71.519531 Z M 66 81.449219 L 67 81.449219 L 67 98 L 66 98 Z M 67 15.242188 L 68 15.242188 L 68 18.550781 L 67 18.550781 Z M 68 25.171875 L 69 25.171875 L 69 98 L 68 98 Z M 69 84.757812 L 70 84.757812 L 70 88.066406 L 69 88.066406 Z M 70 2 L 71 2 Z M 71 2 L 72 2 Z M 72 2 L 73 2 L 73 48.34375 L 72 48.34375 Z M 73 51.65625 L 74 51.65625 L 74 71.519531 L 73 71.519531 Z M 74 81.449219 L 75 81.449219 L 75 98 L 74 98 Z M 75 15.242188 L 76 15.242188 L 76 18.550781 L 75 18.550781 Z M 76 25.171875 L 77 25.171875 L 77 98 L 76 98 Z M 77 84.757812 L 78 84.757812 L 78 88.066406 L 77 88.066406 Z M 78 2 L 79 2 Z M 79 2 L 80 2 Z M 80 2 L 81 2 L 81 48.34375 L 80 48.34375 Z M 81 51.65625 L 82 51.65625 L 82 71.519531 L 81 71.519531 Z M 82 81.449219 L 83 81.449219 L 83 98 L 82 98 Z M 83 15.242188 L 84 15.242188 L 84 18.550781 L 83 18.550781 Z M 84 25.171875 L 85 25.171875 L 85 98 L 84 98 Z M 85 84.757812 L 86 84.757812 L 86 88.066406 L 85 88.066406 Z M 86 2 L 87 2 Z M 87 2 L 88 2 Z M 88 2 L 89 2 L 89 48.34375 L 88 48.34375 Z M 89 51.65625 L 90 51.65625 L 90 71.519531 L 89 71.519531 Z M 90 81.449219 L 91 81.449219 L 91 98 L 90 98 Z M 91 15.242188 L 92 15.242188 L 92 18.550781 L 91 18.550781 Z M 92 25.171875 L 93 25.171875 L 93 98 L 92 98 Z M 93 84.757812 L 94 84.757812 L 94 88.066406 L 93 88.066406 Z M 94 2 L 95 2 Z M 95 2 L 96 2 Z M 96 2 L 97 2 L 97 48.34375 L 96 48.34375 Z M 97 51.65625 L 98 51.65625 L 98 71.519531 L 97 71.519531 Z M 98 81.449219 L 99 81.449219 L 99 98 L 98 98 Z M 99 15.242188 L 100 15.242188 L 100 18.550781 L 99 18.550781 Z M 100 25.171875 L 101 25.171875 L 101 98 L 100 98 Z M 101 84.757812 L 102 84.757812 L 102 88.066406 L 101 88.066406 Z M 102 2 L 103 2 Z M 103 2 L 104 2 Z M 104 2 L 105 2 L 105 48.34375 L 104 48.34375 Z M 105 51.65625 L 106 51.65625 L 106 71.519531 L 105 71.519531 Z M 106 81.449219 L 107 81.449219 L 107 98 L 106 98 Z M 107 15.242188 L 108 15.242188 L 108 18.550781 L 107 18.550781 Z M 107 15.242188 "/>
<path style="fill:none;stroke-width:2;stroke-linecap:butt;stroke-linejoin:miter;stroke:rgb(100%,100%,100%);stroke-opacity:1;stroke-miterlimit:10;" d="M 1 1 L 109 1 L 109 99 L 1 99 Z M 1 1 "/>
</g>
</svg>
