<?xml version="1.0" encoding="UTF-8"?>
<?xml-stylesheet href="../ldoc.css" type="text/css"?>
<svg xmlns="http://www.w3.org/2000/svg" xmlns:xlink="http://www.w3.org/1999/xlink" width="110pt" height="110pt" viewBox="0 0 110 110" version="1.1">
<defs>
<clipPath id="clip1">
  <path d="M 0 0 L 110 0 L 110 21 L 0 21 Z M 0 0 "/>
</clipPath>
<clipPath id="clip2">
  <path d="M 0 26 L 110 26 L 110 48 L 0 48 Z M 0 26 "/>
</clipPath>
<clipPath id="clip3">
  <path d="M 0 53 L 110 53 L 110 74 L 0 74 Z M 0 53 "/>
</clipPath>
<clipPath id="clip4">
  <path d="M 0 79 L 110 79 L 110 100 L 0 100 Z M 0 79 "/>
</clipPath>
</defs>
<g id="surface2">
<g clip-path="url(#clip1)" clip-rule="nonzero">
<rect x="0" y="0" width="110" height="110" style="fill:rgb(38.039216%,50.588235%,100%);fill-opacity:0.490196;stroke:none;"/>
</g>
<path style=" stroke:none;fill-rule:nonzero;fill:rgb(66.666667%,0%,100%);fill-opacity:0.490196;" d="M 2 16.070312 L 3 16.070312 L 3 19 L 2 19 Z M 3 19 L 4 19 Z M 4 19 L 5 19 Z M 5 18.414062 L 6 18.414062 L 6 19 L 5 19 Z M 6 14.898438 L 7 14.898438 L 7 19 L 6 19 Z M 7 9.035156 L 8 9.035156 L 8 19 L 7 19 Z M 8 6.101562 L 9 6.101562 L 9 19 L 8 19 Z M 9 19 L 10 19 Z M 10 19 L 11 19 Z M 11 18.414062 L 12 18.414062 L 12 19 L 11 19 Z M 12 17.242188 L 13 17.242188 L 13 19 L 12 19 Z M 13 19 L 14 19 Z M 14 19 L 15 19 Z M 15 10.792969 L 16 10.792969 L 16 19 L 15 19 Z M 16 9.035156 L 17 9.035156 L 17 19 L 16 19 Z M 17 9.035156 L 18 9.035156 L 18 19 L 17 19 Z M 18 2 L 19 2 L 19 19 L 18 19 Z M 19 7.863281 L 20 7.863281 L 20 19 L 19 19 Z M 20 10.207031 L 21 10.207031 L 21 19 L 20 19 Z M 21 12.550781 L 22 12.550781 L 22 19 L 21 19 Z M 22 16.65625 L 23 16.65625 L 23 19 L 22 19 Z M 23 15.484375 L 24 15.484375 L 24 19 L 23 19 Z M 24 16.070312 L 25 16.070312 L 25 19 L 24 19 Z M 25 17.242188 L 26 17.242188 L 26 19 L 25 19 Z M 26 16.070312 L 27 16.070312 L 27 19 L 26 19 Z M 27 19 L 28 19 Z M 28 19 L 29 19 Z M 29 18.414062 L 30 18.414062 L 30 19 L 29 19 Z M 30 14.898438 L 31 14.898438 L 31 19 L 30 19 Z M 31 9.035156 L 32 9.035156 L 32 19 L 31 19 Z M 32 6.101562 L 33 6.101562 L 33 19 L 32 19 Z M 33 19 L 34 19 Z M 34 19 L 35 19 Z M 35 18.414062 L 36 18.414062 L 36 19 L 35 19 Z M 36 17.242188 L 37 17.242188 L 37 19 L 36 19 Z M 37 19 L 38 19 Z M 38 19 L 39 19 Z M 39 10.792969 L 40 10.792969 L 40 19 L 39 19 Z M 40 9.035156 L 41 9.035156 L 41 19 L 40 19 Z M 41 9.035156 L 42 9.035156 L 42 19 L 41 19 Z M 42 2 L 43 2 L 43 19 L 42 19 Z M 43 7.863281 L 44 7.863281 L 44 19 L 43 19 Z M 44 10.207031 L 45 10.207031 L 45 19 L 44 19 Z M 45 12.550781 L 46 12.550781 L 46 19 L 45 19 Z M 46 16.65625 L 47 16.65625 L 47 19 L 46 19 Z M 47 15.484375 L 48 15.484375 L 48 19 L 47 19 Z M 48 16.070312 L 49 16.070312 L 49 19 L 48 19 Z M 49 17.242188 L 50 17.242188 L 50 19 L 49 19 Z M 50 16.070312 L 51 16.070312 L 51 19 L 50 19 Z M 51 19 L 52 19 Z M 52 19 L 53 19 Z M 53 18.414062 L 54 18.414062 L 54 19 L 53 19 Z M 54 14.898438 L 55 14.898438 L 55 19 L 54 19 Z M 55 9.035156 L 56 9.035156 L 56 19 L 55 19 Z M 56 6.101562 L 57 6.101562 L 57 19 L 56 19 Z M 57 19 L 58 19 Z M 58 19 L 59 19 Z M 59 18.414062 L 60 18.414062 L 60 19 L 59 19 Z M 60 17.242188 L 61 17.242188 L 61 19 L 60 19 Z M 61 19 L 62 19 Z M 62 19 L 63 19 Z M 63 10.792969 L 64 10.792969 L 64 19 L 63 19 Z M 64 9.035156 L 65 9.035156 L 65 19 L 64 19 Z M 65 9.035156 L 66 9.035156 L 66 19 L 65 19 Z M 66 2 L 67 2 L 67 19 L 66 19 Z M 67 7.863281 L 68 7.863281 L 68 19 L 67 19 Z M 68 10.207031 L 69 10.207031 L 69 19 L 68 19 Z M 69 12.550781 L 70 12.550781 L 70 19 L 69 19 Z M 70 16.65625 L 71 16.65625 L 71 19 L 70 19 Z M 71 15.484375 L 72 15.484375 L 72 19 L 71 19 Z M 72 16.070312 L 73 16.070312 L 73 19 L 72 19 Z M 73 17.242188 L 74 17.242188 L 74 19 L 73 19 Z M 74 16.070312 L 75 16.070312 L 75 19 L 74 19 Z M 75 19 L 76 19 Z M 76 19 L 77 19 Z M 77 18.414062 L 78 18.414062 L 78 19 L 77 19 Z M 78 14.898438 L 79 14.898438 L 79 19 L 78 19 Z M 79 9.035156 L 80 9.035156 L 80 19 L 79 19 Z M 80 6.101562 L 81 6.101562 L 81 19 L 80 19 Z M 81 19 L 82 19 Z M 82 19 L 83 19 Z M 83 18.414062 L 84 18.414062 L 84 19 L 83 19 Z M 84 17.242188 L 85 17.242188 L 85 19 L 84 19 Z M 85 19 L 86 19 Z M 86 19 L 87 19 Z M 87 10.792969 L 88 10.792969 L 88 19 L 87 19 Z M 88 9.035156 L 89 9.035156 L 89 19 L 88 19 Z M 89 9.035156 L 90 9.035156 L 90 19 L 89 19 Z M 90 2 L 91 2 L 91 19 L 90 19 Z M 91 7.863281 L 92 7.863281 L 92 19 L 91 19 Z M 92 10.207031 L 93 10.207031 L 93 19 L 92 19 Z M 93 12.550781 L 94 12.550781 L 94 19 L 93 19 Z M 94 16.65625 L 95 16.65625 L 95 19 L 94 19 Z M 95 15.484375 L 96 15.484375 L 96 19 L 95 19 Z M 96 16.070312 L 97 16.070312 L 97 19 L 96 19 Z M 97 17.242188 L 98 17.242188 L 98 19 L 97 19 Z M 98 16.070312 L 99 16.070312 L 99 19 L 98 19 Z M 99 19 L 100 19 Z M 100 19 L 101 19 Z M 101 18.414062 L 102 18.414062 L 102 19 L 101 19 Z M 102 14.898438 L 103 14.898438 L 103 19 L 102 19 Z M 103 9.035156 L 104 9.035156 L 104 19 L 103 19 Z M 104 6.101562 L 105 6.101562 L 105 19 L 104 19 Z M 105 19 L 106 19 Z M 106 19 L 107 19 Z M 107 18.414062 L 108 18.414062 L 108 19 L 107 19 Z M 107 18.414062 "/>
<path style="fill:none;stroke-width:2;stroke-linecap:butt;stroke-linejoin:miter;stroke:rgb(100%,100%,100%);stroke-opacity:1;stroke-miterlimit:10;" d="M 1 1 L 109 1 L 109 20 L 1 20 Z M 1 1 "/>
<g clip-path="url(#clip2)" clip-rule="nonzero">
<rect x="0" y="0" width="110" height="110" style="fill:rgb(38.039216%,50.588235%,100%);fill-opacity:0.490196;stroke:none;"/>
</g>
<path style=" stroke:none;fill-rule:nonzero;fill:rgb(66.666667%,0%,100%);fill-opacity:0.490196;" d="M 2 42.898438 L 3 42.898438 L 3 46 L 2 46 Z M 5 46 L 6 46 Z M 8 46 L 9 46 Z M 11 45.378906 L 12 45.378906 L 12 46 L 11 46 Z M 14 41.65625 L 15 41.65625 L 15 46 L 14 46 Z M 17 35.449219 L 18 35.449219 L 18 46 L 17 46 Z M 20 32.34375 L 21 32.34375 L 21 46 L 20 46 Z M 23 46 L 24 46 Z M 26 46 L 27 46 Z M 29 45.378906 L 30 45.378906 L 30 46 L 29 46 Z M 32 44.136719 L 33 44.136719 L 33 46 L 32 46 Z M 35 46 L 36 46 Z M 38 46 L 39 46 Z M 41 37.308594 L 42 37.308594 L 42 46 L 41 46 Z M 44 35.449219 L 45 35.449219 L 45 46 L 44 46 Z M 47 35.449219 L 48 35.449219 L 48 46 L 47 46 Z M 50 28 L 51 28 L 51 46 L 50 46 Z M 53 34.207031 L 54 34.207031 L 54 46 L 53 46 Z M 56 36.691406 L 57 36.691406 L 57 46 L 56 46 Z M 59 39.171875 L 60 39.171875 L 60 46 L 59 46 Z M 62 43.515625 L 63 43.515625 L 63 46 L 62 46 Z M 65 42.277344 L 66 42.277344 L 66 46 L 65 46 Z M 68 42.898438 L 69 42.898438 L 69 46 L 68 46 Z M 71 44.136719 L 72 44.136719 L 72 46 L 71 46 Z M 74 42.898438 L 75 42.898438 L 75 46 L 74 46 Z M 77 46 L 78 46 Z M 80 46 L 81 46 Z M 83 45.378906 L 84 45.378906 L 84 46 L 83 46 Z M 86 41.65625 L 87 41.65625 L 87 46 L 86 46 Z M 89 35.449219 L 90 35.449219 L 90 46 L 89 46 Z M 92 32.34375 L 93 32.34375 L 93 46 L 92 46 Z M 95 46 L 96 46 Z M 98 46 L 99 46 Z M 101 45.378906 L 102 45.378906 L 102 46 L 101 46 Z M 104 44.136719 L 105 44.136719 L 105 46 L 104 46 Z M 107 46 L 108 46 Z M 107 46 "/>
<path style="fill:none;stroke-width:2;stroke-linecap:butt;stroke-linejoin:miter;stroke:rgb(100%,100%,100%);stroke-opacity:1;stroke-miterlimit:10;" d="M 1 1 L 109 1 L 109 21 L 1 21 Z M 1 1 " transform="matrix(1,0,0,1,0,26)"/>
<g clip-path="url(#clip3)" clip-rule="nonzero">
<rect x="0" y="0" width="110" height="110" style="fill:rgb(38.039216%,50.588235%,100%);fill-opacity:0.490196;stroke:none;"/>
</g>
<path style=" stroke:none;fill-rule:nonzero;fill:rgb(66.666667%,0%,100%);fill-opacity:0.490196;" d="M 2 69.070312 L 3 69.070312 L 3 72 L 2 72 Z M 7 72 L 8 72 Z M 12 72 L 13 72 Z M 17 71.414062 L 18 71.414062 L 18 72 L 17 72 Z M 22 67.898438 L 23 67.898438 L 23 72 L 22 72 Z M 27 62.035156 L 28 62.035156 L 28 72 L 27 72 Z M 32 59.101562 L 33 59.101562 L 33 72 L 32 72 Z M 37 72 L 38 72 Z M 42 72 L 43 72 Z M 47 71.414062 L 48 71.414062 L 48 72 L 47 72 Z M 52 70.242188 L 53 70.242188 L 53 72 L 52 72 Z M 57 72 L 58 72 Z M 62 72 L 63 72 Z M 67 63.792969 L 68 63.792969 L 68 72 L 67 72 Z M 72 62.035156 L 73 62.035156 L 73 72 L 72 72 Z M 77 62.035156 L 78 62.035156 L 78 72 L 77 72 Z M 82 55 L 83 55 L 83 72 L 82 72 Z M 87 60.863281 L 88 60.863281 L 88 72 L 87 72 Z M 92 63.207031 L 93 63.207031 L 93 72 L 92 72 Z M 97 65.550781 L 98 65.550781 L 98 72 L 97 72 Z M 102 69.65625 L 103 69.65625 L 103 72 L 102 72 Z M 107 68.484375 L 108 68.484375 L 108 72 L 107 72 Z M 107 68.484375 "/>
<path style="fill:none;stroke-width:2;stroke-linecap:butt;stroke-linejoin:miter;stroke:rgb(100%,100%,100%);stroke-opacity:1;stroke-miterlimit:10;" d="M 1 1 L 109 1 L 109 20 L 1 20 Z M 1 1 " transform="matrix(1,0,0,1,0,53)"/>
<g clip-path="url(#clip4)" clip-rule="nonzero">
<rect x="0" y="0" width="110" height="110" style="fill:rgb(38.039216%,50.588235%,100%);fill-opacity:0.490196;stroke:none;"/>
</g>
<path style=" stroke:none;fill-rule:nonzero;fill:rgb(66.666667%,0%,100%);fill-opacity:0.490196;" d="M 2 95.070312 L 3 95.070312 L 3 98 L 2 98 Z M 13 98 L 14 98 Z M 24 98 L 25 98 Z M 35 97.414062 L 36 97.414062 L 36 98 L 35 98 Z M 46 93.898438 L 47 93.898438 L 47 98 L 46 98 Z M 57 88.035156 L 58 88.035156 L 58 98 L 57 98 Z M 68 85.101562 L 69 85.101562 L 69 98 L 68 98 Z M 79 98 L 80 98 Z M 90 98 L 91 98 Z M 101 97.414062 L 102 97.414062 L 102 98 L 101 98 Z M 101 97.414062 "/>
<path style="fill:none;stroke-width:2;stroke-linecap:butt;stroke-linejoin:miter;stroke:rgb(100%,100%,100%);stroke-opacity:1;stroke-miterlimit:10;" d="M 1 1 L 109 1 L 109 20 L 1 20 Z M 1 1 " transform="matrix(1,0,0,1,0,79)"/>
</g>
</svg>
