<?xml version="1.0" encoding="UTF-8"?>
<?xml-stylesheet href="../ldoc.css" type="text/css"?>
<svg xmlns="http://www.w3.org/2000/svg" xmlns:xlink="http://www.w3.org/1999/xlink" width="288pt" height="76pt" viewBox="0 0 288 76" version="1.1">
<defs>
<clipPath id="clip1">
  <path d="M 96 0 L 172 0 L 172 76 L 96 76 Z M 96 0 "/>
</clipPath>
<clipPath id="clip2">
  <path d="M 192 0 L 268 0 L 268 76 L 192 76 Z M 192 0 "/>
</clipPath>
</defs>
<g id="surface2">
<path style="fill-rule:nonzero;fill:rgb(38.039216%,50.588235%,100%);fill-opacity:0.5;stroke-width:2;stroke-linecap:butt;stroke-linejoin:miter;stroke:rgb(38.039216%,50.588235%,100%);stroke-opacity:1;stroke-miterlimit:10;" d="M 70 35 L 70 30.816406 L 69.992188 29.085938 L 69.984375 27.753906 L 69.972656 26.636719 L 69.957031 25.648438 L 69.9375 24.757812 L 69.914062 23.941406 L 69.886719 23.179688 L 69.855469 22.46875 L 69.820312 21.792969 L 69.785156 21.152344 L 69.742188 20.542969 L 69.699219 19.960938 L 69.648438 19.398438 L 69.597656 18.859375 L 69.542969 18.339844 L 69.484375 17.835938 L 69.417969 17.347656 L 69.351562 16.878906 L 69.285156 16.417969 L 69.210938 15.972656 L 69.132812 15.539062 L 69.050781 15.117188 L 68.964844 14.707031 L 68.878906 14.304688 L 68.785156 13.914062 L 68.691406 13.53125 L 68.589844 13.160156 L 68.488281 12.792969 L 68.378906 12.4375 L 68.269531 12.089844 L 68.15625 11.746094 L 68.035156 11.414062 L 67.914062 11.085938 L 67.789062 10.765625 L 67.65625 10.453125 L 67.523438 10.144531 L 67.386719 9.84375 L 67.246094 9.550781 L 67.097656 9.261719 L 66.949219 8.976562 L 66.796875 8.699219 L 66.640625 8.429688 L 66.476562 8.160156 L 66.3125 7.902344 L 66.144531 7.644531 L 65.96875 7.394531 L 65.792969 7.148438 L 65.609375 6.90625 L 65.421875 6.671875 L 65.234375 6.441406 L 65.039062 6.214844 L 64.839844 5.992188 L 64.636719 5.777344 L 64.425781 5.5625 L 64.214844 5.355469 L 63.996094 5.152344 L 63.773438 4.953125 L 63.546875 4.757812 L 63.316406 4.570312 L 63.082031 4.382812 L 62.839844 4.199219 L 62.59375 4.023438 L 62.34375 3.847656 L 62.085938 3.679688 L 61.828125 3.515625 L 61.289062 3.195312 L 61.011719 3.042969 L 60.726562 2.894531 L 60.4375 2.75 L 60.144531 2.605469 L 59.839844 2.46875 L 59.535156 2.335938 L 59.21875 2.207031 L 58.898438 2.082031 L 58.574219 1.957031 L 58.238281 1.839844 L 57.894531 1.726562 L 57.546875 1.617188 L 57.191406 1.507812 L 56.824219 1.40625 L 56.453125 1.304688 L 56.070312 1.210938 L 55.675781 1.117188 L 55.273438 1.03125 L 54.863281 0.945312 L 54.441406 0.863281 L 54.007812 0.789062 L 53.5625 0.714844 L 53.101562 0.644531 L 52.628906 0.578125 L 52.140625 0.515625 L 51.636719 0.457031 L 51.117188 0.398438 L 50.574219 0.347656 L 50.015625 0.300781 L 49.429688 0.253906 L 48.816406 0.214844 L 48.175781 0.175781 L 47.5 0.144531 L 46.785156 0.113281 L 46.023438 0.0859375 L 45.203125 0.0625 L 44.308594 0.0429688 L 43.316406 0.0273438 L 42.191406 0.015625 L 40.851562 0.0078125 L 39.089844 0 L 30.726562 0 L 29.019531 0.0078125 L 27.703125 0.015625 L 26.589844 0.0273438 L 25.609375 0.046875 L 24.722656 0.0664062 L 23.90625 0.0898438 L 23.148438 0.117188 L 22.4375 0.144531 L 21.765625 0.179688 L 21.125 0.21875 L 20.519531 0.257812 L 19.933594 0.304688 L 19.375 0.351562 L 18.835938 0.40625 L 18.316406 0.460938 L 17.816406 0.519531 L 17.328125 0.582031 L 16.855469 0.648438 L 16.398438 0.71875 L 15.953125 0.792969 L 15.519531 0.871094 L 15.097656 0.953125 L 14.6875 1.039062 L 14.289062 1.125 L 13.898438 1.21875 L 13.515625 1.316406 L 13.140625 1.414062 L 12.777344 1.519531 L 12.421875 1.625 L 12.074219 1.734375 L 11.730469 1.851562 L 11.398438 1.96875 L 11.070312 2.089844 L 10.75 2.21875 L 10.4375 2.347656 L 10.132812 2.480469 L 9.832031 2.621094 L 9.535156 2.761719 L 9.246094 2.90625 L 8.964844 3.054688 L 8.6875 3.210938 L 8.417969 3.367188 L 8.148438 3.527344 L 7.632812 3.863281 L 7.382812 4.039062 L 7.136719 4.214844 L 6.898438 4.398438 L 6.660156 4.585938 L 6.429688 4.777344 L 6.203125 4.972656 L 5.984375 5.171875 L 5.765625 5.375 L 5.554688 5.582031 L 5.347656 5.796875 L 5.144531 6.011719 L 4.945312 6.234375 L 4.75 6.460938 L 4.558594 6.691406 L 4.375 6.929688 L 4.191406 7.171875 L 4.015625 7.417969 L 3.84375 7.667969 L 3.671875 7.921875 L 3.507812 8.183594 L 3.347656 8.453125 L 3.191406 8.722656 L 3.035156 9.003906 L 2.886719 9.285156 L 2.742188 9.574219 L 2.601562 9.871094 L 2.464844 10.171875 L 2.332031 10.480469 L 2.199219 10.792969 L 2.074219 11.113281 L 1.953125 11.441406 L 1.835938 11.777344 L 1.722656 12.117188 L 1.609375 12.46875 L 1.503906 12.824219 L 1.402344 13.191406 L 1.300781 13.566406 L 1.207031 13.949219 L 1.113281 14.339844 L 1.027344 14.742188 L 0.941406 15.15625 L 0.859375 15.578125 L 0.785156 16.011719 L 0.710938 16.457031 L 0.640625 16.917969 L 0.574219 17.390625 L 0.511719 17.878906 L 0.453125 18.386719 L 0.398438 18.90625 L 0.347656 19.449219 L 0.296875 20.011719 L 0.253906 20.597656 L 0.210938 21.210938 L 0.175781 21.851562 L 0.140625 22.527344 L 0.113281 23.246094 L 0.0859375 24.011719 L 0.0625 24.835938 L 0.0429688 25.734375 L 0.0273438 26.730469 L 0.015625 27.863281 L 0.0078125 29.214844 L 0 31.007812 L 0 36.246094 L 0.00390625 39.363281 L 0.0078125 41.046875 L 0.015625 42.351562 L 0.03125 43.457031 L 0.046875 44.433594 L 0.0664062 45.316406 L 0.0898438 46.128906 L 0.117188 46.882812 L 0.148438 47.59375 L 0.183594 48.265625 L 0.21875 48.902344 L 0.261719 49.507812 L 0.304688 50.089844 L 0.355469 50.648438 L 0.40625 51.1875 L 0.464844 51.707031 L 0.523438 52.207031 L 0.585938 52.691406 L 0.652344 53.164062 L 0.722656 53.621094 L 0.796875 54.066406 L 0.875 54.496094 L 0.957031 54.917969 L 1.042969 55.328125 L 1.128906 55.730469 L 1.222656 56.121094 L 1.320312 56.5 L 1.417969 56.875 L 1.523438 57.238281 L 1.628906 57.59375 L 1.742188 57.941406 L 1.855469 58.28125 L 1.976562 58.617188 L 2.097656 58.941406 L 2.222656 59.261719 L 2.355469 59.574219 L 2.488281 59.882812 L 2.625 60.183594 L 2.769531 60.476562 L 2.914062 60.765625 L 3.0625 61.046875 L 3.21875 61.324219 L 3.375 61.59375 L 3.535156 61.863281 L 3.871094 62.378906 L 4.046875 62.628906 L 4.222656 62.871094 L 4.40625 63.113281 L 4.59375 63.347656 L 4.785156 63.578125 L 4.980469 63.804688 L 5.179688 64.027344 L 5.382812 64.242188 L 5.59375 64.453125 L 5.804688 64.660156 L 6.023438 64.863281 L 6.246094 65.0625 L 6.472656 65.257812 L 6.703125 65.449219 L 7.179688 65.816406 L 7.425781 65.992188 L 7.933594 66.335938 L 8.195312 66.5 L 8.464844 66.660156 L 8.738281 66.816406 L 9.015625 66.96875 L 9.296875 67.117188 L 9.589844 67.265625 L 9.882812 67.40625 L 10.183594 67.542969 L 10.492188 67.675781 L 10.808594 67.804688 L 11.128906 67.929688 L 11.457031 68.050781 L 11.792969 68.167969 L 12.132812 68.285156 L 12.484375 68.394531 L 12.84375 68.5 L 13.207031 68.605469 L 13.582031 68.703125 L 13.964844 68.796875 L 14.359375 68.890625 L 14.761719 68.976562 L 15.171875 69.0625 L 15.597656 69.140625 L 16.03125 69.21875 L 16.480469 69.292969 L 16.9375 69.363281 L 17.414062 69.429688 L 17.902344 69.492188 L 18.40625 69.550781 L 18.929688 69.605469 L 19.472656 69.65625 L 20.035156 69.703125 L 20.625 69.75 L 21.238281 69.789062 L 21.882812 69.824219 L 22.558594 69.859375 L 23.277344 69.890625 L 24.046875 69.914062 L 24.871094 69.9375 L 25.773438 69.957031 L 26.777344 69.972656 L 27.917969 69.984375 L 29.285156 69.992188 L 31.105469 70 L 36.523438 70 L 39.453125 69.996094 L 41.109375 69.992188 L 42.402344 69.984375 L 43.5 69.96875 L 44.472656 69.953125 L 45.351562 69.933594 L 46.164062 69.910156 L 46.917969 69.882812 L 47.625 69.851562 L 48.292969 69.816406 L 48.929688 69.777344 L 49.535156 69.738281 L 50.117188 69.691406 L 50.671875 69.644531 L 51.210938 69.589844 L 51.726562 69.535156 L 52.230469 69.472656 L 52.714844 69.410156 L 53.183594 69.34375 L 53.640625 69.273438 L 54.085938 69.199219 L 54.515625 69.121094 L 54.9375 69.039062 L 55.347656 68.953125 L 55.746094 68.867188 L 56.136719 68.773438 L 56.519531 68.675781 L 56.890625 68.578125 L 57.253906 68.472656 L 57.609375 68.367188 L 57.957031 68.253906 L 58.296875 68.140625 L 58.628906 68.019531 L 58.957031 67.898438 L 59.277344 67.769531 L 59.589844 67.640625 L 59.894531 67.507812 L 60.195312 67.367188 L 60.488281 67.226562 L 60.777344 67.078125 L 61.058594 66.929688 L 61.335938 66.777344 L 61.609375 66.617188 L 61.875 66.457031 L 62.132812 66.289062 L 62.386719 66.121094 L 62.640625 65.945312 L 63.125 65.585938 L 63.359375 65.398438 L 63.589844 65.207031 L 63.816406 65.011719 L 64.035156 64.8125 L 64.253906 64.609375 L 64.464844 64.398438 L 64.671875 64.1875 L 64.875 63.96875 L 65.074219 63.746094 L 65.265625 63.519531 L 65.457031 63.285156 L 65.640625 63.050781 L 65.824219 62.808594 L 66 62.5625 L 66.34375 62.054688 L 66.507812 61.792969 L 66.667969 61.523438 L 66.824219 61.25 L 66.976562 60.972656 L 67.125 60.6875 L 67.269531 60.398438 L 67.410156 60.101562 L 67.546875 59.800781 L 67.679688 59.492188 L 67.808594 59.179688 L 67.9375 58.855469 L 68.058594 58.527344 L 68.175781 58.191406 L 68.289062 57.851562 L 68.398438 57.5 L 68.503906 57.140625 L 68.609375 56.777344 L 68.707031 56.402344 L 68.800781 56.015625 L 68.894531 55.625 L 68.980469 55.222656 L 69.066406 54.808594 L 69.144531 54.382812 L 69.222656 53.949219 L 69.296875 53.5 L 69.367188 53.039062 L 69.429688 52.566406 L 69.492188 52.074219 L 69.550781 51.570312 L 69.605469 51.046875 L 69.660156 50.503906 L 69.707031 49.9375 L 69.75 49.351562 L 69.789062 48.734375 L 69.828125 48.089844 L 69.859375 47.410156 L 69.890625 46.6875 L 69.917969 45.917969 L 69.9375 45.089844 L 69.957031 44.183594 L 69.972656 43.175781 L 69.984375 42.027344 L 69.992188 40.648438 L 70 38.796875 Z M 70 35 " transform="matrix(1,0,0,1,3,3)"/>
<path style=" stroke:none;fill-rule:nonzero;fill:rgb(38.039216%,50.588235%,100%);fill-opacity:0.5;" d="M 169 38 L 169 15.558594 L 168.996094 14.390625 L 168.992188 13.527344 L 168.988281 12.835938 L 168.984375 12.257812 L 168.976562 11.757812 L 168.972656 11.320312 L 168.964844 10.925781 L 168.957031 10.570312 L 168.945312 10.242188 L 168.933594 9.941406 L 168.925781 9.664062 L 168.910156 9.402344 L 168.898438 9.15625 L 168.886719 8.929688 L 168.871094 8.710938 L 168.855469 8.503906 L 168.835938 8.308594 L 168.820312 8.125 L 168.800781 7.945312 L 168.78125 7.777344 L 168.761719 7.613281 L 168.738281 7.457031 L 168.714844 7.308594 L 168.691406 7.164062 L 168.667969 7.027344 L 168.640625 6.890625 L 168.617188 6.761719 L 168.585938 6.636719 L 168.558594 6.519531 L 168.527344 6.402344 L 168.5 6.289062 L 168.464844 6.179688 L 168.433594 6.074219 L 168.398438 5.96875 L 168.328125 5.773438 L 168.289062 5.679688 L 168.210938 5.5 L 168.171875 5.414062 L 168.128906 5.328125 L 168.085938 5.246094 L 167.992188 5.089844 L 167.898438 4.941406 L 167.796875 4.800781 L 167.6875 4.667969 L 167.632812 4.605469 L 167.574219 4.542969 L 167.453125 4.421875 L 167.390625 4.367188 L 167.328125 4.308594 L 167.261719 4.253906 L 167.195312 4.203125 L 167.054688 4.101562 L 166.980469 4.050781 L 166.90625 4.003906 L 166.828125 3.957031 L 166.75 3.914062 L 166.667969 3.871094 L 166.496094 3.785156 L 166.316406 3.707031 L 166.222656 3.671875 L 166.125 3.632812 L 166.023438 3.597656 L 165.921875 3.566406 L 165.816406 3.53125 L 165.707031 3.5 L 165.59375 3.46875 L 165.476562 3.441406 L 165.355469 3.410156 L 165.230469 3.382812 L 165.101562 3.355469 L 164.96875 3.332031 L 164.828125 3.304688 L 164.683594 3.28125 L 164.535156 3.261719 L 164.378906 3.238281 L 164.214844 3.21875 L 164.046875 3.199219 L 163.867188 3.179688 L 163.679688 3.160156 L 163.484375 3.144531 L 163.28125 3.128906 L 163.0625 3.113281 L 162.832031 3.101562 L 162.585938 3.085938 L 162.324219 3.074219 L 162.046875 3.0625 L 161.742188 3.054688 L 161.417969 3.042969 L 161.058594 3.035156 L 160.664062 3.027344 L 160.21875 3.023438 L 159.71875 3.015625 L 159.132812 3.011719 L 158.4375 3.007812 L 157.5625 3.003906 L 156.378906 3 L 111.496094 3 L 110.347656 3.003906 L 109.496094 3.007812 L 108.808594 3.011719 L 108.234375 3.015625 L 107.738281 3.023438 L 107.300781 3.027344 L 106.910156 3.035156 L 106.554688 3.046875 L 106.230469 3.054688 L 105.929688 3.066406 L 105.652344 3.078125 L 105.390625 3.089844 L 105.148438 3.101562 L 104.917969 3.117188 L 104.703125 3.128906 L 104.496094 3.148438 L 104.300781 3.164062 L 104.117188 3.179688 L 103.9375 3.199219 L 103.769531 3.21875 L 103.609375 3.242188 L 103.453125 3.261719 L 103.300781 3.285156 L 103.019531 3.332031 L 102.886719 3.359375 L 102.757812 3.386719 L 102.632812 3.414062 L 102.511719 3.441406 L 102.394531 3.472656 L 102.175781 3.535156 L 102.070312 3.566406 L 101.964844 3.601562 L 101.867188 3.636719 L 101.769531 3.675781 L 101.675781 3.710938 L 101.496094 3.789062 L 101.324219 3.875 L 101.246094 3.917969 L 101.164062 3.960938 L 101.089844 4.007812 L 101.011719 4.054688 L 100.941406 4.105469 L 100.867188 4.15625 L 100.800781 4.207031 L 100.730469 4.261719 L 100.667969 4.316406 L 100.601562 4.371094 L 100.539062 4.429688 L 100.421875 4.546875 L 100.363281 4.609375 L 100.199219 4.808594 L 100.097656 4.949219 L 100.003906 5.097656 L 99.910156 5.253906 L 99.867188 5.335938 L 99.824219 5.421875 L 99.785156 5.507812 L 99.707031 5.6875 L 99.667969 5.78125 L 99.632812 5.878906 L 99.5625 6.082031 L 99.53125 6.1875 L 99.5 6.296875 L 99.46875 6.410156 L 99.4375 6.527344 L 99.410156 6.648438 L 99.382812 6.773438 L 99.355469 6.902344 L 99.328125 7.039062 L 99.304688 7.175781 L 99.28125 7.320312 L 99.257812 7.472656 L 99.238281 7.628906 L 99.21875 7.792969 L 99.199219 7.960938 L 99.179688 8.140625 L 99.160156 8.328125 L 99.144531 8.523438 L 99.128906 8.730469 L 99.113281 8.949219 L 99.101562 9.179688 L 99.085938 9.425781 L 99.074219 9.6875 L 99.0625 9.96875 L 99.054688 10.269531 L 99.042969 10.597656 L 99.035156 10.957031 L 99.027344 11.355469 L 99.019531 11.800781 L 99.015625 12.304688 L 99.011719 12.894531 L 99.007812 13.597656 L 99.003906 14.480469 L 99 15.683594 L 99 60.5625 L 99.003906 61.695312 L 99.007812 62.539062 L 99.011719 63.21875 L 99.015625 63.789062 L 99.023438 64.28125 L 99.027344 64.71875 L 99.035156 65.109375 L 99.046875 65.460938 L 99.054688 65.785156 L 99.066406 66.082031 L 99.078125 66.359375 L 99.089844 66.621094 L 99.101562 66.863281 L 99.117188 67.089844 L 99.132812 67.308594 L 99.148438 67.511719 L 99.164062 67.707031 L 99.183594 67.890625 L 99.199219 68.070312 L 99.222656 68.238281 L 99.242188 68.398438 L 99.261719 68.554688 L 99.285156 68.703125 L 99.308594 68.847656 L 99.335938 68.984375 L 99.359375 69.121094 L 99.386719 69.25 L 99.414062 69.371094 L 99.445312 69.492188 L 99.472656 69.609375 L 99.503906 69.722656 L 99.535156 69.832031 L 99.570312 69.9375 L 99.605469 70.039062 L 99.675781 70.234375 L 99.714844 70.328125 L 99.792969 70.507812 L 99.832031 70.59375 L 99.875 70.679688 L 99.917969 70.757812 L 99.964844 70.839844 L 100.011719 70.914062 L 100.058594 70.992188 L 100.109375 71.0625 L 100.15625 71.132812 L 100.210938 71.203125 L 100.261719 71.269531 L 100.316406 71.335938 L 100.375 71.398438 L 100.429688 71.460938 L 100.550781 71.582031 L 100.613281 71.640625 L 100.679688 71.695312 L 100.742188 71.75 L 100.953125 71.902344 L 101.027344 71.953125 L 101.101562 72 L 101.179688 72.046875 L 101.257812 72.089844 L 101.339844 72.132812 L 101.425781 72.175781 L 101.511719 72.214844 L 101.601562 72.257812 L 101.691406 72.296875 L 101.785156 72.332031 L 101.882812 72.367188 L 102.085938 72.4375 L 102.191406 72.46875 L 102.304688 72.503906 L 102.417969 72.53125 L 102.535156 72.5625 L 102.65625 72.589844 L 102.78125 72.617188 L 102.910156 72.644531 L 103.042969 72.671875 L 103.183594 72.695312 L 103.328125 72.71875 L 103.480469 72.742188 L 103.636719 72.761719 L 103.800781 72.785156 L 103.96875 72.804688 L 104.148438 72.820312 L 104.335938 72.839844 L 104.53125 72.855469 L 104.738281 72.871094 L 104.957031 72.886719 L 105.191406 72.902344 L 105.4375 72.914062 L 105.699219 72.925781 L 105.980469 72.9375 L 106.285156 72.945312 L 106.613281 72.957031 L 106.976562 72.964844 L 107.375 72.972656 L 107.820312 72.980469 L 108.332031 72.984375 L 108.921875 72.988281 L 109.632812 72.992188 L 110.523438 72.996094 L 111.75 73 L 154.902344 73 L 156.621094 72.996094 L 157.734375 72.996094 L 158.570312 72.992188 L 159.246094 72.988281 L 159.8125 72.984375 L 160.300781 72.976562 L 160.734375 72.96875 L 161.125 72.960938 L 161.476562 72.953125 L 161.800781 72.945312 L 162.097656 72.933594 L 162.375 72.921875 L 162.632812 72.910156 L 162.875 72.898438 L 163.101562 72.882812 L 163.316406 72.867188 L 163.519531 72.851562 L 163.714844 72.835938 L 163.898438 72.816406 L 164.078125 72.796875 L 164.246094 72.777344 L 164.40625 72.757812 L 164.5625 72.734375 L 164.710938 72.714844 L 164.855469 72.6875 L 164.992188 72.664062 L 165.125 72.636719 L 165.253906 72.613281 L 165.378906 72.582031 L 165.496094 72.554688 L 165.613281 72.523438 L 165.726562 72.492188 L 165.835938 72.460938 L 165.941406 72.429688 L 166.042969 72.394531 L 166.238281 72.324219 L 166.332031 72.285156 L 166.511719 72.207031 L 166.597656 72.164062 L 166.84375 72.035156 L 166.917969 71.988281 L 166.992188 71.9375 L 167.066406 71.890625 L 167.207031 71.789062 L 167.339844 71.679688 L 167.402344 71.625 L 167.464844 71.566406 L 167.585938 71.445312 L 167.695312 71.320312 L 167.75 71.253906 L 167.804688 71.183594 L 167.855469 71.117188 L 167.90625 71.042969 L 168 70.894531 L 168.09375 70.738281 L 168.136719 70.65625 L 168.175781 70.570312 L 168.21875 70.484375 L 168.296875 70.304688 L 168.335938 70.210938 L 168.371094 70.113281 L 168.40625 70.011719 L 168.4375 69.910156 L 168.472656 69.800781 L 168.503906 69.691406 L 168.535156 69.578125 L 168.5625 69.460938 L 168.59375 69.339844 L 168.621094 69.214844 L 168.648438 69.085938 L 168.671875 68.949219 L 168.695312 68.808594 L 168.71875 68.664062 L 168.742188 68.515625 L 168.765625 68.355469 L 168.785156 68.195312 L 168.804688 68.023438 L 168.824219 67.84375 L 168.839844 67.65625 L 168.855469 67.457031 L 168.871094 67.25 L 168.886719 67.03125 L 168.902344 66.800781 L 168.914062 66.554688 L 168.925781 66.289062 L 168.9375 66.007812 L 168.949219 65.703125 L 168.957031 65.371094 L 168.964844 65.007812 L 168.972656 64.605469 L 168.980469 64.15625 L 168.984375 63.644531 L 168.988281 63.050781 L 168.992188 62.332031 L 168.996094 61.429688 L 169 60.183594 Z M 169 38 "/>
<g clip-path="url(#clip1)" clip-rule="nonzero">
<path style="fill:none;stroke-width:2;stroke-linecap:butt;stroke-linejoin:miter;stroke:rgb(38.039216%,50.588235%,100%);stroke-opacity:1;stroke-miterlimit:10;" d="M 70 35 L 70 12.558594 L 69.996094 11.390625 L 69.992188 10.527344 L 69.988281 9.835938 L 69.984375 9.257812 L 69.976562 8.757812 L 69.972656 8.320312 L 69.964844 7.925781 L 69.957031 7.570312 L 69.945312 7.242188 L 69.933594 6.941406 L 69.925781 6.664062 L 69.910156 6.402344 L 69.898438 6.15625 L 69.886719 5.929688 L 69.871094 5.710938 L 69.855469 5.503906 L 69.835938 5.308594 L 69.820312 5.125 L 69.800781 4.945312 L 69.78125 4.777344 L 69.761719 4.613281 L 69.738281 4.457031 L 69.714844 4.308594 L 69.691406 4.164062 L 69.667969 4.027344 L 69.640625 3.890625 L 69.617188 3.761719 L 69.585938 3.636719 L 69.558594 3.519531 L 69.527344 3.402344 L 69.5 3.289062 L 69.464844 3.179688 L 69.433594 3.074219 L 69.398438 2.96875 L 69.328125 2.773438 L 69.289062 2.679688 L 69.210938 2.5 L 69.171875 2.414062 L 69.128906 2.328125 L 69.085938 2.246094 L 68.992188 2.089844 L 68.898438 1.941406 L 68.796875 1.800781 L 68.6875 1.667969 L 68.632812 1.605469 L 68.574219 1.542969 L 68.453125 1.421875 L 68.390625 1.367188 L 68.328125 1.308594 L 68.261719 1.253906 L 68.195312 1.203125 L 68.054688 1.101562 L 67.980469 1.050781 L 67.90625 1.003906 L 67.828125 0.957031 L 67.75 0.914062 L 67.667969 0.871094 L 67.496094 0.785156 L 67.316406 0.707031 L 67.222656 0.671875 L 67.125 0.632812 L 67.023438 0.597656 L 66.921875 0.566406 L 66.816406 0.53125 L 66.707031 0.5 L 66.59375 0.46875 L 66.476562 0.441406 L 66.355469 0.410156 L 66.230469 0.382812 L 66.101562 0.355469 L 65.96875 0.332031 L 65.828125 0.304688 L 65.683594 0.28125 L 65.535156 0.261719 L 65.378906 0.238281 L 65.214844 0.21875 L 65.046875 0.199219 L 64.867188 0.179688 L 64.679688 0.160156 L 64.484375 0.144531 L 64.28125 0.128906 L 64.0625 0.113281 L 63.832031 0.101562 L 63.585938 0.0859375 L 63.324219 0.0742188 L 63.046875 0.0625 L 62.742188 0.0546875 L 62.417969 0.0429688 L 62.058594 0.0351562 L 61.664062 0.0273438 L 61.21875 0.0234375 L 60.71875 0.015625 L 60.132812 0.0117188 L 59.4375 0.0078125 L 58.5625 0.00390625 L 57.378906 0 L 12.496094 0 L 11.347656 0.00390625 L 10.496094 0.0078125 L 9.808594 0.0117188 L 9.234375 0.015625 L 8.738281 0.0234375 L 8.300781 0.0273438 L 7.910156 0.0351562 L 7.554688 0.046875 L 7.230469 0.0546875 L 6.929688 0.0664062 L 6.652344 0.078125 L 6.390625 0.0898438 L 6.148438 0.101562 L 5.917969 0.117188 L 5.703125 0.128906 L 5.496094 0.148438 L 5.300781 0.164062 L 5.117188 0.179688 L 4.9375 0.199219 L 4.769531 0.21875 L 4.609375 0.242188 L 4.453125 0.261719 L 4.300781 0.285156 L 4.019531 0.332031 L 3.886719 0.359375 L 3.757812 0.386719 L 3.632812 0.414062 L 3.511719 0.441406 L 3.394531 0.472656 L 3.175781 0.535156 L 3.070312 0.566406 L 2.964844 0.601562 L 2.867188 0.636719 L 2.769531 0.675781 L 2.675781 0.710938 L 2.496094 0.789062 L 2.324219 0.875 L 2.246094 0.917969 L 2.164062 0.960938 L 2.089844 1.007812 L 2.011719 1.054688 L 1.941406 1.105469 L 1.867188 1.15625 L 1.800781 1.207031 L 1.730469 1.261719 L 1.667969 1.316406 L 1.601562 1.371094 L 1.539062 1.429688 L 1.421875 1.546875 L 1.363281 1.609375 L 1.199219 1.808594 L 1.097656 1.949219 L 1.003906 2.097656 L 0.910156 2.253906 L 0.867188 2.335938 L 0.824219 2.421875 L 0.785156 2.507812 L 0.707031 2.6875 L 0.667969 2.78125 L 0.632812 2.878906 L 0.5625 3.082031 L 0.53125 3.1875 L 0.5 3.296875 L 0.46875 3.410156 L 0.4375 3.527344 L 0.410156 3.648438 L 0.382812 3.773438 L 0.355469 3.902344 L 0.328125 4.039062 L 0.304688 4.175781 L 0.28125 4.320312 L 0.257812 4.472656 L 0.238281 4.628906 L 0.21875 4.792969 L 0.199219 4.960938 L 0.179688 5.140625 L 0.160156 5.328125 L 0.144531 5.523438 L 0.128906 5.730469 L 0.113281 5.949219 L 0.101562 6.179688 L 0.0859375 6.425781 L 0.0742188 6.6875 L 0.0625 6.96875 L 0.0546875 7.269531 L 0.0429688 7.597656 L 0.0351562 7.957031 L 0.0273438 8.355469 L 0.0195312 8.800781 L 0.015625 9.304688 L 0.0117188 9.894531 L 0.0078125 10.597656 L 0.00390625 11.480469 L 0 12.683594 L 0 57.5625 L 0.00390625 58.695312 L 0.0078125 59.539062 L 0.0117188 60.21875 L 0.015625 60.789062 L 0.0234375 61.28125 L 0.0273438 61.71875 L 0.0351562 62.109375 L 0.046875 62.460938 L 0.0546875 62.785156 L 0.0664062 63.082031 L 0.078125 63.359375 L 0.0898438 63.621094 L 0.101562 63.863281 L 0.117188 64.089844 L 0.132812 64.308594 L 0.148438 64.511719 L 0.164062 64.707031 L 0.183594 64.890625 L 0.199219 65.070312 L 0.222656 65.238281 L 0.242188 65.398438 L 0.261719 65.554688 L 0.285156 65.703125 L 0.308594 65.847656 L 0.335938 65.984375 L 0.359375 66.121094 L 0.386719 66.25 L 0.414062 66.371094 L 0.445312 66.492188 L 0.472656 66.609375 L 0.503906 66.722656 L 0.535156 66.832031 L 0.570312 66.9375 L 0.605469 67.039062 L 0.675781 67.234375 L 0.714844 67.328125 L 0.792969 67.507812 L 0.832031 67.59375 L 0.875 67.679688 L 0.917969 67.757812 L 0.964844 67.839844 L 1.011719 67.914062 L 1.058594 67.992188 L 1.109375 68.0625 L 1.15625 68.132812 L 1.210938 68.203125 L 1.261719 68.269531 L 1.316406 68.335938 L 1.375 68.398438 L 1.429688 68.460938 L 1.550781 68.582031 L 1.613281 68.640625 L 1.679688 68.695312 L 1.742188 68.75 L 1.953125 68.902344 L 2.027344 68.953125 L 2.101562 69 L 2.179688 69.046875 L 2.257812 69.089844 L 2.339844 69.132812 L 2.425781 69.175781 L 2.511719 69.214844 L 2.601562 69.257812 L 2.691406 69.296875 L 2.785156 69.332031 L 2.882812 69.367188 L 3.085938 69.4375 L 3.191406 69.46875 L 3.304688 69.503906 L 3.417969 69.53125 L 3.535156 69.5625 L 3.65625 69.589844 L 3.78125 69.617188 L 3.910156 69.644531 L 4.042969 69.671875 L 4.183594 69.695312 L 4.328125 69.71875 L 4.480469 69.742188 L 4.636719 69.761719 L 4.800781 69.785156 L 4.96875 69.804688 L 5.148438 69.820312 L 5.335938 69.839844 L 5.53125 69.855469 L 5.738281 69.871094 L 5.957031 69.886719 L 6.191406 69.902344 L 6.4375 69.914062 L 6.699219 69.925781 L 6.980469 69.9375 L 7.285156 69.945312 L 7.613281 69.957031 L 7.976562 69.964844 L 8.375 69.972656 L 8.820312 69.980469 L 9.332031 69.984375 L 9.921875 69.988281 L 10.632812 69.992188 L 11.523438 69.996094 L 12.75 70 L 55.902344 70 L 57.621094 69.996094 L 58.734375 69.996094 L 59.570312 69.992188 L 60.246094 69.988281 L 60.8125 69.984375 L 61.300781 69.976562 L 61.734375 69.96875 L 62.125 69.960938 L 62.476562 69.953125 L 62.800781 69.945312 L 63.097656 69.933594 L 63.375 69.921875 L 63.632812 69.910156 L 63.875 69.898438 L 64.101562 69.882812 L 64.316406 69.867188 L 64.519531 69.851562 L 64.714844 69.835938 L 64.898438 69.816406 L 65.078125 69.796875 L 65.246094 69.777344 L 65.40625 69.757812 L 65.5625 69.734375 L 65.710938 69.714844 L 65.855469 69.6875 L 65.992188 69.664062 L 66.125 69.636719 L 66.253906 69.613281 L 66.378906 69.582031 L 66.496094 69.554688 L 66.613281 69.523438 L 66.726562 69.492188 L 66.835938 69.460938 L 66.941406 69.429688 L 67.042969 69.394531 L 67.238281 69.324219 L 67.332031 69.285156 L 67.511719 69.207031 L 67.597656 69.164062 L 67.84375 69.035156 L 67.917969 68.988281 L 67.992188 68.9375 L 68.066406 68.890625 L 68.207031 68.789062 L 68.339844 68.679688 L 68.402344 68.625 L 68.464844 68.566406 L 68.585938 68.445312 L 68.695312 68.320312 L 68.75 68.253906 L 68.804688 68.183594 L 68.855469 68.117188 L 68.90625 68.042969 L 69 67.894531 L 69.09375 67.738281 L 69.136719 67.65625 L 69.175781 67.570312 L 69.21875 67.484375 L 69.296875 67.304688 L 69.335938 67.210938 L 69.371094 67.113281 L 69.40625 67.011719 L 69.4375 66.910156 L 69.472656 66.800781 L 69.503906 66.691406 L 69.535156 66.578125 L 69.5625 66.460938 L 69.59375 66.339844 L 69.621094 66.214844 L 69.648438 66.085938 L 69.671875 65.949219 L 69.695312 65.808594 L 69.71875 65.664062 L 69.742188 65.515625 L 69.765625 65.355469 L 69.785156 65.195312 L 69.804688 65.023438 L 69.824219 64.84375 L 69.839844 64.65625 L 69.855469 64.457031 L 69.871094 64.25 L 69.886719 64.03125 L 69.902344 63.800781 L 69.914062 63.554688 L 69.925781 63.289062 L 69.9375 63.007812 L 69.949219 62.703125 L 69.957031 62.371094 L 69.964844 62.007812 L 69.972656 61.605469 L 69.980469 61.15625 L 69.984375 60.644531 L 69.988281 60.050781 L 69.992188 59.332031 L 69.996094 58.429688 L 70 57.183594 Z M 70 35 " transform="matrix(1,0,0,1,99,3)"/>
</g>
<path style=" stroke:none;fill-rule:nonzero;fill:rgb(38.039216%,50.588235%,100%);fill-opacity:0.5;" d="M 265 38 L 264.996094 35.9375 L 264.992188 34.730469 L 264.980469 33.714844 L 264.960938 32.808594 L 264.941406 31.976562 L 264.914062 31.203125 L 264.882812 30.46875 L 264.847656 29.769531 L 264.808594 29.101562 L 264.761719 28.457031 L 264.710938 27.835938 L 264.65625 27.234375 L 264.597656 26.652344 L 264.535156 26.082031 L 264.464844 25.53125 L 264.390625 24.992188 L 264.3125 24.464844 L 264.230469 23.949219 L 264.140625 23.449219 L 264.046875 22.953125 L 263.949219 22.472656 L 263.847656 22 L 263.742188 21.535156 L 263.628906 21.078125 L 263.511719 20.628906 L 263.390625 20.191406 L 263.265625 19.761719 L 263.132812 19.335938 L 262.996094 18.917969 L 262.855469 18.507812 L 262.710938 18.105469 L 262.5625 17.710938 L 262.40625 17.320312 L 262.246094 16.9375 L 262.082031 16.558594 L 261.914062 16.191406 L 261.738281 15.824219 L 261.558594 15.464844 L 261.375 15.113281 L 261.1875 14.765625 L 260.992188 14.425781 L 260.796875 14.089844 L 260.59375 13.757812 L 260.382812 13.433594 L 260.171875 13.117188 L 259.953125 12.800781 L 259.730469 12.492188 L 259.503906 12.191406 L 259.273438 11.894531 L 259.035156 11.601562 L 258.792969 11.3125 L 258.546875 11.03125 L 258.292969 10.753906 L 258.035156 10.480469 L 257.773438 10.214844 L 257.507812 9.953125 L 257.234375 9.695312 L 256.957031 9.445312 L 256.675781 9.195312 L 256.386719 8.953125 L 256.09375 8.71875 L 255.796875 8.484375 L 255.492188 8.257812 L 255.183594 8.035156 L 254.871094 7.820312 L 254.550781 7.605469 L 254.226562 7.398438 L 253.894531 7.195312 L 253.558594 6.996094 L 253.21875 6.804688 L 252.871094 6.617188 L 252.519531 6.433594 L 252.160156 6.253906 L 251.792969 6.078125 L 251.421875 5.910156 L 251.046875 5.746094 L 250.664062 5.585938 L 250.273438 5.433594 L 249.875 5.28125 L 249.472656 5.136719 L 249.0625 4.996094 L 248.644531 4.859375 L 248.222656 4.730469 L 247.789062 4.605469 L 247.351562 4.484375 L 246.902344 4.367188 L 246.445312 4.253906 L 245.980469 4.148438 L 245.507812 4.046875 L 245.023438 3.949219 L 244.53125 3.855469 L 244.027344 3.769531 L 243.511719 3.683594 L 242.984375 3.605469 L 242.445312 3.53125 L 241.890625 3.464844 L 241.324219 3.398438 L 240.738281 3.339844 L 240.136719 3.285156 L 239.515625 3.234375 L 238.871094 3.191406 L 238.199219 3.152344 L 237.5 3.113281 L 236.765625 3.085938 L 235.988281 3.058594 L 235.152344 3.039062 L 234.242188 3.019531 L 233.222656 3.007812 L 232 3.003906 L 229.742188 3 L 227.878906 3.003906 L 226.679688 3.011719 L 225.671875 3.023438 L 224.769531 3.039062 L 223.941406 3.0625 L 223.167969 3.085938 L 222.4375 3.117188 L 221.738281 3.152344 L 221.070312 3.195312 L 220.429688 3.238281 L 219.808594 3.289062 L 219.207031 3.34375 L 218.625 3.40625 L 218.058594 3.46875 L 217.507812 3.539062 L 216.96875 3.613281 L 216.441406 3.691406 L 215.929688 3.773438 L 215.425781 3.863281 L 214.933594 3.957031 L 214.449219 4.054688 L 213.976562 4.15625 L 213.511719 4.265625 L 213.058594 4.375 L 212.609375 4.492188 L 212.171875 4.617188 L 211.742188 4.742188 L 211.316406 4.871094 L 210.902344 5.007812 L 210.492188 5.148438 L 210.089844 5.296875 L 209.691406 5.445312 L 209.304688 5.601562 L 208.921875 5.761719 L 208.542969 5.925781 L 208.171875 6.09375 L 207.808594 6.269531 L 207.449219 6.449219 L 207.097656 6.632812 L 206.75 6.820312 L 206.410156 7.015625 L 206.074219 7.214844 L 205.746094 7.417969 L 205.421875 7.625 L 205.101562 7.835938 L 204.789062 8.054688 L 204.480469 8.277344 L 204.175781 8.507812 L 203.878906 8.738281 L 203.585938 8.976562 L 203.300781 9.21875 L 203.019531 9.464844 L 202.742188 9.71875 L 202.46875 9.976562 L 202.203125 10.238281 L 201.941406 10.503906 L 201.683594 10.777344 L 201.433594 11.054688 L 201.1875 11.339844 L 200.945312 11.625 L 200.707031 11.917969 L 200.476562 12.21875 L 200.25 12.519531 L 200.027344 12.828125 L 199.808594 13.144531 L 199.597656 13.464844 L 199.390625 13.789062 L 199.1875 14.121094 L 198.988281 14.457031 L 198.796875 14.796875 L 198.609375 15.144531 L 198.425781 15.496094 L 198.246094 15.855469 L 198.070312 16.222656 L 197.902344 16.59375 L 197.738281 16.972656 L 197.578125 17.355469 L 197.425781 17.746094 L 197.277344 18.140625 L 197.128906 18.546875 L 196.992188 18.957031 L 196.855469 19.371094 L 196.726562 19.796875 L 196.597656 20.230469 L 196.476562 20.671875 L 196.363281 21.117188 L 196.25 21.574219 L 196.144531 22.039062 L 196.042969 22.515625 L 195.945312 22.996094 L 195.851562 23.492188 L 195.765625 23.996094 L 195.679688 24.511719 L 195.601562 25.039062 L 195.53125 25.578125 L 195.460938 26.132812 L 195.398438 26.703125 L 195.335938 27.285156 L 195.285156 27.890625 L 195.234375 28.511719 L 195.1875 29.160156 L 195.148438 29.828125 L 195.113281 30.53125 L 195.082031 31.269531 L 195.058594 32.050781 L 195.035156 32.886719 L 195.019531 33.800781 L 195.007812 34.828125 L 195.003906 36.0625 L 195 38.410156 L 195.003906 40.179688 L 195.011719 41.367188 L 195.023438 42.371094 L 195.039062 43.265625 L 195.0625 44.09375 L 195.089844 44.863281 L 195.121094 45.59375 L 195.15625 46.289062 L 195.195312 46.957031 L 195.242188 47.597656 L 195.292969 48.21875 L 195.347656 48.816406 L 195.40625 49.398438 L 195.472656 49.964844 L 195.542969 50.519531 L 195.617188 51.054688 L 195.695312 51.582031 L 195.777344 52.09375 L 195.867188 52.597656 L 195.960938 53.089844 L 196.058594 53.570312 L 196.160156 54.042969 L 196.269531 54.507812 L 196.382812 54.960938 L 196.5 55.410156 L 196.621094 55.847656 L 196.746094 56.277344 L 196.878906 56.703125 L 197.015625 57.117188 L 197.15625 57.527344 L 197.300781 57.929688 L 197.453125 58.324219 L 197.609375 58.714844 L 197.769531 59.097656 L 197.933594 59.472656 L 198.101562 59.84375 L 198.277344 60.207031 L 198.457031 60.566406 L 198.640625 60.917969 L 198.828125 61.265625 L 199.023438 61.605469 L 199.222656 61.941406 L 199.425781 62.269531 L 199.632812 62.59375 L 199.847656 62.910156 L 200.066406 63.226562 L 200.289062 63.53125 L 200.515625 63.835938 L 200.75 64.132812 L 200.988281 64.425781 L 201.230469 64.710938 L 201.476562 64.992188 L 201.730469 65.269531 L 201.988281 65.542969 L 202.25 65.808594 L 202.515625 66.070312 L 202.789062 66.328125 L 203.066406 66.578125 L 203.351562 66.824219 L 203.640625 67.066406 L 203.933594 67.304688 L 204.230469 67.535156 L 204.535156 67.761719 L 204.84375 67.984375 L 205.15625 68.199219 L 205.476562 68.414062 L 205.804688 68.621094 L 206.132812 68.820312 L 206.46875 69.019531 L 206.8125 69.210938 L 207.160156 69.402344 L 207.515625 69.582031 L 207.875 69.761719 L 208.238281 69.933594 L 208.609375 70.105469 L 208.988281 70.269531 L 209.371094 70.425781 L 209.761719 70.582031 L 210.160156 70.730469 L 210.5625 70.875 L 210.972656 71.015625 L 211.390625 71.152344 L 211.816406 71.28125 L 212.25 71.40625 L 212.691406 71.527344 L 213.136719 71.644531 L 213.59375 71.753906 L 214.058594 71.863281 L 214.535156 71.964844 L 215.019531 72.058594 L 215.511719 72.152344 L 216.019531 72.238281 L 216.535156 72.324219 L 217.0625 72.402344 L 217.601562 72.472656 L 218.15625 72.542969 L 218.726562 72.605469 L 219.3125 72.664062 L 219.917969 72.71875 L 220.542969 72.769531 L 221.1875 72.8125 L 221.859375 72.851562 L 222.5625 72.886719 L 223.300781 72.917969 L 224.085938 72.945312 L 224.925781 72.964844 L 225.84375 72.980469 L 226.875 72.992188 L 228.125 73 L 230.535156 73 L 232.238281 72.996094 L 233.414062 72.988281 L 234.410156 72.976562 L 235.304688 72.960938 L 236.128906 72.9375 L 236.898438 72.910156 L 237.625 72.878906 L 238.320312 72.84375 L 238.988281 72.800781 L 239.625 72.753906 L 240.246094 72.703125 L 240.84375 72.648438 L 241.425781 72.589844 L 241.992188 72.523438 L 242.542969 72.453125 L 243.078125 72.378906 L 243.605469 72.300781 L 244.117188 72.21875 L 244.617188 72.128906 L 245.109375 72.035156 L 245.589844 71.9375 L 246.0625 71.832031 L 246.527344 71.726562 L 246.980469 71.613281 L 247.429688 71.496094 L 247.867188 71.375 L 248.296875 71.246094 L 248.71875 71.113281 L 249.136719 70.980469 L 249.542969 70.835938 L 249.945312 70.691406 L 250.34375 70.539062 L 250.730469 70.386719 L 251.113281 70.226562 L 251.488281 70.058594 L 251.859375 69.890625 L 252.222656 69.714844 L 252.582031 69.535156 L 252.933594 69.351562 L 253.621094 68.96875 L 253.953125 68.769531 L 254.285156 68.566406 L 254.609375 68.355469 L 254.925781 68.144531 L 255.238281 67.925781 L 255.546875 67.703125 L 255.847656 67.472656 L 256.144531 67.242188 L 256.4375 67.003906 L 256.726562 66.757812 L 257.007812 66.511719 L 257.28125 66.257812 L 257.554688 66 L 257.820312 65.738281 L 258.082031 65.46875 L 258.339844 65.199219 L 258.589844 64.917969 L 258.835938 64.636719 L 259.078125 64.347656 L 259.3125 64.054688 L 259.542969 63.757812 L 259.769531 63.453125 L 259.992188 63.140625 L 260.210938 62.828125 L 260.421875 62.507812 L 260.628906 62.183594 L 260.832031 61.851562 L 261.027344 61.515625 L 261.222656 61.171875 L 261.410156 60.824219 L 261.589844 60.46875 L 261.769531 60.109375 L 261.941406 59.746094 L 262.113281 59.375 L 262.273438 58.996094 L 262.433594 58.609375 L 262.589844 58.21875 L 262.738281 57.824219 L 262.882812 57.417969 L 263.023438 57.007812 L 263.15625 56.589844 L 263.285156 56.164062 L 263.410156 55.730469 L 263.53125 55.289062 L 263.648438 54.84375 L 263.757812 54.382812 L 263.867188 53.917969 L 263.96875 53.445312 L 264.0625 52.957031 L 264.15625 52.464844 L 264.242188 51.960938 L 264.324219 51.441406 L 264.402344 50.914062 L 264.476562 50.371094 L 264.546875 49.816406 L 264.609375 49.246094 L 264.667969 48.660156 L 264.722656 48.054688 L 264.769531 47.429688 L 264.816406 46.78125 L 264.855469 46.109375 L 264.890625 45.40625 L 264.917969 44.664062 L 264.945312 43.878906 L 264.964844 43.035156 L 264.980469 42.117188 L 264.992188 41.074219 L 265 39.808594 Z M 265 38 "/>
<g clip-path="url(#clip2)" clip-rule="nonzero">
<path style="fill:none;stroke-width:2;stroke-linecap:butt;stroke-linejoin:miter;stroke:rgb(38.039216%,50.588235%,100%);stroke-opacity:1;stroke-miterlimit:10;" d="M 70 35 L 69.996094 32.9375 L 69.992188 31.730469 L 69.980469 30.714844 L 69.960938 29.808594 L 69.941406 28.976562 L 69.914062 28.203125 L 69.882812 27.46875 L 69.847656 26.769531 L 69.808594 26.101562 L 69.761719 25.457031 L 69.710938 24.835938 L 69.65625 24.234375 L 69.597656 23.652344 L 69.535156 23.082031 L 69.464844 22.53125 L 69.390625 21.992188 L 69.3125 21.464844 L 69.230469 20.949219 L 69.140625 20.449219 L 69.046875 19.953125 L 68.949219 19.472656 L 68.847656 19 L 68.742188 18.535156 L 68.628906 18.078125 L 68.511719 17.628906 L 68.390625 17.191406 L 68.265625 16.761719 L 68.132812 16.335938 L 67.996094 15.917969 L 67.855469 15.507812 L 67.710938 15.105469 L 67.5625 14.710938 L 67.40625 14.320312 L 67.246094 13.9375 L 67.082031 13.558594 L 66.914062 13.191406 L 66.738281 12.824219 L 66.558594 12.464844 L 66.375 12.113281 L 66.1875 11.765625 L 65.992188 11.425781 L 65.796875 11.089844 L 65.59375 10.757812 L 65.382812 10.433594 L 65.171875 10.117188 L 64.953125 9.800781 L 64.730469 9.492188 L 64.503906 9.191406 L 64.273438 8.894531 L 64.035156 8.601562 L 63.792969 8.3125 L 63.546875 8.03125 L 63.292969 7.753906 L 63.035156 7.480469 L 62.773438 7.214844 L 62.507812 6.953125 L 62.234375 6.695312 L 61.957031 6.445312 L 61.675781 6.195312 L 61.386719 5.953125 L 61.09375 5.71875 L 60.796875 5.484375 L 60.492188 5.257812 L 60.183594 5.035156 L 59.871094 4.820312 L 59.550781 4.605469 L 59.226562 4.398438 L 58.894531 4.195312 L 58.558594 3.996094 L 58.21875 3.804688 L 57.871094 3.617188 L 57.519531 3.433594 L 57.160156 3.253906 L 56.792969 3.078125 L 56.421875 2.910156 L 56.046875 2.746094 L 55.664062 2.585938 L 55.273438 2.433594 L 54.875 2.28125 L 54.472656 2.136719 L 54.0625 1.996094 L 53.644531 1.859375 L 53.222656 1.730469 L 52.789062 1.605469 L 52.351562 1.484375 L 51.902344 1.367188 L 51.445312 1.253906 L 50.980469 1.148438 L 50.507812 1.046875 L 50.023438 0.949219 L 49.53125 0.855469 L 49.027344 0.769531 L 48.511719 0.683594 L 47.984375 0.605469 L 47.445312 0.53125 L 46.890625 0.464844 L 46.324219 0.398438 L 45.738281 0.339844 L 45.136719 0.285156 L 44.515625 0.234375 L 43.871094 0.191406 L 43.199219 0.152344 L 42.5 0.113281 L 41.765625 0.0859375 L 40.988281 0.0585938 L 40.152344 0.0390625 L 39.242188 0.0195312 L 38.222656 0.0078125 L 37 0.00390625 L 34.742188 0 L 32.878906 0.00390625 L 31.679688 0.0117188 L 30.671875 0.0234375 L 29.769531 0.0390625 L 28.941406 0.0625 L 28.167969 0.0859375 L 27.4375 0.117188 L 26.738281 0.152344 L 26.070312 0.195312 L 25.429688 0.238281 L 24.808594 0.289062 L 24.207031 0.34375 L 23.625 0.40625 L 23.058594 0.46875 L 22.507812 0.539062 L 21.96875 0.613281 L 21.441406 0.691406 L 20.929688 0.773438 L 20.425781 0.863281 L 19.933594 0.957031 L 19.449219 1.054688 L 18.976562 1.15625 L 18.511719 1.265625 L 18.058594 1.375 L 17.609375 1.492188 L 17.171875 1.617188 L 16.742188 1.742188 L 16.316406 1.871094 L 15.902344 2.007812 L 15.492188 2.148438 L 15.089844 2.296875 L 14.691406 2.445312 L 14.304688 2.601562 L 13.921875 2.761719 L 13.542969 2.925781 L 13.171875 3.09375 L 12.808594 3.269531 L 12.449219 3.449219 L 12.097656 3.632812 L 11.75 3.820312 L 11.410156 4.015625 L 11.074219 4.214844 L 10.746094 4.417969 L 10.421875 4.625 L 10.101562 4.835938 L 9.789062 5.054688 L 9.480469 5.277344 L 9.175781 5.507812 L 8.878906 5.738281 L 8.585938 5.976562 L 8.300781 6.21875 L 8.019531 6.464844 L 7.742188 6.71875 L 7.46875 6.976562 L 7.203125 7.238281 L 6.941406 7.503906 L 6.683594 7.777344 L 6.433594 8.054688 L 6.1875 8.339844 L 5.945312 8.625 L 5.707031 8.917969 L 5.476562 9.21875 L 5.25 9.519531 L 5.027344 9.828125 L 4.808594 10.144531 L 4.597656 10.464844 L 4.390625 10.789062 L 4.1875 11.121094 L 3.988281 11.457031 L 3.796875 11.796875 L 3.609375 12.144531 L 3.425781 12.496094 L 3.246094 12.855469 L 3.070312 13.222656 L 2.902344 13.59375 L 2.738281 13.972656 L 2.578125 14.355469 L 2.425781 14.746094 L 2.277344 15.140625 L 2.128906 15.546875 L 1.992188 15.957031 L 1.855469 16.371094 L 1.726562 16.796875 L 1.597656 17.230469 L 1.476562 17.671875 L 1.363281 18.117188 L 1.25 18.574219 L 1.144531 19.039062 L 1.042969 19.515625 L 0.945312 19.996094 L 0.851562 20.492188 L 0.765625 20.996094 L 0.679688 21.511719 L 0.601562 22.039062 L 0.53125 22.578125 L 0.460938 23.132812 L 0.398438 23.703125 L 0.335938 24.285156 L 0.285156 24.890625 L 0.234375 25.511719 L 0.1875 26.160156 L 0.148438 26.828125 L 0.113281 27.53125 L 0.0820312 28.269531 L 0.0585938 29.050781 L 0.0351562 29.886719 L 0.0195312 30.800781 L 0.0078125 31.828125 L 0.00390625 33.0625 L 0 35.410156 L 0.00390625 37.179688 L 0.0117188 38.367188 L 0.0234375 39.371094 L 0.0390625 40.265625 L 0.0625 41.09375 L 0.0898438 41.863281 L 0.121094 42.59375 L 0.15625 43.289062 L 0.195312 43.957031 L 0.242188 44.597656 L 0.292969 45.21875 L 0.347656 45.816406 L 0.40625 46.398438 L 0.472656 46.964844 L 0.542969 47.519531 L 0.617188 48.054688 L 0.695312 48.582031 L 0.777344 49.09375 L 0.867188 49.597656 L 0.960938 50.089844 L 1.058594 50.570312 L 1.160156 51.042969 L 1.269531 51.507812 L 1.382812 51.960938 L 1.5 52.410156 L 1.621094 52.847656 L 1.746094 53.277344 L 1.878906 53.703125 L 2.015625 54.117188 L 2.15625 54.527344 L 2.300781 54.929688 L 2.453125 55.324219 L 2.609375 55.714844 L 2.769531 56.097656 L 2.933594 56.472656 L 3.101562 56.84375 L 3.277344 57.207031 L 3.457031 57.566406 L 3.640625 57.917969 L 3.828125 58.265625 L 4.023438 58.605469 L 4.222656 58.941406 L 4.425781 59.269531 L 4.632812 59.59375 L 4.847656 59.910156 L 5.066406 60.226562 L 5.289062 60.53125 L 5.515625 60.835938 L 5.75 61.132812 L 5.988281 61.425781 L 6.230469 61.710938 L 6.476562 61.992188 L 6.730469 62.269531 L 6.988281 62.542969 L 7.25 62.808594 L 7.515625 63.070312 L 7.789062 63.328125 L 8.066406 63.578125 L 8.351562 63.824219 L 8.640625 64.066406 L 8.933594 64.304688 L 9.230469 64.535156 L 9.535156 64.761719 L 9.84375 64.984375 L 10.15625 65.199219 L 10.476562 65.414062 L 10.804688 65.621094 L 11.132812 65.820312 L 11.46875 66.019531 L 11.8125 66.210938 L 12.160156 66.402344 L 12.515625 66.582031 L 12.875 66.761719 L 13.238281 66.933594 L 13.609375 67.105469 L 13.988281 67.269531 L 14.371094 67.425781 L 14.761719 67.582031 L 15.160156 67.730469 L 15.5625 67.875 L 15.972656 68.015625 L 16.390625 68.152344 L 16.816406 68.28125 L 17.25 68.40625 L 17.691406 68.527344 L 18.136719 68.644531 L 18.59375 68.753906 L 19.058594 68.863281 L 19.535156 68.964844 L 20.019531 69.058594 L 20.511719 69.152344 L 21.019531 69.238281 L 21.535156 69.324219 L 22.0625 69.402344 L 22.601562 69.472656 L 23.15625 69.542969 L 23.726562 69.605469 L 24.3125 69.664062 L 24.917969 69.71875 L 25.542969 69.769531 L 26.1875 69.8125 L 26.859375 69.851562 L 27.5625 69.886719 L 28.300781 69.917969 L 29.085938 69.945312 L 29.925781 69.964844 L 30.84375 69.980469 L 31.875 69.992188 L 33.125 70 L 35.535156 70 L 37.238281 69.996094 L 38.414062 69.988281 L 39.410156 69.976562 L 40.304688 69.960938 L 41.128906 69.9375 L 41.898438 69.910156 L 42.625 69.878906 L 43.320312 69.84375 L 43.988281 69.800781 L 44.625 69.753906 L 45.246094 69.703125 L 45.84375 69.648438 L 46.425781 69.589844 L 46.992188 69.523438 L 47.542969 69.453125 L 48.078125 69.378906 L 48.605469 69.300781 L 49.117188 69.21875 L 49.617188 69.128906 L 50.109375 69.035156 L 50.589844 68.9375 L 51.0625 68.832031 L 51.527344 68.726562 L 51.980469 68.613281 L 52.429688 68.496094 L 52.867188 68.375 L 53.296875 68.246094 L 53.71875 68.113281 L 54.136719 67.980469 L 54.542969 67.835938 L 54.945312 67.691406 L 55.34375 67.539062 L 55.730469 67.386719 L 56.113281 67.226562 L 56.488281 67.058594 L 56.859375 66.890625 L 57.222656 66.714844 L 57.582031 66.535156 L 57.933594 66.351562 L 58.621094 65.96875 L 58.953125 65.769531 L 59.285156 65.566406 L 59.609375 65.355469 L 59.925781 65.144531 L 60.238281 64.925781 L 60.546875 64.703125 L 60.847656 64.472656 L 61.144531 64.242188 L 61.4375 64.003906 L 61.726562 63.757812 L 62.007812 63.511719 L 62.28125 63.257812 L 62.554688 63 L 62.820312 62.738281 L 63.082031 62.46875 L 63.339844 62.199219 L 63.589844 61.917969 L 63.835938 61.636719 L 64.078125 61.347656 L 64.3125 61.054688 L 64.542969 60.757812 L 64.769531 60.453125 L 64.992188 60.140625 L 65.210938 59.828125 L 65.421875 59.507812 L 65.628906 59.183594 L 65.832031 58.851562 L 66.027344 58.515625 L 66.222656 58.171875 L 66.410156 57.824219 L 66.589844 57.46875 L 66.769531 57.109375 L 66.941406 56.746094 L 67.113281 56.375 L 67.273438 55.996094 L 67.433594 55.609375 L 67.589844 55.21875 L 67.738281 54.824219 L 67.882812 54.417969 L 68.023438 54.007812 L 68.15625 53.589844 L 68.285156 53.164062 L 68.410156 52.730469 L 68.53125 52.289062 L 68.648438 51.84375 L 68.757812 51.382812 L 68.867188 50.917969 L 68.96875 50.445312 L 69.0625 49.957031 L 69.15625 49.464844 L 69.242188 48.960938 L 69.324219 48.441406 L 69.402344 47.914062 L 69.476562 47.371094 L 69.546875 46.816406 L 69.609375 46.246094 L 69.667969 45.660156 L 69.722656 45.054688 L 69.769531 44.429688 L 69.816406 43.78125 L 69.855469 43.109375 L 69.890625 42.40625 L 69.917969 41.664062 L 69.945312 40.878906 L 69.964844 40.035156 L 69.980469 39.117188 L 69.992188 38.074219 L 70 36.808594 Z M 70 35 " transform="matrix(1,0,0,1,195,3)"/>
</g>
</g>
</svg>
