<?xml version="1.0" encoding="UTF-8"?>
<?xml-stylesheet href="../ldoc.css" type="text/css"?>
<svg xmlns="http://www.w3.org/2000/svg" xmlns:xlink="http://www.w3.org/1999/xlink" width="288pt" height="76pt" viewBox="0 0 288 76" version="1.1">
<g id="surface2">
<path style="fill-rule:nonzero;fill:rgb(38.039216%,50.588235%,100%);fill-opacity:0.5;stroke-width:2;stroke-linecap:butt;stroke-linejoin:miter;stroke:rgb(38.039216%,50.588235%,100%);stroke-opacity:1;stroke-miterlimit:10;" d="M 0 0 L 60 0 L 60 5 L 70 5 L 70 70 L 10 70 L 10 65 L 0 65 Z M 0 0 " transform="matrix(1,0,0,1,3,3)"/>
<path style="fill-rule:nonzero;fill:rgb(38.039216%,50.588235%,100%);fill-opacity:0.5;stroke-width:2;stroke-linecap:butt;stroke-linejoin:miter;stroke:rgb(38.039216%,50.588235%,100%);stroke-opacity:1;stroke-miterlimit:10;" d="M 5 0 L 70 0 L 70 60 L 65 60 L 65 70 L 0 70 L 0 10 L 5 10 Z M 5 0 " transform="matrix(1,0,0,1,99,3)"/>
<path style="fill-rule:nonzero;fill:rgb(38.039216%,50.588235%,100%);fill-opacity:0.5;stroke-width:2;stroke-linecap:butt;stroke-linejoin:miter;stroke:rgb(38.039216%,50.588235%,100%);stroke-opacity:1;stroke-miterlimit:10;" d="M 30 0 L 70 0 L 70 40 L 40 40 L 40 70 L 0 70 L 0 30 L 30 30 Z M 30 0 " transform="matrix(1,0,0,1,195,3)"/>
</g>
</svg>
