<?xml version="1.0" encoding="UTF-8"?>
<?xml-stylesheet href="../ldoc.css" type="text/css"?>
<svg xmlns="http://www.w3.org/2000/svg" xmlns:xlink="http://www.w3.org/1999/xlink" width="110pt" height="110pt" viewBox="0 0 110 110" version="1.1">
<defs>
<clipPath id="clip1">
  <path d="M 0 0 L 110 0 L 110 100 L 0 100 Z M 0 0 "/>
</clipPath>
</defs>
<g id="surface2">
<g clip-path="url(#clip1)" clip-rule="nonzero">
<rect x="0" y="0" width="110" height="110" style="fill:rgb(38.039216%,50.588235%,100%);fill-opacity:0.490196;stroke:none;"/>
</g>
<path style=" stroke:none;fill-rule:nonzero;fill:rgb(100%,0%,0%);fill-opacity:1;" d="M 2 55.25 L 3 55.25 L 3 50 L 2 50 Z M 4 59.75 L 5 59.75 L 5 50 L 4 50 Z M 6 65 L 7 65 L 7 50 L 6 50 Z M 8 69.5 L 9 69.5 L 9 50 L 8 50 Z M 10 74 L 11 74 L 11 50 L 10 50 Z M 12 78.5 L 13 78.5 L 13 50 L 12 50 Z M 14 82.25 L 15 82.25 L 15 50 L 14 50 Z M 16 86 L 17 86 L 17 50 L 16 50 Z M 18 89 L 19 89 L 19 50 L 18 50 Z M 20 91.25 L 21 91.25 L 21 50 L 20 50 Z M 22 93.5 L 23 93.5 L 23 50 L 22 50 Z M 24 95.75 L 25 95.75 L 25 50 L 24 50 Z M 26 97.25 L 27 97.25 L 27 50 L 26 50 Z M 28 98 L 29 98 L 29 50 L 28 50 Z M 30 98 L 31 98 L 31 50 L 30 50 Z M 32 98 L 33 98 L 33 50 L 32 50 Z M 34 97.25 L 35 97.25 L 35 50 L 34 50 Z M 36 95.75 L 37 95.75 L 37 50 L 36 50 Z M 38 93.5 L 39 93.5 L 39 50 L 38 50 Z M 40 91.25 L 41 91.25 L 41 50 L 40 50 Z M 42 89 L 43 89 L 43 50 L 42 50 Z M 44 86 L 45 86 L 45 50 L 44 50 Z M 46 82.25 L 47 82.25 L 47 50 L 46 50 Z M 48 78.5 L 49 78.5 L 49 50 L 48 50 Z M 50 74 L 51 74 L 51 50 L 50 50 Z M 52 69.5 L 53 69.5 L 53 50 L 52 50 Z M 54 65 L 55 65 L 55 50 L 54 50 Z M 56 59.75 L 57 59.75 L 57 50 L 56 50 Z M 58 55.25 L 59 55.25 L 59 50 L 58 50 Z M 60 50 L 61 50 Z M 62 44.75 L 63 44.75 L 63 50 L 62 50 Z M 64 40.25 L 65 40.25 L 65 50 L 64 50 Z M 66 35 L 67 35 L 67 50 L 66 50 Z M 68 30.5 L 69 30.5 L 69 50 L 68 50 Z M 70 26 L 71 26 L 71 50 L 70 50 Z M 72 21.5 L 73 21.5 L 73 50 L 72 50 Z M 74 17.75 L 75 17.75 L 75 50 L 74 50 Z M 76 14 L 77 14 L 77 50 L 76 50 Z M 78 11 L 79 11 L 79 50 L 78 50 Z M 80 8.75 L 81 8.75 L 81 50 L 80 50 Z M 82 6.5 L 83 6.5 L 83 50 L 82 50 Z M 84 4.25 L 85 4.25 L 85 50 L 84 50 Z M 86 2.75 L 87 2.75 L 87 50 L 86 50 Z M 88 2 L 89 2 L 89 50 L 88 50 Z M 90 2 L 91 2 L 91 50 L 90 50 Z M 92 2 L 93 2 L 93 50 L 92 50 Z M 94 2.75 L 95 2.75 L 95 50 L 94 50 Z M 96 4.25 L 97 4.25 L 97 50 L 96 50 Z M 98 6.5 L 99 6.5 L 99 50 L 98 50 Z M 100 8.75 L 101 8.75 L 101 50 L 100 50 Z M 102 11 L 103 11 L 103 50 L 102 50 Z M 104 14 L 105 14 L 105 50 L 104 50 Z M 106 17.75 L 107 17.75 L 107 50 L 106 50 Z M 106 17.75 "/>
<path style=" stroke:none;fill-rule:nonzero;fill:rgb(0%,100%,0%);fill-opacity:1;" d="M 2 56.5 L 3 56.5 L 3 50 L 2 50 Z M 4 63 L 5 63 L 5 50 L 4 50 Z M 6 69 L 7 69 L 7 50 L 6 50 Z M 8 74 L 9 74 L 9 50 L 8 50 Z M 10 77.5 L 11 77.5 L 11 50 L 10 50 Z M 12 80.5 L 13 80.5 L 13 50 L 12 50 Z M 14 82 L 15 82 L 15 50 L 14 50 Z M 16 82 L 17 82 L 17 50 L 16 50 Z M 18 80.5 L 19 80.5 L 19 50 L 18 50 Z M 20 77.5 L 21 77.5 L 21 50 L 20 50 Z M 22 74 L 23 74 L 23 50 L 22 50 Z M 24 69 L 25 69 L 25 50 L 24 50 Z M 26 63 L 27 63 L 27 50 L 26 50 Z M 28 56.5 L 29 56.5 L 29 50 L 28 50 Z M 30 50 L 31 50 Z M 32 43.5 L 33 43.5 L 33 50 L 32 50 Z M 34 37 L 35 37 L 35 50 L 34 50 Z M 36 31 L 37 31 L 37 50 L 36 50 Z M 38 26 L 39 26 L 39 50 L 38 50 Z M 40 22.5 L 41 22.5 L 41 50 L 40 50 Z M 42 19.5 L 43 19.5 L 43 50 L 42 50 Z M 44 18 L 45 18 L 45 50 L 44 50 Z M 46 18 L 47 18 L 47 50 L 46 50 Z M 48 19.5 L 49 19.5 L 49 50 L 48 50 Z M 50 22.5 L 51 22.5 L 51 50 L 50 50 Z M 52 26 L 53 26 L 53 50 L 52 50 Z M 54 31 L 55 31 L 55 50 L 54 50 Z M 56 37 L 57 37 L 57 50 L 56 50 Z M 58 43.5 L 59 43.5 L 59 50 L 58 50 Z M 60 50 L 61 50 Z M 62 56.5 L 63 56.5 L 63 50 L 62 50 Z M 64 63 L 65 63 L 65 50 L 64 50 Z M 66 69 L 67 69 L 67 50 L 66 50 Z M 68 74 L 69 74 L 69 50 L 68 50 Z M 70 77.5 L 71 77.5 L 71 50 L 70 50 Z M 72 80.5 L 73 80.5 L 73 50 L 72 50 Z M 74 82 L 75 82 L 75 50 L 74 50 Z M 76 82 L 77 82 L 77 50 L 76 50 Z M 78 80.5 L 79 80.5 L 79 50 L 78 50 Z M 80 77.5 L 81 77.5 L 81 50 L 80 50 Z M 82 74 L 83 74 L 83 50 L 82 50 Z M 84 69 L 85 69 L 85 50 L 84 50 Z M 86 63 L 87 63 L 87 50 L 86 50 Z M 88 56.5 L 89 56.5 L 89 50 L 88 50 Z M 90 50 L 91 50 Z M 92 43.5 L 93 43.5 L 93 50 L 92 50 Z M 94 37 L 95 37 L 95 50 L 94 50 Z M 96 31 L 97 31 L 97 50 L 96 50 Z M 98 26 L 99 26 L 99 50 L 98 50 Z M 100 22.5 L 101 22.5 L 101 50 L 100 50 Z M 102 19.5 L 103 19.5 L 103 50 L 102 50 Z M 104 18 L 105 18 L 105 50 L 104 50 Z M 106 18 L 107 18 L 107 50 L 106 50 Z M 106 18 "/>
<path style=" stroke:none;fill-rule:nonzero;fill:rgb(0%,0%,100%);fill-opacity:1;" d="M 2 55 L 3 55 L 3 50 L 2 50 Z M 4 59.5 L 5 59.5 L 5 50 L 4 50 Z M 6 63 L 7 63 L 7 50 L 6 50 Z M 8 65.25 L 9 65.25 L 9 50 L 8 50 Z M 10 66 L 11 66 L 11 50 L 10 50 Z M 12 65.25 L 13 65.25 L 13 50 L 12 50 Z M 14 63 L 15 63 L 15 50 L 14 50 Z M 16 59.5 L 17 59.5 L 17 50 L 16 50 Z M 18 55 L 19 55 L 19 50 L 18 50 Z M 20 50 L 21 50 Z M 22 45 L 23 45 L 23 50 L 22 50 Z M 24 40.5 L 25 40.5 L 25 50 L 24 50 Z M 26 37 L 27 37 L 27 50 L 26 50 Z M 28 34.75 L 29 34.75 L 29 50 L 28 50 Z M 30 34 L 31 34 L 31 50 L 30 50 Z M 32 34.75 L 33 34.75 L 33 50 L 32 50 Z M 34 37 L 35 37 L 35 50 L 34 50 Z M 36 40.5 L 37 40.5 L 37 50 L 36 50 Z M 38 45 L 39 45 L 39 50 L 38 50 Z M 40 50 L 41 50 Z M 42 55 L 43 55 L 43 50 L 42 50 Z M 44 59.5 L 45 59.5 L 45 50 L 44 50 Z M 46 63 L 47 63 L 47 50 L 46 50 Z M 48 65.25 L 49 65.25 L 49 50 L 48 50 Z M 50 66 L 51 66 L 51 50 L 50 50 Z M 52 65.25 L 53 65.25 L 53 50 L 52 50 Z M 54 63 L 55 63 L 55 50 L 54 50 Z M 56 59.5 L 57 59.5 L 57 50 L 56 50 Z M 58 55 L 59 55 L 59 50 L 58 50 Z M 60 50 L 61 50 Z M 62 45 L 63 45 L 63 50 L 62 50 Z M 64 40.5 L 65 40.5 L 65 50 L 64 50 Z M 66 37 L 67 37 L 67 50 L 66 50 Z M 68 34.75 L 69 34.75 L 69 50 L 68 50 Z M 70 34 L 71 34 L 71 50 L 70 50 Z M 72 34.75 L 73 34.75 L 73 50 L 72 50 Z M 74 37 L 75 37 L 75 50 L 74 50 Z M 76 40.5 L 77 40.5 L 77 50 L 76 50 Z M 78 45 L 79 45 L 79 50 L 78 50 Z M 80 50 L 81 50 Z M 82 55 L 83 55 L 83 50 L 82 50 Z M 84 59.5 L 85 59.5 L 85 50 L 84 50 Z M 86 63 L 87 63 L 87 50 L 86 50 Z M 88 65.25 L 89 65.25 L 89 50 L 88 50 Z M 90 66 L 91 66 L 91 50 L 90 50 Z M 92 65.25 L 93 65.25 L 93 50 L 92 50 Z M 94 63 L 95 63 L 95 50 L 94 50 Z M 96 59.5 L 97 59.5 L 97 50 L 96 50 Z M 98 55 L 99 55 L 99 50 L 98 50 Z M 100 50 L 101 50 Z M 102 45 L 103 45 L 103 50 L 102 50 Z M 104 40.5 L 105 40.5 L 105 50 L 104 50 Z M 106 37 L 107 37 L 107 50 L 106 50 Z M 106 37 "/>
<path style="fill:none;stroke-width:2;stroke-linecap:butt;stroke-linejoin:miter;stroke:rgb(100%,100%,100%);stroke-opacity:1;stroke-miterlimit:10;" d="M 1 1 L 109 1 L 109 99 L 1 99 Z M 1 1 "/>
</g>
</svg>
