<?xml version="1.0" encoding="UTF-8"?>
<?xml-stylesheet href="../ldoc.css" type="text/css"?>
<svg xmlns="http://www.w3.org/2000/svg" xmlns:xlink="http://www.w3.org/1999/xlink" width="280pt" height="60pt" viewBox="0 0 280 60" version="1.1">
<defs>
<clipPath id="clip1">
  <path d="M 0 0 L 60 0 L 60 60 L 0 60 Z M 0 0 "/>
</clipPath>
<clipPath id="clip2">
  <path d="M 70 0 L 130 0 L 130 60 L 70 60 Z M 70 0 "/>
</clipPath>
<clipPath id="clip3">
  <path d="M 112 5 L 130 5 L 130 38 L 112 38 Z M 112 5 "/>
</clipPath>
<clipPath id="clip4">
  <path d="M 140 0 L 200 0 L 200 60 L 140 60 Z M 140 0 "/>
</clipPath>
<clipPath id="clip5">
  <path d="M 140 0 L 200 0 L 200 60 L 140 60 Z M 140 0 "/>
</clipPath>
<clipPath id="clip6">
  <path d="M 210 0 L 270 0 L 270 60 L 210 60 Z M 210 0 "/>
</clipPath>
<clipPath id="clip7">
  <path d="M 210 0 L 270 0 L 270 60 L 210 60 Z M 210 0 "/>
</clipPath>
</defs>
<g id="surface2">
<g clip-path="url(#clip1)" clip-rule="nonzero">
<path style="fill:none;stroke-width:6;stroke-linecap:butt;stroke-linejoin:miter;stroke:rgb(100%,0%,0%);stroke-opacity:0.2;stroke-miterlimit:10;" d="M 54 27 C 54 41.910156 41.910156 54 27 54 C 12.089844 54 0 41.910156 0 27 C 0 12.089844 12.089844 0 27 0 C 41.910156 0 54 12.089844 54 27 Z M 54 27 " transform="matrix(1,0,0,1,3,3)"/>
</g>
<path style="fill:none;stroke-width:0.5;stroke-linecap:butt;stroke-linejoin:miter;stroke:rgb(0%,0%,0%);stroke-opacity:1;stroke-miterlimit:10;" d="M 59.5 29.75 L 54 29.75 Z M 59.5 29.75 " transform="matrix(1,0,0,1,0.25,0.25)"/>
<g clip-path="url(#clip2)" clip-rule="nonzero">
<path style="fill:none;stroke-width:6;stroke-linecap:butt;stroke-linejoin:miter;stroke:rgb(100%,0%,0%);stroke-opacity:0.2;stroke-miterlimit:10;" d="M 54 27 C 54 41.910156 41.910156 54 27 54 C 12.089844 54 0 41.910156 0 27 C 0 12.089844 12.089844 0 27 0 C 41.910156 0 54 12.089844 54 27 Z M 54 27 " transform="matrix(1,0,0,1,73,3)"/>
</g>
<path style=" stroke:none;fill-rule:nonzero;fill:rgb(38.039216%,50.588235%,100%);fill-opacity:0.490196;" d="M 124.066406 12.511719 C 127.761719 17.597656 129.75 23.71875 129.75 30 L 124.25 30 C 124.25 24.878906 122.628906 19.890625 119.617188 15.746094 Z M 124.066406 12.511719 "/>
<g clip-path="url(#clip3)" clip-rule="nonzero">
<path style="fill:none;stroke-width:0.5;stroke-linecap:butt;stroke-linejoin:miter;stroke:rgb(0%,0%,0%);stroke-opacity:1;stroke-miterlimit:10;" d="M 53.816406 12.261719 C 57.511719 17.347656 59.5 23.46875 59.5 29.75 L 54 29.75 C 54 24.628906 52.378906 19.640625 49.367188 15.496094 Z M 53.816406 12.261719 " transform="matrix(1,0,0,1,70.25,0.25)"/>
</g>
<g clip-path="url(#clip4)" clip-rule="nonzero">
<path style="fill:none;stroke-width:6;stroke-linecap:butt;stroke-linejoin:miter;stroke:rgb(100%,0%,0%);stroke-opacity:0.2;stroke-miterlimit:10;" d="M 54 27 C 54 41.910156 41.910156 54 27 54 C 12.089844 54 0 41.910156 0 27 C 0 12.089844 12.089844 0 27 0 C 41.910156 0 54 12.089844 54 27 Z M 54 27 " transform="matrix(1,0,0,1,143,3)"/>
</g>
<path style=" stroke:none;fill-rule:nonzero;fill:rgb(38.039216%,50.588235%,100%);fill-opacity:0.490196;" d="M 160.808594 58.292969 C 150.167969 54.835938 142.367188 45.703125 140.617188 34.652344 C 138.867188 23.605469 143.460938 12.507812 152.511719 5.933594 C 161.5625 -0.644531 173.539062 -1.585938 183.507812 3.492188 C 193.472656 8.570312 199.75 18.8125 199.75 30 L 194.25 30 C 194.25 20.882812 189.132812 12.53125 181.007812 8.394531 C 172.882812 4.253906 163.125 5.019531 155.746094 10.382812 C 148.367188 15.742188 144.621094 24.785156 146.046875 33.792969 C 147.476562 42.800781 153.832031 50.246094 162.507812 53.0625 Z M 160.808594 58.292969 "/>
<g clip-path="url(#clip5)" clip-rule="nonzero">
<path style="fill:none;stroke-width:0.5;stroke-linecap:butt;stroke-linejoin:miter;stroke:rgb(0%,0%,0%);stroke-opacity:1;stroke-miterlimit:10;" d="M 20.558594 58.042969 C 9.917969 54.585938 2.117188 45.453125 0.367188 34.402344 C -1.382812 23.355469 3.210938 12.257812 12.261719 5.683594 C 21.3125 -0.894531 33.289062 -1.835938 43.257812 3.242188 C 53.222656 8.320312 59.5 18.5625 59.5 29.75 L 54 29.75 C 54 20.632812 48.882812 12.28125 40.757812 8.144531 C 32.632812 4.003906 22.875 4.769531 15.496094 10.132812 C 8.117188 15.492188 4.371094 24.535156 5.796875 33.542969 C 7.226562 42.550781 13.582031 49.996094 22.257812 52.8125 Z M 20.558594 58.042969 " transform="matrix(1,0,0,1,140.25,0.25)"/>
</g>
<g clip-path="url(#clip6)" clip-rule="nonzero">
<path style="fill:none;stroke-width:6;stroke-linecap:butt;stroke-linejoin:miter;stroke:rgb(100%,0%,0%);stroke-opacity:0.2;stroke-miterlimit:10;" d="M 54 27 C 54 41.910156 41.910156 54 27 54 C 12.089844 54 0 41.910156 0 27 C 0 12.089844 12.089844 0 27 0 C 41.910156 0 54 12.089844 54 27 Z M 54 27 " transform="matrix(1,0,0,1,213,3)"/>
</g>
<path style=" stroke:none;fill-rule:nonzero;fill:rgb(38.039216%,50.588235%,100%);fill-opacity:0.490196;" d="M 269.75 30 C 269.75 46.429688 256.429688 59.75 240 59.75 C 223.570312 59.75 210.25 46.429688 210.25 30 C 210.25 13.570312 223.570312 0.25 240 0.25 C 256.429688 0.25 269.75 13.570312 269.75 30 L 264.25 30 C 264.25 16.605469 253.394531 5.75 240 5.75 C 226.605469 5.75 215.75 16.605469 215.75 30 C 215.75 43.394531 226.605469 54.25 240 54.25 C 253.394531 54.25 264.25 43.394531 264.25 30 Z M 269.75 30 "/>
<g clip-path="url(#clip7)" clip-rule="nonzero">
<path style="fill:none;stroke-width:0.5;stroke-linecap:butt;stroke-linejoin:miter;stroke:rgb(0%,0%,0%);stroke-opacity:1;stroke-miterlimit:10;" d="M 59.5 29.75 C 59.5 46.179688 46.179688 59.5 29.75 59.5 C 13.320312 59.5 0 46.179688 0 29.75 C 0 13.320312 13.320312 0 29.75 0 C 46.179688 0 59.5 13.320312 59.5 29.75 L 54 29.75 C 54 16.355469 43.144531 5.5 29.75 5.5 C 16.355469 5.5 5.5 16.355469 5.5 29.75 C 5.5 43.144531 16.355469 54 29.75 54 C 43.144531 54 54 43.144531 54 29.75 Z M 59.5 29.75 " transform="matrix(1,0,0,1,210.25,0.25)"/>
</g>
</g>
</svg>
