<?xml version="1.0" encoding="UTF-8"?>
<?xml-stylesheet href="../ldoc.css" type="text/css"?>
<svg xmlns="http://www.w3.org/2000/svg" xmlns:xlink="http://www.w3.org/1999/xlink" width="288pt" height="76pt" viewBox="0 0 288 76" version="1.1">
<defs>
<clipPath id="clip1">
  <path d="M 96 0 L 148 0 L 148 76 L 96 76 Z M 96 0 "/>
</clipPath>
<clipPath id="clip2">
  <path d="M 192 0 L 268 0 L 268 52 L 192 52 Z M 192 0 "/>
</clipPath>
</defs>
<g id="surface2">
<path style="fill-rule:nonzero;fill:rgb(38.039216%,50.588235%,100%);fill-opacity:0.5;stroke-width:2;stroke-linecap:butt;stroke-linejoin:miter;stroke:rgb(38.039216%,50.588235%,100%);stroke-opacity:1;stroke-miterlimit:10;" d="M 0 35 C 0 15.671875 15.671875 0 35 0 C 54.328125 0 70 15.671875 70 35 C 70 54.328125 54.328125 70 35 70 C 15.671875 70 0 54.328125 0 35 Z M 0 35 " transform="matrix(1,0,0,1,3,3)"/>
<path style=" stroke:none;fill-rule:nonzero;fill:rgb(38.039216%,50.588235%,100%);fill-opacity:0.5;" d="M 99 13 C 99 7.476562 103.476562 3 109 3 C 114.523438 3 119 7.476562 119 13 L 119 63 C 119 68.523438 114.523438 73 109 73 C 103.476562 73 99 68.523438 99 63 Z M 99 13 "/>
<g clip-path="url(#clip1)" clip-rule="nonzero">
<path style="fill:none;stroke-width:2;stroke-linecap:butt;stroke-linejoin:miter;stroke:rgb(38.039216%,50.588235%,100%);stroke-opacity:1;stroke-miterlimit:10;" d="M 0 10 C 0 4.476562 4.476562 0 10 0 C 15.523438 0 20 4.476562 20 10 L 20 60 C 20 65.523438 15.523438 70 10 70 C 4.476562 70 0 65.523438 0 60 Z M 0 10 " transform="matrix(1,0,0,1,99,3)"/>
</g>
<path style=" stroke:none;fill-rule:nonzero;fill:rgb(38.039216%,50.588235%,100%);fill-opacity:0.5;" d="M 195 13 C 195 7.476562 199.476562 3 205 3 L 255 3 C 260.523438 3 265 7.476562 265 13 C 265 18.523438 260.523438 23 255 23 L 205 23 C 199.476562 23 195 18.523438 195 13 Z M 195 13 "/>
<g clip-path="url(#clip2)" clip-rule="nonzero">
<path style="fill:none;stroke-width:2;stroke-linecap:butt;stroke-linejoin:miter;stroke:rgb(38.039216%,50.588235%,100%);stroke-opacity:1;stroke-miterlimit:10;" d="M 0 10 C 0 4.476562 4.476562 0 10 0 L 60 0 C 65.523438 0 70 4.476562 70 10 C 70 15.523438 65.523438 20 60 20 L 10 20 C 4.476562 20 0 15.523438 0 10 Z M 0 10 " transform="matrix(1,0,0,1,195,3)"/>
</g>
</g>
</svg>
