<?xml version="1.0" encoding="UTF-8"?>
<?xml-stylesheet href="../ldoc.css" type="text/css"?>
<svg xmlns="http://www.w3.org/2000/svg" xmlns:xlink="http://www.w3.org/1999/xlink" width="288pt" height="76pt" viewBox="0 0 288 76" version="1.1">
<defs>
<clipPath id="clip1">
  <path d="M 130 0 L 172 0 L 172 52 L 130 52 Z M 130 0 "/>
</clipPath>
<clipPath id="clip2">
  <path d="M 226 0 L 268 0 L 268 52 L 226 52 Z M 226 0 "/>
</clipPath>
<clipPath id="clip3">
  <path d="M 192 0 L 234 0 L 234 41 L 192 41 Z M 192 0 "/>
</clipPath>
</defs>
<g id="surface2">
<path style="fill:none;stroke-width:2;stroke-linecap:butt;stroke-linejoin:miter;stroke:rgb(0%,0%,0%);stroke-opacity:1;stroke-miterlimit:10;" d="M 10 20 L 58.847656 20 " transform="matrix(1,0,0,1,3,3)"/>
<path style="fill:none;stroke-width:2;stroke-linecap:butt;stroke-linejoin:miter;stroke:rgb(38.039216%,50.588235%,100%);stroke-opacity:1;stroke-miterlimit:10;" d="M 10 20 L 60 20 " transform="matrix(1,0,0,1,99,3)"/>
<g clip-path="url(#clip1)" clip-rule="nonzero">
<path style="fill:none;stroke-width:2;stroke-linecap:butt;stroke-linejoin:miter;stroke:rgb(38.039216%,50.588235%,100%);stroke-opacity:1;stroke-miterlimit:10;" d="M 60 0 C 65.523438 0 70 4.476562 70 10 C 70 15.523438 65.523438 20 60 20 " transform="matrix(1,0,0,1,99,3)"/>
</g>
<path style="fill:none;stroke-width:2;stroke-linecap:butt;stroke-linejoin:miter;stroke:rgb(38.039216%,50.588235%,100%);stroke-opacity:1;stroke-miterlimit:10;" d="M 60 0 L 43.71875 0 " transform="matrix(1,0,0,1,99,3)"/>
<path style="fill:none;stroke-width:2;stroke-linecap:butt;stroke-linejoin:miter;stroke:rgb(38.039216%,50.588235%,100%);stroke-opacity:1;stroke-miterlimit:10;" d="M 10 20 L 60 20 " transform="matrix(1,0,0,1,195,3)"/>
<g clip-path="url(#clip2)" clip-rule="nonzero">
<path style="fill:none;stroke-width:2;stroke-linecap:butt;stroke-linejoin:miter;stroke:rgb(38.039216%,50.588235%,100%);stroke-opacity:1;stroke-miterlimit:10;" d="M 60 0 C 65.523438 0 70 4.476562 70 10 C 70 15.523438 65.523438 20 60 20 " transform="matrix(1,0,0,1,195,3)"/>
</g>
<path style="fill:none;stroke-width:2;stroke-linecap:butt;stroke-linejoin:miter;stroke:rgb(38.039216%,50.588235%,100%);stroke-opacity:1;stroke-miterlimit:10;" d="M 60 0 L 10 0 " transform="matrix(1,0,0,1,195,3)"/>
<g clip-path="url(#clip3)" clip-rule="nonzero">
<path style="fill:none;stroke-width:2;stroke-linecap:butt;stroke-linejoin:miter;stroke:rgb(38.039216%,50.588235%,100%);stroke-opacity:1;stroke-miterlimit:10;" d="M 0.015625 9.425781 C 0.320312 4.132812 4.699219 0 10 0 " transform="matrix(1,0,0,1,195,3)"/>
</g>
</g>
</svg>
