<?xml version="1.0" encoding="UTF-8"?>
<?xml-stylesheet href="../ldoc.css" type="text/css"?>
<svg xmlns="http://www.w3.org/2000/svg" xmlns:xlink="http://www.w3.org/1999/xlink" width="288pt" height="76pt" viewBox="0 0 288 76" version="1.1">
<defs>
<clipPath id="clip1">
  <path d="M 96 4 L 172 4 L 172 72 L 96 72 Z M 96 4 "/>
</clipPath>
<clipPath id="clip2">
  <path d="M 192 4 L 268 4 L 268 72 L 192 72 Z M 192 4 "/>
</clipPath>
</defs>
<g id="surface2">
<path style="fill-rule:nonzero;fill:rgb(38.039216%,50.588235%,100%);fill-opacity:0.5;stroke-width:2;stroke-linecap:butt;stroke-linejoin:miter;stroke:rgb(38.039216%,50.588235%,100%);stroke-opacity:1;stroke-miterlimit:10;" d="M 0 35 L 35 0 L 70 0 L 70 70 L 35 70 Z M 0 35 " transform="matrix(1,0,0,1,3,3)"/>
<path style=" stroke:none;fill-rule:nonzero;fill:rgb(38.039216%,50.588235%,100%);fill-opacity:0.5;" d="M 99 38 L 109 33 L 169 33 L 169 43 L 109 43 Z M 99 38 "/>
<g clip-path="url(#clip1)" clip-rule="nonzero">
<path style="fill:none;stroke-width:2;stroke-linecap:butt;stroke-linejoin:miter;stroke:rgb(38.039216%,50.588235%,100%);stroke-opacity:1;stroke-miterlimit:10;" d="M 0 35 L 10 30 L 70 30 L 70 40 L 10 40 Z M 0 35 " transform="matrix(1,0,0,1,99,3)"/>
</g>
<path style=" stroke:none;fill-rule:nonzero;fill:rgb(38.039216%,50.588235%,100%);fill-opacity:0.5;" d="M 195 33 L 205 38 L 195 43 L 265 43 L 265 33 Z M 195 33 "/>
<g clip-path="url(#clip2)" clip-rule="nonzero">
<path style="fill:none;stroke-width:2;stroke-linecap:butt;stroke-linejoin:miter;stroke:rgb(38.039216%,50.588235%,100%);stroke-opacity:1;stroke-miterlimit:10;" d="M 0 30 L 10 35 L 0 40 L 70 40 L 70 30 Z M 0 30 " transform="matrix(1,0,0,1,195,3)"/>
</g>
</g>
</svg>
