<?xml version="1.0" encoding="UTF-8"?>
<?xml-stylesheet href="../ldoc.css" type="text/css"?>
<svg xmlns="http://www.w3.org/2000/svg" xmlns:xlink="http://www.w3.org/1999/xlink" width="110pt" height="60pt" viewBox="0 0 110 60" version="1.1">
<defs>
<clipPath id="clip1">
  <path d="M 0 0 L 48 0 L 48 50 L 0 50 Z M 0 0 "/>
</clipPath>
</defs>
<g id="surface2">
<path style=" stroke:none;fill-rule:nonzero;fill:rgb(38.039216%,50.588235%,100%);fill-opacity:1;" d="M 0 24.5 C 0 23.671875 0.671875 23 1.5 23 L 108.5 23 C 109.328125 23 110 23.671875 110 24.5 C 110 25.328125 109.328125 26 108.5 26 L 1.5 26 C 0.671875 26 0 25.328125 0 24.5 Z M 0 24.5 "/>
<path style=" stroke:none;fill-rule:nonzero;fill:rgb(38.039216%,50.588235%,100%);fill-opacity:0.490196;" d="M 33 25 C 33 31.902344 27.402344 37.5 20.5 37.5 C 13.597656 37.5 8 31.902344 8 25 C 8 18.097656 13.597656 12.5 20.5 12.5 C 27.402344 12.5 33 18.097656 33 25 Z M 33 25 "/>
<g clip-path="url(#clip1)" clip-rule="nonzero">
<path style="fill:none;stroke-width:1;stroke-linecap:butt;stroke-linejoin:miter;stroke:rgb(38.039216%,50.588235%,100%);stroke-opacity:1;stroke-miterlimit:10;" d="M 25 25 C 25 31.902344 19.402344 37.5 12.5 37.5 C 5.597656 37.5 0 31.902344 0 25 C 0 18.097656 5.597656 12.5 12.5 12.5 C 19.402344 12.5 25 18.097656 25 25 Z M 25 25 " transform="matrix(1,0,0,1,8,0)"/>
</g>
</g>
</svg>
