<?xml version="1.0" encoding="UTF-8"?>
<?xml-stylesheet href="../ldoc.css" type="text/css"?>
<svg xmlns="http://www.w3.org/2000/svg" xmlns:xlink="http://www.w3.org/1999/xlink" width="110pt" height="110pt" viewBox="0 0 110 110" version="1.1">
<defs>
<clipPath id="clip1">
  <path d="M 0 0 L 110 0 L 110 21 L 0 21 Z M 0 0 "/>
</clipPath>
<clipPath id="clip2">
  <path d="M 0 26 L 110 26 L 110 48 L 0 48 Z M 0 26 "/>
</clipPath>
<clipPath id="clip3">
  <path d="M 0 53 L 110 53 L 110 74 L 0 74 Z M 0 53 "/>
</clipPath>
<clipPath id="clip4">
  <path d="M 0 79 L 110 79 L 110 100 L 0 100 Z M 0 79 "/>
</clipPath>
</defs>
<g id="surface2">
<g clip-path="url(#clip1)" clip-rule="nonzero">
<rect x="0" y="0" width="110" height="110" style="fill:rgb(38.039216%,50.588235%,100%);fill-opacity:0.490196;stroke:none;"/>
</g>
<path style=" stroke:none;fill-rule:nonzero;fill:rgb(100%,0%,0%);fill-opacity:1;" d="M 2 16.070312 L 3 16.070312 L 3 19 L 2 19 Z M 3 19 L 4 19 Z M 4 19 L 5 19 Z M 5 18.414062 L 6 18.414062 L 6 19 L 5 19 Z M 6 14.898438 L 7 14.898438 L 7 19 L 6 19 Z M 7 9.035156 L 8 9.035156 L 8 19 L 7 19 Z M 8 6.101562 L 9 6.101562 L 9 19 L 8 19 Z M 9 19 L 10 19 Z M 10 19 L 11 19 Z M 11 18.414062 L 12 18.414062 L 12 19 L 11 19 Z M 12 17.242188 L 13 17.242188 L 13 19 L 12 19 Z M 13 19 L 14 19 Z M 14 19 L 15 19 Z M 15 10.792969 L 16 10.792969 L 16 19 L 15 19 Z M 16 9.035156 L 17 9.035156 L 17 19 L 16 19 Z M 17 9.035156 L 18 9.035156 L 18 19 L 17 19 Z M 18 2 L 19 2 L 19 19 L 18 19 Z M 19 7.863281 L 20 7.863281 L 20 19 L 19 19 Z M 20 10.207031 L 21 10.207031 L 21 19 L 20 19 Z M 21 12.550781 L 22 12.550781 L 22 19 L 21 19 Z M 22 16.65625 L 23 16.65625 L 23 19 L 22 19 Z M 23 15.484375 L 24 15.484375 L 24 19 L 23 19 Z M 24 16.070312 L 25 16.070312 L 25 19 L 24 19 Z M 25 17.242188 L 26 17.242188 L 26 19 L 25 19 Z M 26 16.070312 L 27 16.070312 L 27 19 L 26 19 Z M 27 19 L 28 19 Z M 28 19 L 29 19 Z M 29 18.414062 L 30 18.414062 L 30 19 L 29 19 Z M 30 14.898438 L 31 14.898438 L 31 19 L 30 19 Z M 31 9.035156 L 32 9.035156 L 32 19 L 31 19 Z M 32 6.101562 L 33 6.101562 L 33 19 L 32 19 Z M 33 19 L 34 19 Z M 34 19 L 35 19 Z M 35 18.414062 L 36 18.414062 L 36 19 L 35 19 Z M 36 17.242188 L 37 17.242188 L 37 19 L 36 19 Z M 37 19 L 38 19 Z M 38 19 L 39 19 Z M 39 10.792969 L 40 10.792969 L 40 19 L 39 19 Z M 40 9.035156 L 41 9.035156 L 41 19 L 40 19 Z M 41 9.035156 L 42 9.035156 L 42 19 L 41 19 Z M 42 2 L 43 2 L 43 19 L 42 19 Z M 43 7.863281 L 44 7.863281 L 44 19 L 43 19 Z M 44 10.207031 L 45 10.207031 L 45 19 L 44 19 Z M 45 12.550781 L 46 12.550781 L 46 19 L 45 19 Z M 46 16.65625 L 47 16.65625 L 47 19 L 46 19 Z M 47 15.484375 L 48 15.484375 L 48 19 L 47 19 Z M 48 16.070312 L 49 16.070312 L 49 19 L 48 19 Z M 49 17.242188 L 50 17.242188 L 50 19 L 49 19 Z M 50 16.070312 L 51 16.070312 L 51 19 L 50 19 Z M 51 19 L 52 19 Z M 52 19 L 53 19 Z M 53 18.414062 L 54 18.414062 L 54 19 L 53 19 Z M 54 14.898438 L 55 14.898438 L 55 19 L 54 19 Z M 55 9.035156 L 56 9.035156 L 56 19 L 55 19 Z M 56 6.101562 L 57 6.101562 L 57 19 L 56 19 Z M 57 19 L 58 19 Z M 58 19 L 59 19 Z M 59 18.414062 L 60 18.414062 L 60 19 L 59 19 Z M 60 17.242188 L 61 17.242188 L 61 19 L 60 19 Z M 61 19 L 62 19 Z M 62 19 L 63 19 Z M 63 10.792969 L 64 10.792969 L 64 19 L 63 19 Z M 64 9.035156 L 65 9.035156 L 65 19 L 64 19 Z M 65 9.035156 L 66 9.035156 L 66 19 L 65 19 Z M 66 2 L 67 2 L 67 19 L 66 19 Z M 67 7.863281 L 68 7.863281 L 68 19 L 67 19 Z M 68 10.207031 L 69 10.207031 L 69 19 L 68 19 Z M 69 12.550781 L 70 12.550781 L 70 19 L 69 19 Z M 70 16.65625 L 71 16.65625 L 71 19 L 70 19 Z M 71 15.484375 L 72 15.484375 L 72 19 L 71 19 Z M 72 16.070312 L 73 16.070312 L 73 19 L 72 19 Z M 73 17.242188 L 74 17.242188 L 74 19 L 73 19 Z M 74 16.070312 L 75 16.070312 L 75 19 L 74 19 Z M 75 19 L 76 19 Z M 76 19 L 77 19 Z M 77 18.414062 L 78 18.414062 L 78 19 L 77 19 Z M 78 14.898438 L 79 14.898438 L 79 19 L 78 19 Z M 79 9.035156 L 80 9.035156 L 80 19 L 79 19 Z M 80 6.101562 L 81 6.101562 L 81 19 L 80 19 Z M 81 19 L 82 19 Z M 82 19 L 83 19 Z M 83 18.414062 L 84 18.414062 L 84 19 L 83 19 Z M 84 17.242188 L 85 17.242188 L 85 19 L 84 19 Z M 85 19 L 86 19 Z M 86 19 L 87 19 Z M 87 10.792969 L 88 10.792969 L 88 19 L 87 19 Z M 88 9.035156 L 89 9.035156 L 89 19 L 88 19 Z M 89 9.035156 L 90 9.035156 L 90 19 L 89 19 Z M 90 2 L 91 2 L 91 19 L 90 19 Z M 91 7.863281 L 92 7.863281 L 92 19 L 91 19 Z M 92 10.207031 L 93 10.207031 L 93 19 L 92 19 Z M 93 12.550781 L 94 12.550781 L 94 19 L 93 19 Z M 94 16.65625 L 95 16.65625 L 95 19 L 94 19 Z M 95 15.484375 L 96 15.484375 L 96 19 L 95 19 Z M 96 16.070312 L 97 16.070312 L 97 19 L 96 19 Z M 97 17.242188 L 98 17.242188 L 98 19 L 97 19 Z M 98 16.070312 L 99 16.070312 L 99 19 L 98 19 Z M 99 19 L 100 19 Z M 100 19 L 101 19 Z M 101 18.414062 L 102 18.414062 L 102 19 L 101 19 Z M 102 14.898438 L 103 14.898438 L 103 19 L 102 19 Z M 103 9.035156 L 104 9.035156 L 104 19 L 103 19 Z M 104 6.101562 L 105 6.101562 L 105 19 L 104 19 Z M 105 19 L 106 19 Z M 106 19 L 107 19 Z M 107 18.414062 L 108 18.414062 L 108 19 L 107 19 Z M 107 18.414062 "/>
<path style="fill:none;stroke-width:2;stroke-linecap:butt;stroke-linejoin:miter;stroke:rgb(100%,100%,100%);stroke-opacity:1;stroke-miterlimit:10;" d="M 1 1 L 109 1 L 109 20 L 1 20 Z M 1 1 "/>
<g clip-path="url(#clip2)" clip-rule="nonzero">
<rect x="0" y="0" width="110" height="110" style="fill:rgb(38.039216%,50.588235%,100%);fill-opacity:0.490196;stroke:none;"/>
</g>
<path style=" stroke:none;fill-rule:nonzero;fill:rgb(0%,100%,0%);fill-opacity:1;" d="M 2 42.898438 L 3 42.898438 L 3 46 L 2 46 Z M 3 46 L 4 46 Z M 4 46 L 5 46 Z M 5 45.378906 L 6 45.378906 L 6 46 L 5 46 Z M 6 41.65625 L 7 41.65625 L 7 46 L 6 46 Z M 7 35.449219 L 8 35.449219 L 8 46 L 7 46 Z M 8 32.34375 L 9 32.34375 L 9 46 L 8 46 Z M 9 46 L 10 46 Z M 10 46 L 11 46 Z M 11 45.378906 L 12 45.378906 L 12 46 L 11 46 Z M 12 44.136719 L 13 44.136719 L 13 46 L 12 46 Z M 13 46 L 14 46 Z M 14 46 L 15 46 Z M 15 37.308594 L 16 37.308594 L 16 46 L 15 46 Z M 16 35.449219 L 17 35.449219 L 17 46 L 16 46 Z M 17 35.449219 L 18 35.449219 L 18 46 L 17 46 Z M 18 28 L 19 28 L 19 46 L 18 46 Z M 19 34.207031 L 20 34.207031 L 20 46 L 19 46 Z M 20 36.691406 L 21 36.691406 L 21 46 L 20 46 Z M 21 39.171875 L 22 39.171875 L 22 46 L 21 46 Z M 22 43.515625 L 23 43.515625 L 23 46 L 22 46 Z M 23 42.277344 L 24 42.277344 L 24 46 L 23 46 Z M 24 42.898438 L 25 42.898438 L 25 46 L 24 46 Z M 25 44.136719 L 26 44.136719 L 26 46 L 25 46 Z M 26 42.898438 L 27 42.898438 L 27 46 L 26 46 Z M 27 46 L 28 46 Z M 28 46 L 29 46 Z M 29 45.378906 L 30 45.378906 L 30 46 L 29 46 Z M 30 41.65625 L 31 41.65625 L 31 46 L 30 46 Z M 31 35.449219 L 32 35.449219 L 32 46 L 31 46 Z M 32 32.34375 L 33 32.34375 L 33 46 L 32 46 Z M 33 46 L 34 46 Z M 34 46 L 35 46 Z M 35 45.378906 L 36 45.378906 L 36 46 L 35 46 Z M 36 44.136719 L 37 44.136719 L 37 46 L 36 46 Z M 37 46 L 38 46 Z M 38 46 L 39 46 Z M 39 37.308594 L 40 37.308594 L 40 46 L 39 46 Z M 40 35.449219 L 41 35.449219 L 41 46 L 40 46 Z M 41 35.449219 L 42 35.449219 L 42 46 L 41 46 Z M 42 28 L 43 28 L 43 46 L 42 46 Z M 43 34.207031 L 44 34.207031 L 44 46 L 43 46 Z M 44 36.691406 L 45 36.691406 L 45 46 L 44 46 Z M 45 39.171875 L 46 39.171875 L 46 46 L 45 46 Z M 46 43.515625 L 47 43.515625 L 47 46 L 46 46 Z M 47 42.277344 L 48 42.277344 L 48 46 L 47 46 Z M 48 42.898438 L 49 42.898438 L 49 46 L 48 46 Z M 49 44.136719 L 50 44.136719 L 50 46 L 49 46 Z M 50 42.898438 L 51 42.898438 L 51 46 L 50 46 Z M 51 46 L 52 46 Z M 52 46 L 53 46 Z M 53 45.378906 L 54 45.378906 L 54 46 L 53 46 Z M 54 41.65625 L 55 41.65625 L 55 46 L 54 46 Z M 55 35.449219 L 56 35.449219 L 56 46 L 55 46 Z M 56 32.34375 L 57 32.34375 L 57 46 L 56 46 Z M 57 46 L 58 46 Z M 58 46 L 59 46 Z M 59 45.378906 L 60 45.378906 L 60 46 L 59 46 Z M 60 44.136719 L 61 44.136719 L 61 46 L 60 46 Z M 61 46 L 62 46 Z M 62 46 L 63 46 Z M 63 37.308594 L 64 37.308594 L 64 46 L 63 46 Z M 64 35.449219 L 65 35.449219 L 65 46 L 64 46 Z M 65 35.449219 L 66 35.449219 L 66 46 L 65 46 Z M 66 28 L 67 28 L 67 46 L 66 46 Z M 67 34.207031 L 68 34.207031 L 68 46 L 67 46 Z M 68 36.691406 L 69 36.691406 L 69 46 L 68 46 Z M 69 39.171875 L 70 39.171875 L 70 46 L 69 46 Z M 70 43.515625 L 71 43.515625 L 71 46 L 70 46 Z M 71 42.277344 L 72 42.277344 L 72 46 L 71 46 Z M 72 42.898438 L 73 42.898438 L 73 46 L 72 46 Z M 73 44.136719 L 74 44.136719 L 74 46 L 73 46 Z M 74 42.898438 L 75 42.898438 L 75 46 L 74 46 Z M 75 46 L 76 46 Z M 76 46 L 77 46 Z M 77 45.378906 L 78 45.378906 L 78 46 L 77 46 Z M 78 41.65625 L 79 41.65625 L 79 46 L 78 46 Z M 79 35.449219 L 80 35.449219 L 80 46 L 79 46 Z M 80 32.34375 L 81 32.34375 L 81 46 L 80 46 Z M 81 46 L 82 46 Z M 82 46 L 83 46 Z M 83 45.378906 L 84 45.378906 L 84 46 L 83 46 Z M 84 44.136719 L 85 44.136719 L 85 46 L 84 46 Z M 85 46 L 86 46 Z M 86 46 L 87 46 Z M 87 37.308594 L 88 37.308594 L 88 46 L 87 46 Z M 88 35.449219 L 89 35.449219 L 89 46 L 88 46 Z M 89 35.449219 L 90 35.449219 L 90 46 L 89 46 Z M 90 28 L 91 28 L 91 46 L 90 46 Z M 91 34.207031 L 92 34.207031 L 92 46 L 91 46 Z M 92 36.691406 L 93 36.691406 L 93 46 L 92 46 Z M 93 39.171875 L 94 39.171875 L 94 46 L 93 46 Z M 94 43.515625 L 95 43.515625 L 95 46 L 94 46 Z M 95 42.277344 L 96 42.277344 L 96 46 L 95 46 Z M 96 42.898438 L 97 42.898438 L 97 46 L 96 46 Z M 97 44.136719 L 98 44.136719 L 98 46 L 97 46 Z M 98 42.898438 L 99 42.898438 L 99 46 L 98 46 Z M 99 46 L 100 46 Z M 100 46 L 101 46 Z M 101 45.378906 L 102 45.378906 L 102 46 L 101 46 Z M 102 41.65625 L 103 41.65625 L 103 46 L 102 46 Z M 103 35.449219 L 104 35.449219 L 104 46 L 103 46 Z M 104 32.34375 L 105 32.34375 L 105 46 L 104 46 Z M 105 46 L 106 46 Z M 106 46 L 107 46 Z M 107 45.378906 L 108 45.378906 L 108 46 L 107 46 Z M 107 45.378906 "/>
<path style="fill:none;stroke-width:2;stroke-linecap:butt;stroke-linejoin:miter;stroke:rgb(100%,100%,100%);stroke-opacity:1;stroke-miterlimit:10;" d="M 1 1 L 109 1 L 109 21 L 1 21 Z M 1 1 " transform="matrix(1,0,0,1,0,26)"/>
<g clip-path="url(#clip3)" clip-rule="nonzero">
<rect x="0" y="0" width="110" height="110" style="fill:rgb(38.039216%,50.588235%,100%);fill-opacity:0.490196;stroke:none;"/>
</g>
<path style=" stroke:none;fill-rule:nonzero;fill:rgb(0%,0%,100%);fill-opacity:1;" d="M 2 69.070312 L 3 69.070312 L 3 72 L 2 72 Z M 3 72 L 4 72 Z M 4 72 L 5 72 Z M 5 71.414062 L 6 71.414062 L 6 72 L 5 72 Z M 6 67.898438 L 7 67.898438 L 7 72 L 6 72 Z M 7 62.035156 L 8 62.035156 L 8 72 L 7 72 Z M 8 59.101562 L 9 59.101562 L 9 72 L 8 72 Z M 9 72 L 10 72 Z M 10 72 L 11 72 Z M 11 71.414062 L 12 71.414062 L 12 72 L 11 72 Z M 12 70.242188 L 13 70.242188 L 13 72 L 12 72 Z M 13 72 L 14 72 Z M 14 72 L 15 72 Z M 15 63.792969 L 16 63.792969 L 16 72 L 15 72 Z M 16 62.035156 L 17 62.035156 L 17 72 L 16 72 Z M 17 62.035156 L 18 62.035156 L 18 72 L 17 72 Z M 18 55 L 19 55 L 19 72 L 18 72 Z M 19 60.863281 L 20 60.863281 L 20 72 L 19 72 Z M 20 63.207031 L 21 63.207031 L 21 72 L 20 72 Z M 21 65.550781 L 22 65.550781 L 22 72 L 21 72 Z M 22 69.65625 L 23 69.65625 L 23 72 L 22 72 Z M 23 68.484375 L 24 68.484375 L 24 72 L 23 72 Z M 24 69.070312 L 25 69.070312 L 25 72 L 24 72 Z M 25 70.242188 L 26 70.242188 L 26 72 L 25 72 Z M 26 69.070312 L 27 69.070312 L 27 72 L 26 72 Z M 27 72 L 28 72 Z M 28 72 L 29 72 Z M 29 71.414062 L 30 71.414062 L 30 72 L 29 72 Z M 30 67.898438 L 31 67.898438 L 31 72 L 30 72 Z M 31 62.035156 L 32 62.035156 L 32 72 L 31 72 Z M 32 59.101562 L 33 59.101562 L 33 72 L 32 72 Z M 33 72 L 34 72 Z M 34 72 L 35 72 Z M 35 71.414062 L 36 71.414062 L 36 72 L 35 72 Z M 36 70.242188 L 37 70.242188 L 37 72 L 36 72 Z M 37 72 L 38 72 Z M 38 72 L 39 72 Z M 39 63.792969 L 40 63.792969 L 40 72 L 39 72 Z M 40 62.035156 L 41 62.035156 L 41 72 L 40 72 Z M 41 62.035156 L 42 62.035156 L 42 72 L 41 72 Z M 42 55 L 43 55 L 43 72 L 42 72 Z M 43 60.863281 L 44 60.863281 L 44 72 L 43 72 Z M 44 63.207031 L 45 63.207031 L 45 72 L 44 72 Z M 45 65.550781 L 46 65.550781 L 46 72 L 45 72 Z M 46 69.65625 L 47 69.65625 L 47 72 L 46 72 Z M 47 68.484375 L 48 68.484375 L 48 72 L 47 72 Z M 48 69.070312 L 49 69.070312 L 49 72 L 48 72 Z M 49 70.242188 L 50 70.242188 L 50 72 L 49 72 Z M 50 69.070312 L 51 69.070312 L 51 72 L 50 72 Z M 51 72 L 52 72 Z M 52 72 L 53 72 Z M 53 71.414062 L 54 71.414062 L 54 72 L 53 72 Z M 54 67.898438 L 55 67.898438 L 55 72 L 54 72 Z M 55 62.035156 L 56 62.035156 L 56 72 L 55 72 Z M 56 59.101562 L 57 59.101562 L 57 72 L 56 72 Z M 57 72 L 58 72 Z M 58 72 L 59 72 Z M 59 71.414062 L 60 71.414062 L 60 72 L 59 72 Z M 60 70.242188 L 61 70.242188 L 61 72 L 60 72 Z M 61 72 L 62 72 Z M 62 72 L 63 72 Z M 63 63.792969 L 64 63.792969 L 64 72 L 63 72 Z M 64 62.035156 L 65 62.035156 L 65 72 L 64 72 Z M 65 62.035156 L 66 62.035156 L 66 72 L 65 72 Z M 66 55 L 67 55 L 67 72 L 66 72 Z M 67 60.863281 L 68 60.863281 L 68 72 L 67 72 Z M 68 63.207031 L 69 63.207031 L 69 72 L 68 72 Z M 69 65.550781 L 70 65.550781 L 70 72 L 69 72 Z M 70 69.65625 L 71 69.65625 L 71 72 L 70 72 Z M 71 68.484375 L 72 68.484375 L 72 72 L 71 72 Z M 72 69.070312 L 73 69.070312 L 73 72 L 72 72 Z M 73 70.242188 L 74 70.242188 L 74 72 L 73 72 Z M 74 69.070312 L 75 69.070312 L 75 72 L 74 72 Z M 75 72 L 76 72 Z M 76 72 L 77 72 Z M 77 71.414062 L 78 71.414062 L 78 72 L 77 72 Z M 78 67.898438 L 79 67.898438 L 79 72 L 78 72 Z M 79 62.035156 L 80 62.035156 L 80 72 L 79 72 Z M 80 59.101562 L 81 59.101562 L 81 72 L 80 72 Z M 81 72 L 82 72 Z M 82 72 L 83 72 Z M 83 71.414062 L 84 71.414062 L 84 72 L 83 72 Z M 84 70.242188 L 85 70.242188 L 85 72 L 84 72 Z M 85 72 L 86 72 Z M 86 72 L 87 72 Z M 87 63.792969 L 88 63.792969 L 88 72 L 87 72 Z M 88 62.035156 L 89 62.035156 L 89 72 L 88 72 Z M 89 62.035156 L 90 62.035156 L 90 72 L 89 72 Z M 90 55 L 91 55 L 91 72 L 90 72 Z M 91 60.863281 L 92 60.863281 L 92 72 L 91 72 Z M 92 63.207031 L 93 63.207031 L 93 72 L 92 72 Z M 93 65.550781 L 94 65.550781 L 94 72 L 93 72 Z M 94 69.65625 L 95 69.65625 L 95 72 L 94 72 Z M 95 68.484375 L 96 68.484375 L 96 72 L 95 72 Z M 96 69.070312 L 97 69.070312 L 97 72 L 96 72 Z M 97 70.242188 L 98 70.242188 L 98 72 L 97 72 Z M 98 69.070312 L 99 69.070312 L 99 72 L 98 72 Z M 99 72 L 100 72 Z M 100 72 L 101 72 Z M 101 71.414062 L 102 71.414062 L 102 72 L 101 72 Z M 102 67.898438 L 103 67.898438 L 103 72 L 102 72 Z M 103 62.035156 L 104 62.035156 L 104 72 L 103 72 Z M 104 59.101562 L 105 59.101562 L 105 72 L 104 72 Z M 105 72 L 106 72 Z M 106 72 L 107 72 Z M 107 71.414062 L 108 71.414062 L 108 72 L 107 72 Z M 107 71.414062 "/>
<path style="fill:none;stroke-width:2;stroke-linecap:butt;stroke-linejoin:miter;stroke:rgb(100%,100%,100%);stroke-opacity:1;stroke-miterlimit:10;" d="M 1 1 L 109 1 L 109 20 L 1 20 Z M 1 1 " transform="matrix(1,0,0,1,0,53)"/>
<g clip-path="url(#clip4)" clip-rule="nonzero">
<rect x="0" y="0" width="110" height="110" style="fill:rgb(38.039216%,50.588235%,100%);fill-opacity:0.490196;stroke:none;"/>
</g>
<path style=" stroke:none;fill-rule:nonzero;fill:rgb(100%,0%,100%);fill-opacity:1;" d="M 2 95.070312 L 3 95.070312 L 3 98 L 2 98 Z M 3 98 L 4 98 Z M 4 98 L 5 98 Z M 5 97.414062 L 6 97.414062 L 6 98 L 5 98 Z M 6 93.898438 L 7 93.898438 L 7 98 L 6 98 Z M 7 88.035156 L 8 88.035156 L 8 98 L 7 98 Z M 8 85.101562 L 9 85.101562 L 9 98 L 8 98 Z M 9 98 L 10 98 Z M 10 98 L 11 98 Z M 11 97.414062 L 12 97.414062 L 12 98 L 11 98 Z M 12 96.242188 L 13 96.242188 L 13 98 L 12 98 Z M 13 98 L 14 98 Z M 14 98 L 15 98 Z M 15 89.792969 L 16 89.792969 L 16 98 L 15 98 Z M 16 88.035156 L 17 88.035156 L 17 98 L 16 98 Z M 17 88.035156 L 18 88.035156 L 18 98 L 17 98 Z M 18 81 L 19 81 L 19 98 L 18 98 Z M 19 86.863281 L 20 86.863281 L 20 98 L 19 98 Z M 20 89.207031 L 21 89.207031 L 21 98 L 20 98 Z M 21 91.550781 L 22 91.550781 L 22 98 L 21 98 Z M 22 95.65625 L 23 95.65625 L 23 98 L 22 98 Z M 23 94.484375 L 24 94.484375 L 24 98 L 23 98 Z M 24 95.070312 L 25 95.070312 L 25 98 L 24 98 Z M 25 96.242188 L 26 96.242188 L 26 98 L 25 98 Z M 26 95.070312 L 27 95.070312 L 27 98 L 26 98 Z M 27 98 L 28 98 Z M 28 98 L 29 98 Z M 29 97.414062 L 30 97.414062 L 30 98 L 29 98 Z M 30 93.898438 L 31 93.898438 L 31 98 L 30 98 Z M 31 88.035156 L 32 88.035156 L 32 98 L 31 98 Z M 32 85.101562 L 33 85.101562 L 33 98 L 32 98 Z M 33 98 L 34 98 Z M 34 98 L 35 98 Z M 35 97.414062 L 36 97.414062 L 36 98 L 35 98 Z M 36 96.242188 L 37 96.242188 L 37 98 L 36 98 Z M 37 98 L 38 98 Z M 38 98 L 39 98 Z M 39 89.792969 L 40 89.792969 L 40 98 L 39 98 Z M 40 88.035156 L 41 88.035156 L 41 98 L 40 98 Z M 41 88.035156 L 42 88.035156 L 42 98 L 41 98 Z M 42 81 L 43 81 L 43 98 L 42 98 Z M 43 86.863281 L 44 86.863281 L 44 98 L 43 98 Z M 44 89.207031 L 45 89.207031 L 45 98 L 44 98 Z M 45 91.550781 L 46 91.550781 L 46 98 L 45 98 Z M 46 95.65625 L 47 95.65625 L 47 98 L 46 98 Z M 47 94.484375 L 48 94.484375 L 48 98 L 47 98 Z M 48 95.070312 L 49 95.070312 L 49 98 L 48 98 Z M 49 96.242188 L 50 96.242188 L 50 98 L 49 98 Z M 50 95.070312 L 51 95.070312 L 51 98 L 50 98 Z M 51 98 L 52 98 Z M 52 98 L 53 98 Z M 53 97.414062 L 54 97.414062 L 54 98 L 53 98 Z M 54 93.898438 L 55 93.898438 L 55 98 L 54 98 Z M 55 88.035156 L 56 88.035156 L 56 98 L 55 98 Z M 56 85.101562 L 57 85.101562 L 57 98 L 56 98 Z M 57 98 L 58 98 Z M 58 98 L 59 98 Z M 59 97.414062 L 60 97.414062 L 60 98 L 59 98 Z M 60 96.242188 L 61 96.242188 L 61 98 L 60 98 Z M 61 98 L 62 98 Z M 62 98 L 63 98 Z M 63 89.792969 L 64 89.792969 L 64 98 L 63 98 Z M 64 88.035156 L 65 88.035156 L 65 98 L 64 98 Z M 65 88.035156 L 66 88.035156 L 66 98 L 65 98 Z M 66 81 L 67 81 L 67 98 L 66 98 Z M 67 86.863281 L 68 86.863281 L 68 98 L 67 98 Z M 68 89.207031 L 69 89.207031 L 69 98 L 68 98 Z M 69 91.550781 L 70 91.550781 L 70 98 L 69 98 Z M 70 95.65625 L 71 95.65625 L 71 98 L 70 98 Z M 71 94.484375 L 72 94.484375 L 72 98 L 71 98 Z M 72 95.070312 L 73 95.070312 L 73 98 L 72 98 Z M 73 96.242188 L 74 96.242188 L 74 98 L 73 98 Z M 74 95.070312 L 75 95.070312 L 75 98 L 74 98 Z M 75 98 L 76 98 Z M 76 98 L 77 98 Z M 77 97.414062 L 78 97.414062 L 78 98 L 77 98 Z M 78 93.898438 L 79 93.898438 L 79 98 L 78 98 Z M 79 88.035156 L 80 88.035156 L 80 98 L 79 98 Z M 80 85.101562 L 81 85.101562 L 81 98 L 80 98 Z M 81 98 L 82 98 Z M 82 98 L 83 98 Z M 83 97.414062 L 84 97.414062 L 84 98 L 83 98 Z M 84 96.242188 L 85 96.242188 L 85 98 L 84 98 Z M 85 98 L 86 98 Z M 86 98 L 87 98 Z M 87 89.792969 L 88 89.792969 L 88 98 L 87 98 Z M 88 88.035156 L 89 88.035156 L 89 98 L 88 98 Z M 89 88.035156 L 90 88.035156 L 90 98 L 89 98 Z M 90 81 L 91 81 L 91 98 L 90 98 Z M 91 86.863281 L 92 86.863281 L 92 98 L 91 98 Z M 92 89.207031 L 93 89.207031 L 93 98 L 92 98 Z M 93 91.550781 L 94 91.550781 L 94 98 L 93 98 Z M 94 95.65625 L 95 95.65625 L 95 98 L 94 98 Z M 95 94.484375 L 96 94.484375 L 96 98 L 95 98 Z M 96 95.070312 L 97 95.070312 L 97 98 L 96 98 Z M 97 96.242188 L 98 96.242188 L 98 98 L 97 98 Z M 98 95.070312 L 99 95.070312 L 99 98 L 98 98 Z M 99 98 L 100 98 Z M 100 98 L 101 98 Z M 101 97.414062 L 102 97.414062 L 102 98 L 101 98 Z M 102 93.898438 L 103 93.898438 L 103 98 L 102 98 Z M 103 88.035156 L 104 88.035156 L 104 98 L 103 98 Z M 104 85.101562 L 105 85.101562 L 105 98 L 104 98 Z M 105 98 L 106 98 Z M 106 98 L 107 98 Z M 107 97.414062 L 108 97.414062 L 108 98 L 107 98 Z M 107 97.414062 "/>
<path style="fill:none;stroke-width:2;stroke-linecap:butt;stroke-linejoin:miter;stroke:rgb(100%,100%,100%);stroke-opacity:1;stroke-miterlimit:10;" d="M 1 1 L 109 1 L 109 20 L 1 20 Z M 1 1 " transform="matrix(1,0,0,1,0,79)"/>
</g>
</svg>
