<?xml version="1.0" encoding="UTF-8"?>
<?xml-stylesheet href="../ldoc.css" type="text/css"?>
<svg xmlns="http://www.w3.org/2000/svg" xmlns:xlink="http://www.w3.org/1999/xlink" width="288pt" height="76pt" viewBox="0 0 288 76" version="1.1">
<defs>
<clipPath id="clip1">
  <path d="M 96 4 L 172 4 L 172 76 L 96 76 Z M 96 4 "/>
</clipPath>
<clipPath id="clip2">
  <path d="M 192 0 L 268 0 L 268 76 L 192 76 Z M 192 0 "/>
</clipPath>
</defs>
<g id="surface2">
<path style="fill-rule:nonzero;fill:rgb(38.039216%,50.588235%,100%);fill-opacity:0.5;stroke-width:2;stroke-linecap:butt;stroke-linejoin:miter;stroke:rgb(38.039216%,50.588235%,100%);stroke-opacity:1;stroke-miterlimit:10;" d="M 0 15 C 0 12.238281 2.238281 10 5 10 L 30 10 L 40 0 L 50 10 L 65 10 C 67.761719 10 70 12.238281 70 15 L 70 65 C 70 67.761719 67.761719 70 65 70 L 5 70 C 2.238281 70 0 67.761719 0 65 Z M 0 15 " transform="matrix(1,0,0,1,3,3)"/>
<path style=" stroke:none;fill-rule:nonzero;fill:rgb(38.039216%,50.588235%,100%);fill-opacity:0.5;" d="M 169 40.5 C 169 44.640625 165.640625 48 161.5 48 L 139 48 L 134 53 L 129 48 L 106.5 48 C 102.359375 48 99 44.640625 99 40.5 C 99 36.359375 102.359375 33 106.5 33 L 161.5 33 C 165.640625 33 169 36.359375 169 40.5 Z M 169 40.5 "/>
<g clip-path="url(#clip1)" clip-rule="nonzero">
<path style="fill:none;stroke-width:2;stroke-linecap:butt;stroke-linejoin:miter;stroke:rgb(38.039216%,50.588235%,100%);stroke-opacity:1;stroke-miterlimit:10;" d="M 70 37.5 C 70 41.640625 66.640625 45 62.5 45 L 40 45 L 35 50 L 30 45 L 7.5 45 C 3.359375 45 0 41.640625 0 37.5 C 0 33.359375 3.359375 30 7.5 30 L 62.5 30 C 66.640625 30 70 33.359375 70 37.5 Z M 70 37.5 " transform="matrix(1,0,0,1,99,3)"/>
</g>
<path style=" stroke:none;fill-rule:nonzero;fill:rgb(38.039216%,50.588235%,100%);fill-opacity:0.5;" d="M 210 73 C 207.238281 73 205 70.761719 205 68 L 205 33 L 195 23 L 205 13 L 205 8 C 205 5.238281 207.238281 3 210 3 L 260 3 C 262.761719 3 265 5.238281 265 8 L 265 68 C 265 70.761719 262.761719 73 260 73 Z M 210 73 "/>
<g clip-path="url(#clip2)" clip-rule="nonzero">
<path style="fill:none;stroke-width:2;stroke-linecap:butt;stroke-linejoin:miter;stroke:rgb(38.039216%,50.588235%,100%);stroke-opacity:1;stroke-miterlimit:10;" d="M 15 70 C 12.238281 70 10 67.761719 10 65 L 10 30 L 0 20 L 10 10 L 10 5 C 10 2.238281 12.238281 0 15 0 L 65 0 C 67.761719 0 70 2.238281 70 5 L 70 65 C 70 67.761719 67.761719 70 65 70 Z M 15 70 " transform="matrix(1,0,0,1,195,3)"/>
</g>
</g>
</svg>
