<?xml version="1.0" encoding="UTF-8"?>
<?xml-stylesheet href="../ldoc.css" type="text/css"?>
<svg xmlns="http://www.w3.org/2000/svg" xmlns:xlink="http://www.w3.org/1999/xlink" width="110pt" height="110pt" viewBox="0 0 110 110" version="1.1">
<defs>
<clipPath id="clip1">
  <path d="M 0 0 L 110 0 L 110 21 L 0 21 Z M 0 0 "/>
</clipPath>
<clipPath id="clip2">
  <path d="M 0 26 L 110 26 L 110 48 L 0 48 Z M 0 26 "/>
</clipPath>
<clipPath id="clip3">
  <path d="M 0 53 L 110 53 L 110 74 L 0 74 Z M 0 53 "/>
</clipPath>
<clipPath id="clip4">
  <path d="M 0 79 L 110 79 L 110 100 L 0 100 Z M 0 79 "/>
</clipPath>
</defs>
<g id="surface2">
<g clip-path="url(#clip1)" clip-rule="nonzero">
<rect x="0" y="0" width="110" height="110" style="fill:rgb(38.039216%,50.588235%,100%);fill-opacity:0.490196;stroke:none;"/>
</g>
<path style=" stroke:none;fill-rule:nonzero;fill:rgb(66.666667%,0%,100%);fill-opacity:0.490196;" d="M 0 17.878906 C 0 17.601562 0.222656 17.378906 0.5 17.378906 C 0.777344 17.378906 1 17.601562 1 17.878906 L 1 20.5 C 1 20.777344 0.777344 21 0.5 21 C 0.222656 21 0 20.777344 0 20.5 Z M 2 21 L 3 21 Z M 4 21 L 5 21 Z M 6 20.636719 C 6 20.4375 6.160156 20.277344 6.363281 20.277344 L 6.636719 20.277344 C 6.839844 20.277344 7 20.4375 7 20.636719 C 7 20.839844 6.839844 21 6.636719 21 L 6.363281 21 C 6.160156 21 6 20.839844 6 20.636719 Z M 8 16.429688 C 8 16.15625 8.222656 15.929688 8.5 15.929688 C 8.777344 15.929688 9 16.15625 9 16.429688 L 9 20.5 C 9 20.777344 8.777344 21 8.5 21 C 8.222656 21 8 20.777344 8 20.5 Z M 10 9.191406 C 10 8.914062 10.222656 8.691406 10.5 8.691406 C 10.777344 8.691406 11 8.914062 11 9.191406 L 11 20.5 C 11 20.777344 10.777344 21 10.5 21 C 10.222656 21 10 20.777344 10 20.5 Z M 12 5.570312 C 12 5.292969 12.222656 5.070312 12.5 5.070312 C 12.777344 5.070312 13 5.292969 13 5.570312 L 13 20.5 C 13 20.777344 12.777344 21 12.5 21 C 12.222656 21 12 20.777344 12 20.5 Z M 14 21 L 15 21 Z M 16 21 L 17 21 Z M 18 20.636719 C 18 20.4375 18.160156 20.277344 18.363281 20.277344 L 18.636719 20.277344 C 18.839844 20.277344 19 20.4375 19 20.636719 C 19 20.839844 18.839844 21 18.636719 21 L 18.363281 21 C 18.160156 21 18 20.839844 18 20.636719 Z M 20 19.328125 C 20 19.050781 20.222656 18.828125 20.5 18.828125 C 20.777344 18.828125 21 19.050781 21 19.328125 L 21 20.5 C 21 20.777344 20.777344 21 20.5 21 C 20.222656 21 20 20.777344 20 20.5 Z M 22 21 L 23 21 Z M 24 21 L 25 21 Z M 26 11.363281 C 26 11.085938 26.222656 10.863281 26.5 10.863281 C 26.777344 10.863281 27 11.085938 27 11.363281 L 27 20.5 C 27 20.777344 26.777344 21 26.5 21 C 26.222656 21 26 20.777344 26 20.5 Z M 28 9.191406 C 28 8.914062 28.222656 8.691406 28.5 8.691406 C 28.777344 8.691406 29 8.914062 29 9.191406 L 29 20.5 C 29 20.777344 28.777344 21 28.5 21 C 28.222656 21 28 20.777344 28 20.5 Z M 30 9.191406 C 30 8.914062 30.222656 8.691406 30.5 8.691406 C 30.777344 8.691406 31 8.914062 31 9.191406 L 31 20.5 C 31 20.777344 30.777344 21 30.5 21 C 30.222656 21 30 20.777344 30 20.5 Z M 32 0.5 C 32 0.222656 32.222656 0 32.5 0 C 32.777344 0 33 0.222656 33 0.5 L 33 20.5 C 33 20.777344 32.777344 21 32.5 21 C 32.222656 21 32 20.777344 32 20.5 Z M 34 7.742188 C 34 7.464844 34.222656 7.242188 34.5 7.242188 C 34.777344 7.242188 35 7.464844 35 7.742188 L 35 20.5 C 35 20.777344 34.777344 21 34.5 21 C 34.222656 21 34 20.777344 34 20.5 Z M 36 10.636719 C 36 10.363281 36.222656 10.136719 36.5 10.136719 C 36.777344 10.136719 37 10.363281 37 10.636719 L 37 20.5 C 37 20.777344 36.777344 21 36.5 21 C 36.222656 21 36 20.777344 36 20.5 Z M 38 13.535156 C 38 13.257812 38.222656 13.035156 38.5 13.035156 C 38.777344 13.035156 39 13.257812 39 13.535156 L 39 20.5 C 39 20.777344 38.777344 21 38.5 21 C 38.222656 21 38 20.777344 38 20.5 Z M 40 18.601562 C 40 18.328125 40.222656 18.101562 40.5 18.101562 C 40.777344 18.101562 41 18.328125 41 18.601562 L 41 20.5 C 41 20.777344 40.777344 21 40.5 21 C 40.222656 21 40 20.777344 40 20.5 Z M 42 17.15625 C 42 16.878906 42.222656 16.65625 42.5 16.65625 C 42.777344 16.65625 43 16.878906 43 17.15625 L 43 20.5 C 43 20.777344 42.777344 21 42.5 21 C 42.222656 21 42 20.777344 42 20.5 Z M 44 17.878906 C 44 17.601562 44.222656 17.378906 44.5 17.378906 C 44.777344 17.378906 45 17.601562 45 17.878906 L 45 20.5 C 45 20.777344 44.777344 21 44.5 21 C 44.222656 21 44 20.777344 44 20.5 Z M 46 19.328125 C 46 19.050781 46.222656 18.828125 46.5 18.828125 C 46.777344 18.828125 47 19.050781 47 19.328125 L 47 20.5 C 47 20.777344 46.777344 21 46.5 21 C 46.222656 21 46 20.777344 46 20.5 Z M 48 17.878906 C 48 17.601562 48.222656 17.378906 48.5 17.378906 C 48.777344 17.378906 49 17.601562 49 17.878906 L 49 20.5 C 49 20.777344 48.777344 21 48.5 21 C 48.222656 21 48 20.777344 48 20.5 Z M 50 21 L 51 21 Z M 52 21 L 53 21 Z M 54 20.636719 C 54 20.4375 54.160156 20.277344 54.363281 20.277344 L 54.636719 20.277344 C 54.839844 20.277344 55 20.4375 55 20.636719 C 55 20.839844 54.839844 21 54.636719 21 L 54.363281 21 C 54.160156 21 54 20.839844 54 20.636719 Z M 56 16.429688 C 56 16.15625 56.222656 15.929688 56.5 15.929688 C 56.777344 15.929688 57 16.15625 57 16.429688 L 57 20.5 C 57 20.777344 56.777344 21 56.5 21 C 56.222656 21 56 20.777344 56 20.5 Z M 58 9.191406 C 58 8.914062 58.222656 8.691406 58.5 8.691406 C 58.777344 8.691406 59 8.914062 59 9.191406 L 59 20.5 C 59 20.777344 58.777344 21 58.5 21 C 58.222656 21 58 20.777344 58 20.5 Z M 60 5.570312 C 60 5.292969 60.222656 5.070312 60.5 5.070312 C 60.777344 5.070312 61 5.292969 61 5.570312 L 61 20.5 C 61 20.777344 60.777344 21 60.5 21 C 60.222656 21 60 20.777344 60 20.5 Z M 62 21 L 63 21 Z M 64 21 L 65 21 Z M 66 20.636719 C 66 20.4375 66.160156 20.277344 66.363281 20.277344 L 66.636719 20.277344 C 66.839844 20.277344 67 20.4375 67 20.636719 C 67 20.839844 66.839844 21 66.636719 21 L 66.363281 21 C 66.160156 21 66 20.839844 66 20.636719 Z M 68 19.328125 C 68 19.050781 68.222656 18.828125 68.5 18.828125 C 68.777344 18.828125 69 19.050781 69 19.328125 L 69 20.5 C 69 20.777344 68.777344 21 68.5 21 C 68.222656 21 68 20.777344 68 20.5 Z M 70 21 L 71 21 Z M 72 21 L 73 21 Z M 74 11.363281 C 74 11.085938 74.222656 10.863281 74.5 10.863281 C 74.777344 10.863281 75 11.085938 75 11.363281 L 75 20.5 C 75 20.777344 74.777344 21 74.5 21 C 74.222656 21 74 20.777344 74 20.5 Z M 76 9.191406 C 76 8.914062 76.222656 8.691406 76.5 8.691406 C 76.777344 8.691406 77 8.914062 77 9.191406 L 77 20.5 C 77 20.777344 76.777344 21 76.5 21 C 76.222656 21 76 20.777344 76 20.5 Z M 78 9.191406 C 78 8.914062 78.222656 8.691406 78.5 8.691406 C 78.777344 8.691406 79 8.914062 79 9.191406 L 79 20.5 C 79 20.777344 78.777344 21 78.5 21 C 78.222656 21 78 20.777344 78 20.5 Z M 80 0.5 C 80 0.222656 80.222656 0 80.5 0 C 80.777344 0 81 0.222656 81 0.5 L 81 20.5 C 81 20.777344 80.777344 21 80.5 21 C 80.222656 21 80 20.777344 80 20.5 Z M 82 7.742188 C 82 7.464844 82.222656 7.242188 82.5 7.242188 C 82.777344 7.242188 83 7.464844 83 7.742188 L 83 20.5 C 83 20.777344 82.777344 21 82.5 21 C 82.222656 21 82 20.777344 82 20.5 Z M 84 10.636719 C 84 10.363281 84.222656 10.136719 84.5 10.136719 C 84.777344 10.136719 85 10.363281 85 10.636719 L 85 20.5 C 85 20.777344 84.777344 21 84.5 21 C 84.222656 21 84 20.777344 84 20.5 Z M 86 13.535156 C 86 13.257812 86.222656 13.035156 86.5 13.035156 C 86.777344 13.035156 87 13.257812 87 13.535156 L 87 20.5 C 87 20.777344 86.777344 21 86.5 21 C 86.222656 21 86 20.777344 86 20.5 Z M 88 18.601562 C 88 18.328125 88.222656 18.101562 88.5 18.101562 C 88.777344 18.101562 89 18.328125 89 18.601562 L 89 20.5 C 89 20.777344 88.777344 21 88.5 21 C 88.222656 21 88 20.777344 88 20.5 Z M 90 17.15625 C 90 16.878906 90.222656 16.65625 90.5 16.65625 C 90.777344 16.65625 91 16.878906 91 17.15625 L 91 20.5 C 91 20.777344 90.777344 21 90.5 21 C 90.222656 21 90 20.777344 90 20.5 Z M 92 17.878906 C 92 17.601562 92.222656 17.378906 92.5 17.378906 C 92.777344 17.378906 93 17.601562 93 17.878906 L 93 20.5 C 93 20.777344 92.777344 21 92.5 21 C 92.222656 21 92 20.777344 92 20.5 Z M 94 19.328125 C 94 19.050781 94.222656 18.828125 94.5 18.828125 C 94.777344 18.828125 95 19.050781 95 19.328125 L 95 20.5 C 95 20.777344 94.777344 21 94.5 21 C 94.222656 21 94 20.777344 94 20.5 Z M 96 17.878906 C 96 17.601562 96.222656 17.378906 96.5 17.378906 C 96.777344 17.378906 97 17.601562 97 17.878906 L 97 20.5 C 97 20.777344 96.777344 21 96.5 21 C 96.222656 21 96 20.777344 96 20.5 Z M 98 21 L 99 21 Z M 100 21 L 101 21 Z M 102 20.636719 C 102 20.4375 102.160156 20.277344 102.363281 20.277344 L 102.636719 20.277344 C 102.839844 20.277344 103 20.4375 103 20.636719 C 103 20.839844 102.839844 21 102.636719 21 L 102.363281 21 C 102.160156 21 102 20.839844 102 20.636719 Z M 104 16.429688 C 104 16.15625 104.222656 15.929688 104.5 15.929688 C 104.777344 15.929688 105 16.15625 105 16.429688 L 105 20.5 C 105 20.777344 104.777344 21 104.5 21 C 104.222656 21 104 20.777344 104 20.5 Z M 106 9.191406 C 106 8.914062 106.222656 8.691406 106.5 8.691406 C 106.777344 8.691406 107 8.914062 107 9.191406 L 107 20.5 C 107 20.777344 106.777344 21 106.5 21 C 106.222656 21 106 20.777344 106 20.5 Z M 108 5.570312 C 108 5.292969 108.222656 5.070312 108.5 5.070312 C 108.777344 5.070312 109 5.292969 109 5.570312 L 109 20.5 C 109 20.777344 108.777344 21 108.5 21 C 108.222656 21 108 20.777344 108 20.5 Z M 108 5.570312 "/>
<g clip-path="url(#clip2)" clip-rule="nonzero">
<rect x="0" y="0" width="110" height="110" style="fill:rgb(38.039216%,50.588235%,100%);fill-opacity:0.490196;stroke:none;"/>
</g>
<path style=" stroke:none;fill-rule:nonzero;fill:rgb(66.666667%,0%,100%);fill-opacity:0.490196;" d="M 0 45.207031 C 0 44.65625 0.449219 44.207031 1 44.207031 C 1.550781 44.207031 2 44.65625 2 45.207031 L 2 47 C 2 47.550781 1.550781 48 1 48 C 0.449219 48 0 47.550781 0 47 Z M 3 48 L 5 48 Z M 6 48 L 8 48 Z M 9 47.621094 C 9 47.410156 9.167969 47.242188 9.378906 47.242188 L 10.621094 47.242188 C 10.832031 47.242188 11 47.410156 11 47.621094 C 11 47.832031 10.832031 48 10.621094 48 L 9.378906 48 C 9.167969 48 9 47.832031 9 47.621094 Z M 12 43.691406 C 12 43.136719 12.449219 42.691406 13 42.691406 C 13.550781 42.691406 14 43.136719 14 43.691406 L 14 47 C 14 47.550781 13.550781 48 13 48 C 12.449219 48 12 47.550781 12 47 Z M 15 36.101562 C 15 35.550781 15.449219 35.101562 16 35.101562 C 16.550781 35.101562 17 35.550781 17 36.101562 L 17 47 C 17 47.550781 16.550781 48 16 48 C 15.449219 48 15 47.550781 15 47 Z M 18 32.308594 C 18 31.757812 18.449219 31.308594 19 31.308594 C 19.550781 31.308594 20 31.757812 20 32.308594 L 20 47 C 20 47.550781 19.550781 48 19 48 C 18.449219 48 18 47.550781 18 47 Z M 21 48 L 23 48 Z M 24 48 L 26 48 Z M 27 47.621094 C 27 47.410156 27.167969 47.242188 27.378906 47.242188 L 28.621094 47.242188 C 28.832031 47.242188 29 47.410156 29 47.621094 C 29 47.832031 28.832031 48 28.621094 48 L 27.378906 48 C 27.167969 48 27 47.832031 27 47.621094 Z M 30 46.722656 C 30 46.171875 30.449219 45.722656 31 45.722656 C 31.550781 45.722656 32 46.171875 32 46.722656 L 32 47 C 32 47.550781 31.550781 48 31 48 C 30.449219 48 30 47.550781 30 47 Z M 33 48 L 35 48 Z M 36 48 L 38 48 Z M 39 38.378906 C 39 37.828125 39.449219 37.378906 40 37.378906 C 40.550781 37.378906 41 37.828125 41 38.378906 L 41 47 C 41 47.550781 40.550781 48 40 48 C 39.449219 48 39 47.550781 39 47 Z M 42 36.101562 C 42 35.550781 42.449219 35.101562 43 35.101562 C 43.550781 35.101562 44 35.550781 44 36.101562 L 44 47 C 44 47.550781 43.550781 48 43 48 C 42.449219 48 42 47.550781 42 47 Z M 45 36.101562 C 45 35.550781 45.449219 35.101562 46 35.101562 C 46.550781 35.101562 47 35.550781 47 36.101562 L 47 47 C 47 47.550781 46.550781 48 46 48 C 45.449219 48 45 47.550781 45 47 Z M 48 27 C 48 26.449219 48.449219 26 49 26 C 49.550781 26 50 26.449219 50 27 L 50 47 C 50 47.550781 49.550781 48 49 48 C 48.449219 48 48 47.550781 48 47 Z M 51 34.585938 C 51 34.035156 51.449219 33.585938 52 33.585938 C 52.550781 33.585938 53 34.035156 53 34.585938 L 53 47 C 53 47.550781 52.550781 48 52 48 C 51.449219 48 51 47.550781 51 47 Z M 54 37.621094 C 54 37.070312 54.449219 36.621094 55 36.621094 C 55.550781 36.621094 56 37.070312 56 37.621094 L 56 47 C 56 47.550781 55.550781 48 55 48 C 54.449219 48 54 47.550781 54 47 Z M 57 40.65625 C 57 40.101562 57.449219 39.65625 58 39.65625 C 58.550781 39.65625 59 40.101562 59 40.65625 L 59 47 C 59 47.550781 58.550781 48 58 48 C 57.449219 48 57 47.550781 57 47 Z M 60 45.964844 C 60 45.414062 60.449219 44.964844 61 44.964844 C 61.550781 44.964844 62 45.414062 62 45.964844 L 62 47 C 62 47.550781 61.550781 48 61 48 C 60.449219 48 60 47.550781 60 47 Z M 63 44.449219 C 63 43.894531 63.449219 43.449219 64 43.449219 C 64.550781 43.449219 65 43.894531 65 44.449219 L 65 47 C 65 47.550781 64.550781 48 64 48 C 63.449219 48 63 47.550781 63 47 Z M 66 45.207031 C 66 44.65625 66.449219 44.207031 67 44.207031 C 67.550781 44.207031 68 44.65625 68 45.207031 L 68 47 C 68 47.550781 67.550781 48 67 48 C 66.449219 48 66 47.550781 66 47 Z M 69 46.722656 C 69 46.171875 69.449219 45.722656 70 45.722656 C 70.550781 45.722656 71 46.171875 71 46.722656 L 71 47 C 71 47.550781 70.550781 48 70 48 C 69.449219 48 69 47.550781 69 47 Z M 72 45.207031 C 72 44.65625 72.449219 44.207031 73 44.207031 C 73.550781 44.207031 74 44.65625 74 45.207031 L 74 47 C 74 47.550781 73.550781 48 73 48 C 72.449219 48 72 47.550781 72 47 Z M 75 48 L 77 48 Z M 78 48 L 80 48 Z M 81 47.621094 C 81 47.410156 81.167969 47.242188 81.378906 47.242188 L 82.621094 47.242188 C 82.832031 47.242188 83 47.410156 83 47.621094 C 83 47.832031 82.832031 48 82.621094 48 L 81.378906 48 C 81.167969 48 81 47.832031 81 47.621094 Z M 84 43.691406 C 84 43.136719 84.449219 42.691406 85 42.691406 C 85.550781 42.691406 86 43.136719 86 43.691406 L 86 47 C 86 47.550781 85.550781 48 85 48 C 84.449219 48 84 47.550781 84 47 Z M 87 36.101562 C 87 35.550781 87.449219 35.101562 88 35.101562 C 88.550781 35.101562 89 35.550781 89 36.101562 L 89 47 C 89 47.550781 88.550781 48 88 48 C 87.449219 48 87 47.550781 87 47 Z M 90 32.308594 C 90 31.757812 90.449219 31.308594 91 31.308594 C 91.550781 31.308594 92 31.757812 92 32.308594 L 92 47 C 92 47.550781 91.550781 48 91 48 C 90.449219 48 90 47.550781 90 47 Z M 93 48 L 95 48 Z M 96 48 L 98 48 Z M 99 47.621094 C 99 47.410156 99.167969 47.242188 99.378906 47.242188 L 100.621094 47.242188 C 100.832031 47.242188 101 47.410156 101 47.621094 C 101 47.832031 100.832031 48 100.621094 48 L 99.378906 48 C 99.167969 48 99 47.832031 99 47.621094 Z M 102 46.722656 C 102 46.171875 102.449219 45.722656 103 45.722656 C 103.550781 45.722656 104 46.171875 104 46.722656 L 104 47 C 104 47.550781 103.550781 48 103 48 C 102.449219 48 102 47.550781 102 47 Z M 105 48 L 107 48 Z M 108 48 L 110 48 Z M 108 48 "/>
<g clip-path="url(#clip3)" clip-rule="nonzero">
<rect x="0" y="0" width="110" height="110" style="fill:rgb(38.039216%,50.588235%,100%);fill-opacity:0.490196;stroke:none;"/>
</g>
<path style=" stroke:none;fill-rule:nonzero;fill:rgb(66.666667%,0%,100%);fill-opacity:0.490196;" d="M 0 71.878906 C 0 71.050781 0.671875 70.378906 1.5 70.378906 C 2.328125 70.378906 3 71.050781 3 71.878906 L 3 72.5 C 3 73.328125 2.328125 74 1.5 74 C 0.671875 74 0 73.328125 0 72.5 Z M 4 74 L 7 74 Z M 8 74 L 11 74 Z M 12 73.636719 C 12 73.4375 12.160156 73.277344 12.363281 73.277344 L 14.636719 73.277344 C 14.839844 73.277344 15 73.4375 15 73.636719 C 15 73.839844 14.839844 74 14.636719 74 L 12.363281 74 C 12.160156 74 12 73.839844 12 73.636719 Z M 16 70.429688 C 16 69.601562 16.671875 68.929688 17.5 68.929688 C 18.328125 68.929688 19 69.601562 19 70.429688 L 19 72.5 C 19 73.328125 18.328125 74 17.5 74 C 16.671875 74 16 73.328125 16 72.5 Z M 20 63.191406 C 20 62.359375 20.671875 61.691406 21.5 61.691406 C 22.328125 61.691406 23 62.359375 23 63.191406 L 23 72.5 C 23 73.328125 22.328125 74 21.5 74 C 20.671875 74 20 73.328125 20 72.5 Z M 24 59.570312 C 24 58.742188 24.671875 58.070312 25.5 58.070312 C 26.328125 58.070312 27 58.742188 27 59.570312 L 27 72.5 C 27 73.328125 26.328125 74 25.5 74 C 24.671875 74 24 73.328125 24 72.5 Z M 28 74 L 31 74 Z M 32 74 L 35 74 Z M 36 73.636719 C 36 73.4375 36.160156 73.277344 36.363281 73.277344 L 38.636719 73.277344 C 38.839844 73.277344 39 73.4375 39 73.636719 C 39 73.839844 38.839844 74 38.636719 74 L 36.363281 74 C 36.160156 74 36 73.839844 36 73.636719 Z M 40 72.914062 C 40 72.3125 40.484375 71.828125 41.085938 71.828125 L 41.914062 71.828125 C 42.515625 71.828125 43 72.3125 43 72.914062 C 43 73.515625 42.515625 74 41.914062 74 L 41.085938 74 C 40.484375 74 40 73.515625 40 72.914062 Z M 44 74 L 47 74 Z M 48 74 L 51 74 Z M 52 65.363281 C 52 64.535156 52.671875 63.863281 53.5 63.863281 C 54.328125 63.863281 55 64.535156 55 65.363281 L 55 72.5 C 55 73.328125 54.328125 74 53.5 74 C 52.671875 74 52 73.328125 52 72.5 Z M 56 63.191406 C 56 62.359375 56.671875 61.691406 57.5 61.691406 C 58.328125 61.691406 59 62.359375 59 63.191406 L 59 72.5 C 59 73.328125 58.328125 74 57.5 74 C 56.671875 74 56 73.328125 56 72.5 Z M 60 63.191406 C 60 62.359375 60.671875 61.691406 61.5 61.691406 C 62.328125 61.691406 63 62.359375 63 63.191406 L 63 72.5 C 63 73.328125 62.328125 74 61.5 74 C 60.671875 74 60 73.328125 60 72.5 Z M 64 54.5 C 64 53.671875 64.671875 53 65.5 53 C 66.328125 53 67 53.671875 67 54.5 L 67 72.5 C 67 73.328125 66.328125 74 65.5 74 C 64.671875 74 64 73.328125 64 72.5 Z M 68 61.742188 C 68 60.914062 68.671875 60.242188 69.5 60.242188 C 70.328125 60.242188 71 60.914062 71 61.742188 L 71 72.5 C 71 73.328125 70.328125 74 69.5 74 C 68.671875 74 68 73.328125 68 72.5 Z M 72 64.636719 C 72 63.808594 72.671875 63.136719 73.5 63.136719 C 74.328125 63.136719 75 63.808594 75 64.636719 L 75 72.5 C 75 73.328125 74.328125 74 73.5 74 C 72.671875 74 72 73.328125 72 72.5 Z M 76 67.535156 C 76 66.707031 76.671875 66.035156 77.5 66.035156 C 78.328125 66.035156 79 66.707031 79 67.535156 L 79 72.5 C 79 73.328125 78.328125 74 77.5 74 C 76.671875 74 76 73.328125 76 72.5 Z M 80 72.550781 C 80 71.75 80.648438 71.101562 81.449219 71.101562 L 81.550781 71.101562 C 82.351562 71.101562 83 71.75 83 72.550781 C 83 73.351562 82.351562 74 81.550781 74 L 81.449219 74 C 80.648438 74 80 73.351562 80 72.550781 Z M 84 71.15625 C 84 70.328125 84.671875 69.65625 85.5 69.65625 C 86.328125 69.65625 87 70.328125 87 71.15625 L 87 72.5 C 87 73.328125 86.328125 74 85.5 74 C 84.671875 74 84 73.328125 84 72.5 Z M 88 71.878906 C 88 71.050781 88.671875 70.378906 89.5 70.378906 C 90.328125 70.378906 91 71.050781 91 71.878906 L 91 72.5 C 91 73.328125 90.328125 74 89.5 74 C 88.671875 74 88 73.328125 88 72.5 Z M 92 72.914062 C 92 72.3125 92.484375 71.828125 93.085938 71.828125 L 93.914062 71.828125 C 94.515625 71.828125 95 72.3125 95 72.914062 C 95 73.515625 94.515625 74 93.914062 74 L 93.085938 74 C 92.484375 74 92 73.515625 92 72.914062 Z M 96 71.878906 C 96 71.050781 96.671875 70.378906 97.5 70.378906 C 98.328125 70.378906 99 71.050781 99 71.878906 L 99 72.5 C 99 73.328125 98.328125 74 97.5 74 C 96.671875 74 96 73.328125 96 72.5 Z M 100 74 L 103 74 Z M 104 74 L 107 74 Z M 108 73.636719 C 108 73.4375 108.160156 73.277344 108.363281 73.277344 L 110.636719 73.277344 C 110.839844 73.277344 111 73.4375 111 73.636719 C 111 73.839844 110.839844 74 110.636719 74 L 108.363281 74 C 108.160156 74 108 73.839844 108 73.636719 Z M 108 73.636719 "/>
<g clip-path="url(#clip4)" clip-rule="nonzero">
<rect x="0" y="0" width="110" height="110" style="fill:rgb(38.039216%,50.588235%,100%);fill-opacity:0.490196;stroke:none;"/>
</g>
<path style=" stroke:none;fill-rule:nonzero;fill:rgb(66.666667%,0%,100%);fill-opacity:0.490196;" d="M 0 98.191406 C 0 97.191406 0.808594 96.378906 1.808594 96.378906 L 8.191406 96.378906 C 9.191406 96.378906 10 97.191406 10 98.191406 C 10 99.191406 9.191406 100 8.191406 100 L 1.808594 100 C 0.808594 100 0 99.191406 0 98.191406 Z M 11 100 L 21 100 Z M 22 100 L 32 100 Z M 33 99.636719 C 33 99.4375 33.160156 99.277344 33.363281 99.277344 L 42.636719 99.277344 C 42.839844 99.277344 43 99.4375 43 99.636719 C 43 99.839844 42.839844 100 42.636719 100 L 33.363281 100 C 33.160156 100 33 99.839844 33 99.636719 Z M 44 96.929688 C 44 95.828125 44.894531 94.929688 46 94.929688 L 52 94.929688 C 53.105469 94.929688 54 95.828125 54 96.929688 L 54 98 C 54 99.105469 53.105469 100 52 100 L 46 100 C 44.894531 100 44 99.105469 44 98 Z M 55 89.691406 C 55 88.585938 55.894531 87.691406 57 87.691406 L 63 87.691406 C 64.105469 87.691406 65 88.585938 65 89.691406 L 65 98 C 65 99.105469 64.105469 100 63 100 L 57 100 C 55.894531 100 55 99.105469 55 98 Z M 66 86.070312 C 66 84.964844 66.894531 84.070312 68 84.070312 L 74 84.070312 C 75.105469 84.070312 76 84.964844 76 86.070312 L 76 98 C 76 99.105469 75.105469 100 74 100 L 68 100 C 66.894531 100 66 99.105469 66 98 Z M 77 100 L 87 100 Z M 88 100 L 98 100 Z M 99 99.636719 C 99 99.4375 99.160156 99.277344 99.363281 99.277344 L 108.636719 99.277344 C 108.839844 99.277344 109 99.4375 109 99.636719 C 109 99.839844 108.839844 100 108.636719 100 L 99.363281 100 C 99.160156 100 99 99.839844 99 99.636719 Z M 99 99.636719 "/>
</g>
</svg>
