<?xml version="1.0" encoding="UTF-8"?>
<?xml-stylesheet href="../ldoc.css" type="text/css"?>
<svg xmlns="http://www.w3.org/2000/svg" xmlns:xlink="http://www.w3.org/1999/xlink" width="288pt" height="76pt" viewBox="0 0 288 76" version="1.1">
<defs>
<clipPath id="clip1">
  <path d="M 105 9 L 172 9 L 172 76 L 105 76 Z M 105 9 "/>
</clipPath>
<clipPath id="clip2">
  <path d="M 192 0 L 268 0 L 268 76 L 192 76 Z M 192 0 "/>
</clipPath>
</defs>
<g id="surface2">
<path style="fill-rule:nonzero;fill:rgb(38.039216%,50.588235%,100%);fill-opacity:0.5;stroke-width:2;stroke-linecap:butt;stroke-linejoin:miter;stroke:rgb(38.039216%,50.588235%,100%);stroke-opacity:1;stroke-miterlimit:10;" d="M 70 35 C 70 54.328125 54.328125 70 35 70 L 35 60 C 48.808594 60 60 48.808594 60 35 Z M 70 35 " transform="matrix(1,0,0,1,3,3)"/>
<path style=" stroke:none;fill-rule:nonzero;fill:rgb(38.039216%,50.588235%,100%);fill-opacity:0.5;" d="M 158.652344 42.148438 C 159.757812 35.574219 169.621094 37.230469 168.515625 43.804688 C 166.039062 58.515625 154.515625 70.039062 139.804688 72.515625 C 133.230469 73.621094 131.574219 63.757812 138.148438 62.652344 C 148.652344 60.886719 156.886719 52.652344 158.652344 42.148438 Z M 158.652344 42.148438 "/>
<g clip-path="url(#clip1)" clip-rule="nonzero">
<path style="fill:none;stroke-width:2;stroke-linecap:butt;stroke-linejoin:miter;stroke:rgb(38.039216%,50.588235%,100%);stroke-opacity:1;stroke-miterlimit:10;" d="M 59.652344 39.148438 C 60.757812 32.574219 70.621094 34.230469 69.515625 40.804688 C 67.039062 55.515625 55.515625 67.039062 40.804688 69.515625 C 34.230469 70.621094 32.574219 60.757812 39.148438 59.652344 C 49.652344 57.886719 57.886719 49.652344 59.652344 39.148438 Z M 59.652344 39.148438 " transform="matrix(1,0,0,1,99,3)"/>
</g>
<path style=" stroke:none;fill-rule:nonzero;fill:rgb(38.039216%,50.588235%,100%);fill-opacity:0.5;" d="M 265 38 C 265 57.328125 249.328125 73 230 73 C 210.671875 73 195 57.328125 195 38 C 195 18.671875 210.671875 3 230 3 C 249.328125 3 265 18.671875 265 38 L 247.5 38 C 247.5 28.335938 239.664062 20.5 230 20.5 C 220.335938 20.5 212.5 28.335938 212.5 38 C 212.5 47.664062 220.335938 55.5 230 55.5 C 239.664062 55.5 247.5 47.664062 247.5 38 Z M 265 38 "/>
<g clip-path="url(#clip2)" clip-rule="nonzero">
<path style="fill:none;stroke-width:2;stroke-linecap:butt;stroke-linejoin:miter;stroke:rgb(38.039216%,50.588235%,100%);stroke-opacity:1;stroke-miterlimit:10;" d="M 70 35 C 70 54.328125 54.328125 70 35 70 C 15.671875 70 0 54.328125 0 35 C 0 15.671875 15.671875 0 35 0 C 54.328125 0 70 15.671875 70 35 L 52.5 35 C 52.5 25.335938 44.664062 17.5 35 17.5 C 25.335938 17.5 17.5 25.335938 17.5 35 C 17.5 44.664062 25.335938 52.5 35 52.5 C 44.664062 52.5 52.5 44.664062 52.5 35 Z M 70 35 " transform="matrix(1,0,0,1,195,3)"/>
</g>
</g>
</svg>
