#define close_width 11
#define close_height 11
static unsigned char close_bits[] = {
   0x00, 0x01, 0x00, 0x03, 0x70, 0x07, 0xf8, 0x00, 0xfc, 0x01, 0xfc, 0x01,
   0xfc, 0x01, 0xf8, 0x00, 0x77, 0x00, 0x06, 0x00, 0x04, 0x00 };
