#define iconify_width 11
#define iconify_height 11
static unsigned char iconify_bits[] = {
   0xc0, 0x01, 0xe0, 0x03, 0xf0, 0x07, 0xf0, 0x07, 0xf0, 0x07, 0xf0, 0x03,
   0xf8, 0x01, 0x1c, 0x00, 0x0e, 0x00, 0x07, 0x00, 0x03, 0x00 };
