#define max_width 11
#define max_height 11
static unsigned char max_bits[] = {
   0xf8, 0x00, 0x1c, 0x01, 0x3e, 0x02, 0x7f, 0x04, 0x7f, 0x06, 0x27, 0x07,
   0xf3, 0x07, 0xf1, 0x07, 0xe2, 0x03, 0xc4, 0x01, 0xf8, 0x00 };
