#define close_width 11
#define close_height 11
static unsigned char close_bits[] = {
   0xdc, 0x01, 0xfe, 0x03, 0xff, 0x07, 0xff, 0x07, 0xdf, 0x07, 0x8e, 0x03,
   0xdf, 0x07, 0xff, 0x07, 0xff, 0x07, 0xfe, 0x03, 0xdc, 0x01 };
