#define dot_width 9
#define dot_height 9
static unsigned char dot_bits[] = {
   0x00, 0x00, 0x00, 0x00, 0x38, 0x00, 0x7c, 0x00, 0x7c, 0x00, 0x7c, 0x00,
   0x38, 0x00, 0x00, 0x00, 0x00, 0x00 };
